<?xml version="1.0" encoding="UTF-8"?>
<svg viewBox="0 0 150 150" xmlns="http://www.w3.org/2000/svg">
<path transform="translate(0 6)" d="m73.16 0.41141c3.2694-1.7088 7.26 2.2555 5.52 5.5299-1.0086 2.6687-4.8336 3.3785-6.7872 1.3443-2.0676-1.953-1.3926-5.812 1.2672-6.8742zm-35.164 3.7989c1.986-0.81981 4.5 1.0045 4.2972 3.1746 0.2106 2.3554-2.6622 4.09-4.6866 2.9701-2.682-1.0411-2.3754-5.406 0.3894-6.144v-6.0147e-4zm72.02 6.2108c-3.1038-0.37592-3.5946-5.2671-0.6066-6.2553 2.3178-1.1332 4.4436 0.99183 4.7826 3.1938-0.486 1.8802-2.0568 3.6022-4.176 3.0585v0.0030073zm-64.02 8.7899c3.3204-2.1051 8.058 1.0297 7.5474 4.896-0.1722 3.9035-5.3448 6.1651-8.2626 3.5258-2.82-2.0727-2.394-6.8285 0.7152-8.4206v-0.001203zm50.686 2.2351c1.4826-3.823 7.485-3.9432 9.171-0.21412 1.6662 2.8991-0.3834 6.4893-3.3522 7.4745-3.933 0.7362-7.6686-3.5258-5.817-7.2574l-0.0018-0.0030073zm-27.756 7.042c-0.0324-3.2894 2.9562-5.7404 6.075-5.9642 2.0682 0.41562 4.323 1.2992 5.2104 3.3917 1.6536 2.8871 0.1854 6.8604-2.8026 8.1854-1.3662 0.76748-2.982 0.48118-4.47 0.39035-2.2746-1.1193-4.1904-3.3147-4.0122-6.0027l-6e-4 -6.015e-4zm-52.294 4.7925c3.033-1.8694 7.125 1.5422 5.9766 4.8449-0.6324 2.857-4.4634 4.019-6.6534 2.1954-2.34-1.7088-1.9674-5.818 0.6768-7.0402zm112.29-0.0060147c2.5734-2.0029 6.8196 0.29472 6.513 3.5487 0.1728 2.9701-3.4986 5.2093-6.0534 3.6804-2.8134-1.2673-3.1002-5.6063-0.4596-7.2321v0.0030074zm-45.294 5.9101c4.2462-1.5289 9.2904 0.30074 11.711 4.096 3.1926 4.6397 1.494 11.705-3.4608 14.367-5.1336 3.1487-12.63 0.48118-14.526-5.2671-2.1528-5.145 0.9834-11.584 6.276-13.196zm-24.915 0.50945c4.7064-2.2254 11.04-0.36088 13.313 4.4671 2.6754 4.6975 0.6066 11.238-4.176 13.664-4.7886 2.7265-11.545 0.66162-13.86-4.3841-2.601-4.8767-0.2934-11.501 4.7226-13.747zm-24.947 8.5499c0.36-3.0398 3.2184-5.0175 6.1044-5.2226 3.1098 0.37592 5.5938 2.7968 5.9316 5.9546-0.204 3.1228-2.6118 6.1759-5.913 6.1567-3.6324 0.31337-6.8166-3.3081-6.123-6.8862v-0.0024059zm73.686-4.5592c3.729-2.1761 8.907 0.99183 8.7414 5.2863 0.2556 4.5501-5.475 7.759-9.1884 5.0878-3.8574-2.2224-3.5568-8.4807 0.447-10.374v-6.015e-4zm-58.878 16.035c4.3614-1.2029 9.348 0.8577 11.487 4.8761 2.34 4.0449 1.3854 9.6638-2.2536 12.631-4.6674 4.3516-13.275 2.6044-15.759-3.3346-2.8542-5.4439 0.6126-12.74 6.5256-14.173v6.015e-4zm47.257-0.022856c4.2396-1.2156 9.2202 0.42103 11.5 4.2945 3.0138 4.4286 1.575 11.033-2.9112 13.888-4.6998 3.3147-11.979 1.5741-14.565-3.6088-3.135-5.3615 0.0198-12.938 5.9766-14.574zm-75.308 5.0524c3.7674-1.4285 7.9434 2.7391 6.417 6.4833-0.9318 3.4103-5.727 4.6734-8.2044 2.1569-2.8986-2.3614-1.8252-7.6158 1.788-8.6401h-6e-4zm102.11 5.4337c-0.1086-3.1277 2.175-5.9004 5.376-6.0749 2.58 0.4096 5.0886 2.4961 4.8846 5.3116 0.2364 3.7189-4.2336 6.2463-7.3944 4.499-1.4814-0.75485-2.241-2.2778-2.8662-3.7375v0.0018044zm-120.64-3.5998c2.2662-0.99183 5.07 0.97739 4.5528 3.5006-0.12 2.857-4.329 3.9553-5.8746 1.568-1.3662-1.6546-0.549-4.2109 1.3218-5.0686zm142.91-0.060147c1.596-1.1392 4.1568-0.32058 4.7886 1.5488 1.0728 2.0414-0.894 4.8382-3.186 4.493-3.2178 0.29412-4.26-4.6217-1.6026-6.0418zm-84.022 13.714c5.964-1.5548 12.375 3.4284 12.413 9.5868 0.3894 6.2204-5.925 11.737-12.03 10.3-4.719-0.76146-8.4216-5.3182-8.2686-10.099-0.0126-4.5712 3.429-8.8212 7.8864-9.7883h-6e-4zm23.62-0.012631c6.0534-1.6961 12.655 3.3785 12.559 9.6771 0.3198 6.1055-5.7978 11.436-11.775 10.225-5.625-0.72898-9.7752-6.9241-8.205-12.396 0.7926-3.6461 3.8316-6.6114 7.4208-7.5058zm-45.54 3.7893c4.1886-0.71635 8.1156 3.9697 6.417 7.9551-1.239 4.2488-7.407 5.4012-10.134 1.9307-3.1986-3.3328-0.8106-9.4257 3.717-9.8858zm69.266 0.19307c3.735-1.568 8.3196 1.6703 8.0322 5.7344 0.15 4.4737-5.5104 7.5581-9.1626 4.9471-4.14-2.3457-3.384-9.2428 1.1304-10.682zm19.361 19.467c-1.4622-2.7331 1.194-6.3551 4.221-5.8493 1.5066-0.025262 2.5608 1.1644 3.525 2.1653 0.198 1.6198 0.5304 3.5487-0.8106 4.7997-1.821 2.3103-5.946 1.651-6.9354-1.1133v-0.002406zm-110.97-5.0878c2.829-1.888 6.9 0.92747 6.264 4.2434-0.3384 2.9322-4.02 4.6079-6.45 2.9472-2.6046-1.5103-2.5086-5.8108 0.186-7.1876v-0.0030074zm55.89 6.141c3.7038-1.6384 8.4216 1.5939 8.0706 5.6833 0.2748 4.5183-5.5614 7.6477-9.18 4.9321-4.02-2.3301-3.3516-9.1845 1.1118-10.617l-0.0024 0.001805zm-25.89 6.0508c3.1542-1.6637 7.3878 1.2096 7.1004 4.7516 0.096 2.9057-2.733 5.3826-5.5938 4.9531-2.3694-0.051125-3.9144-2.1803-4.674-4.2049 0.039-2.2068 0.945-4.6644 3.1674-5.4968v-0.003008zm52.436 0.054133c3.2436-2.0095 7.854 0.87694 7.5474 4.6614 0.0834 3.9553-5.127 6.4893-8.1474 3.8909-2.9244-2.0366-2.5674-6.9326 0.6-8.5523zm9.12 22.598c-1.44-2.1888 0.2556-4.8256 2.5986-5.3242 1.884 0.38434 3.876 1.8044 3.48 3.9938-0.2748 2.9628-4.5978 3.8723-6.0786 1.3305zm-72.383-1.9006c0.5748-1.7346 1.9668-3.4585 4.0038-3.0074 2.9694 0.21112 3.8508 4.6975 1.2516 6.0803-2.337 1.5795-5.0484-0.58343-5.2554-3.0729zm34.92 1.9903c0.5688-2.5659 3.882-3.8139 6.066-2.451 1.44 0.62132 1.8642 2.2399 2.235 3.6154-0.198 0.71635-0.375 1.4339-0.549 2.1503-0.894 1.0622-2.04 2.125-3.531 2.0865-2.7654 0.32479-5.2596-2.8089-4.221-5.4012z" fill="#3CC8C8"/>
</svg>
