<?xml version="1.0" encoding="UTF-8"?>
<svg viewBox="0 0 150 150" xmlns="http://www.w3.org/2000/svg">
<circle cx="75" cy="75" r="75" fill="#2E3148"/>
<circle cx="75" cy="75" r="43.519" fill="#1B1E36"/>
<path d="m75.154 9.5682c-8.0958 0-14.66 29.364-14.66 65.587s6.5646 65.587 14.66 65.587 14.66-29.364 14.66-65.587-6.5646-65.587-14.66-65.587zm1.0122 127.47c-0.9258 1.2348-1.8516 0.3084-1.8516 0.3084-3.7284-4.32-5.5926-12.346-5.5926-12.346-6.5214-20.987-4.9692-66.049-4.9692-66.049 3.0648-35.774 8.64-44.225 10.537-46.102 0.39995-0.39529 1.0261-0.44591 1.4844-0.12 2.7528 1.9506 5.0616 10.108 5.0616 10.108 6.8178 25.309 6.2004 49.074 6.2004 49.074 0.6174 20.679-3.4164 43.827-3.4164 43.827-3.105 17.592-7.4538 21.299-7.4538 21.299z" fill="#6F7390"/>
<path d="m132.04 42.515c-4.0308-7.0248-32.765 1.8948-64.2 19.92s-53.608 38.333-49.58 45.355 32.765-1.8948 64.2-19.92 53.608-38.333 49.58-45.355zm-110.06 64.312c-1.5432-0.1944-1.1946-1.4628-1.1946-1.4628 1.893-5.3826 7.917-10.994 7.917-10.994 14.966-16.102 54.827-37.179 54.827-37.179 32.552-15.145 42.664-14.506 45.229-13.8 0.54362 0.15174 0.89852 0.67345 0.84 1.2348-0.3084 3.36-6.2502 9.42-6.2502 9.42-18.547 18.515-39.47 29.809-39.47 29.809-17.63 10.83-39.716 18.845-39.716 18.845-16.805 6.0558-22.182 4.1268-22.182 4.1268h-6e-4z" fill="#6F7390"/>
<path d="m131.9 108.02c4.062-7.0062-18.056-27.407-49.38-45.568s-60.055-27.191-64.114-20.173 18.056 27.407 49.398 45.568 60.037 27.191 64.096 20.173zm-110.8-63.034c-0.6-1.4226 0.6666-1.7652 0.6666-1.7652 5.6076-1.059 13.484 1.3542 13.484 1.3542 21.429 4.8798 59.64 28.815 59.64 28.815 29.42 20.587 33.932 29.654 34.608 32.228 0.14197 0.54505-0.12905 1.1132-0.642 1.3458-3.0678 1.4046-11.284-0.6882-11.284-0.6882-25.324-6.7902-45.577-19.231-45.577-19.231-18.197-9.8148-36.191-24.917-36.191-24.917-13.673-11.512-14.7-17.126-14.7-17.126l-0.0042-0.0156z" fill="#6F7390"/>
<circle cx="75" cy="75" r="7.716" fill="#B7B9C8"/>
<ellipse cx="106.64" cy="45.37" rx="4.475" ry="4.63" fill="#B7B9C8"/>
<ellipse cx="33.179" cy="61.111" rx="4.475" ry="4.63" fill="#B7B9C8"/>
<ellipse cx="65.895" cy="117.9" rx="4.475" ry="4.63" fill="#B7B9C8"/>
</svg>
