<?xml version="1.0" encoding="UTF-8"?>
<svg viewBox="0 0 150 150" xmlns="http://www.w3.org/2000/svg">
<path transform="translate(0 .052)" d="m75.008 0.058908c-19.872 0-38.92 7.8706-53.021 21.908-14.018 14.037-21.934 33.105-21.934 52.985 0 19.879 7.916 38.947 21.934 52.985 14.018 14.037 33.148 21.908 53.021 21.908s38.92-7.8706 53.021-21.908c14.018-14.037 21.934-33.105 21.934-52.985 0-19.879-7.916-38.947-21.934-52.985-14.018-14.037-33.148-21.908-53.021-21.908z" fill="#2CB401"/>
<path transform="translate(37.135 27.813)" d="m63.006 22.454c-3.3808-9.4934-12.616-10.629-23.418-8.9254l-3.3808-13.469-8.2458 2.0285 3.2983 13.145c-2.1439 0.56798-4.3703 1.136-6.5142 1.7039l-3.2983-13.226-8.2458 2.0285 3.3808 13.469c-1.7316 0.48684-3.5457 0.97368-5.1949 1.3794v-0.08114l-11.379 2.8399 2.2264 8.7632s6.0195-1.6228 5.937-1.4605c3.2983-0.8114 4.865 0.8114 5.6072 2.4342l3.8755 15.417c0.32983-0.08114 0.57721-0.16228 0.90704-0.16228l-0.90704 0.24342 5.3598 21.583c0.082458 1.0548-0.082458 2.9211-2.3913 3.489 0.16492 0.08114-6.0195 1.4605-6.0195 1.4605l0.82458 10.224 10.72-2.6776c1.979-0.48684 3.958-0.97368 5.8545-1.3794l3.3808 13.632 8.2458-2.0285-3.3808-13.55c2.3088-0.48684 4.4528-1.0548 6.5967-1.5417l3.3808 13.469 8.2458-2.0285-3.3808-13.632c13.606-4.2193 22.429-10.143 20.367-23.45-1.6492-10.711-7.7511-14.118-16.079-14.037 4.2054-3.6513 6.1019-8.682 3.6282-15.66zm-4.2054 32.05c2.5562 10.224-15.255 13.388-20.78 14.768l-4.5352-18.094c5.6072-1.2982 22.676-7.2215 25.315 3.3268zm-10.142-24.504c2.3088 9.25-12.534 11.846-17.151 12.982l-4.1229-16.39c4.6177-1.2171 18.801-6.3289 21.274 3.4079z" fill="#FFF"/>
</svg>
