<?xml version="1.0" encoding="UTF-8"?>
<svg viewBox="0 0 150 150" xmlns="http://www.w3.org/2000/svg">
<g fill="#F3BA2F">
<path d="m45.846 63.032 29.115-29.129 29.13 29.144 16.942-16.95-46.072-46.096-46.056 46.082 16.941 16.95zm-45.846 11.966 16.942-16.951 16.941 16.949-16.942 16.95-16.941-16.949zm45.846 11.971 29.115 29.129 29.13-29.144 16.951 16.941-0.008246 9e-3 -46.072 46.096-46.058-46.08-0.023988-0.024 16.966-16.928zm70.197-11.962 16.942-16.95 16.941 16.949-16.942 16.951-16.941-16.949z"/>
<polyline points="92.145 74.991 92.153 74.991 74.962 57.791 62.257 70.502 62.256 70.502 60.797 71.963 57.786 74.976 57.762 74.999 57.786 75.024 74.962 92.209 92.153 75.009 92.161 74.999 92.145 74.991"/>
</g>
</svg>
