<?xml version="1.0" encoding="UTF-8"?>
<svg viewBox="0 0 150 150" xmlns="http://www.w3.org/2000/svg">
<circle cx="75" cy="75" r="75" fill="#F7931A"/>
<path d="m108.7 65.719c1.4719-9.825-6.0141-15.108-16.242-18.633l3.3188-13.312-8.1-2.0156-3.2344 12.961c-2.1281-0.53438-4.3125-1.0312-6.4922-1.5281l3.2578-13.045-8.1-2.0203-3.3188 13.308c-1.7625-0.40312-3.4969-0.79688-5.175-1.2188l0.009375-0.042188-11.175-2.7891-2.1562 8.6531s6.0141 1.3781 5.8875 1.4625c3.2812 0.82031 3.8719 2.9906 3.7734 4.7156l-3.7781 15.164c0.225 0.05625 0.51562 0.14062 0.84375 0.26719l-0.85781-0.21094-5.2969 21.244c-0.40312 0.99375-1.4203 2.4891-3.7172 1.9219 0.084375 0.11719-5.8875-1.4672-5.8875-1.4672l-4.0219 9.2719 10.547 2.6297c1.9594 0.49219 3.8812 1.0078 5.7703 1.4906l-3.3516 13.462 8.0953 2.0156 3.3188-13.312c2.2125 0.59531 4.3594 1.1484 6.4594 1.6734l-3.3094 13.256 8.1 2.0156 3.3516-13.434c13.819 2.6156 24.206 1.5609 28.58-10.936 3.525-10.059-0.17344-15.867-7.4438-19.65 5.2969-1.2188 9.2812-4.7016 10.345-11.897zm-18.516 25.959c-2.4984 10.064-19.444 4.6219-24.938 3.2578l4.4531-17.836c5.4938 1.3734 23.105 4.0875 20.484 14.578zm2.5078-26.105c-2.2828 9.1547-16.383 4.5-20.953 3.3609l4.0312-16.172c4.5703 1.1391 19.303 3.2625 16.922 12.811z" fill="#FFF"/>
</svg>
