<?xml version="1.0" encoding="UTF-8"?>
<svg viewBox="0 0 150 150" xmlns="http://www.w3.org/2000/svg">
<path transform="translate(29)" d="m32.402 94.005-32.402-32.305v38.826h29.863c0.34866-2.3275 1.2127-4.5567 2.5391-6.5214zm-2.5391 12.892h-29.863c0.68973 10.111 4.6614 19.73 11.316 27.401l21.086-21.257c-1.3416-1.8136-2.2132-3.9219-2.5391-6.1436zm47.099-38.29c-7.6098-6.7557-17.296-10.73-27.476-11.29v29.743c2.289 0.37028 4.4643 1.2166 6.3895 2.5013l21.086-20.955zm-16.159 44.123 21.086 21.023c6.5335-7.5642 10.422-17.048 11.081-27.015h-30.015c-0.35623 2.1083-1.0839 4.1335-2.1526 5.9924zm2.1601-12.196h29.863c-0.68973-10.111-4.6614-19.73-11.316-27.401l-21.094 21.098c1.3264 1.8741 2.198 4.0353 2.5467 6.3023zm-47.144 38.176c7.6174 6.7557 17.304 10.73 27.483 11.282v-29.811c-2.289-0.37028-4.4643-1.2166-6.3895-2.5013l-21.094 21.03zm33.668-18.537v29.773c10.179-0.6801 19.843-4.7003 27.483-11.441l-20.942-20.879c-1.9858 1.2771-4.2066 2.1385-6.5411 2.5466zm-49.486-68.101c8.0039 7.9798 33.1 33.227 37.329 37.368 1.8039-1.1108 3.7822-1.9194 5.8513-2.3804v-48.612l-43.104-38.448c-0.075795 0-0.075795 50.652-0.075795 52.073z" fill="#35BAEB"/>
</svg>
