<?xml version="1.0" encoding="UTF-8"?>
<svg viewBox="0 0 150 150" xmlns="http://www.w3.org/2000/svg">
<circle cx="75" cy="75" r="75"/>
<g transform="translate(18.75 14.063)" fill="#FFF">
<path d="m111.3 49.402c-0.74137-3.6009-1.8373-7.1197-3.2719-10.505-1.4137-3.3342-3.1435-6.5253-5.1656-9.5297-2.0051-2.9682-4.2923-5.7358-6.8297-8.2641-2.5298-2.5376-5.2989-4.8248-8.2688-6.8297-3.0089-2.012-6.1975-3.7412-9.525-5.1656-13.904-5.8969-29.606-5.8969-43.509 0-6.6541 2.8067-12.698 6.8826-17.794 12-2.5372 2.5268-4.8243 5.2928-6.8297 8.2594-2.0122 3.0104-3.7415 6.2005-5.1656 9.5297-5.8969 13.904-5.8969 29.606 0 43.509 1.3781 3.3281 3.1594 6.4828 5.1656 9.525 2.0052 2.9696 4.2924 5.7386 6.8297 8.2688 2.5298 2.5376 5.2989 4.8248 8.2688 6.8297 2.9812 2.0062 6.1969 3.7312 9.525 5.1656 13.904 5.8969 29.606 5.8969 43.509 0 3.3281-1.3781 6.4828-3.1594 9.525-5.1656 2.9698-2.0049 5.739-4.2921 8.2688-6.8297 2.5376-2.5298 4.8248-5.2989 6.8297-8.2688 2.0062-2.9812 3.7312-6.1969 5.1656-9.525 4.4158-10.414 5.557-21.926 3.2719-33.005zm-54.764 60.211c-27.033 0-48.9-21.928-48.9-48.905s21.928-48.905 48.9-48.905c26.977 0 48.905 21.928 48.905 48.905s-21.923 48.905-48.905 48.905z"/>
<path d="m57.398 105.37h1.3219c0.22969 0 0.45469 0 0.68438-0.060988h0.060938c0.22969 0 0.39844 0 0.62812-0.05625h0.17344c0.17344 0 0.34688 0 0.51562-0.05625h0.17344c0.17344 0 0.34688-0.05625 0.57656-0.05625h0.1125c0.22969 0 0.45938-0.060937 0.68906-0.060937s0.40312-0.05625 0.63281-0.1125h0.1125c0.17344 0 0.34688-0.05625 0.51562-0.05625h0.11719c0.22969-0.060938 0.40312-0.060938 0.63281-0.11719 0.45469-0.05625 0.91406-0.17344 1.3172-0.28594h0.11719c0.16875-0.05625 0.39844-0.05625 0.57188-0.11719h0.05625c0.45938-0.1125 0.8625-0.22969 1.3219-0.34219-4.2993 0.13633-8.5986-0.26841-12.797-1.2047-6.3188-1.3781-12.342-3.8437-17.452-8.0953-8.1568-6.7882-12.834-16.881-12.741-27.492 0.041333-7.8177 2.8231-15.373 7.8609-21.352 6.5438-7.7484 15.844-11.827 25.369-12.056h1.3219v-7.6312h-1.4906c-2.8977 0.053087-5.7826 0.39859-8.6109 1.0312-2.8461 0.64358-5.6162 1.5863-8.2641 2.8125-2.7 1.2656-5.2266 2.8125-7.5797 4.5938-2.4316 1.8484-4.6458 3.9666-6.6 6.3141-1.84 2.1725-3.437 4.5397-4.7625 7.0594-1.3113 2.429-2.37 4.9862-3.1594 7.6312-0.77433 2.6042-1.2924 5.2779-1.5469 7.9828l-0.17344 2.5219v1.4906c0.05625 2.9297 0.40312 5.7984 1.0312 8.6109 0.63281 2.8734 1.6078 5.625 2.8125 8.2688 1.4391 3.1547 4.0219 7.8047 7.8656 11.306 7.8483 6.187 17.555 9.5447 27.548 9.5297h1.0359z"/>
<path d="m69.909 98.016c-2.8311-0.10112-5.651-0.40819-8.4375-0.91875-11.822-2.1234-21.984-9.3562-25.711-20.259-4.5375-13.261 2.4094-27.609 15.609-31.969 2.5155-0.843 5.1516-1.2705 7.8047-1.2656 3.3891 0 6.7734 0.68906 9.8766 1.95l3.2109-6.8297c-0.96566-0.38715-1.941-0.74977-2.925-1.0875-3.2886-1.0322-6.7157-1.5554-10.162-1.5516-3.4533 0.00649-6.883 0.56835-10.158 1.6641-4.1795 1.3785-8.0289 3.6064-11.306 6.5438-1.5806 1.408-3.0216 2.9652-4.3031 4.65-1.2668 1.6655-2.3629 3.4542-3.2719 5.3391-1.8508 3.7894-2.9432 7.904-3.2156 12.112-0.28594 4.3594 0.28594 8.7188 1.7203 12.853 1.4615 4.253 3.8103 8.1469 6.8906 11.423 2.8125 3.0422 6.0844 5.3391 10.041 7.4625 4.1344 2.1797 9.2438 3.3281 14.578 4.0781 3.4453 0.45469 8.0391 0.57188 10.734 0.57188 2.3531-0.8625 3.3281-1.2656 4.5938-1.7812 1.0922-0.51562 2.1797-1.0313 3.2719-1.6641s1.2656-0.75 3.0984-1.95c0.16327-0.10153 0.31703-0.21763 0.45938-0.34688-6.3141 1.0922-7.9219 1.0312-12.398 0.975z"/>
<path d="m84.033 89.466c-1.7812 0.1125-4.3078 0.28125-7.1766 0.28125-5.1094 0-11.367-0.45469-16.702-2.2359-8.2688-2.7516-16.073-9.8109-16.073-18.539-0.0037356-4.1721 1.652-8.1744 4.6021-11.124 2.9501-2.9501 6.9524-4.6058 11.124-4.6021 5.9109 0 11.02 3.2719 13.72 8.0344l6.8297-3.3844c-1.0709-2.0161-2.4464-3.855-4.0781-5.4516-4.3666-4.3741-10.294-6.8321-16.474-6.8321-6.1807 0-12.108 2.458-16.474 6.8321-4.3727 4.3665-6.8297 10.292-6.8297 16.472 0.015305 3.2067 0.70191 6.3747 2.0156 9.3 1.2 2.6391 2.8688 5.1094 4.9922 7.4062 3.7312 4.0125 8.8359 7.2281 14.292 9.0656 5.2219 1.7203 12.914 2.3531 20.377 1.8375 2.0625-0.17344 3.6141-0.34688 6.2531-0.91875 2.5468-2.0098 4.8583-4.3009 6.8906-6.8297-1.7812 0.17344-5.0531 0.51562-7.2891 0.68906z"/>
</g>
</svg>
