<?xml version="1.0" encoding="UTF-8"?>
<svg viewBox="0 0 150 150" xmlns="http://www.w3.org/2000/svg">
<path transform="matrix(1 0 0 -1 6 150.34)" d="m65.507 149.71c-12.254-2.2901-17.637-3.8931-25.252-7.6718-11.796-5.7824-21.53-14.256-28.459-24.733-4.6954-7.1565-7.673-13.912-10.021-22.786-1.7178-6.355-1.7751-7.042-1.7751-18.607 0-10.305 0.17178-12.882 1.2598-17.863 4.9817-22.958 18.896-40.992 38.651-50.267 11.51-5.3817 21.416-7.4427 35.33-7.3878 15.461 0.059521 24.05 1.8916 35.788 7.7313 7.6158 3.7214 14.201 8.416 21.359 15.172l4.7527 4.5229-9.2763 9.6183-9.2191 9.6183-3.5502-3.3779c-8.1311-7.7863-18.324-13.798-26.97-15.973-6.356-1.5458-19.755-1.4313-26.054 0.28626-22.446 6.0687-35.388 23.302-35.559 47.519-0.17178 17.405 7.6158 31.718 22.332 41.221 7.5012 4.8664 19.984 7.958 29.261 7.271 13.685-1.0305 24.68-6.0687 36.762-16.947l3.8938-3.4351 1.4888 1.145c0.85892 0.68702 5.0963 4.6947 9.5054 8.9313l7.9593 7.729-1.8324 2.2328c-2.2332 2.8053-7.673 7.6145-12.827 11.336-8.4174 6.126-19.87 11.107-31.207 13.626-4.1801 0.97328-22.905 1.7176-26.34 1.0878z"/>
</svg>
