<?xml version="1.0" encoding="UTF-8"?>
<svg viewBox="0 0 150 150" xmlns="http://www.w3.org/2000/svg">
<g transform="translate(18)">
<path d="m0.0024792 68.343v3.8384c-0.17237 29.962 8.6758 47.665 16.317 57.404l14.134-3.8957 6.9522-1.8906-1.0342-1.4895-36.37-53.967zm77.122 44.479 0.22914-0.80057 18.389-62.273c-16.326-29.85-43.594-47.462-44.74-48.205l-2.4633-1.5439 27.382 113.17 1.203-0.3431z" fill="#8F8E8A"/>
<path d="m73.889 116.72-31.584 8.6953 9.8159 14.627 6.6979 9.9622c2.5983-0.11517 5.1389-0.46068 7.6795-0.97894l7.1021-24.07 1.2125-4.0885-0.92385-4.1461zm-55.186 15.472c4.8649 5.4806 9.5009 8.4492 11.962 9.7622 7.555 4.9668 15.968 7.7641 24.554 8.0496l-15.854-23.521-5.38 1.4843-15.282 4.2246z" fill="#413B38"/>
<path d="m73.031 113.99-24.801-102.45-2.5834 2.1201c-25.72 21.086-35.135 43.949-38.522 59.649l33.412 49.622 32.494-8.9387z" fill="#77CBEC"/>
<path d="m107.37 104.65c2.5175-12.03 3.4902-31.073-5.6073-55.247l-1.2016-3.2498-17.337 58.383-2.1742 7.2978 21.342-5.8725 4.9779-1.3113z" fill="#5E5957"/>
<path d="m77.93 121.23 2.7168 11.215 2.4278 10.013c8.3239-5.0924 19.712-15.048 29.654-33.987l1.2717-2.4031-6.9944 1.9454v-0.057218l-18.729 5.0924-8.6707 2.3459-1.6763 5.8362zm-5.396 26.317c1.831-0.56679 4.6347-1.587 8.0679-3.4008l-2.6321-10.939-1.4305-5.838-1.7166 5.838-4.4631 15.02c0.68663-0.22672 1.4305-0.45343 2.1743-0.68015m-2.6196 0.68015 4.4531-15.089-4.4531 15.089z" fill="#413B38"/>
</g>
</svg>
