<?xml version="1.0" encoding="UTF-8"?>
<svg viewBox="0 0 150 150" xmlns="http://www.w3.org/2000/svg">
<defs>
<linearGradient id="f" x1="51.643%" x2="51.643%" y1="99.932%" y2=".068%">
<stop stop-color="#F0CB3E" offset="0"/>
<stop stop-color="#F58F43" offset="1"/>
</linearGradient>
<linearGradient id="e" x1="-.386%" x2="99.941%" y1="49.679%" y2="49.679%">
<stop stop-color="#5672B4" offset="0"/>
<stop stop-color="#4FA1D6" offset="1"/>
</linearGradient>
<linearGradient id="d" x1=".109%" x2="99.95%" y1="50.321%" y2="50.321%">
<stop stop-color="#4FA1D6" offset="0"/>
<stop stop-color="#5672B4" offset="1"/>
</linearGradient>
<linearGradient id="c" x1="-.582%" x2="99.551%" y1="50.653%" y2="50.653%">
<stop stop-color="#5672B4" offset="0"/>
<stop stop-color="#614E9C" offset="1"/>
</linearGradient>
<linearGradient id="b" x1="-.582%" x2="99.551%" y1="49.347%" y2="49.347%">
<stop stop-color="#5672B4" offset="0"/>
<stop stop-color="#614E9C" offset="1"/>
</linearGradient>
<linearGradient id="a" x1=".308%" x2="100.15%" y1="52.5%" y2="52.5%">
<stop stop-color="#5672B4" offset="0"/>
<stop stop-color="#614E9C" offset="1"/>
</linearGradient>
</defs>
<g transform="translate(6)">
<path d="m35.755 75c0 5.625-3.1364 10-7.5273 12.5-1.8818 0.625-3.7636 1.25-5.6455 1.25-1.2545 0-3.1364 0-4.3909-0.625 3.7636-0.625 6.9-3.125 8.7818-6.25 1.2545-1.875 1.8818-4.375 1.8818-6.875s-0.62727-4.375-1.8818-6.875c-1.8818-3.125-5.0182-5.625-8.7818-6.25 1.2545-0.625 3.1364-0.625 4.3909-0.625 1.8818 0 3.7636 0.625 5.6455 1.25 4.3909 2.5 7.5273 6.875 7.5273 12.5z" fill="url(#f)"/>
<path d="m134.86 27.5c-4.3909 5-10.664 8.75-18.191 8.75-3.1364 0-6.9-0.625-9.4091-1.875-1.8818-1.25-3.7636-2.5-5.0182-3.125-7.5273-3.75-15.682-6.25-24.464-6.25-3.7636 0-6.9 0.625-10.036 1.25-3.7636-1.25-7.5273-1.25-11.291-1.25-20.7 0-38.891 10-48.3 25 10.036-28.75 37.636-48.75 70.255-48.75 6.2727 0 12.545 0.625 18.818 2.5 14.427 3.75 27.6 11.875 37.636 23.75z" fill="url(#e)"/>
<path d="m134.24 123.12c-10.036 11.25-23.209 20-38.264 23.75h-0.62727c-5.6455 1.25-11.918 1.875-17.564 1.875-31.991 0-59.591-20.625-70.255-48.75 9.4091 15 27.6 25 48.3 25 3.7636 0 7.5273-0.625 11.291-1.25 3.1364 0.625 6.9 1.25 10.036 1.25 8.7818 0 16.936-1.875 23.836-6.25 1.8818-0.625 3.1364-1.875 5.0182-3.125 3.1364-1.25 6.2727-1.875 9.4091-1.875 8.1545 0.625 14.427 3.75 18.818 9.375z" fill="url(#d)"/>
<path d="m67.745 124.38c-3.7636 0.625-7.5273 0.625-11.291 0.625-20.7 0-38.891-10-48.3-25l-1.8818-5.625h25.091c6.2727 15 19.445 26.25 36.382 30z" fill="url(#c)"/>
<path d="m67.745 25.625c-16.936 3.75-30.109 15-36.382 30h-25.091c0-1.875 0.62727-3.75 1.2545-5.625 10.036-15 28.227-25 48.927-25 3.7636 0 7.5273 0 11.291 0.625z" fill="url(#b)"/>
<path d="m27.6 75c0 1.25 0 1.875-0.62727 3.125-1.2545 4.375-4.3909 7.5-9.4091 8.75h-1.8818-0.62727c-6.2727 0-11.291-4.375-11.918-10.625v-1.875-1.875c0.62727-5.625 5.6455-10.625 11.918-10.625h2.5091c4.3909 1.25 8.1545 4.375 9.4091 8.75 0.62727 2.5 0.62727 3.125 0.62727 4.375z" fill="url(#a)"/>
</g>
</svg>
