<?xml version="1.0" encoding="UTF-8"?>
<svg viewBox="0 0 150 150" xmlns="http://www.w3.org/2000/svg">
<circle cx="75" cy="75" r="75"/>
<g transform="translate(23.438 18.75)" fill="#FFF">
<path d="m51.08 1.8656c-0.68438-1.5469 1.7906-2.6438 2.475-1.1719 16.088 27.712 32.175 55.439 48.263 83.194-0.85781 0-1.6828-0.28125-2.5078-0.4125l-42.938-8.5594c-1.4062-0.070312-1.7156-2.3438-0.34219-2.6812l16.847-4.6406c0.40654-0.10303 0.74587-0.38214 0.92541-0.76116 0.17954-0.37902 0.18053-0.81839 0.0027192-1.1982l-22.725-63.806v0.032812 0.0046875z"/>
<path d="m48.609 2.0062c0.15469 0.225 0.29062 0.46875 0.40781 0.72188 5.0906 14.438 10.312 28.875 15.366 43.312 0.45 1.2-1.2375 2.1984-2.0625 1.3031-4.3312-4.5375-8.4562-9.2109-12.717-13.748-0.68906-0.61875-1.6875-0.20625-2.1328 0.44531l-44.273 52.012c-0.51562 0.54844-0.96094 1.3734-1.8234 1.4766-0.61875 0-1.0312-0.48281-1.3734-0.96094v-0.79688c16.223-27.909 32.428-55.828 48.609-83.766z"/>
<path d="m35.062 51.539c0.825-0.23906 1.9219 0.34219 1.65 1.3406-1.7203 5.9812-3.5391 11.93-5.3297 17.873-0.27188 0.75938 0.4125 1.4438 1.1344 1.4812 23.17 4.6406 46.341 9.45 69.506 14.091 0.45 0.070312 0.75938 0.4125 1.1016 0.68906v0.96094l-0.65625 0.68906h-98.344c10.312-12.375 20.592-24.82 30.938-37.125z"/>
</g>
</svg>
