<?xml version="1.0" encoding="UTF-8"?>
<svg viewBox="0 0 150 150" xmlns="http://www.w3.org/2000/svg">
<path transform="translate(1)" d="m82.592 80.839c6.0329-2.9596 9.8526-9.0889 9.8461-15.8 0-9.7058-7.8605-17.572-17.549-17.572-9.6884 0-17.553 7.8652-17.553 17.571-0.0077395 6.713 3.816 12.844 9.8537 15.8v21.702h15.401v-21.701m-7.7013 50.411c-30.973 0-56.167-25.232-56.167-56.25s25.198-56.246 56.167-56.246c25.274 0 46.697 16.8 53.726 39.837h19.359c-7.4699-33.529-37.355-58.592-73.085-58.592-41.36 0-74.89 33.578-74.89 75s33.53 75 74.89 75c35.73 0 65.615-25.063 73.085-58.592h-19.358c-7.0341 23.042-28.453 39.842-53.727 39.842" fill="#3AB03E"/>
</svg>
