<?xml version="1.0" encoding="UTF-8"?>
<svg viewBox="0 0 150 150" xmlns="http://www.w3.org/2000/svg">
<circle cx="75" cy="75" r="75" fill="#008CE7"/>
<g transform="translate(28.125 37.5)" fill="#FFF">
<path d="m61.341 0.01875h-34.106l-2.8219 15.783 30.759 0.046875c15.145 0 19.641 5.4984 19.495 14.625-0.065625 4.6781-2.1047 12.591-2.9672 15.141-2.3297 6.8438-7.1297 14.634-25.12 14.611l-29.897-0.01875-2.8219 15.802h34.017c11.995 0 17.105-1.4016 22.5-3.8906 11.972-5.5219 19.102-17.348 21.966-32.784 4.2469-22.969-1.05-39.314-31.008-39.314h0.0046875z"/>
<path d="m45.97 36.553c1.1109-4.6172 1.4625-6.4688 1.4625-6.4688h-34.903c-8.925 0-10.2 5.8125-11.048 9.3281-1.1109 4.5984-1.4625 6.4734-1.4625 6.4734h34.908c8.9203 0 10.195-5.8125 11.044-9.3328z"/>
</g>
</svg>
