<?xml version="1.0" encoding="UTF-8"?>
<svg viewBox="0 0 150 150" xmlns="http://www.w3.org/2000/svg">
<circle cx="75" cy="75" r="75" fill="#666"/>
<path d="m117.57 99.141c-2.0064 3.348-6.3185 4.4822-9.7125 2.5547l-22.402-12.703v-8.0625l7.1156-4.0312 22.397 12.698c3.4031 1.9266 4.5656 6.2016 2.6016 9.5391v0.0046875zm-35.461 17.152c0 3.8578-3.1828 6.9844-7.1109 6.9844s-7.1109-3.1266-7.1109-6.9844v-25.402l7.1109-4.0312 7.1109 4.0312v25.402zm-39.97-14.597c-3.3952 1.9267-7.7077 0.79032-9.7125-2.5594-0.94-1.6054-1.1939-3.5216-0.70442-5.3164s1.6811-3.3168 3.306-4.2227l22.397-12.703 7.1156 4.0359v8.0625l-22.402 12.703zm-7.1109-41.292c-1.6249-0.90585-2.8165-2.4279-3.306-4.2227s-0.23558-3.711 0.70442-5.3164c2.0048-3.3497 6.3173-4.4861 9.7125-2.5594l22.402 12.703v8.0625l-7.1156 4.0312-22.397-12.698zm32.859-26.695c0-3.8578 3.1875-6.9844 7.1109-6.9844 3.9281 0 7.1109 3.1266 7.1109 6.9844v25.397l-7.1109 4.0359-7.1109-4.0312v-25.402zm17.569 39.159 3.7688 2.1328-3.7688 2.1328v-4.2656zm-7.1109-7.8281 3.7641-2.1375v4.2703l-3.7641-2.1328zm-10.458 2.1328v-4.2656l3.7641 2.1328-3.7641 2.1328zm-3.3469 9.9609-3.7688-2.1328 3.7688-2.1328v4.2656zm7.1109 7.8281-3.7641 2.1375v-4.2703l3.7641 2.1328zm10.458-2.1328v4.2656l-3.7641-2.1328 3.7641-2.1328zm-7.1109 0.23438-7.1109-4.0312v-8.0625l7.1109-4.0312 7.1109 4.0312v8.0625l-7.1109 4.0312zm32.859-34.758c3.3952-1.9267 7.7077-0.79032 9.7125 2.5594 1.9688 3.3375 0.79688 7.6125-2.6016 9.5391l-22.397 12.703-7.1156-4.0359v-8.0625l22.402-12.703zm8.7844 38.447-20.723-11.752 20.723-11.752c2.3912-1.3309 4.1453-3.5692 4.8659-6.2093 0.72066-2.6401 0.34712-5.4591-1.0362-7.8204-2.8875-4.9125-9.2859-6.5953-14.288-3.7594l-20.728 11.752v-23.508c0-5.6672-4.6828-10.266-10.458-10.266s-10.458 4.5984-10.458 10.27v23.503l-20.728-11.752c-5.0016-2.8359-11.4-1.1531-14.283 3.7594-1.3833 2.3613-1.7569 5.1803-1.0362 7.8204 0.72066 2.6401 2.4747 4.8784 4.8659 6.2093l20.719 11.752-20.719 11.752c-2.392 1.3301-4.1471 3.5681-4.8686 6.2082s-0.34873 5.4596 1.0342 7.8215c2.8875 4.9125 9.2859 6.5953 14.288 3.7594l20.728-11.752v23.503c0 5.6719 4.6828 10.27 10.458 10.27s10.458-4.5984 10.458-10.27v-23.503l20.728 11.752c5.0016 2.8359 11.4 1.1531 14.288-3.7594 1.3833-2.3613 1.7569-5.1803 1.0362-7.8204-0.72066-2.6401-2.4747-4.8784-4.8659-6.2093z" fill="#FFF"/>
</svg>
