<?xml version="1.0" encoding="UTF-8"?>
<svg viewBox="0 0 150 150" xmlns="http://www.w3.org/2000/svg">
<circle cx="75" cy="75" r="75" fill="#2C2B3F"/>
<path d="m74.677 50.489-7.6359-7.6547c-1.385-1.3247-1.958-3.2876-1.5033-5.1493 0.45472-1.8617 1.8681-3.3395 3.7078-3.8766 1.8397-0.53708 3.8261-0.051895 5.2111 1.2728l17.222 17.222c2.0953 2.0953 2.0953 5.4844 0 7.5797l-17.062 17.044c-2.1055 2.0088-5.4294 1.9697-7.487-0.087955-2.0577-2.0577-2.0967-5.3816-0.087955-7.487l8.0016-8.0016c-11.043-1.9493-22.127 3.2107-27.745 12.916s-4.5707 21.887 2.6202 30.491c7.1909 8.6046 18.993 11.798 29.541 7.9933 10.549-3.8047 17.595-13.796 17.638-25.01v-58.95c0-2.959 2.3988-5.3578 5.3578-5.3578 2.959 0 5.3578 2.3988 5.3578 5.3578v59.667c-0.30619 15.494-10.112 29.204-24.676 34.501s-30.886 1.0886-41.074-10.589c-10.188-11.678-12.143-28.42-4.9196-42.131s22.137-21.566 37.53-19.768l0.0046875 0.01875z" fill="#FFF"/>
</svg>
