<?xml version="1.0" encoding="UTF-8"?>
<svg viewBox="0 0 150 150" xmlns="http://www.w3.org/2000/svg">
<path transform="matrix(1 0 0 -1 0 140)" d="m74.531 128.9c-0.46875-0.78313-1.5625-5.3253-2.6562-10.181l-1.7188-9.0843h-11.562-11.562l-2.0312-9.7108-2.1875-9.8675-23.125-1.5663-9.8438-41.506c-5.3125-22.867-9.6875-42.759-9.8438-44.169 0-2.6627 2.8125-2.8193 38.125-2.8193 36.719 0 38.75 0.15663 50.938 4.0723 23.594 7.3614 45.156 25.843 55.625 47.458 3.4375 7.0482 4.375 11.59 5 23.024 0.78125 15.976-0.625 21.771-7.5 32.265-10.156 15.349-27.656 23.181-51.719 23.181-8.4375 0-15.625-0.46988-15.938-1.0964zm37.188-12.843c10.625-4.6988 17.031-10.337 22.031-19.265 3.9062-7.0482 4.5312-10.024 4.5312-20.048 0-9.3976-0.78125-13.47-4.2188-20.831-8.2812-17.699-30.625-36.181-51.25-42.759-6.4062-1.8795-16.562-2.8193-39.375-3.2892l-30.625-0.78313 1.0938 5.1687c0.625 2.9759 4.2188 18.482 7.9688 34.771l6.7188 29.289h5.3125c3.4375 0 5.1562-0.78313 5.1562-2.1928 0-1.253-2.5-12.687-5.4688-25.53-2.9688-12.687-5.7812-24.747-6.25-26.627l-0.78125-3.6024h24.688c34.531 0 47.969 4.5422 62.812 21.458 23.75 27.096 10.781 65.47-22.812 67.506-9.8438 0.62651-10 0.78313-9.0625 4.8554 0.625 2.1928 1.4062 4.6988 1.875 5.4819 1.25 2.1928 20.156-0.31325 27.656-3.6024zm-12.344-19.578c17.344-8.1446 20.938-27.253 8.4375-44.482-4.8438-6.7349-16.094-15.976-19.531-15.976-0.9375 0-2.9688 3.759-4.2188 8.4578l-2.3438 8.6145 4.5312 1.8795c2.3438 0.93976 6.5625 4.2289 9.0625 7.2048 3.5938 4.0723 4.6875 6.7349 4.6875 11.904-0.15625 12.53-5 15.193-27.969 15.193-18.281 0-18.281 0-16.406 7.5181 0.9375 3.2892 1.7188 3.4458 18.438 3.4458 15 0 18.438-0.46988 25.312-3.759zm-13.75-20.048c1.0938-1.0964 1.875-3.1325 1.875-4.6988 0-4.8554-7.1875-7.8313-20.625-8.9277-12.188-0.93976-12.812-1.0964-13.906-5.1687-1.0938-4.2289-0.9375-4.2289 6.875-4.6988l7.8125-0.46988 3.5938-10.494c1.875-5.6386 3.125-10.807 2.5-11.277-1.4062-1.5663-33.125-1.0964-33.125 0.46988 0 1.4096 8.9062 39.47 10.312 44.482 0.78125 2.3494 2.9688 2.6627 16.875 2.6627 10.312 0 16.562-0.62651 17.812-1.8795z"/>
</svg>
