<?xml version="1.0" encoding="UTF-8"?>
<svg viewBox="0 0 150 150" xmlns="http://www.w3.org/2000/svg">
<g transform="translate(0 58)">
<rect width="150" height="34" fill="#523C97"/>
<path d="m0.10527 0.74666c4.8684-0.48667 9.6447 1.2467 13.099 4.7467 6.3421 6.4267 6.3421 16.88 0 23.307-3.4539 3.5-8.2303 5.2333-13.099 4.7467-0.059211-0.0066667-0.10527-0.06-0.10527-0.12s0.046055-0.11333 0.10527-0.12c3.6776-0.36667 7.1447-2.0267 9.7566-4.68 3.0263-3.0667 4.6974-7.1467 4.6974-11.487s-1.6711-8.42-4.6974-11.487c-2.6118-2.6533-6.0789-4.3133-9.7566-4.68-0.059211 0.0066667-0.10527-0.046667-0.10527-0.10667s0.046055-0.11333 0.10527-0.12zm59.257 19.593v-16.973h2.7697v17.287c0 1.14-0.15132 2.3533-0.44079 3.64-0.29605 1.2867-0.82895 2.4733-1.5987 3.56-0.76974 1.0867-1.8092 1.9933-3.1316 2.7067-1.3158 0.71333-2.9934 1.0667-5.0132 1.0667-2.0461 0-3.7237-0.35333-5.0329-1.0667s-2.3421-1.62-3.1118-2.7067c-0.76974-1.0933-1.2961-2.28-1.5921-3.56-0.29605-1.2867-0.44079-2.5-0.44079-3.64v-17.287h2.7632v16.973c0 1.1133 0.13158 2.2 0.38158 3.2533 0.25658 1.0533 0.67105 1.9867 1.25 2.8067s1.3355 1.48 2.2829 1.9867c0.94737 0.50667 2.1118 0.76 3.4934 0.76 1.3816 0 2.5461-0.25333 3.4934-0.76 0.94737-0.50667 1.7105-1.1667 2.2829-1.9867 0.57895-0.82 0.99342-1.7533 1.25-2.8067 0.26316-1.0533 0.39474-2.14 0.39474-3.2533zm42.151-2.28c0.76316 0.58667 1.3947 1.32 1.875 2.22 0.48684 0.89333 0.73026 2.0333 0.73026 3.4067 0 1.3733-0.25658 2.5667-0.77632 3.5667s-1.1908 1.82-2.0197 2.4733c-0.82895 0.64667-1.7763 1.1267-2.8355 1.44-1.0658 0.31333-2.1316 0.46667-3.2105 0.46667-0.82237 0-1.6382-0.086667-2.4605-0.25333s-1.5987-0.42-2.3421-0.76c-0.74342-0.33333-1.4342-0.76667-2.0724-1.2867s-1.2039-1.1133-1.6908-1.7867l2.3816-1.7933c0.59211 0.98667 1.4145 1.8133 2.4803 2.4733s2.3158 0.99333 3.75 0.99333c0.69079 0 1.3947-0.11333 2.1118-0.33333 0.71711-0.22 1.3618-0.56 1.9408-1.0133 0.57895-0.45333 1.0526-1.0133 1.4211-1.6733s0.55921-1.4333 0.55921-2.32c0-0.96-0.18421-1.76-0.55921-2.3933-0.36842-0.63333-0.86842-1.1667-1.4803-1.5933-0.61184-0.42667-1.3224-0.78667-2.1118-1.0733l-2.4934-0.85333c-0.89474-0.28667-1.7829-0.61333-2.6513-0.97333-0.875-0.36-1.6513-0.84-2.3421-1.42-0.69079-0.58667-1.25-1.3067-1.6711-2.16-0.42105-0.86-0.63158-1.9067-0.63158-3.1533 0-1.32 0.26316-2.4667 0.78947-3.4267 0.52632-0.96 1.2105-1.7533 2.0526-2.3733 0.84868-0.62 1.7829-1.0733 2.8092-1.36 1.0263-0.28667 2.0329-0.42667 3.0329-0.42667 1.8421 0 3.4211 0.32667 4.7237 0.99333 1.3092 0.66 2.2895 1.4467 2.9605 2.3533l-2.1908 1.7933c-0.5921-0.83335-1.3421-1.5-2.2632-2.0067-0.92105-0.50667-2.0395-0.76-3.3421-0.76-0.66447 0-1.3421 0.10667-2.0395 0.31333-0.69079 0.20667-1.3158 0.52667-1.8816 0.95333-0.56579 0.42667-1.0197 0.96667-1.3618 1.6133-0.34211 0.64667-0.51974 1.4133-0.51974 2.3 0 0.88 0.16447 1.6067 0.5 2.18 0.32895 0.57333 0.76974 1.06 1.3224 1.46 0.55263 0.4 1.1776 0.73333 1.875 0.99333l2.2039 0.78 2.8553 1.0133c0.94737 0.34667 1.8092 0.82 2.5724 1.4067z" fill="#FFF"/>
<polygon points="135.28 15.86 149.76 30.927 145.69 30.927 132.09 16.253 132.05 16.253 132.05 30.927 129.29 30.927 129.29 3.367 132.05 3.367 132.05 15.747 132.09 15.747 145.04 3.367 148.99 3.367" fill="#FFF"/>
</g>
</svg>
