<?xml version="1.0" encoding="UTF-8"?>
<svg viewBox="0 0 150 150" xmlns="http://www.w3.org/2000/svg">
<defs>
<radialGradient id="i" cx="26.136%" cy="19.16%" r="54.428%" gradientTransform="matrix(.99168 0 0 1 .002 0)">
<stop stop-color="#21FFE3" offset="0"/>
<stop stop-color="#8549DF" offset="1"/>
</radialGradient>
<linearGradient id="h" x1="52.208%" x2="48.2%" y1="93.224%" y2="14.759%">
<stop stop-color="#21FFE3" offset="0"/>
<stop stop-color="#8549DF" offset="1"/>
</linearGradient>
<radialGradient id="g" r="63.645%" gradientTransform="matrix(.92903 0 0 1 .035 0)">
<stop stop-color="#21FFE3" offset="0"/>
<stop stop-color="#23FCE3" stop-opacity=".808" offset=".1916"/>
<stop stop-color="#28F2E3" stop-opacity=".658" offset=".3419"/>
<stop stop-color="#31E1E2" stop-opacity=".522" offset=".478"/>
<stop stop-color="#3ECAE2" stop-opacity=".394" offset=".6059"/>
<stop stop-color="#4FACE1" stop-opacity=".272" offset=".728"/>
<stop stop-color="#6386E0" stop-opacity=".154" offset=".8458"/>
<stop stop-color="#7B5BDF" stop-opacity=".042" offset=".958"/>
<stop stop-color="#8549DF" stop-opacity="0" offset="1"/>
</radialGradient>
<linearGradient id="f" x1="6.846%" x2="93.384%" y1="20.6%" y2="67.128%">
<stop stop-color="#21FFE3" offset="0"/>
<stop stop-color="#F8FFFB" offset="1"/>
</linearGradient>
<linearGradient id="e" y1="50%" y2="50%">
<stop stop-color="#692CC2" offset="0"/>
<stop stop-color="#3E5BDE" offset=".5189"/>
<stop stop-color="#229EE7" offset="1"/>
</linearGradient>
<linearGradient id="d" y1="49.999%" y2="49.999%">
<stop stop-color="#692CC2" offset="0"/>
<stop stop-color="#3E5BDE" offset=".5189"/>
<stop stop-color="#229EE7" offset="1"/>
</linearGradient>
<linearGradient id="c" y1="49.999%" y2="49.999%">
<stop stop-color="#677CF4" offset="0"/>
<stop stop-color="#374CD7" offset=".2764"/>
<stop stop-color="#3752D8" offset=".3631"/>
<stop stop-color="#3562DB" offset=".4747"/>
<stop stop-color="#337CE1" offset=".5999"/>
<stop stop-color="#30A1E9" offset=".7351"/>
<stop stop-color="#2DD0F2" offset=".8766"/>
<stop stop-color="#29FFFC" offset="1"/>
</linearGradient>
<linearGradient id="b" x1="50.61%" x2="39.554%" y1="24.559%" y2="93.394%">
<stop stop-color="#F8FFFB" offset="0"/>
<stop stop-color="#F8FFFB" stop-opacity="0" offset="1"/>
</linearGradient>
<linearGradient id="a" x1="50.692%" x2="46.51%" y1="40.771%" y2="138.35%">
<stop stop-color="#F8FFFB" offset="0"/>
<stop stop-color="#F8FFFB" stop-opacity="0" offset="1"/>
</linearGradient>
</defs>
<g fill="none">
<ellipse cx="75.025" cy="74.437" rx="74.901" ry="74.278" fill="url(#i)"/>
<ellipse cx="77.864" cy="84.163" rx="54.892" ry="50.997" fill="url(#h)"/>
<ellipse cx="75.544" cy="94.668" rx="59.263" ry="55.057" fill="url(#g)"/>
<g transform="translate(16.038 22.453)">
<path d="m42.901 102.9c-0.27075-0.02869-6.6698-0.72599-9.9965-2.6114-0.56635-0.32089-13.934-7.9703-19.276-17.507-4.5041-8.0404-12.133-22.564-12.615-29.501-0.43868-6.3059-0.093711-19.808 2.1544-24.267 0.1566-0.31029 0.35-0.73503 0.59497-1.2733 1.4664-3.2217 4.5179-9.9253 10.577-15.846 7.5097-7.3381 17.142-11.068 28.628-11.085 0.075786-9.3555e-4 8.3604-0.10229 17.681-0.10229 5.4755 0 10.233 0.034304 14.139 0.1026 12.405 0.2158 22.314 1.2561 27.031 2.0816l0.81289 0.14064c3.3063 0.56788 4.5434 0.78056 4.8107 3.1678 0.22924 2.0448 2.0701 16.881 2.089 17.031l0.049371 0.4001-11.428 6.8807h12.28l1.2107 22.801-13.345 9.663h12.049l-4.1198 24.274-22.906 12.88-40.364 2.7764-0.055346-0.005925z" fill="url(#f)"/>
<path d="m60.647 1.3347c4.7129 0 9.7164 0.025572 14.128 0.10229 13.234 0.23015 22.985 1.3815 26.932 2.0722 3.9469 0.69075 4.8758 0.69075 5.1079 2.763 0.23208 2.0722 2.0896 17.038 2.0896 17.038l-13.002 7.8284h13.931l1.161 21.873-14.627 10.591h13.234l-3.9469 23.255-22.521 12.663-40.166 2.763s-6.5009-0.69075-9.7513-2.5325c-3.2503-1.8421-14.395-8.9794-19.038-17.268-4.6434-8.2887-12.073-22.564-12.537-29.241s0-19.801 2.0896-23.945 10.447-27.816 39.237-27.859c-6.289e-4 0 8.2553-0.10229 17.679-0.10229zm0-1.2474c-9.3239 0-17.613 0.10135-17.695 0.10229-11.643 0.017464-21.423 3.8077-29.054 11.265-6.1425 6.0022-9.2264 12.777-10.708 16.033-0.23239 0.51081-0.43333 0.95177-0.58396 1.2508-2.2991 4.5602-2.6623 18.222-2.2195 24.589 0.49088 7.0572 8.1632 21.675 12.693 29.761 5.4264 9.6867 18.941 17.421 19.514 17.746 3.4393 1.9491 9.9654 2.6607 10.242 2.69l0.11038 0.011851 0.11069-0.007485 40.166-2.763 0.28491-0.019647 0.24843-0.13971 23.042-12.956 0.099371-0.58534 3.9469-23.255 0.24686-1.4545h-1.4874-9.3783l11.513-8.3364 0.55031-0.39823-0.035849-0.67453-1.161-21.873-0.062579-1.1819h-1.1934-9.4349l9.1591-5.5148 0.69497-0.4185-0.099371-0.80021c-0.018554-0.14969-1.8591-14.982-2.0877-17.023-0.3195-2.8528-1.9934-3.1403-5.3283-3.7132-0.25503-0.043971-0.52516-0.090125-0.81101-0.14033-4.7387-0.82921-14.687-1.8745-27.129-2.091-3.9101-0.067983-8.6711-0.1026-14.15-0.1026z" fill="#692CC2"/>
</g>
<path d="m18.369 75.747s0.62893 8.1084 3.9833 15.593c3.3544 7.4847 11.546 19.322 14.466 22.454 4.3459 4.6615 12.79 10.125 18.031 10.748 5.2412 0.6237 19.566-0.36642 22.809-0.41133 2.1069-0.029314 19.207-1.7411 21.513-2.1568 2.3063-0.4157 21.97-11.581 22.521-12.663 0.45032-0.88534 0.70032-4.1252 0.70032-4.1252l-16.019 3.6568-48.259 2.2615c-1.5799 0.062994-3.9311-0.19459-5.789-0.35426-2.3384-0.20114-4.5742-0.63805-7.2899-1.4885-2.911-0.91154-6.5531-2.7783-9.527-5.0155-4.1836-3.1475-9.2-8.0897-12.107-15.193-1.8465-4.51-5.0324-13.306-5.0324-13.306z" fill="#FFF"/>
<path d="m41.592 53.822 5.8044-7.8284s-0.23208-2.0722 10.68-2.3024c10.912-0.23015 64.312 1.6116 64.312 1.6116l-10.912 8.5191h-69.884z" fill="url(#e)"/>
<path d="m124.25 75.695-13.698 10.361-60.597 1.8421s-5.3399-4.3746-6.2689-6.1014c-0.92862-1.7267-2.0896-4.0294-2.0896-4.0294s63.152-0.4606 69.188-0.69075c6.0368-0.23046 13.466-1.3815 13.466-1.3815z" fill="url(#d)"/>
<path d="m117.28 110s-17.645 10.361-19.038 10.822-35.006 2.7621-38.309 2.763c-4.261 9.35e-4 -9.5192-1.3815-13.002-3.914-3.4827-2.5325-8.8226-7.5979-9.9836-9.6702s-4.4113-5.7561-4.4113-5.7561 7.894 5.0654 13.466 6.677c5.5723 1.6116 17.315 1.2468 22.655 1.0166 5.3403-0.23014 48.623-1.9378 48.623-1.9378z" fill="url(#c)"/>
<path d="m110.73 18.628s-12.385-3.6845-20.347-3.5089c-7.9616 0.17557-18.223 0.87723-23.531 2.6317-5.3079 1.7545-7.4308 2.8073-7.4308 2.8073s3.3616 4.0353 3.0079 7.8954c-0.35377 3.8601-4.2462 8.4218-8.8462 9.6499s-9.2 1.93-12.739 1.2281c-3.5387-0.70166-11.677-5.2637-11.677-5.2637l-6.1925-4.3865s6.1925-8.4218 16.454-13.334c10.262-4.9126 20.7-9.1235 33.793-9.1235 13.092 0 22.469 2.9828 27.954 5.6146 5.4843 2.632 9.5538 5.7901 9.5538 5.7901z" fill="#FFF"/>
<path d="m22.972 29.681s-4.7104 5.9121-5.905 8.5179c-1.1947 2.6061-5.1365 10.187-5.8531 17.65-0.71667 7.4629-0.83616 13.246 0 17.166 0.83616 3.9193 2.2695 9.3686 2.2695 9.3686s4.8975-20.019 5.6142-24.876c0.71667-4.8568 4.1808-15.162 7.167-18.716 2.9862-3.5538 5.7336-7.8181 5.7336-7.8181l-9.0261-1.2923z" fill="url(#b)"/>
<path d="m31.998 30.973s-5.223 6.7615-6.3494 8.6367-5.7871 9.2853-6.0736 13.041c-0.28648 3.7556-1.0752 11.727-1.0752 11.727s8.3616-14.925 10.631-17.532c2.2695-2.6061 8.8393-11.253 8.8393-11.253l-5.9723-4.6198z" fill="url(#a)"/>
</g>
</svg>
