<?xml version="1.0" encoding="UTF-8"?>
<svg viewBox="0 0 150 150" xmlns="http://www.w3.org/2000/svg">
<g fill="none" fill-rule="evenodd">
<path d="m48.534 31.983c7.9322-5.161 16.703-7.7797 26.314-7.7797 9.5085-0.025424 18.28 2.5932 26.339 7.8559l16.881-16.881c-13.119-10.068-27.534-15.127-43.22-15.102-15.763 0.025614-30.153 5.0341-43.195 15.076l16.881 16.831zm-16.627 69.356c-5.3644-8.1356-8.0339-16.932-8.0085-26.364 0.025424-9.5847 2.6695-18.356 7.9576-26.339l-16.831-16.856c-9.8898 12.89-14.847 27.28-14.873 43.195-0.025231 15.763 4.9578 30.153 14.924 43.22l16.831-16.856zm69.432 16.754c-8.0085 5.3898-16.78 8.1356-26.314 8.2119-9.6864 0.076271-18.559-2.6695-26.619-8.161l-16.78 16.78c13.042 10.144 27.534 15.153 43.5 15.025 15.788-0.12712 30.127-5.1356 43.017-15.051l-16.805-16.805zm16.602-69.483c5.4153 8.161 8.0593 17.11 7.9576 26.847-0.1017 9.3814-2.7712 18.025-7.9831 25.932l16.856 16.856c9.9153-12.915 14.949-27.254 15.076-42.992 0.12712-15.966-4.8814-30.458-15.025-43.5l-16.881 16.856z" fill="#4F4F4F" fill-rule="nonzero"/>
<g transform="translate(24.22 24.966)" stroke="#4F4F4F" stroke-width="2">
<path d="m100.78 0.034-100 100"/>
<path d="m0.78 0.034 100 100-100-100z" fill="#4F4F4F"/>
</g>
<circle cx="135.46" cy="135.23" r="11.72" fill="#47C7F0" fill-rule="nonzero"/>
<circle cx="14.695" cy="135.25" r="11.72" fill="#6953A3" fill-rule="nonzero"/>
<circle cx="135.56" cy="14.364" r="11.72" fill="#C3198D" fill-rule="nonzero"/>
<circle cx="14.39" cy="14.161" r="11.72" fill="#6DCBD7" fill-rule="nonzero"/>
</g>
</svg>
