<?xml version="1.0" encoding="UTF-8"?>
<svg viewBox="0 0 150 150" xmlns="http://www.w3.org/2000/svg">
<g transform="translate(29)">
<path d="m-2.2737e-13 81.689c16.386 8.6655 33.485 17.736 46.691 24.755l46.309-24.755c-16.768 24.806-30.737 45.456-46.309 68.311-15.598-22.804-32.824-47.965-46.691-68.311zm1.7811-6.8412 44.961-23.894 44.375 23.716-44.35 23.919-44.986-23.742zm44.91-31.546-46.691 24.476 46.487-67.779 46.513 67.931-46.309-24.628z" fill="#3AB83A"/>
<path d="m46.704 106.44 46.296-24.755c-16.763 24.806-46.296 68.311-46.296 68.311v-43.556zm0.050875-55.49 44.363 23.716-44.338 23.919-0.025438-47.635zm-0.050875-7.652-0.2035-43.302 46.5 67.931-46.296-24.628z" fill="#0B8311"/>
<polygon points="1.804 74.829 46.77 78.502 91.149 74.678 46.795 98.587" fill="#0B8311"/>
<polygon points="46.778 78.502 91.149 74.678 46.803 98.587" fill="#146714"/>
</g>
</svg>
