<?xml version="1.0" encoding="UTF-8"?>
<svg viewBox="0 0 148 150" xmlns="http://www.w3.org/2000/svg">
<path d="m0 0v150h147.6v-150h-147.6zm51.6 17.4h13.8v14.4h-13.8v-14.4zm-34.8 0h14.4v14.4h-14.4v-14.4zm13.8 34.8v14.4h-14.4v-14.4h14.4zm-3.6 79.2h-6v-5.4h5.4v5.4h0.6zm4.2-28.8h-14.4v-13.8h14.4v13.8zm30.6 28.8h-5.4v-5.4h5.4v5.4zm0-33.6h-5.4v-5.4h5.4v5.4zm4.2-30.6h-14.4v-14.4h14.4v14.4zm30.6 64.2h-5.4v-5.4h5.4v5.4zm0-33.6h-5.4v-5.4h5.4v5.4zm0-35.4h-5.4v-5.4h5.4v5.4zm4.8-30.6h-14.4v-14.4h14.4v14.4zm30.6 99.6h-5.4v-5.4h5.4v5.4zm0-33.6h-5.4v-5.4h5.4v5.4zm0-35.4h-5.4v-5.4h5.4v5.4zm0-34.8h-5.4v-5.4h5.4v5.4z" fill="#202944"/>
</svg>
