<?xml version="1.0" encoding="UTF-8"?>
<svg viewBox="0 0 150 150" xmlns="http://www.w3.org/2000/svg">
<g fill-rule="evenodd">
<circle cx="75" cy="75" r="75" fill="#13B5EC"/>
<path transform="translate(46.875 28.125)" d="m33.75 32.344 16.875-9.8438v19.688l-16.875-9.8438zm16.875 42.188-22.5 13.125-22.5-13.125v-22.969l22.5 13.125 22.5-13.125v22.969zm-45-52.031 16.875 9.8438-16.875 9.8438v-19.688zm25.312 14.531 16.875 9.8438-16.875 9.8438v-19.688zm-5.625 19.688-16.875-9.8438 16.875-9.8438v19.688zm22.5-38.906-19.688 11.25-19.688-11.25 19.688-11.719 19.688 11.719zm-47.812-1.875v61.406l28.125 15.938 28.125-15.938v-61.406l-28.125-15.938-28.125 15.938z" fill="#FFF"/>
</g>
</svg>
