<?xml version="1.0" encoding="UTF-8"?>
<svg viewBox="0 0 150 150" xmlns="http://www.w3.org/2000/svg">
<circle cx="75" cy="75" r="75" fill="#ED1968"/>
<path d="m59.531 126.09c-5.9888-1.6593-11.573-4.5312-16.406-8.4375-4.7624-3.6687-8.8812-8.1042-12.188-13.125-3.5257-5.2816-6.0666-11.157-7.5-17.344-1.641-7.4102-1.641-15.09 0-22.5 1.3985-6.2684 3.7711-12.279 7.0312-17.812 4.7728-7.6574 11.592-13.827 19.688-17.812 2.8429-1.5301 5.8251-2.7858 8.9062-3.75 4.6875 5.625 9.375 11.719 14.062 17.812 0.46875 0.9375 1.4062 1.4062 1.875 2.3438-4.7018 0.1971-9.3197 1.3118-13.594 3.2812-3.7784 1.9753-7.125 4.6844-9.8438 7.9688-2.6751 3.5362-4.7352 7.4979-6.0938 11.719-1.2518 5.1031-1.0897 10.451 0.46875 15.469l20.156-15.938c4.6875 6.0938 9.375 11.719 14.062 17.812-6.5625 5.1562-13.594 10.312-20.156 15.938 6.5625 8.4375 13.594 17.344 20.156 26.25-6.9305 0.81942-13.956 0.18075-20.625-1.875zm44.672-56.784c-0.17207-0.76734-0.37536-1.5274-0.60938-2.2781-0.63281 0.49688-14.578 11.156-20.156 15.938-4.6875-6.0938-9.375-11.719-14.062-17.812 6.5625-5.1562 13.594-10.312 20.156-15.938-6.5625-8.4375-13.125-16.875-20.156-25.781 0-0.46875-0.46875-0.46875-0.46875-0.9375h6.5625c12.024 0.11224 23.631 4.4233 32.812 12.188 4.4747 3.6977 8.2802 8.1374 11.25 13.125 3.4977 5.3692 5.7407 11.457 6.5625 17.812 1.2558 7.306 1.0967 14.785-0.46875 22.031-1.3418 6.0714-3.8925 11.811-7.5 16.875-3.1483 4.8621-7.1129 9.1438-11.719 12.656-4.4858 3.8975-9.7633 6.7761-15.469 8.4375-4.2188-5.1562-7.9688-9.8438-11.719-15-1.401-1.6037-2.656-3.3293-3.75-5.1562 8.9901 0.030107 17.481-4.1288 22.969-11.25 2.6999-3.4538 4.619-7.4519 5.625-11.719 0.87188-3.5578 0.91875-7.9547 0.14062-13.191zm-22.139 39.248c3.2371 4.4217 6.5978 8.7515 10.078 12.984 4.4521-1.6099 8.5658-4.0339 12.131-7.1484 4.3226-3.3045 8.04-7.3328 10.988-11.906 3.3305-4.6734 5.6866-9.9691 6.9281-15.572 1.4719-6.8062 1.6172-13.833 0.42188-20.841-0.76673-5.8768-2.8514-11.504-6.0984-16.462-2.7715-4.6521-6.3234-8.7923-10.5-12.239-8.4369-7.1377-19.077-11.147-30.127-11.353 4.3453 5.5312 8.7469 11.17 16.42 21.042l2.0625 2.6438-2.55 2.1797c-3.3342 2.8358-6.7384 5.5882-10.209 8.2547-0.32812 0.25781-4.3125 3.3188-7.3031 5.6344 1.2328 1.5703 2.6625 3.3609 4.8469 6.0938 2.1562 2.6953 3.5859 4.4906 4.8188 6.0609 2.175-1.7953 4.5469-3.6797 7.3875-5.8828 0.45938-0.35625 7.95-6.1219 10.064-7.7812l4.0125-3.1547 1.5141 4.875c1.7469 5.6179 1.9316 11.605 0.53438 17.32-1.1198 4.7543-3.2563 9.2096-6.2625 13.059-4.7802 6.2034-11.646 10.465-19.327 11.995l0.16875 0.19688v-1e-6z" fill="#FFF"/>
</svg>
