<?xml version="1.0" encoding="UTF-8"?>
<svg viewBox="0 0 150 150" xmlns="http://www.w3.org/2000/svg">
<circle cx="75" cy="75" r="75" fill="#7F27FF"/>
<path d="m72.075 65.625h-34.481v33.853c-0.0375 3.4641 1.35 6.7969 3.8438 9.2438s5.8922 3.8109 9.4219 3.7781h21.22l-0.0046875-46.875zm0.79688-17.714h3.7125c3.675-6.3281 7.0406-10.631 10.205-12.956 3.9-2.8734 7.8938-2.8969 11.025 0.17812 2.925 2.8688 3.4734 6.4688 1.5469 9.9375-0.54375 0.96562-1.2656 1.9125-2.1703 2.8406h13.631c3.1828 0 6.3656 2.6156 6.3656 6.2484 0 3.1266-2.6672 6.2531-6.3656 6.2531h-33.441v-8.3344h-5.3062v8.3344h-32.897c-3.1781 0-6.3656-2.6156-6.3656-6.2531 0-3.1219 2.6672-6.2484 6.3656-6.2484h13.781c-0.86234-0.80351-1.6298-1.7031-2.2875-2.6812-2.2828-3.4875-2.0062-7.1719 0.97031-10.097 3.1312-3.075 7.125-3.0469 11.03-0.17812 3.1594 2.325 6.525 6.6328 10.205 12.956h-0.0046875zm-6.1641 0c-2.7188-4.3266-5.1469-7.2656-7.2188-8.7891-1.9172-1.4062-2.9672-1.4156-4.0969-0.30938-1.1578 1.1391-1.2281 2.1141-0.25781 3.5953 1.1062 1.6922 3.4359 3.6 6.7922 5.5031h4.7812zm16.041 0h5.7188c3.2016-1.8375 5.3156-3.6938 6.2344-5.3438 0.79688-1.425 0.62812-2.5078-0.6375-3.75-1.1297-1.1109-2.1797-1.1062-4.0922 0.30469-2.0766 1.5234-4.5094 4.4625-7.2188 8.7891h-0.0046875zm-5.3672 17.709h34.486v33.858c0.029868 3.4759-1.3581 6.8138-3.8438 9.2438-2.5155 2.4587-5.9046 3.8177-9.4219 3.7781h-21.22v-46.88z" fill="#FFF"/>
</svg>
