<?xml version="1.0" encoding="UTF-8"?>
<svg viewBox="0 0 150 150" xmlns="http://www.w3.org/2000/svg">
<g transform="translate(0 18)" fill="#56428E">
<path d="m39.2 0h29.688c-3.57 5.6152-5.7615 11.816-5.625 18.536 8.8342 0.089844 17.691 0.089844 26.525 0 0.11325-6.6746-1.6942-13.056-5.5582-18.536h29.891c-2.0558 4.284-5.5582 8.2529-5.2192 13.281-0.13575 22.481 0.045 44.986-0.0225 67.467 2.937 0 5.8972 0 8.8568 0.022461 2.169-4.2616 4.0898-8.61 5.625-13.123 8.8792 0.22461 17.804-0.24782 26.638 0.92464-8.7435 7.487-13.308 18.13-19.001 27.825-22.594 0.044922-45.188-0.067383-67.804 0.067383-1.062 8.1855 4.0215 13.822 9.9188 18.536h-38.163c3.321-4.3522 10.009-7.1478 9.309-13.53 0.225-21.737 0-43.499 0.0675-65.257h19.365v13.394h25.689v-15.356h-53.638c-4.45 7.757-8.8935 15.506-13.33 23.248 4.4285 7.757 8.8785 15.506 13.35 23.248h6.6v15.648h-20.175c-7.3658-12.987-15.002-25.817-22.187-38.896v-0.022461c7.2075-13.056 14.866-25.886 22.187-38.875 7.524 0 15.047 0 22.571-0.067383 0.045-6.6522-1.785-13.011-5.5582-18.536zm24.492 65.392v15.356h25.689v-15.356h-25.689z"/>
<path d="m110.84 18.603h20.105c5.5132 8.7942 9.309 18.942 17.262 25.98 0.15825 0.51885 0.45 1.5783 0.60975 2.0964-8.4952 1.1051-17.1 0.24782-25.666 0.67383-1.0845-4.6898-3.231-8.9971-5.6032-13.123-1.6942 0-5.0385 0.022461-6.7102 0.022461l3e-3 -15.649zm-20.764 79.756c5.9422 0.022461 11.907 0 17.85-0.022461-0.13575 7.5312 5.175 12.199 10.394 16.664h-38.433c4.9252-4.6419 10.687-9.042 10.19-16.641"/>
</g>
</svg>
