<?xml version="1.0" encoding="UTF-8"?>
<svg viewBox="0 0 150 150" xmlns="http://www.w3.org/2000/svg">
<circle cx="75" cy="75" r="75" fill="#8834FF"/>
<path d="m32.812 99.516c0.89531 0 1.8375 0.046875 2.7328 0 1.7016-0.12656 3.4078-0.46875 5.0719-0.89062 3.2817-0.89611 6.3533-2.4335 9.0375-4.5234 0.76875-0.59531 1.5328-1.2328 2.2594-1.9172 1.5328-1.5328 2.8594-3.2812 3.9234-5.1562 0.9375-1.6641 1.6172-3.4547 2.1328-5.2875 0.042188-0.12656 0.042188-0.3 0.084375-0.42656h-6.6938c-1.391-0.0061678-2.7773-0.16334-4.1344-0.46875-0.1224-0.049764-0.25239-0.078298-0.38438-0.084375-0.065162-0.033081-0.1239-0.077528-0.17344-0.13125 0.38438-0.84844 0.72656-1.6594 1.0688-2.5125l2.6016-6.0141c0.083133-0.28714 0.21129-0.55927 0.37969-0.80625 0.18577-0.17191 0.43136-0.26442 0.68438-0.25781 2.0906-0.042188 4.1344 0 6.225 0h0.55312c-0.084375-0.34219-0.084375-0.59531-0.16875-0.89062-0.75517-2.8844-2.0901-5.5846-3.9234-7.9359-0.90158-1.148-1.8854-2.229-2.9438-3.2344-1.3238-1.2453-2.7977-2.3208-4.3875-3.2016-1.6568-0.9318-3.3991-1.7025-5.2031-2.3016-1.5025-0.47082-3.0425-0.81268-4.6031-1.0219-1.2375-0.13125-2.4328-0.17344-3.6656-0.25781-0.3 0-0.6-0.042188-0.89531-0.084375-0.12382-0.037119-0.22069-0.13399-0.25781-0.25781-0.42656-0.97969-0.85312-1.9172-1.2797-2.8969-0.51562-1.1531-0.98438-2.3016-1.4906-3.4125-0.38438-0.9375-0.81094-1.8281-1.2375-2.8125l0.89531-0.25781c1.875-0.25312 3.7969-0.3375 5.7141-0.25312 3.0524 0.10231 6.0837 0.54569 9.0375 1.3219 1.875 0.51094 3.75 1.1484 5.5406 1.9172 2.5172 1.0641 4.9031 2.3906 7.125 3.9656 0.975 0.72188 1.9547 1.4906 2.8969 2.2594 0.42188 0.34219 0.84844 0.72656 1.275 1.1062 2.1328 2.0484 4.0078 4.3922 5.5875 6.9094 1.575 2.5125 2.7281 5.2406 3.4969 8.1 0.25312 0.9375 0.42188 1.9219 0.6375 2.8594 0.05049 0.1472 0.18665 0.24793 0.34219 0.25312h8.6531c0.17344-0.68438 0.3-1.3641 0.42656-2.0484 0.51562-2.0016 1.1953-3.9234 2.0484-5.7562 0.67969-1.5328 1.5328-3.0234 2.5125-4.3875 0.89531-1.2375 1.8328-2.475 2.8594-3.6234 0.75383-0.89092 1.5649-1.7318 2.4281-2.5172 1.793-1.6276 3.7342-3.084 5.7984-4.35 2.1328-1.3219 4.35-2.3906 6.6938-3.2391 1.6219-0.55312 3.2391-1.0641 4.8609-1.4906 1.2328-0.3 2.4281-0.51562 3.7078-0.68438 1.0219-0.16875 2.0906-0.25312 3.1547-0.34219 0.68438-0.042188 1.3219-0.084375 2.0062-0.084375 1.0219 0 2.0016-0.042188 2.9812 0 0.98438 0.046875 1.9641 0.25781 2.9438 0.42656 0.042187 0 0.042187 0.046875 0.12656 0.12656l-0.72656 1.7062c-0.76406 1.7906-1.5328 3.5812-2.3438 5.4141-0.30972 0.64338-0.59431 1.2986-0.85312 1.9641-0.16875 0.42188-0.59531 0.25312-0.89062 0.3375-0.25781 0.046875-0.46875 0.046875-0.72656 0-4.3579 0.042437-8.6525 1.0477-12.577 2.9438-1.8355 0.89667-3.5545 2.0143-5.1188 3.3281-0.6375 0.55312-1.3594 1.1062-1.9594 1.7438-1.5375 1.5375-2.8594 3.2812-3.9234 5.2031-0.85518 1.5858-1.5402 3.2576-2.0438 4.9875-0.046875 0.12656-0.046875 0.3-0.089062 0.42656h0.46875c2.2172 0 4.4766-0.046875 6.6938 0 1.3219 0 2.6438 0.21094 3.9234 0.6375 0.046875 0.046875 0.084375 0.046875 0.12656 0.089062l-1.2328 2.8125c-0.85312 2.0016-1.7484 4.0078-2.6016 6.0516-0.25781 0.6-0.42656 0.72656-1.1109 0.72656h-6.225c0.17344 0.59531 0.3 1.1062 0.46875 1.6219 0.6 1.7906 1.4531 3.4922 2.5172 5.0719 0.64219 0.9375 1.3219 1.7906 2.0484 2.6438 0.42188 0.51094 0.89062 1.0219 1.3594 1.4484 1.5797 1.5328 3.375 2.8594 5.2875 3.9234 1.6219 0.9375 3.3703 1.7062 5.1609 2.2969 1.7062 0.6 3.4969 0.98438 5.3297 1.1531l3.3656 0.25781c0.42656 0.046875 0.85312 0.046875 1.2797 0.084375 0.084375 0.046875 0.17344 0.084375 0.21562 0.17344 0.72188 1.7016 1.4484 3.4078 2.2172 5.1141l1.8281 4.1766c-0.59531 0.13125-1.1484 0.25781-1.7438 0.3-1.4531 0.084375-2.9438 0.16875-4.3922 0.16875-1.3219 0-2.6438-0.12656-3.9234-0.29531-1.773-0.25038-3.5365-0.56308-5.2875-0.9375-2.099-0.51533-4.1526-1.2004-6.1406-2.0484-2.3675-1.0136-4.6234-2.2704-6.7312-3.75-1.0986-0.81445-2.1786-1.6537-3.2391-2.5172-0.69511-0.56613-1.3513-1.1784-1.9641-1.8328-2.6928-2.739-4.9106-5.9073-6.5625-9.375-0.9659-2.0539-1.6819-4.2162-2.1328-6.4406-0.084375-0.21562-0.12656-0.46875-0.17344-0.68438 0-0.42188-0.21094-0.51094-0.59531-0.51094h-8.6109c-0.42869 2.3149-1.1158 4.5743-2.0484 6.7359-0.75616 1.8346-1.7136 3.5797-2.8547 5.2031-0.89235 1.2546-1.8467 2.4639-2.8594 3.6234-0.72915 0.88487-1.5269 1.7109-2.3859 2.4703-1.3219 1.1531-2.7281 2.2172-4.1344 3.2813-1.6912 1.2016-3.4894 2.2451-5.3719 3.1172-3.5044 1.6663-7.2429 2.787-11.086 3.3234-1.3219 0.21094-2.6438 0.34219-3.9609 0.46875-0.75252 0.04264-1.5069 0.04264-2.2594 0-1.1109 0-2.2172-0.046875-3.2812-0.084375-0.38906-0.046875-0.77344-0.084375-1.1531-0.17344-0.21562-0.042187-0.3-0.12656-0.17344-0.37969 0.85312-1.9641 1.7484-3.9234 2.6016-5.8875 0.51562-1.1906 0.98438-2.2969 1.5328-3.5344v-0.0046875z" fill="#FFF"/>
</svg>
