<?xml version="1.0" encoding="UTF-8"?>
<svg viewBox="0 0 150 150" xmlns="http://www.w3.org/2000/svg">
<g fill="#18A0B1">
<circle cx="137.07" cy="12.931" r="12.931"/>
<path d="m37.655 97.19c-10.017-17.005-7.2659-38.631 6.6893-52.587 13.955-13.955 35.582-16.706 52.587-6.6893l10.345-10.345-0.51724-0.41379c-22.944-15.123-53.374-11.94-72.692 7.6036s-22.146 50.01-6.7562 72.776l10.345-10.345zm74.69-43.81c10.017 17.005 7.2659 38.631-6.6893 52.587-13.955 13.955-35.582 16.706-52.587 6.6892l-10.345 10.345c22.855 15.517 53.51 12.611 73.043-6.922 19.534-19.534 22.439-50.188 6.922-73.043l-10.345 10.345z"/>
<circle cx="12.931" cy="137.07" r="12.931"/>
</g>
</svg>
