<?xml version="1.0" encoding="UTF-8"?>
<svg viewBox="0 0 150 150" xmlns="http://www.w3.org/2000/svg">
<path transform="translate(10)" d="m65 0-65 37.471v74.942l65 37.471 65-37.471v-74.942l-65-37.471zm1.3289 121.38-49.891-28.413 0.20222-13.817 49.66 28.385 23.949-13.788-16.062-9.2596-6.0089 3.4615-11.267-6.4615 6.0378-3.4904-7.8867-4.5577-4.7667 2.7692-11.296-6.4615 4.7956-2.7692-25.451-14.683 47.956-27.635 45.24 25.76-12.133 7.0385-33.107-18.952-23.949 13.788 13.404 7.7308 6.8467-3.9808 11.296 6.4615-6.9044 3.9808 7.8867 4.5577 5.6044-3.2596 11.296 6.4615-5.6622 3.2885 28.08 16.183-47.869 27.663z"/>
</svg>
