<?xml version="1.0" encoding="UTF-8"?>
<svg viewBox="0 0 150 150" xmlns="http://www.w3.org/2000/svg">
<defs>
<linearGradient id="a" x1="50%" x2="50%" y1="86.649%" y2=".046%">
<stop stop-color="#00BED3" offset="0"/>
<stop stop-color="#00AEE5" offset="1"/>
</linearGradient>
</defs>
<g transform="translate(10)">
<polygon points="129.99 112.5 129.99 37.501 65.014 0 0.037 37.501 0.037 112.5 65.014 150" fill="url(#a)"/>
<path d="m81.283 36.271c2.3635 0 4.2795-1.914 4.2795-4.2751s-1.916-4.2751-4.2795-4.2751h-19.411c-2.673 0-4.84 2.1647-4.84 4.835v55.636c-7.1652 2.0113-12.431 8.7172-12.431 16.693 0 9.5559 7.5728 17.304 16.914 17.304 9.3416 0 16.914-7.7482 16.914-17.304 0-8.0433-5.3657-14.804-12.635-16.744v-33.751h11.412c2.3635 0 4.2795-1.914 4.2795-4.2751 0-2.3611-1.916-4.2751-4.2795-4.2751h-11.412v-9.5681h15.488zm-10.416 68.606c0 5.293-4.1858 9.5681-9.3518 9.5681-5.166 0-9.3518-4.2751-9.3518-9.5681 0-5.293 4.1858-9.5681 9.3518-9.5681 5.166 0 9.3518 4.2833 9.3518 9.5681z" fill="#FFF"/>
</g>
</svg>
