<?xml version="1.0" encoding="UTF-8"?>
<svg viewBox="0 0 150 150" xmlns="http://www.w3.org/2000/svg">
<path d="m74.639-3.1736e-4c-41.222 0-74.639 33.417-74.639 74.639 0 41.222 33.417 74.639 74.639 74.639 41.222 0 74.639-33.417 74.639-74.639 0.057503-19.813-7.7876-38.831-21.798-52.841-14.01-14.01-33.028-21.855-52.841-21.798zm1.2651 77.169-7.7711 26.205h41.566c0.58119-0.020412 1.1447 0.20151 1.5559 0.61272 0.41121 0.41121 0.63314 0.97476 0.61273 1.556v0.54217l-3.6145 12.47c-0.33407 1.2106-1.4558 2.0332-2.7108 1.988h-63.614l10.663-36.325-11.928 3.6145 2.7108-8.3133 11.928-3.6145 15-50.964c0.33407-1.2106 1.4558-2.0332 2.7108-1.988h16.084c0.58119-0.020412 1.1447 0.20151 1.5559 0.61273 0.41121 0.41121 0.63314 0.97476 0.61273 1.5559v0.54217l-12.651 43.012 11.928-3.6145-2.5301 8.6747-12.108 3.4337z" fill="#345D9D"/>
</svg>
