<?xml version="1.0" encoding="UTF-8"?>
<svg viewBox="0 0 150 150" xmlns="http://www.w3.org/2000/svg">
<g transform="translate(0 16)">
<polygon points="58.181 48.476 74.984 85.088 99.941 70.912 99.989 70.912 99.989 42.544" fill="#2BBDF7"/>
<polygon points="132.22 21.272 116.65 15.515 99.989 14.176 99.989 42.544 99.989 42.544 99.989 102.56 99.989 102.56 124.98 116.76 144.91 76.796 132.27 38.35" fill="#2891F9"/>
<polygon points="130.77 14.176 124.98 28.368 124.98 28.368 124.98 116.53 149.97 102.34 149.97 14.176" fill="#2BBDF7"/>
<polygon points="124.98 0 99.989 14.176 124.98 28.368 149.97 14.176" fill="#2B6DEF"/>
<polygon points="74.984 56.72 74.984 56.72 49.995 29.165 0 14.176 0 102.34 0 102.34 24.989 116.53 32.154 67.738 49.995 70.912 49.995 70.912 74.984 85.088" fill="#2891F9"/>
<polygon points="24.989 0 0 14.176 74.984 56.72 86.314 50.309 99.989 42.544" fill="#2B6DEF"/>
<polygon points="24.989 56.72 24.989 56.72 24.989 116.53 49.995 102.34 49.995 102.34 49.995 70.912 49.995 70.912" fill="#2BBDF7"/>
</g>
</svg>
