<?xml version="1.0" encoding="UTF-8"?>
<svg viewBox="0 0 150 150" xmlns="http://www.w3.org/2000/svg">
<circle cx="75" cy="75" r="75" fill="#103F68"/>
<path d="m74.906 23.522 44.625 25.702v51.562l-44.573 25.777-0.36094-0.089063-44.128-25.688v-51.562l44.128-25.702h0.30938zm-0.14531 5.3344-39.605 23.062v46.172l39.6 23.058 4.8375-2.7984 35.25-20.273v-46.148l-35.25-20.391-4.8328-2.6812zm-33.469 49.734 11.723-8.7656 10.364 6.6188v11.906l7.8422 7.5562-0.0046875 3.5438-7.5562 7.0781h-6.3797l-15.984-27.938h-0.0046875zm37.045 20.869-0.014062-3.5625 7.8141-7.5469v-11.906l10.252-6.7031 11.7 8.8547-15.905 27.853h-6.3l-7.5469-6.9891zm-11.109-23.016-3.8156-9.9891h22.678l-3.7406 9.9891 1.1062 11.166-8.7516 0.01875-8.6484 0.014062 1.1719-11.198zm7.4766-12.727-21.553-0.009375 4.0078-17.906h34.988l4.2188 17.93-21.661-0.014062z" fill="#FFF"/>
</svg>
