<?xml version="1.0" encoding="UTF-8"?>
<svg viewBox="0 0 150 150" xmlns="http://www.w3.org/2000/svg">
<g transform="translate(0 30)">
<path d="m105.97 64.125c-10.323 0-18.71-8.6786-18.71-19.286 0-10.607 8.3871-19.286 18.71-19.286 10.323 0 18.71 8.6786 18.71 19.286 0.16129 10.607-8.2258 19.286-18.71 19.286m0-63.643c-12.097 0-23.226 5.1429-30.968 13.5 7.9032 8.3571 12.258 19.446 12.258 31.018 0 12.054-4.6774 22.982-12.258 31.018 7.9032 8.3571 18.871 13.5 30.968 13.5 23.871 0 43.226-19.929 43.226-44.357 0.16129-24.75-19.355-44.679-43.226-44.679" fill="#00A7E7"/>
<path d="m44.032 64.125c-10.323 0-18.71-8.6786-18.71-19.286 0-10.607 8.3871-19.286 18.71-19.286 10.323 0 18.71 8.6786 18.71 19.286 0 10.607-8.3871 19.286-18.71 19.286m30.968-50.143c-7.9032-8.3571-18.871-13.5-30.968-13.5-23.871 0-43.226 19.929-43.226 44.357 0 24.589 19.355 44.357 43.226 44.357 12.097 0 23.226-5.1429 30.968-13.5-7.9032-8.3571-12.258-19.446-12.258-31.018 0-11.893 4.6774-22.821 12.258-30.696" fill="#DA1157"/>
<path d="m62.742 44.839c0 12.054 4.6774 22.982 12.258 31.018 7.9032-8.3571 12.258-19.446 12.258-31.018 0-12.054-4.6774-22.982-12.258-31.018-7.9032 8.5179-12.258 19.607-12.258 31.018" fill="#1F3464"/>
</g>
</svg>
