<?xml version="1.0" encoding="UTF-8"?>
<svg viewBox="0 0 150 150" xmlns="http://www.w3.org/2000/svg">
<circle cx="75" cy="75" r="75" fill="#00316D"/>
<path d="m85.106 93.22c-0.060938-0.1125-0.070312-0.15938-0.09375-0.17344-2.9062-1.3734-5.8125-2.7516-8.7281-4.1062-0.15469-0.075-0.46875-0.05625-0.56719 0.051562-1.2656 1.3594-2.5031 2.7516-3.7594 4.1438 0.90938 0.67031 12.389 0.675 13.148 0.084375m-26.597-33.577-0.29062-0.60938c-0.24375 0.17344-0.5625 0.3-0.72188 0.53438-2.6853 3.9952-5.3541 8.0015-8.0062 12.019-0.16406 0.25312-0.15469 0.62344-0.23438 0.9375 0.32812-0.065625 0.69375-0.051562 0.96094-0.21562 2.2771-1.3694 4.5336-2.7727 6.7688-4.2094 0.39287-0.27699 0.66331-0.69526 0.75469-1.1672 0.3-2.3438 0.50625-4.7016 0.76875-7.2891m56.236 33.984h3.8719c0.74531 0 1.0312-0.28125 0.55781-0.99844-2.4609-3.7594-4.9125-7.5234-7.3828-11.269-0.13125-0.20625-0.43125-0.29531-0.65625-0.43594-0.11719 0.23438-0.31875 0.46875-0.34219 0.71719-0.28594 3.6656-0.54375 7.3312-0.825 10.997-0.051563 0.69844 0.19219 1.0125 0.90469 0.99844 1.2891-0.028125 2.5781-0.009375 3.8719-0.009375m-83.128-0.28125c0.59062 0.14062 0.88125 0.27188 1.1672 0.27656 4.1859 0.009375 8.3719 0 12.553 0.009375 0.81094 0 1.0172-0.28594 0.675-1.0688-1.3132-2.9782-2.5976-5.9689-3.8531-8.9719-0.36562-0.87656-0.70312-0.83438-1.2797-0.21562-2.2312 2.4094-4.4812 4.7953-6.7219 7.1906-0.78281 0.84375-1.5469 1.6875-2.5406 2.7797m61.852-21.623c0.27188 0.52969 0.36094 0.75938 0.49688 0.95625l5.6625 8.2219c2.3391 3.3984 4.6734 6.7969 7.0312 10.181 0.15938 0.23438 0.46875 0.36094 0.70312 0.53438 0.12188-0.28125 0.31875-0.54844 0.35625-0.83906 0.09375-0.79688 0.1125-1.5938 0.16406-2.3906 0.25312-3.6328 0.53438-7.2609 0.75-10.889 0.09375-1.5469-0.57656-2.3438-2.0438-2.7094-3.9141-0.97969-7.8281-1.9641-11.747-2.9344-0.35156-0.084375-0.72188-0.070312-1.3734-0.13125m-0.99375-24.07-0.35625 0.060938c-0.046875 0.71719-0.11719 1.4391-0.14062 2.1656l-0.52031 17.677c-0.023438 0.64688 0.16875 0.98438 0.83906 1.1438 4.0594 0.98438 8.1094 2.0203 12.169 3.0188 0.35156 0.084375 0.74062 0.0046875 1.1109 0-0.09375-0.36094-0.1125-0.76875-0.28594-1.0875-4.0453-7.3594-8.1-14.719-12.164-22.069-0.17812-0.32344-0.43125-0.60938-0.65156-0.90938m-18.211 36.127c0.1125-0.62344 0.22031-0.99844 0.23438-1.3734 0.060938-1.9641 0.065625-3.9281 0.15469-5.8922 0.084101-1.4964-0.36057-2.9748-1.2562-4.1766-3.7218-5.1641-7.4327-10.336-11.133-15.516-0.16875-0.23438-0.23906-0.53906-0.35625-0.81094l-0.44062 0.2625c-0.10781 0.39375-0.27656 0.78281-0.31875 1.1812-0.32812 3.1875-0.60938 6.375-0.96094 9.5531-0.10855 0.67825 0.11254 1.3676 0.59531 1.8562 4.1953 4.6734 8.3625 9.375 12.548 14.062 0.225 0.25312 0.49688 0.45938 0.93281 0.85312m2.7047-0.97969 0.28125 0.1875c0.25781-0.20156 0.5625-0.36094 0.76875-0.60938 3.5641-4.3272 7.1157-8.6647 10.655-13.012 0.21698-0.27555 0.34455-0.61084 0.36562-0.96094 0.16875-5.7891 0.31406-11.578 0.44531-17.367 0.009375-0.31875-0.17344-0.64219-0.27188-0.96094-0.25781 0.24844-0.61875 0.45-0.76406 0.75-3.2812 6.9469-6.4172 13.964-9.8578 20.822-1.8188 3.6281-1.5281 7.3734-1.6219 11.156m-16.42 10.828c2.2547 0 4.5141 0.032812 6.7688-0.028125 0.51462-0.0244 1.0035-0.23226 1.3781-0.58594 1.5703-1.6453 3.0422-3.3891 4.6078-5.0391 0.58594-0.60938 0.45469-0.98438-0.042188-1.5281-2.6454-2.8692-5.2674-5.7599-7.8656-8.6719-0.62812-0.70312-0.98906-0.69844-1.5516 0.070312-3.5672 4.8797-7.1719 9.7266-10.758 14.597-0.17812 0.24375-0.24375 0.56719-0.36562 0.85312 0.31406 0.1125 0.62812 0.31406 0.94688 0.31406 2.2969 0.028125 4.5844 0.01875 6.8812 0.01875m2.3344-18.591c-1.2469-1.4484-2.4703-2.8125-3.6281-4.2422-0.4875-0.59531-0.8625-0.65625-1.5188-0.24844-3.9188 2.4656-7.8797 4.8656-11.789 7.3453-0.70781 0.45-1.2656 1.1484-1.8656 1.7625-0.55781 0.57188-0.48281 1.2-0.17812 1.9031 1.5234 3.4828 3.0094 6.9797 4.5141 10.472 0.57188 1.3125 0.7875 1.3359 1.6641 0.16406 2.3203-3.0938 4.6312-6.2016 6.9422-9.3l5.8594-7.8562m27.164-3.6938c-0.30469 0.49219-0.45 0.79219-0.65625 1.0359-3.7125 4.5281-7.4297 9.0562-11.17 13.566-0.60938 0.73594-0.29531 1.0266 0.39375 1.3406 4.2984 1.9688 8.5781 3.9703 12.886 5.9297 0.55172 0.24851 1.1481 0.38246 1.7531 0.39375 3.5438 0.032812 7.0922 0.023438 10.641 0.0046875 0.32812 0 0.66094-0.15 0.99375-0.23438-0.11719-0.34688-0.16875-0.74531-0.375-1.0406-3.27-4.7754-6.5497-9.5441-9.8391-14.306-1.4531-2.1094-2.9156-4.2188-4.6266-6.6891m-15.08 27.08c-16.134 0-32.269-0.0046875-48.403 0.009375-1.2562 0-2.3906-0.14062-2.9344-1.4906-0.51562-1.2797 0.084375-2.2266 0.92344-3.1219 4.8188-5.1469 9.7031-10.238 14.391-15.497 1.7906-2.0062 3.1734-4.3922 4.6875-6.6469 4.8516-7.2562 9.6656-14.541 14.541-21.778 0.47812-0.70781 1.2094-1.425 1.9781-1.7062 1.0594-0.39375 1.9641 0.21562 2.6391 1.1812 3.9234 5.6062 7.875 11.194 11.817 16.791 0.81094 1.1438 1.1016 1.1062 1.7016-0.19688l12.159-26.484c0.47812-1.0406 1.1109-1.9266 2.3438-1.9828 1.2891-0.060938 2.0719 0.72188 2.6766 1.8281 6.1031 11.072 12.066 22.238 18.408 33.169 3.8344 6.6094 8.2734 12.848 12.441 19.256 0.51562 0.7875 1.0359 1.5703 1.5422 2.3672 0.60938 0.96094 0.97031 2.0156 0.39844 3.0797-0.5625 1.0312-1.6031 1.2281-2.6953 1.2281-16.205-0.009375-32.409-0.0046875-48.614-0.0046875" fill="#FFF"/>
</svg>
