<?xml version="1.0" encoding="UTF-8"?>
<svg viewBox="0 0 150 150" xmlns="http://www.w3.org/2000/svg">
<g transform="translate(0 43)" fill="#4A90E2">
<ellipse cx="10.795" cy="53.244" rx="10.795" ry="10.739"/>
<path d="m139.43 0c-5.8439 0-10.795 4.7008-10.795 10.739 0 8.5046-1.3526 10.739-10.795 10.739h-0.90173c-5.3931 0.44852-9.6676 4.9251-9.6676 10.514v0.22426c0 8.2803-1.578 10.29-10.795 10.29-0.45087 0-0.90173 0-1.1272 0.22426-5.3931 0.67278-9.6676 5.1493-9.6676 10.514 0 5.8135 4.7254 10.739 10.795 10.739 5.6185 0 10.344-4.4765 10.569-9.8415v-0.89704c0-7.6075 2.4711-10.514 10.569-10.739h0.22543c5.6185 0 10.344-4.4765 10.569-10.066v-0.67278c0-7.8318 2.4711-10.739 10.795-10.739 5.8439 0 10.795-4.7008 10.795-10.739 0-5.5892-4.7254-10.29-10.569-10.29zm-63.416 21.477h-0.90173c-9.4422 0-10.795-2.234-10.795-10.739 0-5.8135-4.7254-10.739-10.795-10.739-5.8439 0-10.795 4.7008-10.795 10.739 0 8.5046-1.3526 10.514-10.795 10.514h-0.90173c-5.3931 0.44852-9.6676 4.9251-9.6676 10.514 0 5.8135 4.7254 10.739 10.795 10.739 5.6185 0 10.344-4.4765 10.569-9.8415v-0.67278c0-7.8318 2.4711-10.739 10.795-10.739s10.795 2.9067 10.795 10.514c0 5.8135 4.7254 10.739 10.795 10.739 6.0694 0 10.795-4.7008 10.795-10.739-0.22543-5.365-4.5-9.8415-9.8931-10.29z"/>
</g>
</svg>
