<?xml version="1.0" encoding="UTF-8"?>
<svg viewBox="0 0 150 150" xmlns="http://www.w3.org/2000/svg">
<defs>
<linearGradient id="a" x1="50%" x2="50%" y2="100%">
<stop stop-color="#6172B0" offset=".01"/>
<stop stop-color="#495B9E" offset=".08"/>
<stop stop-color="#485A9D" offset=".09"/>
<stop stop-color="#2F4387" offset=".37"/>
<stop stop-color="#253A7E" offset=".55"/>
<stop stop-color="#20326E" offset="1"/>
</linearGradient>
</defs>
<ellipse cx="74.971" cy="74.977" rx="74.901" ry="74.977" fill="url(#a)"/>
<path d="m76.468 95.101s15.508 3.821 27.8-5.8337c12.293-9.6546 11.89-24.237 11.89-24.237s-13.899-4.3306-26.524 4.883c-12.625 9.2136-13.166 25.187-13.166 25.187zm-0.050305 7.2894s2.5259 10.929 12.465 15.565c9.939 4.6358 18.925-0.22279 18.925-0.22279s-1.6982-10.083-11.463-15.076c-9.7652-4.9929-19.927-0.26551-19.927-0.26551zm23.367-4.7304s5.3613 5.968 13.188 5.4262c7.8262-0.54171 11.771-6.6989 11.771-6.6989s-4.5503-5.7284-12.396-5.4705c-7.846 0.25788-12.562 6.7431-12.562 6.7431zm-7.8415-37.669s-8.2652-13.677-23.78-15.542-25.526 8.7101-25.526 8.7101 6.7698 12.9 22.204 15.323 27.102-8.4919 27.102-8.4919zm5.1829-5.115s5.9329-9.5158 2.1814-19.837c-3.7515-10.321-13.54-13.238-13.54-13.238s-5.9223 8.3393-2.5366 18.789c3.3857 10.45 13.895 14.286 13.895 14.286zm-19.864-13.195s0.42226-8.0158-5.4878-13.172c-5.9101-5.1562-13.056-3.5951-13.056-3.5951s-0.82622 7.2696 4.8994 12.636c5.7256 5.3667 13.645 4.1307 13.645 4.1307zm-13.921 37.108s-13.663 8.2752-15.526 23.805c-1.8628 15.53 8.7012 25.555 8.7012 25.555s12.887-6.7767 15.308-22.228c2.4207-15.452-8.4832-27.131-8.4832-27.131zm-5.1098-5.1882s-9.5076-5.939-19.809-2.1867c-10.302 3.7523-13.224 13.553-13.224 13.553s8.3232 5.9283 18.75 2.5483c10.427-3.38 14.284-13.915 14.284-13.915zm-13.181 19.886s-8.0076-0.42421-13.159 5.4934-3.5915 13.068-3.5915 13.068 7.2622 0.82706 12.623-4.9044 4.1265-13.657 4.1265-13.657z" fill="#FFF"/>
</svg>
