<?xml version="1.0" encoding="UTF-8"?>
<svg viewBox="0 0 150 150" xmlns="http://www.w3.org/2000/svg">
<circle cx="75" cy="75" r="75" fill="#1A53F0"/>
<path d="m55.575 81.047c-11.267 0.0077641-20.396 9.1467-20.391 20.414-0.0051785 11.266 9.1204 20.404 20.386 20.414 5.4125-0.001243 10.603-2.1529 14.429-5.9814 3.8259-3.8285 5.9739-9.0202 5.9714-14.433 0.0024848-5.4117-2.1449-10.603-5.9698-14.431-3.8249-3.8284-9.0139-5.9805-14.426-5.983zm0 34.655c-7.8553-0.005177-14.22-6.376-14.217-14.231-0.0024841-3.7731 1.494-7.3927 4.1602-10.062 2.6662-2.6698 6.2838-4.171 10.057-4.1735 3.7739 0.0012427 7.3927 1.5019 10.06 4.1718 2.6673 2.6699 4.1644 6.2902 4.1619 10.064-0.010319 7.8518-6.3701 14.216-14.222 14.231zm43.566-78.202c-5.4117 0.0024858-10.601 2.1546-14.426 5.983-3.8249 3.8284-5.9723 9.0194-5.9698 14.431-0.0051773 11.267 9.1233 20.406 20.391 20.414 5.4125-0.0012428 10.603-2.1529 14.429-5.9814 3.8259-3.8285 5.9739-9.0202 5.9714-14.433 0.002484-5.4125-2.1455-10.604-5.9714-14.433-3.8259-3.8285-9.0161-5.9801-14.429-5.9814h0.0046875zm0 34.655c-3.7731-0.001243-7.3912-1.5013-10.058-4.1702-2.6671-2.6689-4.1648-6.288-4.1636-10.061-0.002484-3.7739 1.4946-7.3942 4.1619-10.064 2.6673-2.6699 6.2861-4.1706 10.06-4.1718 3.7731 0.0024856 7.3907 1.5037 10.057 4.1735s4.1627 6.2893 4.1602 10.062c-0.010312 7.8499-6.3673 14.213-14.217 14.231zm-43.566-34.655c-9.7082 0.012833-18.066 6.8564-19.994 16.371s3.1068 19.072 12.044 22.863c8.9453 3.78 19.315 0.72868 24.788-7.2938 5.4779-8.0262 4.547-18.8-2.2266-25.767h5.7797v-6.1734h-20.391zm14.222 20.414c0.0012434 3.7731-1.4964 7.3922-4.1635 10.061-2.6671 2.6689-6.2852 4.1689-10.058 4.1702-7.8553-0.005176-14.22-6.376-14.217-14.231-0.0025891-7.8553 6.3619-14.226 14.217-14.231 7.8536 0.01291 14.216 6.3777 14.227 14.231h-0.0046875z" fill="#FFF"/>
</svg>
