<?xml version="1.0" encoding="UTF-8"?>
<svg viewBox="0 0 150 150" xmlns="http://www.w3.org/2000/svg">
<defs>
<linearGradient id="a" x1="6.333%" x2="93.333%" y1="92.317%" y2="5.791%">
<stop stop-color="#00AEE9" offset="0"/>
<stop stop-color="#69FABD" offset="1"/>
</linearGradient>
</defs>
<path d="m117.64-9.9577e-6c-17.839-0.013839-32.321 14.419-32.367 32.258v35.767c-3.3333 0.225-6.7417 0.36667-10.275 0.36667s-6.925 0.14167-10.275 0.34167v-36.475c-0.28357-17.671-14.689-31.847-32.362-31.847s-32.079 14.176-32.363 31.847v85.483c0.28357 17.671 14.689 31.847 32.363 31.847s32.079-14.176 32.362-31.847v-35.767c3.3333-0.225 6.7417-0.36667 10.275-0.36667s6.925-0.14167 10.275-0.34167v36.475c0.28357 17.671 14.689 31.847 32.362 31.847 17.673 0 32.079-14.176 32.362-31.847v-85.483c-0.045954-17.836-14.523-32.268-32.358-32.258zm-85.283 13.217c10.528-0.0046295 19.072 8.5139 19.1 19.042v37.875c-9.4685 1.372-18.715 3.9862-27.5 7.775-3.8064 1.6706-7.3896 3.8093-10.667 6.3667v-52.017c0.027529-10.515 8.5519-19.028 19.067-19.042zm19.1 104.53c0 10.549-8.5514 19.1-19.1 19.1-10.549 0-19.1-8.5514-19.1-19.1v-8.575c0-7.575 6-14.75 16.058-19.217 7.0873-3.0576 14.524-5.2323 22.142-6.475v34.267zm66.183 19.042c-10.528 0.00463-19.072-8.5139-19.1-19.042v-37.875c9.4685-1.372 18.715-3.9862 27.5-7.775 3.8064-1.6706 7.3896-3.8093 10.667-6.3667v52.017c-0.027528 10.515-8.5519 19.028-19.067 19.042zm3.0417-76.783c-7.0873 3.0576-14.524 5.2323-22.142 6.475v-34.217c0-10.549 8.5514-19.1 19.1-19.1 10.549 0 19.1 8.5514 19.1 19.1v8.575c0 7.5417-6 14.717-16.058 19.167z" fill="url(#a)"/>
</svg>
