<?xml version="1.0" encoding="UTF-8"?>
<svg viewBox="0 0 150 150" xmlns="http://www.w3.org/2000/svg">
<g transform="translate(0 4)">
<path d="m34.091 124.7c8.9856 10.267 21.697 16.497 35.294 17.297 8.0425-0.42828 15.63-3.8745 21.257-9.6544 11.098-9.5335 22.749-18.399 34.893-26.55l6.8182-2.8159c2.8075-1.2068 7.6203-4.0227 12.032-9.2521 4.8128-6.4363 5.615-13.275 5.615-15.688-0.53327-7.6122-3.0202-14.957-7.2193-21.32-22.269 39.799-63.259 65.437-108.69 67.983z" fill="#0293D6"/>
<path d="m49.332 10.459c6.0507-6.4102 14.461-10.046 23.262-10.057 5.5735-0.37429 11.064 1.5095 15.241 5.2295 11.504 8.1745 25.208 12.662 39.305 12.873 3.6096 0.40227 10.829 1.6091 15.642 7.6431 3.6096 4.8272 4.0107 10.057 4.0107 12.47-0.32305 6.2158-1.6786 12.334-4.0107 18.102l-93.449-46.261z" fill="#EBE638"/>
<path d="m34.091 124.7c-3.6096-0.40227-8.4225-1.6091-14.037-4.0227-5.615-2.4136-12.433-5.2295-16.845-12.873-2.8075-4.8272-3.2086-9.6544-3.2086-12.873 0.097918-8.5345 2.1566-16.931 6.016-24.538 3.8398-9.402 6.4028-19.279 7.6203-29.365l2.0053-8.0453c1.2032-4.0227 2.0053-8.0453 4.8128-12.068l4.4118-4.8272c7.2868-4.595 15.91-6.58 24.465-5.6317-23.245 33.351-28.926 75.936-15.241 114.24z" fill="#BAD147"/>
<path d="m49.332 10.459c-0.40107 0 21.658 1.2068 35.294 6.034l11.23 4.8272c-4.4118-0.40227-32.487-1.6091-53.743 19.711-26.872 27.354-18.048 64.765-17.647 66.776-6.2272-7.8581-9.3665-17.733-8.8235-27.756 1.0674-26.893 13.279-52.119 33.69-69.592z" fill="#78B650"/>
<path d="m103.07 109.82c15.512-28.281 12.669-63.122-7.2193-88.499 11.617 1.9481 22.303 7.5889 30.481 16.091 4.8128 4.0227 10.829 10.057 16.444 19.309-7.9302 21.127-21.704 39.548-39.706 53.099z" fill="#2F8260"/>
<path d="m115.91 39.02c-6.4171-10.861-15.642-15.688-19.652-17.7-3.2086-0.80453-33.289-5.6317-56.15 16.493-18.449 17.7-19.652 40.629-19.652 45.054 0.08491 15.16 5.1607 29.867 14.439 41.836 11.923 2.3025 24.174 2.3025 36.096 0 6.016-1.2068 20.053-3.6204 32.086-14.079 1.6043-1.6091 19.251-18.102 20.455-44.249 0-4.4249 0-15.688-7.6203-27.354zm-14.439 58.329c-7.5301 8.2158-18.152 12.886-29.278 12.873-2.4064 0-18.449-0.40229-29.679-13.677-1.6043-2.0113-9.6257-11.666-9.2246-26.147 0.80214-19.309 16.043-30.572 19.251-32.986 2.8075-2.0113 9.6257-6.4363 19.652-6.8385 2.4064-0.40227 10.829-0.80453 19.251 4.0227 18.449 10.057 19.251 34.193 19.251 35.802 0 4.4249 0 16.493-9.2246 26.952z" fill="#085229"/>
</g>
</svg>
