<?xml version="1.0" encoding="UTF-8"?>
<svg viewBox="0 0 150 150" xmlns="http://www.w3.org/2000/svg">
<defs>
<linearGradient id="a" x1="50%" x2="50%" y2="100%">
<stop stop-color="#FFA0A0" offset="0"/>
<stop stop-color="#C383D9" offset=".36006"/>
<stop stop-color="#84D2ED" offset=".66823"/>
<stop stop-color="#77FCE5" offset=".99913"/>
</linearGradient>
</defs>
<circle cx="75" cy="75" r="75" fill="url(#a)"/>
<g transform="matrix(1 0 0 -1 5.069 144.98)" fill="#040A22">
<path d="m65.464 139.81c-21.873-1.4605-41.632-12.904-53.763-31.134-12.199-18.368-15.017-41.237-7.646-62.131 6.5636-18.557 21.048-33.746 39.313-41.237 1.1684-0.4811 2.1993-0.87629 2.268-0.87629 0.085911 0-0.189 0.41237-0.60137 0.92784-5.5326 6.8041-3.8832 18.591 3.3849 24.038 3.866 2.9038 8.2302 4.2784 17.457 5.5326 18.299 2.457 31.632 8.3677 41.254 18.23 7.3196 7.5086 11.443 16.34 12.99 27.818 0.42955 3.1787 0.44674 11.186 0.017182 14.089-0.72165 4.8454-1.7698 8.8832-3.3162 12.749-7.3196 18.368-24.158 30.515-44.313 32.01-2.6632 0.189-3.9863 0.189-7.0447-0.017182z"/>
<path d="m105.76 129.91c4.7251-4.0378 8.2302-7.9897 11.495-12.938 8.3333-12.646 11.117-27.663 7.8866-42.526-2.1821-10.12-7.7148-19.897-15.447-27.302-11.323-10.842-27.182-17.388-45.086-18.574-6.9244-0.46392-10.979-1.9931-14.141-5.3093-1.323-1.3918-2.354-3.2646-2.8694-5.1718-0.36082-1.3918-0.51546-4.2268-0.27491-5.4639 0.92784-5 5.7045-9.4158 12.56-11.598 3.5911-1.134 12.165-1.3574 18.918-0.46392 15.687 2.0619 29.691 8.9863 40.842 20.189 11.117 11.168 18.007 25.533 19.914 41.495 0.37801 3.2131 0.42955 12.027 0.08591 14.948-1.5636 13.351-6.0481 24.691-13.866 35.052-3.5739 4.7251-7.8351 9.055-12.715 12.921-1.5464 1.2027-6.3402 4.4845-7.4914 5.0859-0.53265 0.2921-0.53265 0.27491 0.189-0.34364z"/>
</g>
</svg>
