<?xml version="1.0" encoding="UTF-8"?>
<svg viewBox="0 0 150 150" xmlns="http://www.w3.org/2000/svg">
<g transform="translate(0 7)" fill="#2E9AD0">
<g transform="translate(3.545 2.736)">
<path d="m87.382 128.97h-41.236l-33.273-24.464-12.682-39.514 12.655-39.514 33.273-24.464h41.264l33.273 24.464 12.655 39.514-12.655 39.514-0.46364 0.46519-32.809 23.998zm-40.309-2.8459h39.382l31.882-23.506 12.191-37.626-12.191-37.626-31.882-23.506h-39.382l-31.855 23.506-12.191 37.626 12.191 37.626 31.855 23.506z"/>
<polygon points="138.03 122.37 118.8 104.97 100.04 97.909 66.764 102.15 33.027 97.909 14.264 104.97 13.336 102.15 32.536 94.625 33.027 94.625 66.764 99.332 100.53 94.625 100.99 95.091 120.68 102.62 139.88 120.48"/>
<polygon points="86.455 130.36 66.764 103.08 46.145 130.36 31.145 96.979 33.955 95.556 47.073 124.73 66.764 97.909 85.991 124.73 99.109 95.556 116.92 59.818 121.14 103.55 118.34 103.55 115.04 70.162 101.92 96.979"/>
<polygon points="2.073 63.567 132.38 63.567 132.38 66.386 2.073 66.386"/>
<polygon points="116.92 70.162 100.53 37.708 86.455 68.274 66.764 33.001 46.609 68.274 32.536 37.708 16.145 70.162 12.382 26.899 15.218 26.434 18.027 60.283 32.536 31.606 46.609 62.171 66.764 27.364 85.991 62.171 100.53 31.606 115.04 59.818 117.38 26.434 120.22 26.434"/>
<path d="m99.109 35.355-13.118-29.635-19.227 27.282-19.691-27.282-13.118 29.635-2.3455-1.3956 14.536-33.877 20.618 27.747 19.691-27.747 15.464 33.877-2.8091 1.3956zm19.227 68.192-3.3-33.384-14.509 29.17-14.536-31.058-19.227 35.272-20.155-35.272-14.073 31.058-14.509-29.17-2.8091 33.384h-2.8364l3.7636-43.728 16.391 32.919 14.073-30.566 20.155 35.272 19.691-35.272 14.073 31.031 16.391-33.384 4.2273 43.728h-2.8091z"/>
<polygon points="100.53 36.312 66.3 31.606 32.536 36.312 13.336 27.829 14.264 25.011 33.027 33.001 66.3 28.787 100.53 33.001 118.8 25.011 120.22 27.829"/>
</g>
<ellipse cx="50.155" cy="130.28" rx="5.618" ry="5.637"/>
<ellipse cx="89.536" cy="130.28" rx="5.618" ry="5.637"/>
<ellipse cx="50.155" cy="5.637" rx="5.618" ry="5.637"/>
<ellipse cx="89.536" cy="5.637" rx="5.618" ry="5.637"/>
<ellipse cx="122.34" cy="29.17" rx="5.618" ry="5.637"/>
<ellipse cx="17.345" cy="29.17" rx="5.618" ry="5.637"/>
<ellipse cx="17.345" cy="106.78" rx="5.618" ry="5.637"/>
<ellipse cx="5.618" cy="67.726" rx="5.618" ry="5.637"/>
<ellipse cx="135.46" cy="67.726" rx="5.618" ry="5.637"/>
<ellipse cx="119.54" cy="67.726" rx="5.618" ry="5.637"/>
<ellipse cx="20.618" cy="67.726" rx="5.618" ry="5.637"/>
<ellipse cx="50.155" cy="67.726" rx="5.618" ry="5.637"/>
<ellipse cx="89.536" cy="67.726" rx="5.618" ry="5.637"/>
<ellipse transform="rotate(-80.781 70.31 32.925)" cx="70.31" cy="32.925" rx="5.637" ry="5.619"/>
<ellipse cx="36.082" cy="37.626" rx="5.618" ry="5.637"/>
<ellipse cx="104.07" cy="37.626" rx="5.618" ry="5.637"/>
<ellipse cx="70.309" cy="103.46" rx="5.618" ry="5.637"/>
<ellipse cx="36.082" cy="98.757" rx="5.618" ry="5.637"/>
<ellipse cx="104.07" cy="98.757" rx="5.618" ry="5.637"/>
<ellipse cx="142.5" cy="124.18" rx="7.5" ry="7.525"/>
</g>
</svg>
