<?xml version="1.0" encoding="UTF-8"?>
<svg viewBox="0 0 150 150" xmlns="http://www.w3.org/2000/svg">
<defs>
<linearGradient id="a" y1="50%" y2="50%">
<stop stop-color="#001C3A" offset="0"/>
<stop stop-color="#001E3D" offset=".6"/>
<stop stop-color="#001F3F" offset=".7"/>
<stop stop-color="#002042" offset="1"/>
</linearGradient>
</defs>
<circle cx="75" cy="75" r="75" fill="url(#a)"/>
<path transform="translate(23.438 18.75)" d="m18.75 24.844 7.9688-4.2188 0.9375 1.875 29.062-16.875-1.875-1.4062-2.3438-1.4062-0.9375-0.46875-47.812 27.656v0.9375l13.594-7.5 1.4062 1.4062zm0 17.812 22.969-13.594 0.9375 1.875 29.531-16.875-2.3438-1.4062-2.3438-0.9375-0.9375-0.46875-62.812 36.094v0.9375l13.594-7.5 1.4062 1.875zm0 8.4375 30.469-17.344 0.9375 1.4062 29.531-16.875-2.3438-0.9375-2.3438-1.4062-0.9375-0.46875-70.312 40.312v1.4062l13.594-7.9688 1.4062 1.875zm0 8.4375 37.969-21.562 0.9375 1.4062 29.531-16.406-4.6875-2.8125-0.9375-0.46875-77.812 45v0.9375l13.594-7.5 1.4062 1.4062zm0 8.9062 45.469-26.25 0.9375 1.875 29.531-16.875-2.3438-1.4062-1.875-0.9375-1.4062-0.9375-85.312 49.219v1.4062l13.594-7.9688 1.4062 1.875zm78.75-39.375-0.9375-0.9375-92.812 53.906v0.9375l13.594-7.5 1.4062 1.875 45.469-26.719 0.9375 1.875 34.219-19.219v-3.2812l-1.875-0.9375zm-87.656 59.531 7.5-4.6875 0.9375 1.875 45.938-26.25 0.9375 1.875 34.219-19.688v-6.0938l-90.938 52.031 1.4062 0.9375zm54.375-20.156 0.9375 1.875 34.219-20.156v-6.0938l-83.438 48.281 1.4062 0.46875 7.5-4.6875 1.4062 1.875 37.969-21.562zm-39.375 28.594 7.9688-4.2188 0.9375 1.875 30.469-17.812 0.9375 1.875 34.219-19.688v-6.0938l-75.938 43.594 1.4062 0.46875zm7.5 4.2188 7.9688-4.2188 0.9375 1.875 22.969-13.125 0.9375 1.875 34.219-19.688v-6.5625l-68.438 39.375 1.4062 0.46875zm6.0938 3.75 1.4062 0.9375 7.9688-4.6875 0.9375 1.875 15.469-8.9062 0.9375 1.875 34.219-19.688v-6.0938l-60.938 34.688zm8.9062 5.1562 7.5-4.6875 1.4062 1.875 7.9688-4.2188 0.9375 1.875 34.219-19.688v-6.5625l-52.969 30.938 0.9375 0.46875zm17.344-100.31-2.3438-1.4062-2.3438-0.9375-0.9375-0.9375-55.312 31.875v1.4062l13.594-7.9688 1.4062 1.875 15.469-8.9062 0.9375 1.875 29.531-16.875z" fill="#FFF"/>
</svg>
