<?xml version="1.0" encoding="UTF-8"?>
<svg viewBox="0 0 150 150" xmlns="http://www.w3.org/2000/svg">
<circle cx="75" cy="75" r="75" fill="#FFD800"/>
<path d="m111.01 60.403c0.26719-0.26719 0.79688-0.26719 1.3172-0.26719 7.9078 0 14.231 6.6938 14.231 14.733 0 7.5-5.5312 13.392-12.647 14.728h-1.5844c-2.6344 0-5.2688-0.80156-7.6406-2.1422-0.7698-0.54206-1.6931-0.823-2.6344-0.80156-1.0547 0-2.1094 0.26719-2.8969 0.80156-1.8469 1.0734-2.6344 2.9484-2.6344 5.0906v2.4094c-0.57264 6.8209-5.8563 12.302-12.652 13.125h-1.5797c-2.6344 0-5.2688-0.80156-7.6406-2.1422-1.0547-0.53438-1.8422-0.80156-2.8969-0.80156s-2.1094 0.26719-2.9016 0.80156c-1.8422 1.0734-2.6344 2.9484-2.6344 5.0906v2.4094c-0.525 6.9656-6.0609 12.323-12.909 13.125h-1.3172c-7.9078 0-14.231-6.6984-14.231-14.733 0.2625-7.5 5.5312-13.659 12.647-14.466h1.5844c2.6344 0 5.2688 0.80625 7.6406 2.1469 0.7698 0.54206 1.6931 0.823 2.6344 0.80156 1.0547 0 2.1094-0.26719 2.8969-0.80156 1.8469-1.0734 2.6344-2.9484 2.6344-5.0906-0.525-7.7672 5.0109-14.733 12.652-15.534h1.5797c2.6344 0 5.2688 0.80156 7.6406 2.1422 1.0547 0.53438 1.8469 0.80156 2.9016 0.80156 1.05 0 2.1094-0.26719 2.8969-0.80156 1.8422-1.0734 2.6344-2.9484 2.6344-5.0906-0.525-7.7672 5.2687-14.733 12.909-15.534zm-30.295-18.483c0.525-0.26719 0.79219-0.26719 1.5797-0.26719 7.9078 0 14.231 6.6938 14.231 14.733-0.2625 7.5-5.5312 13.659-12.652 14.461h-1.5797c-2.6344 0-5.2688-0.80156-7.6406-2.1422-0.7698-0.54206-1.6931-0.823-2.6344-0.80156-1.0547 0-2.1094 0.26719-2.8969 0.80156-1.8469 1.0734-2.6391 2.9484-2.6391 5.0906v2.4094c-0.525 6.9609-6.0562 12.319-12.909 13.125h-1.3172c-7.9031 0-14.231-6.6938-14.231-14.733 0-7.2281 5.2734-13.125 12.384-14.194h1.5844c2.6344 0 5.2688 0.80156 7.6406 2.1422 0.7698 0.54206 1.6931 0.823 2.6344 0.80156 1.0547 0 2.1094-0.26719 2.8969-0.80156 1.8469-1.0734 2.6344-2.9484 2.6344-5.0906-0.525-7.7672 5.2734-14.733 12.914-15.534zm-28.988-18.483c7.8562 0 14.227 6.4781 14.227 14.466s-6.375 14.461-14.227 14.461c-7.8609 0-14.231-6.4734-14.231-14.461s6.375-14.466 14.231-14.466z" fill="#FFF"/>
</svg>
