<?xml version="1.0" encoding="UTF-8"?>
<svg viewBox="0 0 150 150" xmlns="http://www.w3.org/2000/svg">
<g transform="translate(30)">
<path d="m39.316 121.64-39.316 28.274 24.959-115.04 14.357 86.77zm0.79515-0.26549 23.943 0.30974-38.167-86.372 14.224 86.062zm26.196-1.9027 18.333-68.053-6.9354-8.4956-11.397 76.549zm-8.835-106.68-30.171 20.354 44.086-14.292-13.915-6.0619zm-3.799 0-18.73 0.61947-2.7388 7.8319 21.469-8.4513z" fill="#384182"/>
<path d="m76.378 40.31-48.283-6.6372 43.512-13.717 4.7709 20.354zm-11.441-25.575 2.6505-7.2124-13.915-6.0619 11.265 13.274zm4.0199-7.9204 3.1364 11.327 18.553-4.9115-21.69-6.4159z" fill="#F79534"/>
<path d="m65.114 121.24-38.697-86.726 50.448 7.0796-11.75 79.646zm-9.1-108.45-23.854 9.3363-5.7427 10.619 29.597-19.956zm-14.799-7.0796-5.9636 6.5929 19.79-0.48673-13.827-6.1062zm10.425-5.1327-9.4534 4.3805 21.557 9.5133-12.104-13.894zm10.779-0.57522h-10.16l15.726 6.1062-5.566-6.1062zm5.8752 8.0973-2.4296 7.2566 4.8592 2.3451-2.4296-9.6018z" fill="#F0513A"/>
</g>
</svg>
