<?xml version="1.0" encoding="UTF-8"?>
<svg viewBox="0 0 150 150" xmlns="http://www.w3.org/2000/svg">
<defs>
<linearGradient id="a" y1="-4.307%" y2="-4.307%">
<stop stop-color="#FFF" offset="0"/>
<stop stop-color="#21BBC0" offset="0"/>
<stop stop-color="#20B9C0" offset=".34"/>
<stop stop-color="#1387C9" offset="1"/>
</linearGradient>
</defs>
<path transform="translate(0 6)" d="m10.187 49.373 65.63 41.229c0.043038 0.029909 0.10021 0.029909 0.14325 0l66.952-42.163c0.030185-0.018068 0.051411-0.047904 0.058535-0.082278 0.007124-0.034375-5.04e-4 -0.070153-0.021035-0.098668-0.008487-0.015906-0.021545-0.028924-0.0375-0.037386l-66.338-42.149c-0.043038-0.029909-0.10021-0.029909-0.14325 0l-66.244 43.075c-0.030023 0.022317-0.049465 0.056008-0.054607 0.093102-0.0033785 0.037094 0.0079212 0.074294 0.032107 0.1028 0.005625 0.011243 0.013248 0.021377 0.0225 0.029909zm65.63 89.57c-0.87165 0-1.7248-0.25037-2.4562-0.72304l-70.286-45.125c-0.045382-0.051831-0.045382-0.12912 0-0.18095l2.9925-4.6411c0.05199-0.045244 0.12951-0.045244 0.1815 0l69.537 44.65c0.043038 0.029909 0.10021 0.029909 0.14325 0l65.902-42.216c1.5103-0.96105 2.4227-2.6253 2.4188-4.4115v-10.393c-0.006679-0.073502-0.069237-0.12934-0.14325-0.12786-0.020978 0.0013641-0.041546 0.0064273-0.06075 0.014954l-66.56 42.261c-1.4877 0.94196-3.3873 0.94196-4.875 0l-67.261-42.661c-3.3299-2.0784-5.3505-5.7198-5.3505-9.6365v-14.542c-0.0029008-1.1753 0.45458-2.3053 1.275-3.1494l0.225-0.18095 1.2922-0.88155 71.35-46.358 0.075-0.044863c1.4621-0.83189 3.2659-0.78843 4.686 0.1129l68.978 43.806c1.3159 0.83219 2.1132 2.2777 2.1132 3.8313s-0.7973 2.9991-2.1132 3.8313l-69.567 43.791c-1.4805 0.9191-3.3563 0.9191-4.8368 0l-67.484-42.357c-0.062717-0.036417-0.14311-0.016546-0.1815 0.044863-0.012118 0.020518-0.017371 0.044349-0.015 0.068042v12.022c-0.0073129 1.9303 0.97995 3.7291 2.6145 4.7637l66.574 42.186c0.043038 0.029909 0.10021 0.029909 0.14325 0l67.904-43.188c1.7179-1.0974 3.9598-0.91366 5.475 0.44863 0.96715 0.91819 1.4974 2.2028 1.4588 3.5337v12.756c0.011707 3.7609-1.9037 7.2673-5.079 9.2978l-66.65 42.694c-0.7261 0.45125-1.5632 0.69371-2.4188 0.70061l-0.0015 0.004489z" fill="url(#a)"/>
</svg>
