<?xml version="1.0" encoding="UTF-8"?>
<svg viewBox="0 0 150 150" xmlns="http://www.w3.org/2000/svg">
<path d="m2 13.5c-2 4.5-2 10-2 20.5v82c0 11 0 16.5 2 20.5 2.1842 5.1882 6.3118 9.3158 11.5 11.5 4.5 2 10 2 20.5 2h82c11 0 16.5 0 20.5-2 5.1882-2.1842 9.3158-6.3118 11.5-11.5 2-4.5 2-9.5 2-20.5v-82c0-11 0-16.5-2-20.5-2.1842-5.1882-6.3118-9.3158-11.5-11.5-4.5-2-10-2-20.5-2h-82c-10.5 0-16 0-20.5 2-5.1852 2.1887-9.3113 6.3148-11.5 11.5zm97 51c-7.4558 0-13.5-6.0442-13.5-13.5s6.0442-13.5 13.5-13.5c7.4558 0 13.5 6.0442 13.5 13.5 0.013257 3.5845-1.4048 7.026-3.9394 9.5607-2.5346 2.5346-5.9762 3.9527-9.5607 3.9394zm-34.5-13.5c0 7.4558-6.0442 13.5-13.5 13.5s-13.5-6.0442-13.5-13.5 6.0442-13.5 13.5-13.5c3.5845-0.013257 7.026 1.4048 9.5607 3.9394 2.5346 2.5346 3.9527 5.9762 3.9394 9.5607zm34.5 34.5c3.5845-0.013257 7.026 1.4048 9.5607 3.9394 2.5346 2.5346 3.9527 5.9762 3.9394 9.5607 0 5.4602-3.2893 10.383-8.3339 12.472-5.0446 2.0895-10.851 0.93454-14.712-2.9264-3.861-3.861-5.016-9.6676-2.9264-14.712 2.0895-5.0446 7.0121-8.3339 12.472-8.3339zm-48 0c5.4602 0 10.383 3.2893 12.472 8.3339 2.0895 5.0446 0.93454 10.851-2.9264 14.712-3.861 3.861-9.6676 5.016-14.712 2.9264-5.0446-2.0895-8.3339-7.0121-8.3339-12.472-0.013257-3.5845 1.4048-7.026 3.9394-9.5607 2.5346-2.5346 5.9762-3.9527 9.5607-3.9394z" fill="#211F6D"/>
</svg>
