<?xml version="1.0" encoding="UTF-8"?>
<svg viewBox="0 0 150 150" xmlns="http://www.w3.org/2000/svg">
<g transform="matrix(1 0 0 -1 0 150)" fill="#0064D3">
<path d="m69.02 149.73c-18.513-1.592-35.058-9.3781-47.841-22.512-11.786-12.114-18.862-27.04-20.806-43.881-0.59801-5-0.39867-15.124 0.34884-19.776 3.3638-20.771 14.751-38.831 31.794-50.423 9.7674-6.6418 19.784-10.547 32.018-12.463 4.9086-0.77114 16.022-0.77114 20.93 0 9.9169 1.5423 19.261 4.7512 26.811 9.1542 20.183 11.791 33.314 30.846 37.002 53.731 0.67276 4.1294 0.92193 14.328 0.47342 18.706-2.392 23.483-15.025 43.781-35.133 56.393-13.306 8.3582-30.025 12.413-45.598 11.07zm15.449-7.0647c10.241-1.5672 19.585-5.0498 27.658-10.323 17.317-11.318 28.38-29.08 30.922-49.627 0.39867-3.2338 0.39867-12.239 0-15.423-2.7907-22.363-15.523-41.294-35.058-52.189-6.5781-3.6567-14.078-6.2438-22.4-7.6866-2.8654-0.49751-4.0864-0.57214-10.59-0.57214-8.0482 0.024876-10.764 0.32338-16.819 1.8657-36.603 9.4279-58.804 46.542-49.56 82.91 5.706 22.488 22.425 40.547 44.527 48.109 4.51 1.5174 10.341 2.7861 15.249 3.2836 3.289 0.34826 12.957 0.12438 16.071-0.34826z"/>
<path d="m70.889 138.91c-5.9053-0.57214-9.6179-1.2438-13.779-2.4627-11.262-3.2836-21.852-9.8756-29.502-18.383-8.7209-9.7015-13.804-20.274-16.047-33.483-0.62292-3.6816-0.74751-12.985-0.24917-17.164 2.6412-21.542 16.022-40.398 35.382-49.851 6.2292-3.0597 12.384-4.9751 19.211-6.0199 4.211-0.64677 13.978-0.64677 18.189 0 21.254 3.2338 39.07 16.219 48.488 35.348 3.1894 6.4677 5.2326 13.333 6.1047 20.522 0.32392 2.6119 0.37375 4.6269 0.27409 9.0796-0.1495 5.9204-0.4485 8.5572-1.5199 13.134-6.0548 25.522-27.11 44.826-53.123 48.682-3.289 0.47264-11.088 0.84577-13.43 0.59702zm37.251-36.791v-6.0945h-8.7209-8.7209v-3.7313-3.7313h8.7209 8.7209v-6.0945-6.0945h-8.7209-8.7209v-9.8259-9.8259h8.7209 8.7209v-6.0199-6.0448h-8.6462-8.6711l-0.074751-5.6468-0.049834-5.6716h-5.9801-5.9801l-0.049834 5.6716-0.074751 5.6468h-3.314-3.3389l-0.024917-5.597-0.049834-5.597-6.0299-0.074627-6.0548-0.049751-0.049834 5.6468-0.074751 5.6716-1.9934 0.14925c-7.3505 0.54726-14.352 5.3234-17.666 12.015-1.7442 3.4577-2.2176 5.5721-2.2425 9.7264 0 3.7562 0.27409 5.2736 1.5199 8.3333 3.1395 7.6368 10.365 12.96 18.463 13.607l2.0432 0.14925v3.6816 3.7065h-8.5963-8.5963v6.0945 6.0945h32.766 32.766v-6.0945z"/>
<polygon points="71.935 92.363 72.01 88.682 75.374 88.607 78.738 88.532 78.738 92.289 78.738 96.02 75.324 96.02 71.885 96.02"/>
<path d="m56.387 75.896c-2.6412-0.97015-4.4601-2.6617-5.7558-5.4229-0.59801-1.2687-0.67276-1.7413-0.67276-3.9303 0-2.1891 0.074751-2.6617 0.67276-3.9055 1.2957-2.7861 4.1113-5.0249 7.1262-5.6468 0.72259-0.14925 1.495-0.27363 1.6694-0.27363 0.32392 0 0.37375 1.4179 0.37375 9.8259v9.8259h-1.0465c-0.59801-0.024876-1.6445-0.22388-2.3671-0.47264z"/>
<polygon points="71.935 66.617 72.01 56.841 75.374 56.766 78.738 56.692 78.738 66.542 78.738 76.368 75.324 76.368 71.885 76.368"/>
</g>
</svg>
