<?xml version="1.0" encoding="UTF-8"?>
<svg viewBox="0 0 147 146" xmlns="http://www.w3.org/2000/svg">
<defs>
<linearGradient id="b" x1=".016%" x2="100.02%" y1="50.006%" y2="50.006%">
<stop stop-color="#FFAC00" offset="0"/>
<stop stop-color="#FF4E00" offset="1"/>
</linearGradient>
<linearGradient id="a" x1="49.871%" x2="49.871%" y1="100.06%" y2=".574%">
<stop stop-color="#FFAC00" offset="0"/>
<stop stop-color="#FF4E00" offset="1"/>
</linearGradient>
</defs>
<g transform="translate(-1 -3)">
<circle cx="74.545" cy="75.909" r="72.727" fill="url(#b)"/>
<path d="m115 90c0-6.3636-2.2727-12.727-5.4545-18.182-1.8182-3.6364-4.5455-7.2727-7.2727-10.455-0.45454 1.3636-0.45454 2.7273-0.90909 4.0909-0.90909 5.9091-7.7273 9.0909-13.182 6.3636-4.0909-1.8182-5.9091-7.2727-4.0909-11.818 0.45455-1.3636 0.90909-3.1818 1.3636-4.5455 2.2727-8.1818 1.3636-16.364-2.7273-23.636-2.2727-3.6364-5-6.8182-8.1818-9.5455-1.8182-1.8182-3.6364-3.1818-5.9091-5v2.7273c0 4.0909 0.45455 7.7273-0.45455 11.818-0.90909 5-3.6364 8.6364-6.8182 12.727-3.1818 3.6364-6.8182 7.2727-10 10.909-3.1818 3.6364-6.3636 6.8182-9.5455 10.909-4.0909 5.4545-6.8182 11.818-7.7273 19.091 0 0.90909 0 1.8182-0.45455 2.7273v1.8182c0.45455 1.8182 0.45455 3.1818 0 5v0.90909c0.45455 1.3636 0.45455 2.7273 0.90909 3.6364 0.45455 0.90909 0.45455 2.2727 0.90909 3.1818 1.8182 6.8182 5.9091 12.273 10.455 17.273 7.7273 7.7273 17.273 13.182 27.727 15.455 0.45455 0 0.45455 0 0.45455 0.45455h2.7273c1.3636-3.1818 3.1818-5.9091 5.9091-7.7273 3.6364-3.1818 8.1818-5 12.727-6.3636 7.7273-3.1818 13.182-8.1818 16.818-15.455 2.2727-6.3636 3.1818-10.909 2.7273-16.364zm-18.636 5.4545h-13.182c-1.3636 0-1.3636 0.45455-1.3636 1.3636v13.182c0 0.90909 0 0.90909-0.90909 0.90909h-13.182c-0.90909 0-0.90909-0.45455-0.90909-1.3636v-12.727c0-0.90909 0-1.3636-1.3636-1.3636h-12.727c-0.45455 0-0.90909 0-1.3636-0.45455v-13.636c0-0.90909 0.45455-1.3636 1.3636-1.3636h43.636c0.90909 0 0.90909 0 0.90909 0.90909v13.182c0 1.3636-0.45455 1.3636-0.90909 1.3636z" fill="#FFF"/>
<path d="m100.45 56.818c0.90909 0.45455 1.3636 0.45455 1.8182-0.45455 0.45455-1.3636 1.3636-2.2727 2.2727-3.1818 2.7273-1.8182 3.6364-4.5455 3.1818-7.2727-0.90909-5.4545-3.6364-10-7.2727-14.091 0.90909 4.0909-0.90909 6.8182-3.1818 9.5455-1.3636 1.8182-2.2727 3.6364-2.2727 5.4545-0.45455 4.0909 1.8182 8.1818 5.4545 10z" fill="#FFF"/>
<path d="m91.818 80h4.5455c0.90909 0 0.90909 0 0.90909 0.90909v13.182c0 0.90909-0.45455 0.90909-0.90909 0.90909h-13.182c-1.3636 0.45455-1.3636 0.90909-1.3636 1.8182v13.182c0 0.90909 0 0.90909-0.90909 0.90909h-13.182c-0.90909 0-0.90909-0.45455-0.90909-1.3636v-12.727c0-0.90909 0-1.3636-1.3636-1.3636h-12.727c-0.45455 0-0.90909 0-1.3636-0.45455v-13.636c0-0.90909 0.45455-1.3636 1.3636-1.3636h37.727c0.45455 0.45455 0.90909 0 1.3636 0z" fill="url(#a)"/>
</g>
</svg>
