<?xml version="1.0" encoding="UTF-8"?>
<svg viewBox="0 0 150 150" xmlns="http://www.w3.org/2000/svg">
<circle cx="75" cy="75" r="75" fill="#1A1F36"/>
<path d="m86.836 67.8c1.3771 0.003117 2.5117-1.0803 2.5721-2.4561 0.060365-1.3758-0.97497-2.5545-2.3471-2.672h-18v-4.5c-0.36231-1.2791-1.53-2.1619-2.8594-2.1619s-2.4971 0.88287-2.8594 2.1619v4.5h-4.8141c-1.4161 0-2.5641 1.148-2.5641 2.5641s1.148 2.5641 2.5641 2.5641h4.8188v15.656c0.04627 8.1994 6.6927 14.829 14.892 14.855 3.2845-0.050038 6.4559-1.2079 9-3.2859l1.0781-0.9c0.94664-0.66357 1.4303-1.8101 1.245-2.9512-0.1853-1.1411-1.0069-2.0757-2.1149-2.4056-1.108-0.32992-2.307 0.0029455-3.0864 0.8568l-0.81094 0.675c-2.6324 2.1792-6.302 2.6019-9.3609 1.0781-3.1248-1.4892-5.1187-4.6385-5.1281-8.1v-15.478h17.775zm29.25 17.461c0.12023-0.58563 0.002453-1.195-0.32735-1.6937-0.3298-0.49865-0.84449-0.84555-1.4305-0.96412h-1.125c-1.0304-0.0041173-1.9261 0.70655-2.1562 1.7109-2.9788 13.03-13.1 23.238-26.105 26.327-13.005 3.0894-26.635-1.4757-35.156-11.774-8.5209-10.299-10.453-24.543-4.9829-36.739 3.2577-7.8642 9.5068-14.112 17.372-17.367 15.684-7.002 34.131-1.7255 43.739 12.511 0.68485 0.99925 2.0379 1.2769 3.0609 0.62812l0.40312-0.27188c1.1251-0.71115 1.468-2.1956 0.76875-3.3281-10.448-15.379-30.025-21.668-47.475-15.253-10.898 3.7453-19.506 12.236-23.4 23.081-5.447 14.09-2.541 30.044 7.5243 41.309 10.065 11.265 25.593 15.941 40.205 12.108 14.612-3.833 25.845-15.529 29.085-30.284zm-36.989-62.058h-4.5c-16.476 0.69227-31.717 8.9242-41.33 22.322-9.613 13.398-12.529 30.473-7.9075 46.303 0.4104 1.3552 1.8416 2.1212 3.1969 1.7109h0.36094c1.1233-0.54254 1.6931-1.8147 1.35-3.0141-6.1285-20.99 2.5432-43.486 21.175-54.931 18.632-11.445 42.618-9.011 58.57 5.9444 15.952 14.955 19.928 38.735 9.7068 58.065-10.221 19.331-32.111 29.434-53.452 24.671-0.91667-0.19458-1.8635 0.15568-2.4328 0.9-0.56619 0.70582-0.72657 1.6545-0.42387 2.5072 0.3027 0.85271 1.0253 1.4879 1.9098 1.6788 19.491 3.5711 39.362-3.9034 51.668-19.435 12.306-15.531 15.038-36.585 7.1043-54.743-7.9338-18.158-25.239-30.457-44.996-31.979z" fill="#FFF"/>
</svg>
