<?xml version="1.0" encoding="UTF-8"?>
<svg viewBox="0 0 150 150" xmlns="http://www.w3.org/2000/svg">
<path transform="translate(3)" d="m139.66 46.8c-6.9194-6.3923-16.491-16.154-24.287-23.077l-0.46129-0.32308c-0.76751-0.61667-1.6329-1.1003-2.5602-1.4308-18.798-3.5077-106.28-19.869-107.99-19.662-0.47825 0.067016-0.93538 0.2405-1.3377 0.50769l-0.43823 0.34615c-0.53961 0.54831-0.94945 1.2107-1.1994 1.9385l-0.11532 0.3v1.6385 0.25385c9.8485 27.438 48.735 117.32 56.393 138.42 0.46129 1.4308 1.3377 4.1538 2.9753 4.2923h0.36903c0.87645 0 4.6129-4.9385 4.6129-4.9385s66.795-81.046 73.553-89.677c0.87476-1.0631 1.647-2.2067 2.3065-3.4154 0.34238-1.9237-0.34933-3.886-1.8221-5.1692zm-56.9 9.4385 28.508-23.654 16.722 15.415-45.23 8.2385zm-11.071-1.5462-49.081-40.246 79.411 14.654-30.33 25.592zm4.4284 10.546 50.235-8.1-57.431 69.231 7.1961-61.131zm-60.175-46.777 51.641 43.846-7.4729 64.108-44.169-107.95z" fill="#FF060A"/>
</svg>
