<?xml version="1.0" encoding="UTF-8"?>
<svg viewBox="0 0 150 150" xmlns="http://www.w3.org/2000/svg">
<path d="m75 150c-41.25 0-75-33.75-75-75s33.75-75 75-75 75 33.75 75 75-33.75 75-75 75z" fill="#002868"/>
<path d="m112.8 120h-75.6c-3.96 0-7.2-3.24-7.2-7.2v-75.6c0-3.96 3.24-7.2 7.2-7.2h75.6c3.96 0 7.2 3.24 7.2 7.2v75.6c0 3.96-3.24 7.2-7.2 7.2z" fill="#FFF"/>
<path transform="translate(41.7 94.5)" d="m5.862 16.44c-0.237 0-0.429-0.216-0.429-0.453v-12.093c0-0.237-0.192-0.453-0.429-0.453h-4.269c-0.24 0-0.453-0.192-0.453-0.429v-2.337c0-0.237 0.216-0.453 0.453-0.453h13.14c0.237 0 0.453 0.213 0.453 0.453v2.337c0 0.237-0.216 0.429-0.453 0.429h-4.245c-0.237 0-0.453 0.213-0.453 0.453v12.093c0 0.237-0.192 0.453-0.429 0.453h-2.886zm21.582-15.765c0-0.237 0.192-0.453 0.429-0.453h2.862c0.237 0 0.453 0.213 0.453 0.453v8.253c0 4.89-2.766 7.728-7.155 7.728-4.365 0-7.107-2.838-7.107-7.728v-8.253c0-0.237 0.192-0.453 0.429-0.453h2.862c0.237 0 0.453 0.213 0.453 0.453v8.37c0 2.409 1.239 4.125 3.387 4.125s3.387-1.716 3.387-4.125v-8.37zm16.887 4.842c-0.381 0-0.501-0.144-0.645-0.429-0.501-1.17-1.599-1.908-3.267-1.908-1.503 0-2.766 0.525-2.766 1.527 0 1.098 1.17 1.551 3.744 1.86 3.912 0.453 6.153 1.647 6.153 4.746 0 3.483-3.054 5.319-6.963 5.319-3.387 0-6.297-1.647-6.75-5.103-0.048-0.333 0.12-0.453 0.453-0.453h2.625c0.333 0 0.525 0.144 0.621 0.405 0.357 1.146 1.575 2.028 3.339 2.028 1.551 0 2.91-0.573 2.91-1.788 0-1.455-1.431-1.716-4.293-2.076-3.291-0.429-5.58-1.383-5.58-4.413s2.601-5.199 6.678-5.199c3.672 0 6.225 1.98 6.75 4.938 0.072 0.333-0.024 0.549-0.381 0.549h-2.628v-3e-3zm6.462 10.923c-0.237 0-0.429-0.216-0.429-0.453v-15.312c0-0.237 0.192-0.453 0.429-0.453h6.486c4.818 0 8.562 3.315 8.562 8.157 0 4.77-3.696 8.061-8.562 8.061h-6.486zm6.486-3.222c2.601 0 4.626-2.052 4.626-4.89s-2.028-4.89-4.65-4.89h-2.694c-0.237 0-0.429 0.213-0.429 0.453v8.895c0 0.237 0.192 0.429 0.429 0.429h2.718v3e-3z" fill="#002868"/>
<path d="m117.6 85.8h-85.2c-0.66 0-1.2-0.54-1.2-1.2v-47.4c0-3.3 2.7-6 6-6h75.6c3.3 0 6 2.7 6 6v47.4c0 0.66-0.54 1.2-1.2 1.2z" fill="#002868"/>
<path d="m79.419 76.068h-7.8c-0.495 0-0.9-0.405-0.9-0.9v-33c0-0.495 0.405-0.9 0.9-0.9h7.8c0.495 0 0.9 0.405 0.9 0.9v33c0 0.495-0.405 0.9-0.9 0.9z" fill="#FFF"/>
<path d="m92.7 50.868h-35.4c-0.495 0-0.9-0.405-0.9-0.9v-7.8c0-0.495 0.405-0.9 0.9-0.9h35.4c0.495 0 0.9 0.405 0.9 0.9v7.8c0 0.495-0.405 0.9-0.9 0.9z" fill="#FFF"/>
</svg>
