<?xml version="1.0" encoding="UTF-8"?>
<svg viewBox="0 0 150 150" xmlns="http://www.w3.org/2000/svg">
<path d="m75 150c41.563 0 75-33.437 75-75s-33.437-75-75-75-75 33.437-75 75 33.437 75 75 75z" fill="#2775CA"/>
<path d="m95.625 86.875c0-10.937-6.5625-14.687-19.688-16.25-9.375-1.2502-11.25-3.75-11.25-8.1255s3.1252-7.1872 9.375-7.1872c5.625 0 8.7502 1.875 10.312 6.5625 0.31275 0.9375 1.2502 1.5622 2.1878 1.5622h4.9995c1.2502 0 2.1878-0.9375 2.1878-2.187v-0.31275c-1.2502-6.8752-6.8752-12.188-14.062-12.812v-7.5c0-1.2502-0.9375-2.1878-2.4998-2.5005h-4.6875c-1.2502 0-2.1878 0.9375-2.5005 2.5005v7.1872c-9.375 1.2502-15.312 7.5-15.312 15.313 0 10.312 6.2498 14.374 19.375 15.938 8.7502 1.5622 11.563 3.4372 11.563 8.4375s-4.3755 8.4375-10.312 8.4375c-8.1255 0-10.938-3.438-11.876-8.1255-0.312-1.2495-1.2495-1.875-2.187-1.875h-5.313c-1.2495 0-2.187 0.9375-2.187 2.1878v0.31275c1.2495 7.812 6.2498 13.437 16.562 15v7.5c0 1.2495 0.9375 2.187 2.4998 2.4998h4.6875c1.2502 0 2.1878-0.9375 2.5005-2.4998v-7.5c9.375-1.563 15.625-8.1255 15.625-16.563z" fill="#FFF"/>
<path d="m59.062 119.69c-24.375-8.7495-36.875-35.937-27.812-60 4.6875-13.125 15-23.125 27.812-27.812 1.2502-0.62475 1.875-1.5622 1.875-3.1252v-4.3748c0-1.2502-0.62475-2.1878-1.875-2.4998-0.31275 0-0.9375 0-1.2502 0.312-29.687 9.375-45.938 40.938-36.562 70.625 5.625 17.5 19.063 30.938 36.562 36.562 1.2502 0.62475 2.5005 0 2.8125-1.2502 0.31275-0.312 0.31275-0.62475 0.31275-1.2495v-4.3755c0-0.9375-0.9375-2.187-1.875-2.8125zm33.125-97.5c-1.2502-0.62475-2.5005 0-2.8125 1.2502-0.31275 0.31275-0.31275 0.62475-0.31275 1.2502v4.3748c0 1.2502 0.9375 2.4998 1.875 3.1252 24.375 8.7495 36.875 35.937 27.812 60-4.6875 13.125-15 23.125-27.812 27.812-1.2502 0.62475-1.875 1.5622-1.875 3.1252v4.3748c0 1.2502 0.62475 2.1878 1.875 2.4998 0.31275 0 0.9375 0 1.2502-0.312 29.687-9.375 45.938-40.938 36.562-70.625-5.625-17.812-19.376-31.25-36.562-36.875z" fill="#FFF"/>
</svg>
