<?xml version="1.0" encoding="UTF-8"?>
<svg viewBox="0 0 150 150" xmlns="http://www.w3.org/2000/svg" xmlns:xlink="http://www.w3.org/1999/xlink">
<defs>
<ellipse id="b" cx="73.992" cy="75" rx="73.992" ry="75"/>
</defs>
<g transform="translate(1)">
<ellipse cx="73.992" cy="75" rx="73.992" ry="75" fill="#5C8FE8"/>
<mask id="a" fill="#fff">
<use xlink:href="#b"/>
</mask>
<path transform="matrix(1 0 0 -1 0 150)" d="m74.274 117.97c-7.82-0.20097-14.091-2.1802-18.836-5.9499-0.98207-0.78561-2.5741-2.3629-3.3-3.2703-2.5558-3.2033-4.0198-6.9122-4.52-11.431-0.1342-1.2119-0.18299-3.8123-0.097597-5.0121 0.25619-3.4713 1.0431-6.2727 2.5192-8.9401 0.24399-0.43848 0.45139-0.82215 0.46359-0.84651 0.0122-0.03045-2.2691-0.04872-5.075-0.04872h-5.0994v-2.5274-2.5274h7.1124 7.1185l0.52458-0.50547c1.2749-1.2241 2.6534-2.2533 5.3495-3.9829 0.091497-0.05481-2.1532-0.07308-10.022-0.07308l-10.144-0.00609v-2.5274-2.5274h15.097 15.097l1.3603-0.67599c5.3861-2.6918 7.3381-3.9159 9.2229-5.8038 1.5189-1.5164 2.2142-2.7283 2.5131-4.3848 0.122-0.66381 0.1342-2.1315 0.024399-2.8988-0.25009-1.76-0.95767-3.2216-2.1044-4.3544-1.6957-1.6808-4.1723-2.6309-7.7346-2.9597-1.0431-0.09744-4.4773-0.03654-5.6606 0.09135-6.2523 0.70035-11.706 2.3812-21.392 6.5894l-0.20129 0.08526v-8.2276-8.2215l0.71368-0.33495c4.9896-2.3507 10.845-3.8732 17.037-4.4335 2.7876-0.25578 7.1734-0.32886 9.5157-0.17052 5.1909 0.35931 9.3754 1.2667 13.041 2.8197 5.7948 2.4604 10.217 6.6381 12.395 11.711 1.5677 3.6479 2.1715 8.0084 1.7323 12.509-0.27449 2.8501-0.97597 5.3836-2.1471 7.7465-0.22569 0.44457-0.41479 0.84042-0.42699 0.86478-0.0122 0.02436 2.08 0.04872 4.6481 0.04872h4.6725v2.5274 2.5274h-6.7098-6.7098l-0.74418 0.64554c-1.281 1.1023-3.5135 2.7161-5.2336 3.788l-0.21349 0.13398h9.839 9.8329v2.5274 2.5274h-14.67-14.676l-2.6656 1.3337c-5.1482 2.5822-6.7769 3.5748-8.3262 5.0547-1.9214 1.8392-2.6961 3.7332-2.5863 6.3092 0.085397 2.095 0.78078 3.7819 2.141 5.1948 1.8909 1.9671 4.5383 2.8745 8.4238 2.8745 5.2519 0 10.144-1.1632 18.062-4.3056 0.81738-0.32277 1.5006-0.57246 1.5128-0.56028 0.018299 0.01827 5.4105 12.978 5.6911 13.672 0.060998 0.15225-4.5871 1.9853-7.576 2.978-6.8379 2.2838-12.133 3.112-18.787 2.9476z" fill="#FFF" mask="url(#a)"/>
</g>
</svg>
