<?xml version="1.0" encoding="UTF-8"?>
<svg viewBox="0 0 150 150" xmlns="http://www.w3.org/2000/svg">
<circle cx="75" cy="75" r="75" fill="#50AF95"/>
<path d="m85.299 80.815c-0.52415 0.039524-3.2323 0.20201-9.2731 0.20201-4.8047 0-8.216-0.14492-9.4129-0.20201-18.568-0.82121-32.427-4.0709-32.427-7.9618 0-3.8909 13.859-7.1362 32.427-7.9706v12.696c1.2143 0.08783 4.6911 0.29423 9.4958 0.29423 5.7656 0 8.6528-0.24153 9.1726-0.28984v-12.691c18.529 0.82999 32.358 4.0797 32.358 7.9618s-13.824 7.1318-32.358 7.9574l0.017471 0.0043913zm0-17.237v-11.361h25.858v-17.324h-70.402v17.324h25.854v11.356c-21.014 0.97052-36.817 5.1556-36.817 10.171 0 5.0151 15.803 9.1958 36.817 10.171v36.406h18.686v-36.419c20.966-0.97052 36.743-5.1512 36.743-10.162 0-5.0107-15.764-9.1914-36.743-10.166l0.0043677 0.0043917z" fill="#FFF"/>
</svg>
