<?xml version="1.0" encoding="UTF-8"?>
<svg viewBox="0 0 150 150" xmlns="http://www.w3.org/2000/svg">
<g fill="none">
<rect width="149.74" height="150" fill="#0E1736"/>
<g transform="translate(15.108 36.225)">
<ellipse cx="53.013" cy="6.844" rx="6.07" ry="6.038" fill="#FFF"/>
<path d="m0 25.653 8.1073 28.933c0.92704 1.136 1.6382 1.8451 2.1335 2.1274 0.64649 0.36847 2.119 0.42548 2.5602 0.42548 0.50674 0 1.0105 0.060586 1.7068-0.42548 0.40442-0.28231 0.97335-0.99145 1.7068-2.1274l5.1204-14.466 5.5471 14.466c0.72313 1.135 1.2921 1.8442 1.7068 2.1274 0.6704 0.45788 1.6417 0.42548 2.1335 0.42548 0.55153 0 1.6879 0.15031 2.5602-0.42548 0.41828-0.27609 0.98721-0.98523 1.7068-2.1274l6.8272-28.933c-0.066451-0.91363-0.35092-1.7646-0.8534-2.5529-0.75372-1.1825-2.0033-1.9873-2.9869-2.1274-0.93399-0.13305-2.3866 0.027848-3.4136 0.85097-0.46963 0.37642-1.0386 1.2274-1.7068 2.5529l-2.9869 11.914-3.8403-11.914c-0.61872-1.3295-1.1876-2.1805-1.7068-2.5529-0.9984-0.71623-2.7743-0.85097-3.4136-0.85097-0.75844 0-2.276 0.26827-3.4136 1.2765-0.37941 0.33625-0.80611 1.0454-1.2801 2.1274l-3.4136 11.914-3.8403-11.914c-0.67938-1.3409-1.2483-2.1919-1.7068-2.5529-1.1906-0.93752-2.7378-0.94723-3.4136-0.85097-0.74527 0.10616-2.4592 0.64486-3.4136 2.1274-0.27391 0.42548-0.41614 1.2764-0.4267 2.5529zm48.291-1.313v29.402c0.46126 1.3632 0.89046 2.2155 1.2876 2.5567 1.1432 0.98222 2.7439 0.85223 3.4336 0.85223 0.5522 0 3.02-0.22267 3.8628-0.85223 0.13936-0.1041 0.4255-0.95633 0.8584-2.5567v-29.402c-0.80188-1.1111-1.3741-1.8213-1.7168-2.1306-1.2845-1.1592-2.2551-1.2783-3.0044-1.2783-0.77412 0-2.0883 0.041085-3.4336 1.2783-0.31865 0.29306-0.74785 1.0032-1.2876 2.1306zm15.647 28.965v-19.595c0.36146-1.4748 0.64623-2.4688 0.85432-2.9818 0.82066-2.0232 1.6333-3.0286 2.1358-3.8337 0.9402-1.5066 2.1646-2.2958 2.9901-2.9818 1.0145-0.84304 2.7357-2.0199 4.6987-2.5558 0.93457-0.25516 2.5008-0.39715 4.6987-0.42597 2.2037 0.032254 3.77 0.17424 4.6987 0.42597 1.982 0.5372 3.6759 1.7058 4.6987 2.5558 0.94711 0.78706 2.3214 1.9715 3.4173 3.8337 0.33976 0.57735 0.7935 1.3973 1.2815 2.5558 0.26167 0.62126 0.68883 1.7572 1.2815 3.4078v19.595c-0.17355 0.6085-0.31593 1.0345-0.42716 1.2779-0.28011 0.61307-0.63553 1.0563-0.85432 1.2779-0.3535 0.35809-0.49369 0.66641-0.85432 0.85194-0.9225 0.47457-2.0329 0.42597-2.5629 0.42597-0.40829 0-1.1842-0.035191-1.7086-0.42597-0.2245-0.16729-0.42716 0-1.2815-0.85194-0.56954-0.56796-0.9967-1.4199-1.2815-2.5558l-0.42716-17.039c-0.13997-2.3605-0.56713-3.9224-1.2815-4.6857-0.71435-0.76324-2.2806-1.3312-4.6987-1.7039-2.4637 0.42134-4.0299 0.9893-4.6987 1.7039-0.6688 0.71457-1.096 2.2765-1.2815 4.6857v17.039c-0.36848 1.2116-0.65325 1.9216-0.85432 2.1298-0.063953 0.066241-0.74559 0.76587-0.85432 0.85194-1.35 1.0686-2.6317 0.85194-3.4173 0.85194-0.7229 0-1.5563 0.024761-2.5629-0.85194-0.12504-0.1089-0.29825-0.28951-0.42716-0.42597-0.23997-0.25404-0.61524-0.95525-0.85432-1.2779-0.1518-0.20487-0.29418-0.63084-0.42716-1.2779z" fill="#D1A911"/>
<path d="m112.22 21.17-11.588 16.675v3.4204l11.159 15.392c2.8672 0.41435 4.7271 0.27183 5.5796-0.42756 0.85253-0.69939 1.4248-2.5521 1.7168-5.5582l-8.1548-11.116 8.584-12.827c-0.25712-3.0295-0.82939-4.8822-1.7168-5.5582-0.88742-0.67601-2.7473-0.67601-5.5796 0zm-20.29-21.167-8.5645 5.1513v2.5756l8.5645 5.1513c1.2304 0.010062 1.9441-0.13303 2.1411-0.42927s0.054273-1.0117-0.42823-2.1464l-5.9952-3.4342 6.4234-4.2927c-0.032739-1.1269-0.17548-1.8423-0.42823-2.1464-0.25275-0.30403-0.82372-0.44713-1.7129-0.42927zm-43.96 64.399c4.2268 2.625 7.3625 4.3422 9.4073 5.1515 4.9993 1.9787 9.8989 2.5757 13.256 2.5757 3.4737 0 9.4577-0.88613 15.394-3.005 2.2131-0.78997 5.4914-2.364 9.8349-4.7222 1.2743 0.079817 2.1295 0.36601 2.5656 0.85858 0.43612 0.49257 0.72119 1.4942 0.85521 3.005-5.4589 3.0859-9.4499 5.0893-11.973 6.0101-6.7049 2.447-12.729 2.9741-16.677 3.005-3.809 0.029875-9.2396-0.39079-14.966-2.5757-2.3713-0.90476-6.0772-2.9081-11.118-6.0101-0.10405-1.7315 0.038484-2.8762 0.4276-3.4343 0.38912-0.55808 1.3869-0.84427 2.9932-0.85858z" fill="#FFF"/>
</g>
</g>
</svg>
