<?xml version="1.0" encoding="UTF-8"?>
<svg viewBox="0 0 150 150" xmlns="http://www.w3.org/2000/svg">
<path transform="translate(0 12)" d="m128.48 17.161-18.013 9.1617-86.981 44.229c-0.29412-2.2395-0.44211-4.4957-0.44304-6.7544 0.0242-18.337 9.7709-35.291 25.618-44.562 15.848-9.2711 35.427-9.4737 51.464-0.53244l10.31-5.2443 1.538-0.78348c-19.258-13.954-44.728-15.945-65.927-5.1544-21.199 10.791-34.544 32.54-34.541 56.296 0 1.6091 0.061181 3.2119 0.18354 4.8083 0.35042 4.6227-2.1155 9.0031-6.2532 11.108l-5.4367 2.7675v12.909l16.006-8.1444 5.1835-2.6411 5.1076-2.5969 91.696-46.642 10.304-5.238 21.297-10.836v-12.902l-21.114 10.754zm21.114 15.063-118.09 60.025-10.304 5.2506-21.203 10.786v12.896l39.07-19.871 87.07-44.292c0.29434 2.2543 0.44232 4.5252 0.44304 6.7986-0.011397 18.359-9.7693 35.337-25.64 44.611-15.871 9.2744-35.477 9.456-51.518 0.4772l-0.63291 0.33488-11.177 5.6866c19.253 13.954 44.719 15.95 65.918 5.1669 21.199-10.783 34.549-32.525 34.557-56.277 0-1.6238-0.063292-3.2477-0.18354-4.8525-0.34984-4.6209 2.1129-8.9999 6.2468-11.108l5.443-2.7675v-12.864z"/>
</svg>
