<?xml version="1.0" encoding="UTF-8"?>
<svg viewBox="0 0 150 150" xmlns="http://www.w3.org/2000/svg">
<path d="m149.96 74.982c0 41.41-33.567 74.982-74.98 74.982-41.413 0-74.98-33.572-74.98-74.982 0-41.41 33.568-74.982 74.98-74.982 41.412 0 74.98 33.569 74.98 74.982z" fill="#FFF"/>
<path d="m74.982 0c-41.398 0-75.025 33.62-74.972 74.98 0.010442 8.275 1.33 16.235 3.8066 23.681h22.433v-63.077l48.732 48.732 48.73-48.732v63.078h22.438c2.4802-7.4453 3.7929-15.405 3.8078-23.681 0.070557-41.404-33.573-74.971-74.976-74.971v-0.0099814z" fill="#F26822"/>
<path d="m63.775 95.518-21.267-21.268v39.692h-16.26l-15.343 0.002795c13.161 21.592 36.945 36.035 64.077 36.035 27.132 0 50.917-14.447 64.08-36.038h-31.611v-39.691l-32.472 32.472-11.204-11.203h-7.985e-4z" fill="#4D4D4D"/>
</svg>
