<?xml version="1.0" encoding="UTF-8"?>
<svg viewBox="0 0 150 150" xmlns="http://www.w3.org/2000/svg">
<path transform="translate(20)" d="m71.047 149.91c-10.687 0-18.488-2.5767-23.402-7.7298-4.5521-4.362-7.1937-10.35-7.3474-16.656-0.055328-1.9157 0.38823-3.8128 1.2871-5.505 0.8384-1.4621 2.0495-2.6753 3.5097-3.5157 3.4407-1.7177 7.4878-1.7177 10.929 0 1.4575 0.83706 2.663 2.0515 3.4899 3.5157 0.92482 1.684 1.385 3.5841 1.3332 5.505 0.09547 2.2941-0.56197 4.5564-1.8719 6.4413-1.0919 1.5386-2.6525 2.6816-4.4479 3.2578 1.7558 2.2375 4.2401 3.7876 7.0203 4.3805 3.1105 0.90422 6.3319 1.3692 9.5709 1.3814 4.2882 0.037453 8.4882-1.2195 12.052-3.607 3.6971-2.6143 6.4542-6.3513 7.8626-10.657 1.7855-5.1247 2.6568-10.524 2.5742-15.95 0.14401-5.6577-0.80969-11.29-2.8083-16.584-1.5032-4.2343-4.3567-7.856-8.1203-10.306-3.4982-2.2157-7.5589-3.3782-11.699-3.3491-3.6072 0.30588-7.0854 1.4878-10.133 3.4432l-7.5138 3.7707v-3.7707l33.768-45.342h-46.803v47.051c-0.13224 3.3954 0.76515 6.7514 2.5742 9.6267 1.7802 2.5484 4.7629 3.9788 7.8626 3.7707 2.8159-0.057025 5.5392-1.0176 7.7686-2.7403 2.5272-1.8537 4.7263-4.1181 6.506-6.6992 0.16017-0.45256 0.45559-0.84484 0.84615-1.1236 0.31348-0.27124 0.71383-0.42084 1.1282-0.42158 0.81307 0.074324 1.5824 0.40177 2.2 0.93632 0.78212 0.87483 1.2079 2.0115 1.1931 3.1854-0.090354 0.78893-0.23104 1.5713-0.4212 2.3422-1.6626 4.0279-4.4495 7.491-8.0272 9.9749-3.3228 2.2505-7.2474 3.4438-11.259 3.4235-10.133 0-17.153-1.9987-21.06-5.9962-4.0565-4.4633-6.1481-10.373-5.8037-16.396v-46.934h-23.805v-8.7422h23.916v-19.933l-5.4756-5.4843v-4.4699h15.889l5.9682 3.0922v26.795l61.826-0.18821 6.1553 6.1835-37.911 38.13c2.2903-0.92193 4.7023-1.5058 7.1603-1.7334 4.8651 0.21327 9.6118 1.5695 13.856 3.9589 4.915 2.3383 9.0572 6.0382 11.935 10.661 2.579 3.9133 4.4045 8.2745 5.3825 12.859 0.80405 3.6163 1.2353 7.3056 1.2874 11.01 0.024762 7.0696-1.5767 14.05-4.6805 20.401-2.9435 6.1495-7.8975 11.108-14.041 14.054-6.2891 3.1018-13.21 4.7048-20.221 4.6837z" fill="#2C7DF7"/>
</svg>
