<?xml version="1.0" encoding="UTF-8"?>
<svg viewBox="0 0 150 150" xmlns="http://www.w3.org/2000/svg">
<defs>
<linearGradient id="a" x1="15.781%" x2="84.806%" y1="84.218%" y2="15.193%">
<stop stop-color="#CF8724" offset="0"/>
<stop stop-color="#FDCE58" offset="1"/>
</linearGradient>
</defs>
<path transform="translate(.009 .009)" d="m74.959 149.89c-41.256 0-74.932-33.711-74.932-74.932 0-41.256 33.711-74.932 74.932-74.932 41.256 0 74.932 33.711 74.932 74.932 0 41.256-33.677 74.932-74.932 74.932z" fill="url(#a)"/>
<path transform="translate(43.37 16.584)" d="m28.555 81.962h39.232v19.616h-23.148v16.598h-20.131v-16.084h-24.143c0-6.5501-0.99452-13.066 0.51441-19.102 0.51441-3.0179 4.0124-6.0357 6.5501-9.0536 7.5447-9.0536 15.089-18.107 23.148-27.161 3.0179-3.5323 6.0357-6.5501 9.568-10.563h-37.723v-19.616h22.12v-16.598h19.616v16.084h24.143c0 6.5501 0.99452 13.066-0.51441 19.102-0.51441 3.0179-4.0124 6.0357-6.5501 9.0536-7.5447 9.0536-15.089 18.107-23.148 27.161-3.0179 3.5323-6.0357 7.0303-9.5337 10.563z" fill="#FFF"/>
</svg>
