<?xml version="1.0" encoding="UTF-8"?>
<svg viewBox="0 0 150 150" xmlns="http://www.w3.org/2000/svg">
<g transform="translate(22)">
<polygon transform="translate(.237)" points="105.45 61.854 83.979 71.465 27.013 100.57 83.979 128.07 83.979 82.62 105.45 72.906 105.45 140.05 83.979 149.66 0.103 109.36 0.103 87.941 58.163 59.348 0.103 31.339 0.103 9.611 21.918 0 105.45 40.366" fill="#49C1BF"/>
<polygon transform="translate(.237)" points="0.103 9.611 83.979 49.977 105.45 40.366 21.918 0" fill="#077A8F"/>
<polygon transform="translate(84.012 40.035)" points="0.205 9.851 21.679 0.24 21.679 21.728 0.205 31.339" fill="#298E97"/>
<polygon transform="translate(.237 9.63)" points="0.103 0 0.103 21.728 58.163 49.737 0.103 78.33 0.103 99.748 83.979 140.05 83.979 118.49 27.013 90.961 83.979 61.854 83.979 40.366" fill="#49C1BF"/>
<polygon transform="translate(84.012 72.628)" points="0.205 76.888 21.679 67.277 21.679 0.137 0.205 9.851" fill="#298E97"/>
</g>
</svg>
