<?xml version="1.0" encoding="UTF-8"?>
<svg viewBox="0 0 150 149" xmlns="http://www.w3.org/2000/svg">
<path transform="translate(0 -1)" d="m115.45 100.83c5.3933 7.1667 10.955 14.5 16.517 21.833-11.124 13-24.944 21.333-41.629 24.833-18.539 3.8333-36.067 1-53.09-8.3333 15.169-11.167 30-22.167 45-33.167 3.3708 3.1667 6.573 6.3333 9.7753 9.3333 3.5393 3.3333 2.191 3.5 6.7416 1 6.236-3.5 11.461-8.3333 15.506-14.167 0.16854-0.33333 0.50562-0.66667 0.67416-1-0.16854 0 0 0 0.50562-0.33333zm-66.236 14.667c-4.2135 3.1667-8.0899 6-11.966 9-2.8652 2.1667-5.7303 4.1667-8.5955 6.3333-1.1798 1-2.0225 1-3.3708-0.16667-12.809-11.333-20.899-25.333-23.933-42-3.0337-16.833-0.33708-32.833 7.7528-48 0.16854-0.33333 0.50562-0.83333 0.67416-1.1667 0-0.16667 0.16854-0.16667 0.50562-0.33333 11.124 14.5 22.416 29 33.539 43.5-0.33708 0.5-0.50562 0.83333-0.8427 1.1667-3.3708 3.5-6.7416 7-10.281 10.333-1.0112 1-1.1798 1.8333-0.50562 3 3.5393 6.6667 8.427 12.167 14.494 16.667 0.8427 0.5 1.5169 1 2.5281 1.6667zm62.865-103.5c-5.3933 3.8333-10.787 7.6667-16.18 11.333-9.2697 6.5-18.539 13.167-27.64 19.667-1.1798 0.83333-2.0225 1-3.0337-0.16667-3.0337-3.1667-6.236-6-9.2697-9.1667-0.8427-0.83333-1.6854-1-2.8652-0.5-7.2472 3.6667-12.978 8.8333-17.697 15.333-0.33708 0.33333-0.67416 0.83333-1.0112 1.3333-2.6966-3.5-5.2247-6.6667-7.7528-10-2.6966-3.5-5.2247-7-7.7528-10.333-0.8427-1.1667-1.0112-2 0.16854-3.1667 12.978-14.167 28.989-22.5 48.202-24.5 15.169-1.6667 29.663 1.3333 43.146 8.5 0.50562 0.33333 1.0112 0.5 1.5169 0.83333 0 0.5 0 0.66667 0.16854 0.83333zm27.472 100c-3.5393-4.5-6.7416-8.6667-9.9438-12.833-7.4157-9.6667-14.831-19.5-22.416-29.167-1.0112-1.3333-1.0112-2.1667 0.16854-3.3333 3.2022-3.1667 6.236-6.3333 9.4382-9.5 0.8427-0.83333 1.1798-1.6667 0.50562-2.8333-3.7079-7-8.764-12.833-15.337-17.5-0.50562-0.33333-1.0112-0.83333-1.6854-1.1667 0.50562-0.5 1.0112-0.83333 1.3483-1.1667 6.4045-4.8333 12.809-9.5 19.213-14.333 1.0112-0.83333 1.8539-1.1667 3.0337 0 16.011 14.333 24.607 32.167 25.449 53.667 0.33708 12.5-2.5281 24.333-8.2584 35.5-0.50562 0.66667-1.0112 1.5-1.5169 2.6667z" fill="#231815"/>
</svg>
