<svg xmlns="http://www.w3.org/2000/svg" width="150" height="150" viewBox="0 0 150 150">
  <path fill="#3CC8C8" d="M73.1598,0.411406318 C76.4292,-1.29737343 80.4198,2.66692341 78.6798,5.94133276 C77.6712,8.61006058 73.8462,9.31979662 71.8926,7.28562094 C69.825,5.33264388 70.5,1.4736045 73.1598,0.411406318 L73.1598,0.411406318 Z M37.9956,4.21029857 C39.9816,3.39049329 42.4956,5.21475552 42.2928,7.3848637 C42.5034,9.74022501 39.6306,11.474868 37.6062,10.3549286 C34.9242,9.31378191 35.2308,4.94890524 37.9956,4.21090004 L37.9956,4.21029857 Z M110.0154,10.4210904 C106.9116,10.0451709 106.4208,5.15400692 109.4088,4.1657897 C111.7266,3.03261791 113.8524,5.15761575 114.1914,7.3596019 C113.7054,9.23980095 112.1346,10.9618131 110.0154,10.4180831 L110.0154,10.4210904 Z M45.9954,19.2109909 C49.3158,17.1058416 54.0534,20.2407096 53.5428,24.1069667 C53.3706,28.0105149 48.198,30.2720467 45.2802,27.632791 C42.4602,25.5601212 42.8862,20.8042882 45.9954,19.2121939 L45.9954,19.2109909 Z M96.681,21.446058 C98.1636,17.6231069 104.166,17.5028126 105.852,21.2319342 C107.5182,24.1310255 105.4686,27.7212073 102.4998,28.7064171 C98.5668,29.4426179 94.8312,25.1805928 96.6828,21.4490653 L96.681,21.446058 Z M68.925,28.4880831 C68.8926,25.198637 71.8812,22.7476417 75,22.5238944 C77.0682,22.939511 79.323,23.8230723 80.2104,25.9155907 C81.864,28.8026525 80.3958,32.7759714 77.4078,34.1010125 C76.0416,34.8684898 74.4258,34.5821895 72.9378,34.4913674 C70.6632,33.3720294 68.7474,31.1766595 68.9256,28.4886846 L68.925,28.4880831 Z M16.6314,33.2806058 C19.6644,31.4112332 23.7564,34.822778 22.608,38.1254565 C21.9756,40.9824448 18.1446,42.1444872 15.9546,40.3208265 C13.6146,38.6120467 13.9872,34.5027953 16.6314,33.2806058 L16.6314,33.2806058 Z M128.925,33.2745911 C131.4984,31.2716919 135.7446,33.569312 135.438,36.8232713 C135.6108,39.7933362 131.9394,42.0326136 129.3846,40.5036737 C126.5712,39.2363739 126.2844,34.8973605 128.925,33.2715837 L128.925,33.2745911 Z M83.631,39.1846473 C87.8772,37.6557075 92.9214,39.485383 95.3418,43.2806664 C98.5344,47.9204154 96.8358,54.9858979 91.881,57.6480095 C86.7474,60.7967114 79.251,58.1291865 77.355,52.380926 C75.2022,47.2359412 78.3384,40.7971917 83.631,39.1846473 L83.631,39.1846473 Z M58.716,39.6940935 C63.4224,37.4686499 69.756,39.3332107 72.0294,44.1612203 C74.7048,48.8587105 72.636,55.3997101 67.8534,57.8248421 C63.0648,60.5513111 56.3088,58.4864604 53.9934,53.4407183 C51.3924,48.5639896 53.7,41.939987 58.716,39.6940935 L58.716,39.6940935 Z M33.7686,48.2440069 C34.1286,45.2041714 36.987,43.226534 39.873,43.0214323 C42.9828,43.3973518 45.4668,45.8182735 45.8046,48.9759974 C45.6006,52.098836 43.1928,55.1519039 39.8916,55.1326569 C36.2592,55.4460234 33.075,51.8245651 33.7686,48.2464128 L33.7686,48.2440069 Z M107.4546,43.684855 C111.1836,41.5087322 116.3616,44.6766811 116.196,48.9711856 C116.4516,53.5213154 110.721,56.7301644 107.0076,54.0590307 C103.1502,51.8365945 103.4508,45.5782865 107.4546,43.6854565 L107.4546,43.684855 Z M48.5766,59.7194764 C52.938,58.516534 57.9246,60.5771744 60.0636,64.5956036 C62.4036,68.6404976 61.449,74.2594418 57.81,77.2264994 C53.1426,81.5781437 44.535,79.8308698 42.051,73.8919429 C39.1968,68.4480268 42.6636,61.1521809 48.5766,59.7188749 L48.5766,59.7194764 Z M95.8332,59.6966205 C100.0728,58.4810472 105.0534,60.1176504 107.3328,63.9911251 C110.3466,68.4197577 108.9078,75.0245132 104.4216,77.8790956 C99.7218,81.1938035 92.4426,79.4531458 89.8566,74.2702683 C86.7216,68.9087538 89.8764,61.3320208 95.8332,59.6966205 L95.8332,59.6966205 Z M20.5254,64.7489788 C24.2928,63.3204846 28.4688,67.4880788 26.9424,71.2322371 C26.0106,74.642579 21.2154,75.9056685 18.738,73.3891129 C15.8394,71.0277369 16.9128,65.7732843 20.526,64.7489788 L20.5254,64.7489788 Z M122.64,70.1826698 C122.5314,67.0550195 124.815,64.2822371 128.016,64.1078105 C130.596,64.5174124 133.1046,66.6039161 132.9006,69.4194029 C133.137,73.1382994 128.667,75.6656815 125.5062,73.9184076 C124.0248,73.1635612 123.2652,71.6406361 122.64,70.1808654 L122.64,70.1826698 Z M2.0028,66.5828646 C4.269,65.5910385 7.0728,67.5602553 6.5556,70.0834271 C6.4356,72.9404154 2.2266,74.0387019 0.681,71.6514626 C-0.6852,69.9968152 0.132,67.4405625 2.0028,66.5828646 Z M144.9102,66.5227174 C146.5062,65.3835309 149.067,66.2021333 149.6988,68.0715058 C150.7716,70.1128992 148.8048,72.9097404 146.5128,72.5644959 C143.295,72.8586153 142.2528,67.942791 144.9102,66.5227174 L144.9102,66.5227174 Z M60.888,80.2362614 C66.852,78.6814582 73.263,83.6646473 73.3008,89.8231112 C73.6902,96.0435266 67.3758,101.560221 61.2708,100.123306 C56.5518,99.3618434 52.8492,94.8050974 53.0022,90.0246041 C52.9896,85.4534228 56.4312,81.2034271 60.8886,80.2362614 L60.888,80.2362614 Z M84.5076,80.2236305 C90.561,78.5274816 97.1628,83.6020943 97.0668,89.900701 C97.3866,96.0062354 91.269,101.337075 85.2918,100.125712 C79.6668,99.3967287 75.5166,93.2015751 77.0868,87.7293899 C77.8794,84.0832713 80.9184,81.1180182 84.5076,80.2236305 L84.5076,80.2236305 Z M38.9676,84.0128992 C43.1562,83.2965469 47.0832,87.9826093 45.3846,91.9679576 C44.1456,96.2167503 37.9776,97.3691692 35.2506,93.8986802 C32.052,90.5659282 34.44,84.4730247 38.9676,84.0128992 L38.9676,84.0128992 Z M108.2334,84.2059714 C111.9684,82.637936 116.553,85.876257 116.2656,89.9403981 C116.4156,94.4141411 110.7552,97.4984855 107.103,94.8874989 C102.963,92.5417611 103.719,85.6446906 108.2334,84.2059714 L108.2334,84.2059714 Z M127.5942,103.672588 C126.132,100.939502 128.7882,97.3174427 131.8152,97.82328 C133.3218,97.7980182 134.376,98.9877283 135.3402,99.9885764 C135.5382,101.608338 135.8706,103.537257 134.5296,104.788317 C132.7086,107.098568 128.5836,106.439355 127.5942,103.674994 L127.5942,103.672588 Z M16.62,98.5847425 C19.449,96.6967244 23.52,99.5122112 22.884,102.828122 C22.5456,105.760294 18.864,107.435993 16.434,105.775331 C13.8294,104.265037 13.9254,99.9645175 16.62,98.5877499 L16.62,98.5847425 Z M72.51,104.725764 C76.2138,103.087356 80.9316,106.319662 80.5806,110.409065 C80.8554,114.927317 75.0192,118.056772 71.4006,115.341129 C67.3806,113.01103 68.049,106.156664 72.5124,104.723959 L72.51,104.725764 Z M46.62,110.776564 C49.7742,109.112895 54.0078,111.986123 53.7204,115.528187 C53.8164,118.433894 50.9874,120.910753 48.1266,120.481302 C45.7572,120.430177 44.2122,118.300969 43.4526,116.276417 C43.4916,114.069619 44.3976,111.612008 46.62,110.779572 L46.62,110.776564 Z M99.0558,110.830697 C102.2994,108.821181 106.9098,111.707642 106.6032,115.492099 C106.6866,119.447373 101.4762,121.981372 98.4558,119.383016 C95.5314,117.346434 95.8884,112.450459 99.0558,110.830697 L99.0558,110.830697 Z M108.1758,133.428572 C106.7358,131.239818 108.4314,128.602968 110.7744,128.104349 C112.6584,128.488689 114.6504,129.908762 114.2544,132.098118 C113.9796,135.060965 109.6566,135.970389 108.1758,133.428572 L108.1758,133.428572 Z M35.7924,131.527923 C36.3672,129.79328 37.7592,128.069463 39.7962,128.520567 C42.7656,128.731683 43.647,133.218057 41.0478,134.600839 C38.7108,136.180303 35.9994,134.017412 35.7924,131.527923 L35.7924,131.527923 Z M70.7124,133.518191 C71.2812,130.952315 74.5944,129.704262 76.7784,131.067196 C78.2184,131.688516 78.6426,133.307075 79.0134,134.68264 C78.8154,135.398992 78.6384,136.116547 78.4644,136.832899 C77.5704,137.895097 76.4244,138.957897 74.9334,138.919403 C72.168,139.244197 69.6738,136.110532 70.7124,133.518191 L70.7124,133.518191 Z" transform="translate(0 6)"/>
</svg>
