<svg xmlns="http://www.w3.org/2000/svg" width="150" height="150" viewBox="0 0 150 150">
  <g fill="none">
    <circle cx="75" cy="75" r="75" fill="#2E3148"/>
    <circle cx="75" cy="75" r="43.519" fill="#1B1E36"/>
    <path fill="#6F7390" d="M75.1542,9.5682 C67.0584,9.5682 60.4938,38.9322 60.4938,75.1548 C60.4938,111.3774 67.0584,140.7414 75.1542,140.7414 C83.25,140.7414 89.8146,111.3774 89.8146,75.1548 C89.8146,38.9322 83.25,9.5682 75.1542,9.5682 Z M76.1664,137.04 C75.2406,138.2748 74.3148,137.3484 74.3148,137.3484 C70.5864,133.0284 68.7222,125.0028 68.7222,125.0028 C62.2008,104.0154 63.753,58.9536 63.753,58.9536 C66.8178,23.1792 72.393,14.7282 74.2902,12.852 C74.6901487,12.4567097 75.3163487,12.4060872 75.7746,12.732 C78.5274,14.6826 80.8362,22.8402 80.8362,22.8402 C87.654,48.1488 87.0366,71.9142 87.0366,71.9142 C87.654,92.5932 83.6202,115.7412 83.6202,115.7412 C80.5152,133.3332 76.1664,137.04 76.1664,137.04 Z"/>
    <path fill="#6F7390" d="M132.0432,42.5154 C128.0124,35.4906 99.2778,44.4102 67.8432,62.4354 C36.4086,80.4606 14.235,100.7688 18.2628,107.7906 C22.2906,114.8124 51.0282,105.8958 82.4628,87.8706 C113.8974,69.8454 136.071,49.5372 132.0432,42.5154 L132.0432,42.5154 Z M21.9816,106.827 C20.4384,106.6326 20.787,105.3642 20.787,105.3642 C22.68,99.9816 28.704,94.3704 28.704,94.3704 C43.6698,78.2688 83.5314,57.1914 83.5314,57.1914 C116.0838,42.0462 126.195,42.6852 128.76,43.3914 C129.303617,43.5431351 129.658523,44.0648458 129.6,44.6262 C129.2916,47.9862 123.3498,54.0462 123.3498,54.0462 C104.8026,72.5616 83.88,83.8548 83.88,83.8548 C66.2502,94.6848 44.1642,102.7002 44.1642,102.7002 C27.3588,108.756 21.9822,106.827 21.9822,106.827 L21.9822,106.827 L21.9816,106.827 Z"/>
    <path fill="#6F7390" d="M131.901,108.0246 C135.963,101.0184 113.8452,80.6172 82.521,62.4564 C51.1968,44.2956 22.4658,35.2656 18.4074,42.2838 C14.349,49.302 36.4632,69.6912 67.8054,87.852 C99.1476,106.0128 127.8426,115.0434 131.901,108.0246 Z M21.099,44.991 C20.499,43.5684 21.7656,43.2258 21.7656,43.2258 C27.3732,42.1668 35.25,44.58 35.25,44.58 C56.679,49.4598 94.89,73.395 94.89,73.395 C124.3098,93.9816 128.8218,103.0494 129.498,105.6234 C129.639968,106.168453 129.368954,106.736571 128.856,106.9692 C125.7882,108.3738 117.5718,106.281 117.5718,106.281 C92.2476,99.4908 71.9946,87.0498 71.9946,87.0498 C53.7972,77.235 35.8032,62.133 35.8032,62.133 C22.1304,50.6208 21.1032,45.0066 21.1032,45.0066 L21.099,44.991 Z"/>
    <circle cx="75" cy="75" r="7.716" fill="#B7B9C8"/>
    <ellipse cx="106.636" cy="45.37" fill="#B7B9C8" rx="4.475" ry="4.63"/>
    <ellipse cx="33.179" cy="61.111" fill="#B7B9C8" rx="4.475" ry="4.63"/>
    <ellipse cx="65.895" cy="117.901" fill="#B7B9C8" rx="4.475" ry="4.63"/>
  </g>
</svg>
