<svg xmlns="http://www.w3.org/2000/svg" width="150" height="150" viewBox="0 0 150 150">
  <g fill="none">
    <path fill="#2CB401" d="M75.0075037,0.0589079154 C55.1350174,0.0589079154 36.0871157,7.92952471 21.9867209,21.9668103 C7.96878453,36.0040959 0.0527734075,55.0720851 0.0527734075,74.9514781 C0.0527734075,94.830871 7.96878453,113.89886 21.9867209,127.936146 C36.0046572,141.973431 55.1350174,149.844048 75.0075037,149.844048 C94.87999,149.844048 113.927892,141.973431 128.028287,127.936146 C142.046223,113.89886 149.962234,94.830871 149.962234,74.9514781 C149.962234,55.0720851 142.046223,36.0040959 128.028287,21.9668103 C114.01035,7.92952471 94.87999,0.0589079154 75.0075037,0.0589079154 Z" transform="translate(0 .052)"/>
    <path fill="#FFF" d="M63.0056764,22.4536526 C59.62488,12.9602283 50.3895337,11.8242629 39.5874769,13.5282109 L36.2066804,0.0589079156 L27.9608356,2.0874174 L31.2591735,15.2321589 C29.1152538,15.8001415 26.8888757,16.3681242 24.744956,16.9361068 L21.446618,3.71022499 L13.2007731,5.73873447 L16.5815696,19.2080375 C14.8499421,19.6948797 13.0358562,20.181722 11.3866872,20.5874238 L11.3866872,20.5062835 L0.00742126023,23.3461968 L2.23379939,32.1093577 C2.23379939,32.1093577 8.25326618,30.4865501 8.17080773,30.6488309 C11.4691457,29.8374271 13.0358562,31.4602348 13.7779823,33.0830423 L17.6535294,48.4997144 C17.9833632,48.418574 18.2307385,48.3374336 18.5605723,48.3374336 L17.6535294,48.5808548 L23.0133286,70.1641957 C23.095787,71.2190206 22.9308702,73.0852493 20.6220335,73.653232 C20.7869505,73.7343724 14.6025668,75.1137588 14.6025668,75.1137588 L15.4271513,85.3374466 L26.1467496,82.6598141 C28.1257524,82.1729718 30.1047552,81.6861295 32.0012995,81.2804277 L35.382096,94.9120113 L43.6279408,92.8835019 L40.2471444,79.3330585 C42.555981,78.8462163 44.6999007,78.2782336 46.8438204,77.7913913 L50.2246169,91.2606943 L58.4704617,89.2321848 L55.0896653,75.6006011 C68.6953095,71.3813014 77.5183635,65.4580536 75.4569022,52.1510314 C73.8077332,41.4405013 67.7058081,38.0326054 59.3775047,38.1137458 C63.5828856,34.4624287 65.4794299,29.4317252 63.0056764,22.4536526 L63.0056764,22.4536526 Z M58.8002955,54.5041024 C61.3565074,64.7277902 43.5454825,67.8922651 38.0207664,69.2716515 L33.4855517,51.1773469 C39.0927262,49.8791008 56.1616251,43.9558532 58.8002955,54.5041024 L58.8002955,54.5041024 Z M48.6579062,29.9997079 C50.9667429,39.2497112 36.124222,41.8462033 31.5065488,42.9821686 L27.3836264,26.5918119 C32.0012995,25.3747063 46.1841528,20.2628624 48.6579062,29.9997079 Z" transform="translate(37.135 27.813)"/>
  </g>
</svg>
