<svg xmlns="http://www.w3.org/2000/svg" width="150" height="150" viewBox="0 0 150 150">
  <defs>
    <linearGradient id="beam-a" x1="0%" x2="69.924%" y1="50%" y2="50%">
      <stop offset="0%" stop-color="#FFF" stop-opacity="0"/>
      <stop offset="100%" stop-color="#FFF"/>
    </linearGradient>
    <linearGradient id="beam-b" x1="96.834%" x2="32.057%" y1="31.578%" y2="34.803%">
      <stop offset="0%" stop-color="#FD76FD" stop-opacity="0"/>
      <stop offset="100%" stop-color="#FF51FF"/>
    </linearGradient>
    <linearGradient id="beam-c" x1="95.948%" x2="45.029%" y1="44.431%" y2="44.431%">
      <stop offset="0%" stop-color="#5300FF" stop-opacity="0"/>
      <stop offset="100%" stop-color="#9D6EFF"/>
    </linearGradient>
    <linearGradient id="beam-d" x1="96.966%" x2="44.149%" y1="35.409%" y2="42.312%">
      <stop offset="0%" stop-color="#AE60D6" stop-opacity="0"/>
      <stop offset="100%" stop-color="#AB38E6"/>
    </linearGradient>
  </defs>
  <g fill="none">
    <circle cx="75" cy="75" r="75" fill="#000"/>
    <circle cx="75" cy="75" r="68.422" fill="#000" stroke="#FFF" stroke-width="3.191"/>
    <g transform="translate(13.158 19.737)">
      <polygon fill="#0B76FF" points="61.49 70.541 86.607 70.541 61.497 27.032 61.497 27.037 61.497 .665 110.71 84.543 61.49 84.543"/>
      <polygon fill="#24C1FF" points="61.487 70.541 61.49 84.543 12.267 84.543 61.481 .665 61.484 27.037 61.481 27.032 36.37 70.541"/>
      <polygon fill="#39FFF2" points="61.49 37.832 61.49 65.429 45.919 65.457"/>
      <polygon fill="#00E2C2" points="61.49 37.832 77.059 65.457 61.49 65.429"/>
      <polygon fill="url(#beam-a)" points=".715 29.294 61.49 54.409 61.49 57.922 .715 42.855"/>
      <polygon fill="url(#beam-b)" points="122.263 18.763 61.49 54.409 61.49 55.372 122.263 30.299"/>
      <polygon fill="url(#beam-c)" points="122.215 53.403 61.49 57.919 61.49 56.92 122.215 41.85"/>
      <polygon fill="url(#beam-d)" points="122.263 30.783 61.49 55.43 61.49 56.92 122.263 41.349"/>
    </g>
  </g>
</svg>
