<svg xmlns="http://www.w3.org/2000/svg" width="150" height="150" viewBox="0 0 150 150">
  <g fill="#F3BA2F">
    <path d="M45.8463268,63.0315 L74.9617691,33.90225 L104.092204,63.0465 L121.033733,46.0965 L74.9617691,0 L28.9055472,46.0815 L45.8463268,63.0315 L45.8463268,63.0315 Z M0.000449775112,74.997675 L16.9425037,58.04715 L33.8834333,74.996625 L16.9415292,91.947 L0.000449775112,74.997675 Z M45.8463268,86.9685 L74.9617691,116.09775 L104.091454,86.95425 L121.041979,103.89525 L121.033733,103.90425 L74.9617691,150 L28.904048,103.92 L28.88006,103.896 L45.8463268,86.9685 L45.8463268,86.9685 Z M116.042954,75.006975 L132.985007,58.056525 L149.925937,75.005925 L132.983958,91.95645 L116.042954,75.006975 Z"/>
    <polyline points="92.145 74.991 92.153 74.991 74.962 57.791 62.257 70.502 62.256 70.502 60.797 71.963 57.786 74.976 57.762 74.999 57.786 75.024 74.962 92.209 92.153 75.009 92.161 74.999 92.145 74.991"/>
  </g>
</svg>
