<svg xmlns="http://www.w3.org/2000/svg" width="150" height="150" viewBox="0 0 150 150">
  <g fill="none">
    <circle cx="75" cy="75" r="75" fill="#F7931A"/>
    <path fill="#FFF" d="M108.698437,65.71875 C110.170312,55.89375 102.684375,50.6109375 92.45625,47.0859375 L95.775,33.7734375 L87.675,31.7578125 L84.440625,44.71875 C82.3125,44.184375 80.128125,43.6875 77.9484375,43.190625 L81.20625,30.1453125 L73.10625,28.125 L69.7875,41.4328125 C68.025,41.0296875 66.290625,40.6359375 64.6125,40.2140625 L64.621875,40.171875 L53.446875,37.3828125 L51.290625,46.0359375 C51.290625,46.0359375 57.3046875,47.4140625 57.178125,47.4984375 C60.459375,48.31875 61.05,50.4890625 60.9515625,52.2140625 L57.1734375,67.378125 C57.3984375,67.434375 57.6890625,67.51875 58.0171875,67.6453125 L57.159375,67.434375 L51.8625,88.678125 C51.459375,89.671875 50.4421875,91.1671875 48.1453125,90.6 C48.2296875,90.7171875 42.2578125,89.1328125 42.2578125,89.1328125 L38.2359375,98.4046875 L48.7828125,101.034375 C50.7421875,101.526562 52.6640625,102.042187 54.553125,102.525 L51.2015625,115.9875 L59.296875,118.003125 L62.615625,104.690625 C64.828125,105.285938 66.975,105.839062 69.075,106.364063 L65.765625,119.620312 L73.865625,121.635937 L77.2171875,108.201562 C91.0359375,110.817188 101.423437,109.7625 105.796875,97.265625 C109.321875,87.20625 105.623437,81.3984375 98.353125,77.615625 C103.65,76.396875 107.634375,72.9140625 108.698437,65.71875 L108.698437,65.71875 Z M90.1828125,91.678125 C87.684375,101.742188 70.7390625,96.3 65.2453125,94.9359375 L69.6984375,77.1 C75.1921875,78.4734375 92.803125,81.1875 90.1828125,91.678125 Z M92.690625,65.5734375 C90.4078125,74.728125 76.3078125,70.0734375 71.7375,68.934375 L75.76875,52.7625 C80.3390625,53.9015625 95.071875,56.025 92.690625,65.5734375 Z"/>
  </g>
</svg>
