<svg xmlns="http://www.w3.org/2000/svg" width="150" height="150" viewBox="0 0 150 150">
  <path fill="#35BAEB" d="M32.4022005,94.0050378 L0,61.7002519 L0,100.526448 L29.8630807,100.526448 C30.2117359,98.1989924 31.0757946,95.9697733 32.4022005,94.0050378 Z M29.8630807,106.896725 L0,106.896725 C0.689731051,117.007557 4.66136919,126.627204 11.3161369,134.297229 L32.4022005,113.040302 C31.0606357,111.2267 30.1889976,109.118388 29.8630807,106.896725 Z M76.9618582,68.6070529 C69.3520782,61.8513854 59.6655257,57.8765743 49.4863081,57.3173804 L49.4863081,87.0604534 C51.7753056,87.4307305 53.9506112,88.2770781 55.8757946,89.5617128 L76.9618582,68.6070529 L76.9618582,68.6070529 Z M60.802445,112.730479 L81.8885086,133.753149 C88.4220049,126.188917 92.3102689,116.70529 92.9696822,106.738035 L62.9550122,106.738035 C62.5987775,108.846348 61.8711491,110.871537 60.802445,112.730479 L60.802445,112.730479 Z M62.9625917,100.534005 L92.8256724,100.534005 C92.1359413,90.4231738 88.1643032,80.8035264 81.5095355,73.1335013 L60.4158924,94.231738 C61.7422983,96.1057935 62.6139364,98.2670025 62.9625917,100.534005 L62.9625917,100.534005 Z M15.8183374,138.710327 C23.4356968,145.465995 33.1222494,149.440806 43.301467,149.992443 L43.301467,120.18136 C41.0124694,119.811083 38.8371638,118.964736 36.9119804,117.680101 L15.8183374,138.710327 Z M49.4863081,120.173804 L49.4863081,149.947103 C59.6655257,149.267003 69.3293399,145.246851 76.9694377,138.506297 L56.0273839,117.627204 C54.0415648,118.904282 51.8207824,119.765743 49.4863081,120.173804 Z M0,52.0730479 C8.00391198,60.0528967 33.099511,85.2997481 37.3288509,89.440806 C39.1327628,88.3299748 41.1110024,87.5214106 43.1801956,87.0604534 L43.1801956,38.4483627 L0.075794621,0 C0,0 0,50.6523929 0,52.0730479 Z" transform="translate(29)"/>
</svg>
