<svg xmlns="http://www.w3.org/2000/svg" width="150" height="150" viewBox="0 0 150 150">
  <g fill="none">
    <circle cx="75" cy="75" r="75" fill="#000"/>
    <g fill="#FFF" transform="translate(18.75 14.063)">
      <path d="M111.295313,49.4015625 C110.553941,45.8006268 109.457973,42.2819121 108.023438,38.896875 C106.609696,35.5627086 104.879927,32.3715817 102.857812,29.3671875 C100.852707,26.3989784 98.5655188,23.6314342 96.028125,21.103125 C93.4983358,18.5654936 90.729213,16.2782987 87.759375,14.2734375 C84.7504925,12.2614713 81.5619012,10.5322254 78.234375,9.1078125 C64.3306687,3.21088288 48.6287063,3.21088288 34.725,9.1078125 C28.0708504,11.9145172 22.0270746,15.990404 16.93125,21.1078125 C14.3940936,23.6346417 12.106913,26.4006074 10.1015625,29.3671875 C8.08934224,32.3775632 6.36009073,35.567734 4.9359375,38.896875 C-0.960992118,52.8005813 -0.960992118,68.5025437 4.9359375,82.40625 C6.3140625,85.734375 8.0953125,88.8890625 10.1015625,91.93125 C12.1067985,94.9008077 14.3939647,97.6698957 16.93125,100.2 C19.4610392,102.737631 22.230162,105.024826 25.2,107.029688 C28.18125,109.035938 31.396875,110.760937 34.725,112.195313 C48.6287063,118.092242 64.3306687,118.092242 78.234375,112.195313 C81.5625,110.817188 84.7171875,109.035938 87.759375,107.029688 C90.729213,105.024826 93.4983358,102.737631 96.028125,100.2 C98.5657564,97.6702108 100.852951,94.901088 102.857813,91.93125 C104.864063,88.95 106.589063,85.734375 108.023438,82.40625 C112.439211,71.9919155 113.580411,60.4801789 111.295313,49.4015625 L111.295313,49.4015625 Z M56.53125,109.6125 C29.4984375,109.6125 7.63125,87.684375 7.63125,60.7078125 C7.63125,33.73125 29.559375,11.803125 56.53125,11.803125 C83.5078125,11.803125 105.435938,33.73125 105.435938,60.7078125 C105.435938,87.684375 83.5125,109.6125 56.53125,109.6125 Z"/>
      <path d="M57.3984375,105.365675 L58.7203125,105.365675 C58.95,105.365675 59.175,105.365675 59.4046875,105.304687 L59.465625,105.304687 C59.6953125,105.304687 59.8640625,105.304687 60.09375,105.248437 L60.2671875,105.248437 C60.440625,105.248437 60.6140625,105.248437 60.7828125,105.192187 L60.95625,105.192187 C61.1296875,105.192187 61.303125,105.135937 61.5328125,105.135937 L61.6453125,105.135937 C61.875,105.135937 62.1046875,105.075 62.334375,105.075 C62.5640625,105.075 62.7375,105.01875 62.9671875,104.9625 L63.0796875,104.9625 C63.253125,104.9625 63.4265625,104.90625 63.5953125,104.90625 L63.7125,104.90625 C63.9421875,104.845312 64.115625,104.845312 64.3453125,104.789062 C64.8,104.732812 65.259375,104.615625 65.6625,104.503125 L65.7796875,104.503125 C65.9484375,104.446875 66.178125,104.446875 66.3515625,104.385937 L66.4078125,104.385937 C66.8671875,104.273437 67.2703125,104.15625 67.7296875,104.04375 C63.4304323,104.180076 59.1310936,103.77534 54.9328125,102.839062 C48.6140625,101.460937 42.590625,98.9953125 37.48125,94.74375 C29.3244375,87.9555631 24.6473085,77.8630828 24.740625,67.2515625 C24.781958,59.4338311 27.5637001,51.878175 32.6015625,45.9 C39.1453125,38.1515625 48.4453125,34.0734375 57.9703125,33.84375 L59.2921875,33.84375 L59.2921875,26.2125 L57.8015625,26.2125 C54.9038592,26.2655866 52.0189182,26.6110886 49.190625,27.24375 C46.3445,27.8873266 43.5744102,28.8300684 40.9265625,30.05625 C38.2265625,31.321875 35.7,32.86875 33.346875,34.65 C30.9152463,36.4984061 28.701097,38.6166299 26.746875,40.9640625 C24.906851,43.1365938 23.3098632,45.5037824 21.984375,48.0234375 C20.6730517,50.4524515 19.6143845,53.0095883 18.825,55.6546875 C18.0506679,58.2589074 17.5325827,60.9325411 17.278125,63.6375 L17.1046875,66.159375 L17.1046875,67.65 C17.1609375,70.5796875 17.5078125,73.4484375 18.1359375,76.2609375 C18.76875,79.134375 19.74375,81.8859375 20.9484375,84.5296875 C22.3875,87.684375 24.9703125,92.334375 28.8140625,95.8359375 C36.6623559,102.022951 46.3687711,105.38064 56.3625,105.365675 L57.3984375,105.365675 L57.3984375,105.365675 Z"/>
      <path d="M69.909375,98.015625 C67.0783086,97.9145008 64.2583579,97.6074395 61.471875,97.096875 C49.65,94.9734375 39.4875,87.740625 35.7609375,76.8375 C31.2234375,63.5765625 38.1703125,49.228125 51.3703125,44.86875 C53.8858604,44.0257489 56.5219624,43.5982729 59.175,43.603125 C62.5640625,43.603125 65.9484375,44.2921875 69.0515625,45.553125 L72.2625,38.7234375 C71.2968438,38.3362852 70.3215307,37.9736688 69.3375,37.6359375 C66.0488877,36.6037759 62.6217831,36.0805418 59.175,36.0843541 C55.7217417,36.0908441 52.292002,36.6527073 49.0171875,37.7484375 C44.8376442,39.1269786 40.9883045,41.3548717 37.7109375,44.2921875 C36.1303402,45.7001754 34.6892878,47.2573911 33.4078125,48.9421875 C32.1410081,50.6077222 31.0448705,52.3964051 30.1359375,54.28125 C28.2850919,58.0706642 27.1927395,62.1852975 26.9203125,66.39375 C26.634375,70.753125 27.20625,75.1125 28.640625,79.246875 C30.102133,83.4999163 32.4509005,87.3937574 35.53125,90.6703125 C38.34375,93.7125 41.615625,96.009375 45.571875,98.1328125 C49.70625,100.3125 54.815625,101.460938 60.15,102.210938 C63.5953125,102.665625 68.1890625,102.782813 70.884375,102.782813 C73.2375,101.920313 74.2125,101.517188 75.478125,101.001563 C76.5703125,100.485938 77.6578125,99.9703125 78.75,99.3375 C79.8421875,98.7046875 80.015625,98.5875 81.8484375,97.3875 C82.0117108,97.2859663 82.1654626,97.169868 82.3078125,97.040625 C75.99375,98.1328125 74.3859375,98.071875 69.909375,98.015625 L69.909375,98.015625 Z"/>
      <path d="M84.0328125,89.465625 C82.2515625,89.578125 79.725,89.746875 76.85625,89.746875 C71.746875,89.746875 65.4890625,89.2921875 60.1546875,87.5109375 C51.8859375,84.759375 44.08125,77.7 44.08125,68.971875 C44.0775144,64.7997872 45.7332157,60.7975037 48.6833284,57.8473909 C51.6334412,54.8972782 55.6357247,53.2415769 59.8078125,53.2453125 C65.71875,53.2453125 70.828125,56.5171875 73.528125,61.2796875 L80.3578125,57.8953125 C79.2869481,55.8791722 77.9113878,54.0403484 76.2796875,52.44375 C71.913051,48.0696235 65.9861238,45.6116342 59.8054688,45.6116342 C53.6248137,45.6116342 47.6978865,48.0696235 43.33125,52.44375 C38.9585889,56.8102107 36.5015625,62.7361312 36.5015625,68.915625 C36.5168673,72.1223403 37.2034755,75.2903186 38.5171875,78.215625 C39.7171875,80.8546875 41.3859375,83.325 43.509375,85.621875 C47.240625,89.634375 52.3453125,92.85 57.8015625,94.6875 C63.0234375,96.4078125 70.715625,97.040625 78.178125,96.525 C80.240625,96.3515625 81.7921875,96.178125 84.43125,95.60625 C86.9780257,93.5964806 89.2895628,91.3053856 91.321875,88.7765625 C89.540625,88.95 86.26875,89.2921875 84.0328125,89.465625 L84.0328125,89.465625 Z"/>
    </g>
  </g>
</svg>
