<svg xmlns="http://www.w3.org/2000/svg" width="150" height="150" viewBox="0 0 150 150">
  <path d="M65.5070542,149.71229 C53.253112,147.422214 47.8705394,145.81916 40.2547718,142.040534 C28.4589211,136.258092 18.7244813,127.784809 11.7958506,117.30771 C7.10041494,110.151221 4.12282158,103.395496 1.77510373,94.5214502 C0.0572614108,88.1664883 0,87.4794659 0,75.9145801 C0,65.6092369 0.171784233,63.032901 1.25975104,58.0519849 C6.24149379,35.0939695 20.1560166,17.0596184 39.9112033,7.78480919 C51.4207469,2.40312979 61.3269711,0.342061092 75.241494,0.397043555 C90.7020747,0.456564909 99.2912862,2.28862598 111.029875,8.12832061 C118.645643,11.8496947 125.230705,16.5443512 132.388382,23.3000764 L137.141079,27.8229771 L127.86473,37.4412977 L118.645643,47.0596184 L115.095436,43.6817558 C106.964315,35.8954962 96.7717843,29.8840458 88.1253114,27.7084733 C81.7692946,26.1626718 68.3701247,26.2771756 62.0713693,27.9947329 C39.6248963,34.0634351 26.6838174,51.2962596 26.5120332,75.513817 C26.340249,92.918397 34.1278008,107.231374 48.8439834,116.735191 C56.3452283,121.601603 68.8282157,124.693206 78.1045644,124.006183 C91.7900416,122.975649 102.784233,117.937481 114.86639,107.059618 L118.760166,103.624504 L120.248963,104.769542 C121.107884,105.456565 125.345228,109.464198 129.754357,113.70084 L137.713693,121.429847 L135.881328,123.662672 C133.648133,126.468015 128.208299,131.277176 123.054772,134.99855 C114.637345,141.124504 103.185062,146.10542 91.847303,148.624504 C87.6672199,149.597786 68.9427386,150.342061 65.5070542,149.71229 Z" transform="matrix(1 0 0 -1 6 150.342)"/>
</svg>
