<svg xmlns="http://www.w3.org/2000/svg" width="150" height="150" viewBox="0 0 150 150">
  <g fill="none" transform="translate(18)">
    <path fill="#8F8E8A" d="M.0024792328 68.3431953L.0024792328 72.1815999C-.169888366 102.144071 8.67831546 119.846563 16.319946 129.585799L30.45409 125.690105 37.40625 123.799547 36.3720442 122.310017.0024792328 68.3431953zM77.1244503 112.822581L77.1244503 112.822581 77.3535916 112.022015 95.7421875 49.7494402C79.4158641 19.8997761 52.1480393 2.28733056 51.0023322 1.54394814L48.5390625 0 75.9214577 113.16568 77.1244503 112.822581z"/>
    <path fill="#413B38" d="M73.8886547 116.715976L42.3046875 125.411284 52.1205457 140.037827 58.8184251 150C61.4167407 149.88483 63.9573158 149.539322 66.4978909 149.021058L73.5999528 124.950605 74.8125 120.862083 73.8886547 116.715976zM18.703125 132.1882C23.5680594 137.668754 28.2040556 140.637387 30.6651401 141.950436 38.2200969 146.917188 46.6335716 149.714554 55.21875 150L39.3647874 126.47929 33.9847422 127.963607 18.703125 132.1882z"/>
    <path fill="#77CBEC" d="M73.03125,113.990248 L48.2302917,11.5384615 L45.6468585,13.6585488 C19.9273465,34.7448225 10.5121679,57.6073855 7.125,73.3074914 L40.5374021,122.928994 L73.03125,113.990248 Z"/>
    <path fill="#5E5957" d="M107.36663,104.650518 C109.884172,92.6205004 110.856859,73.5777244 101.759378,49.4036614 L100.557824,46.1538462 L83.2211155,104.536489 L81.046875,111.83432 L102.388763,105.961847 L107.36663,104.650518 Z"/>
    <path fill="#413B38" d="M77.9296875 121.227811L77.9296875 121.227811 80.6465221 132.442503 83.0743316 142.455621C91.3982496 137.363235 102.785832 127.407335 112.72829 108.468237L114 106.065089 107.005596 108.010495 107.005596 107.953277 88.2767804 113.045663 79.6060321 115.391593 77.9296875 121.227811zM72.5336943 147.5447C74.3646995 146.977907 77.1684271 145.957679 80.6015625 144.143941L77.9694918 133.204833 76.5390189 127.366864 74.822451 133.204833 70.359375 148.224852C71.0460019 147.998135 71.7898483 147.771418 72.5336943 147.5447M69.9140625 148.224852L74.3671875 133.136095 69.9140625 148.224852z"/>
  </g>
</svg>
