<svg xmlns="http://www.w3.org/2000/svg" width="150" height="150" viewBox="0 0 150 150">
  <defs>
    <linearGradient id="cos-a" x1="51.643%" x2="51.643%" y1="99.932%" y2=".068%">
      <stop offset="0%" stop-color="#F0CB3E"/>
      <stop offset="100%" stop-color="#F58F43"/>
    </linearGradient>
    <linearGradient id="cos-b" x1="-.386%" x2="99.941%" y1="49.679%" y2="49.679%">
      <stop offset="0%" stop-color="#5672B4"/>
      <stop offset="100%" stop-color="#4FA1D6"/>
    </linearGradient>
    <linearGradient id="cos-c" x1=".109%" x2="99.95%" y1="50.321%" y2="50.321%">
      <stop offset="0%" stop-color="#4FA1D6"/>
      <stop offset="100%" stop-color="#5672B4"/>
    </linearGradient>
    <linearGradient id="cos-d" x1="-.582%" x2="99.551%" y1="50.653%" y2="50.653%">
      <stop offset="0%" stop-color="#5672B4"/>
      <stop offset="100%" stop-color="#614E9C"/>
    </linearGradient>
    <linearGradient id="cos-e" x1="-.582%" x2="99.551%" y1="49.347%" y2="49.347%">
      <stop offset="0%" stop-color="#5672B4"/>
      <stop offset="100%" stop-color="#614E9C"/>
    </linearGradient>
    <linearGradient id="cos-f" x1=".308%" x2="100.154%" y1="52.5%" y2="52.5%">
      <stop offset="0%" stop-color="#5672B4"/>
      <stop offset="100%" stop-color="#614E9C"/>
    </linearGradient>
  </defs>
  <g fill="none" transform="translate(6)">
    <path fill="url(#cos-a)" d="M35.7545455,75 C35.7545455,80.625 32.6181818,85 28.2272727,87.5 C26.3454545,88.125 24.4636364,88.75 22.5818182,88.75 C21.3272727,88.75 19.4454545,88.75 18.1909091,88.125 C21.9545455,87.5 25.0909091,85 26.9727273,81.875 C28.2272727,80 28.8545455,77.5 28.8545455,75 C28.8545455,72.5 28.2272727,70.625 26.9727273,68.125 C25.0909091,65 21.9545455,62.5 18.1909091,61.875 C19.4454545,61.25 21.3272727,61.25 22.5818182,61.25 C24.4636364,61.25 26.3454545,61.875 28.2272727,62.5 C32.6181818,65 35.7545455,69.375 35.7545455,75 L35.7545455,75 Z"/>
    <path fill="url(#cos-b)" d="M134.863636,27.5 C130.472727,32.5 124.2,36.25 116.672727,36.25 C113.536364,36.25 109.772727,35.625 107.263636,34.375 C105.381818,33.125 103.5,31.875 102.245455,31.25 C94.7181818,27.5 86.5636364,25 77.7818182,25 C74.0181818,25 70.8818182,25.625 67.7454545,26.25 C63.9818182,25 60.2181818,25 56.4545455,25 C35.7545455,25 17.5636364,35 8.15454545,50 C18.1909091,21.25 45.7909091,1.25 78.4090909,1.25 C84.6818182,1.25 90.9545455,1.875 97.2272727,3.75 C111.654545,7.5 124.827273,15.625 134.863636,27.5 Z"/>
    <path fill="url(#cos-c)" d="M134.236364,123.125 C124.2,134.375 111.027273,143.125 95.9727273,146.875 L95.3454545,146.875 C89.7,148.125 83.4272727,148.75 77.7818182,148.75 C45.7909091,148.75 18.1909091,128.125 7.52727273,100 C16.9363636,115 35.1272727,125 55.8272727,125 C59.5909091,125 63.3545455,124.375 67.1181818,123.75 C70.2545455,124.375 74.0181818,125 77.1545455,125 C85.9363636,125 94.0909091,123.125 100.990909,118.75 C102.872727,118.125 104.127273,116.875 106.009091,115.625 C109.145455,114.375 112.281818,113.75 115.418182,113.75 C123.572727,114.375 129.845455,117.5 134.236364,123.125 L134.236364,123.125 Z"/>
    <path fill="url(#cos-d)" d="M67.7454545,124.375 C63.9818182,125 60.2181818,125 56.4545455,125 C35.7545455,125 17.5636364,115 8.15454545,100 L6.27272727,94.375 L31.3636364,94.375 C37.6363636,109.375 50.8090909,120.625 67.7454545,124.375 L67.7454545,124.375 Z"/>
    <path fill="url(#cos-e)" d="M67.7454545,25.625 C50.8090909,29.375 37.6363636,40.625 31.3636364,55.625 L6.27272727,55.625 C6.27272727,53.75 6.9,51.875 7.52727273,50 C17.5636364,35 35.7545455,25 56.4545455,25 C60.2181818,25 63.9818182,25 67.7454545,25.625 Z"/>
    <path fill="url(#cos-f)" d="M27.6,75 C27.6,76.25 27.6,76.875 26.9727273,78.125 C25.7181818,82.5 22.5818182,85.625 17.5636364,86.875 L15.6818182,86.875 L15.0545455,86.875 C8.78181818,86.875 3.76363636,82.5 3.13636364,76.25 L3.13636364,74.375 L3.13636364,72.5 C3.76363636,66.875 8.78181818,61.875 15.0545455,61.875 L17.5636364,61.875 C21.9545455,63.125 25.7181818,66.25 26.9727273,70.625 C27.6,73.125 27.6,73.75 27.6,75 L27.6,75 Z"/>
  </g>
</svg>
