<svg xmlns="http://www.w3.org/2000/svg" width="150" height="150" viewBox="0 0 150 150">
  <g fill="none">
    <circle cx="75" cy="75" r="75" fill="#000"/>
    <g fill="#FFF" transform="translate(23.438 18.75)">
      <path d="M51.0796875,1.865625 C50.3953125,0.31875 52.8703125,-0.778125 53.5546875,0.69375 C69.6421875,28.40625 85.7296875,56.1328125 101.817188,83.8875 C100.959375,83.8875 100.134375,83.60625 99.309375,83.475 L56.371875,74.915625 C54.965625,74.8453125 54.65625,72.571875 56.0296875,72.234375 L72.8765625,67.59375 C73.2830992,67.4907179 73.6224333,67.2116119 73.8019683,66.8325936 C73.9815033,66.4535752 73.9825004,66.0142043 73.8046875,65.634375 L51.0796875,1.828125 L51.0796875,1.8609375 L51.0796875,1.865625 Z"/>
      <path d="M48.609375,2.00625 C48.7640625,2.23125 48.9,2.475 49.0171875,2.728125 C54.1078125,17.165625 59.3296875,31.603125 64.3828125,46.040625 C64.8328125,47.240625 63.1453125,48.2390625 62.3203125,47.34375 C57.9890625,42.80625 53.8640625,38.1328125 49.603125,33.5953125 C48.9140625,32.9765625 47.915625,33.3890625 47.4703125,34.040625 L3.196875,86.053125 C2.68125,86.6015625 2.2359375,87.4265625 1.3734375,87.5296875 C0.7546875,87.5296875 0.3421875,87.046875 0,86.56875 L0,85.771875 C16.2234375,57.8625 32.428125,29.94375 48.609375,2.00625 Z"/>
      <path d="M35.0625,51.5390625 C35.8875,51.3 36.984375,51.88125 36.7125,52.8796875 C34.9921875,58.8609375 33.1734375,64.809375 31.3828125,70.753125 C31.1109375,71.5125 31.7953125,72.196875 32.5171875,72.234375 C55.6875,76.875 78.8578125,81.684375 102.023438,86.325 C102.473438,86.3953125 102.782813,86.7375 103.125,87.0140625 L103.125,87.975 L102.46875,88.6640625 L4.125,88.6640625 C14.4375,76.2890625 24.7171875,63.84375 35.0625,51.5390625 L35.0625,51.5390625 Z"/>
    </g>
  </g>
</svg>
