<svg xmlns="http://www.w3.org/2000/svg" width="150" height="150" viewBox="0 0 150 150">
  <path fill="#3AB03E" d="M82.592264,80.83875 C88.6251453,77.8791283 92.4448678,71.7498478 92.4384042,65.03925 C92.4384042,55.3335 84.577868,47.4675 74.8895025,47.4675 C65.2011371,47.4675 57.336841,55.33275 57.336841,65.0385 C57.3291015,71.7515483 61.1528214,77.8825652 67.1904975,80.838 L67.1904975,102.54 L82.5915127,102.54 L82.5915127,80.83875 M74.8902538,131.25 C43.9176853,131.25 18.7231269,106.0185 18.7231269,75 C18.7231269,43.9815 43.9214416,18.7545 74.8902538,18.7545 C100.164447,18.7545 121.587635,35.5545 128.616508,58.5915 L147.975208,58.5915 C140.50534,25.06275 110.619858,0 74.8902538,0 C33.5298883,0 0,33.57825 0,75 C0,116.42175 33.5298883,150 74.8902538,150 C110.619858,150 140.50534,124.93725 147.975208,91.40775 L128.617259,91.40775 C121.583127,114.45 100.164447,131.25 74.8902538,131.25" transform="translate(1)"/>
</svg>
