<svg xmlns="http://www.w3.org/2000/svg" width="150" height="150" viewBox="0 0 150 150">
  <g fill="none">
    <circle cx="75" cy="75" r="75" fill="#666"/>
    <path fill="#FFF" d="M117.571875,99.140625 C115.56547,102.48863 111.253407,103.622836 107.859375,101.695312 L85.4578125,88.9921875 L85.4578125,80.9296875 L92.5734375,76.8984375 L114.970313,89.596875 C118.373438,91.5234375 119.535938,95.7984375 117.571875,99.1359375 L117.571875,99.140625 Z M82.1109375,116.292187 C82.1109375,120.15 78.928125,123.276562 75,123.276562 C71.071875,123.276562 67.8890625,120.15 67.8890625,116.292187 L67.8890625,90.890625 L75,86.859375 L82.1109375,90.890625 L82.1109375,116.292187 Z M42.140625,101.695312 C38.7453834,103.622018 34.4329628,102.485637 32.428125,99.1359375 C31.4881279,97.5305727 31.234224,95.6143031 31.7237066,93.8195336 C32.2131892,92.0247641 33.4048124,90.5027292 35.0296875,89.596875 L57.4265625,76.89375 L64.5421875,80.9296875 L64.5421875,88.9921875 L42.140625,101.695312 Z M35.0296875,60.403125 C33.4048124,59.4972708 32.2131892,57.9752359 31.7237066,56.1804664 C31.234224,54.3856969 31.4881279,52.4694273 32.428125,50.8640625 C34.4329628,47.5143634 38.7453834,46.3779823 42.140625,48.3046875 L64.5421875,61.0078125 L64.5421875,69.0703125 L57.4265625,73.1015625 L35.0296875,60.403125 Z M67.8890625,33.7078125 C67.8890625,29.85 71.0765625,26.7234375 75,26.7234375 C78.928125,26.7234375 82.1109375,29.85 82.1109375,33.7078125 L82.1109375,59.1046875 L75,63.140625 L67.8890625,59.109375 L67.8890625,33.7078125 Z M85.4578125,72.8671875 L89.2265625,75 L85.4578125,77.1328125 L85.4578125,72.8671875 Z M78.346875,65.0390625 L82.1109375,62.9015625 L82.1109375,67.171875 L78.346875,65.0390625 Z M67.8890625,67.171875 L67.8890625,62.90625 L71.653125,65.0390625 L67.8890625,67.171875 Z M64.5421875,77.1328125 L60.7734375,75 L64.5421875,72.8671875 L64.5421875,77.1328125 Z M71.653125,84.9609375 L67.8890625,87.0984375 L67.8890625,82.828125 L71.653125,84.9609375 Z M82.1109375,82.828125 L82.1109375,87.09375 L78.346875,84.9609375 L82.1109375,82.828125 Z M75,83.0625 L67.8890625,79.03125 L67.8890625,70.96875 L75,66.9375 L82.1109375,70.96875 L82.1109375,79.03125 L75,83.0625 Z M107.859375,48.3046875 C111.254617,46.3779823 115.567037,47.5143634 117.571875,50.8640625 C119.540625,54.2015625 118.36875,58.4765625 114.970312,60.403125 L92.5734375,73.10625 L85.4578125,69.0703125 L85.4578125,61.0078125 L107.859375,48.3046875 Z M116.64375,86.7515625 L95.9203125,75 L116.64375,63.2484375 C119.034958,61.9175104 120.789009,59.679205 121.509665,57.0391486 C122.230322,54.3990921 121.856786,51.5800189 120.473437,49.21875 C117.585937,44.30625 111.1875,42.6234375 106.185937,45.459375 L85.4578125,57.2109375 L85.4578125,33.703125 C85.4578125,28.0359375 80.775,23.4375 75,23.4375 C69.225,23.4375 64.5421875,28.0359375 64.5421875,33.7078125 L64.5421875,57.2109375 L43.8140625,45.459375 C38.8125,42.6234375 32.4140625,44.30625 29.53125,49.21875 C28.1479014,51.5800189 27.7743651,54.3990921 28.495022,57.0391486 C29.2156789,59.679205 30.9697291,61.9175104 33.3609375,63.2484375 L54.0796875,75 L33.3609375,86.7515625 C30.9689322,88.0816873 29.2138783,90.3196397 28.4923198,92.9597675 C27.7707613,95.5998953 28.1435882,98.4194067 29.5265625,100.78125 C32.4140625,105.69375 38.8125,107.376562 43.8140625,104.540625 L64.5421875,92.7890625 L64.5421875,116.292187 C64.5421875,121.964062 69.225,126.5625 75,126.5625 C80.775,126.5625 85.4578125,121.964062 85.4578125,116.292187 L85.4578125,92.7890625 L106.185938,104.540625 C111.1875,107.376562 117.585938,105.69375 120.473438,100.78125 C121.856786,98.4199811 122.230322,95.6009079 121.509665,92.9608514 C120.789009,90.320795 119.034958,88.0824896 116.64375,86.7515625 L116.64375,86.7515625 Z"/>
  </g>
</svg>
