<svg xmlns="http://www.w3.org/2000/svg" width="150" height="150" viewBox="0 0 150 150">
  <g fill="none">
    <circle cx="75" cy="75" r="75" fill="#2C2B3F"/>
    <path fill="#FFF" d="M74.6765625,50.4890625 L67.040625,42.834375 C65.6556626,41.5097012 65.0826097,39.5467835 65.5373296,37.6850339 C65.9920496,35.8232844 67.4054598,34.3455471 69.2451421,33.8084714 C71.0848245,33.2713957 73.0712876,33.7565762 74.45625,35.08125 L74.634375,35.259375 L91.678125,52.303125 C93.7734375,54.3984375 93.7734375,57.7875 91.678125,59.8828125 L74.615625,76.9265625 C72.510174,78.9353352 69.18626,78.896287 67.1285802,76.8386073 C65.0709005,74.7809275 65.0318523,71.4570135 67.040625,69.3515625 L75.0421875,61.35 C63.9991119,59.400712 52.9149975,64.5607208 47.2975099,74.2660325 C41.6800223,83.9713442 42.7268101,96.1527858 49.9177274,104.757433 C57.1086446,113.36208 68.9105875,116.555421 79.4592033,112.750694 C90.0078191,108.945968 97.0541425,98.9543405 97.096875,87.740625 L97.096875,28.790625 C97.096875,25.8315869 99.4956494,23.4328125 102.454687,23.4328125 C105.413726,23.4328125 107.8125,25.8315869 107.8125,28.790625 L107.8125,88.4578125 C107.506314,103.952242 97.7004881,117.662203 83.1362416,122.958787 C68.5719951,128.255371 52.2499303,124.047348 42.0619356,112.369341 C31.873941,100.691335 29.9190005,83.9493077 37.1423483,70.2382054 C44.3656961,56.5271031 59.2791402,48.6717585 74.671875,50.4703125 L74.6765625,50.4890625 L74.6765625,50.4890625 Z"/>
  </g>
</svg>
