<svg xmlns="http://www.w3.org/2000/svg" width="150" height="150" viewBox="0 0 150 150">
  <g fill="none">
    <circle cx="75" cy="75" r="75" fill="#988430"/>
    <circle cx="75" cy="75" r="72.597" fill="#7A6A2A"/>
    <circle cx="75" cy="75" r="71.068" fill="#BA9F33"/>
    <path fill="#FFF" d="M116.25,56.5533981 C108.665049,36.9660194 89.9150485,33.3373786 89.9150485,33.3373786 L36.4199029,33.3373786 L36.6262136,53.288835 L47.2815534,53.288835 L47.2815534,97.8398058 L36.4199029,97.8398058 L36.4199029,117.754854 L88.434466,117.754854 C100.970874,117.754854 111.019417,105.157767 111.019417,105.157767 C127.11165,82.3179612 116.25,56.5533981 116.25,56.5533981 Z M88.7135922,91.7354369 C88.7135922,91.7354369 84.6359223,97.6213592 80.1941748,97.6213592 L71.3106796,97.6213592 L71.1043689,53.3373786 L82.5,53.3373786 C82.5,53.3373786 87.7791262,54.4417476 91.4684466,64.8907767 C91.4684466,64.8907767 96.3592233,79.8543689 88.7135922,91.7354369 L88.7135922,91.7354369 Z" opacity=".8"/>
  </g>
</svg>
