<svg xmlns="http://www.w3.org/2000/svg" width="150" height="150" viewBox="0 0 150 150">
  <path d="M74.53125,128.903614 C74.0625,128.120482 72.96875,123.578313 71.875,118.722892 L70.15625,109.638554 L58.59375,109.638554 L47.03125,109.638554 L45,99.9277108 L42.8125,90.060241 L31.25,89.2771084 L19.6875,88.4939759 L9.84375,46.9879518 C4.53125,24.1204819 0.15625,4.22891566 0,2.81927711 C0,0.156626506 2.8125,0 38.125,0 C74.84375,0 76.875,0.156626506 89.0625,4.07228916 C112.65625,11.4337349 134.21875,29.9156627 144.6875,51.5301205 C148.125,58.5783133 149.0625,63.1204819 149.6875,74.5542169 C150.46875,90.5301205 149.0625,96.3253012 142.1875,106.819277 C132.03125,122.168675 114.53125,130 90.46875,130 C82.03125,130 74.84375,129.53012 74.53125,128.903614 Z M111.71875,116.060241 C122.34375,111.361446 128.75,105.722892 133.75,96.7951807 C137.65625,89.746988 138.28125,86.7710843 138.28125,76.746988 C138.28125,67.3493976 137.5,63.2771084 134.0625,55.9156627 C125.78125,38.2168675 103.4375,19.7349398 82.8125,13.1566265 C76.40625,11.2771084 66.25,10.3373494 43.4375,9.86746988 L12.8125,9.08433735 L13.90625,14.253012 C14.53125,17.2289157 18.125,32.7349398 21.875,49.0240964 L28.59375,78.313253 L33.90625,78.313253 C37.34375,78.313253 39.0625,77.5301205 39.0625,76.1204819 C39.0625,74.8674699 36.5625,63.4337349 33.59375,50.5903614 C30.625,37.9036145 27.8125,25.8433735 27.34375,23.9638554 L26.5625,20.3614458 L51.25,20.3614458 C85.78125,20.3614458 99.21875,24.9036145 114.0625,41.8192771 C137.8125,68.9156627 124.84375,107.289157 91.25,109.325301 C81.40625,109.951807 81.25,110.108434 82.1875,114.180723 C82.8125,116.373494 83.59375,118.879518 84.0625,119.662651 C85.3125,121.855422 104.21875,119.349398 111.71875,116.060241 Z M99.375,96.4819277 C116.71875,88.3373494 120.3125,69.2289157 107.8125,52 C102.96875,45.2650602 91.71875,36.0240964 88.28125,36.0240964 C87.34375,36.0240964 85.3125,39.7831325 84.0625,44.4819277 L81.71875,53.0963855 L86.25,54.9759036 C88.59375,55.9156627 92.8125,59.2048193 95.3125,62.1807229 C98.90625,66.253012 100,68.9156627 100,74.0843373 C99.84375,86.6144578 95,89.2771084 72.03125,89.2771084 C53.75,89.2771084 53.75,89.2771084 55.625,96.7951807 C56.5625,100.084337 57.34375,100.240964 74.0625,100.240964 C89.0625,100.240964 92.5,99.7710843 99.375,96.4819277 Z M85.625,76.4337349 C86.71875,75.3373494 87.5,73.3012048 87.5,71.7349398 C87.5,66.8795181 80.3125,63.9036145 66.875,62.8072289 C54.6875,61.8674699 54.0625,61.7108434 52.96875,57.6385542 C51.875,53.4096386 52.03125,53.4096386 59.84375,52.939759 L67.65625,52.4698795 L71.25,41.9759036 C73.125,36.3373494 74.375,31.1686747 73.75,30.6987952 C72.34375,29.1325301 40.625,29.6024096 40.625,31.1686747 C40.625,32.5783133 49.53125,70.6385542 50.9375,75.6506024 C51.71875,78 53.90625,78.313253 67.8125,78.313253 C78.125,78.313253 84.375,77.686747 85.625,76.4337349 Z" transform="matrix(1 0 0 -1 0 140)"/>
</svg>
