<svg xmlns="http://www.w3.org/2000/svg" width="150" height="150" viewBox="0 0 150 150">
  <g fill="none" transform="translate(0 58)">
    <rect width="150" height="34" fill="#523C97"/>
    <path fill="#FFF" d="M.105265789.746658C4.97368421.259991333 9.75 1.99332667 13.2039474 5.49332667 19.5460526 11.92 19.5460526 22.3733333 13.2039474 28.8 9.75 32.3 4.97368421 34.0333333.105265789 33.5466667.0460550658 33.54 0 33.4866667 0 33.4266667 0 33.3666667.0460550658 33.3133333.105265789 33.3066667 3.78289474 32.94 7.25 31.28 9.86184211 28.6266667 12.8881579 25.56 14.5592105 21.48 14.5592105 17.14 14.5592105 12.8 12.8881579 8.72 9.86184211 5.65332667 7.25 2.99999333 3.78289474 1.33999333.105265789.973324667.0460550658.979991333 0 .926658 0 .866658 0 .806658.0460550658.753324667.105265789.746658zM59.3618421 20.34L59.3618421 3.36666 62.1315789 3.36666 62.1315789 20.6533333C62.1315789 21.7933333 61.9802632 23.0066667 61.6907895 24.2933333 61.3947368 25.58 60.8618421 26.7666667 60.0921053 27.8533333 59.3223684 28.94 58.2828947 29.8466667 56.9605263 30.56 55.6447368 31.2733333 53.9671053 31.6266667 51.9473684 31.6266667 49.9013158 31.6266667 48.2236842 31.2733333 46.9144737 30.56 45.6052632 29.8466667 44.5723684 28.94 43.8026316 27.8533333 43.0328947 26.76 42.5065789 25.5733333 42.2105263 24.2933333 41.9144737 23.0066667 41.7697368 21.7933333 41.7697368 20.6533333L41.7697368 3.36666 44.5328947 3.36666 44.5328947 20.34C44.5328947 21.4533333 44.6644737 22.54 44.9144737 23.5933333 45.1710526 24.6466667 45.5855263 25.58 46.1644737 26.4 46.7434211 27.22 47.5 27.88 48.4473684 28.3866667 49.3947368 28.8933333 50.5592105 29.1466667 51.9407895 29.1466667 53.3223684 29.1466667 54.4868421 28.8933333 55.4342105 28.3866667 56.3815789 27.88 57.1447368 27.22 57.7171053 26.4 58.2960526 25.58 58.7105263 24.6466667 58.9671053 23.5933333 59.2302632 22.54 59.3618421 21.4533333 59.3618421 20.34zM101.513158 18.06C102.276316 18.6466667 102.907895 19.38 103.388158 20.28 103.875 21.1733333 104.118421 22.3133333 104.118421 23.6866667 104.118421 25.06 103.861842 26.2533333 103.342105 27.2533333 102.822368 28.2533333 102.151316 29.0733333 101.322368 29.7266667 100.493421 30.3733333 99.5460526 30.8533333 98.4868421 31.1666667 97.4210526 31.48 96.3552632 31.6333333 95.2763158 31.6333333 94.4539474 31.6333333 93.6381579 31.5466667 92.8157895 31.38 91.9934211 31.2133333 91.2171053 30.96 90.4736842 30.62 89.7302632 30.2866667 89.0394737 29.8533333 88.4013158 29.3333333 87.7631579 28.8133333 87.1973684 28.22 86.7105263 27.5466667L89.0921053 25.7533333C89.6842105 26.74 90.5065789 27.5666667 91.5723684 28.2266667 92.6381579 28.8866667 93.8881579 29.22 95.3223684 29.22 96.0131579 29.22 96.7171053 29.1066667 97.4342105 28.8866667 98.1513158 28.6666667 98.7960526 28.3266667 99.375 27.8733333 99.9539474 27.42 100.427632 26.86 100.796053 26.2 101.164474 25.54 101.355263 24.7666667 101.355263 23.88 101.355263 22.92 101.171053 22.12 100.796053 21.4866667 100.427632 20.8533333 99.9276316 20.32 99.3157895 19.8933333 98.7039474 19.4666667 97.9934211 19.1066667 97.2039474 18.82L94.7105263 17.9666667C93.8157895 17.68 92.9276316 17.3533333 92.0592105 16.9933333 91.1842105 16.6333333 90.4078947 16.1533333 89.7171053 15.5733333 89.0263158 14.9866667 88.4671053 14.2666667 88.0460526 13.4133333 87.625 12.5533333 87.4144737 11.5066667 87.4144737 10.26 87.4144737 8.94 87.6776316 7.79333333 88.2039474 6.83332 88.7302632 5.87332 89.4144737 5.07998667 90.2565789 4.45998667 91.1052632 3.83998667 92.0394737 3.38665333 93.0657895 3.09998667 94.0921053 2.81332 95.0986842 2.67332 96.0986842 2.67332 97.9407895 2.67332 99.5197368 2.99998667 100.822368 3.66665333 102.131579 4.32665333 103.111842 5.11332 103.782895 6.01998667L101.592105 7.81333333C101 6.97998667 100.25 6.31332 99.3289474 5.80665333 98.4078947 5.29998667 97.2894737 5.04665333 95.9868421 5.04665333 95.3223684 5.04665333 94.6447368 5.15332 93.9473684 5.35998667 93.2565789 5.56665333 92.6315789 5.88665333 92.0657895 6.31332 91.5 6.73998667 91.0460526 7.27998667 90.7039474 7.92666667 90.3618421 8.57333333 90.1842105 9.34 90.1842105 10.2266667 90.1842105 11.1066667 90.3486842 11.8333333 90.6842105 12.4066667 91.0131579 12.98 91.4539474 13.4666667 92.0065789 13.8666667 92.5592105 14.2666667 93.1842105 14.6 93.8815789 14.86L96.0855263 15.64 98.9407895 16.6533333C99.8881579 17 100.75 17.4733333 101.513158 18.06z"/>
    <polygon fill="#FFF" points="135.283 15.86 149.763 30.927 145.691 30.927 132.092 16.253 132.053 16.253 132.053 30.927 129.289 30.927 129.289 3.367 132.053 3.367 132.053 15.747 132.092 15.747 145.039 3.367 148.993 3.367"/>
  </g>
</svg>
