<svg xmlns="http://www.w3.org/2000/svg" width="150" height="150" viewBox="0 0 150 150">
  <defs>
    <radialGradient id="enj-a" cx="26.136%" cy="19.16%" r="54.428%" fx="26.136%" fy="19.16%" gradientTransform="matrix(.99168 0 0 1 .002 0)">
      <stop offset="0%" stop-color="#21FFE3"/>
      <stop offset="100%" stop-color="#8549DF"/>
    </radialGradient>
    <linearGradient id="enj-b" x1="52.208%" x2="48.2%" y1="93.224%" y2="14.759%">
      <stop offset="0%" stop-color="#21FFE3"/>
      <stop offset="100%" stop-color="#8549DF"/>
    </linearGradient>
    <radialGradient id="enj-c" cx="50%" cy="50%" r="63.645%" fx="50%" fy="50%" gradientTransform="matrix(.92903 0 0 1 .035 0)">
      <stop offset="0%" stop-color="#21FFE3"/>
      <stop offset="19.16%" stop-color="#23FCE3" stop-opacity=".808"/>
      <stop offset="34.19%" stop-color="#28F2E3" stop-opacity=".658"/>
      <stop offset="47.8%" stop-color="#31E1E2" stop-opacity=".522"/>
      <stop offset="60.59%" stop-color="#3ECAE2" stop-opacity=".394"/>
      <stop offset="72.8%" stop-color="#4FACE1" stop-opacity=".272"/>
      <stop offset="84.58%" stop-color="#6386E0" stop-opacity=".154"/>
      <stop offset="95.8%" stop-color="#7B5BDF" stop-opacity=".042"/>
      <stop offset="100%" stop-color="#8549DF" stop-opacity="0"/>
    </radialGradient>
    <linearGradient id="enj-d" x1="6.846%" x2="93.384%" y1="20.6%" y2="67.128%">
      <stop offset="0%" stop-color="#21FFE3"/>
      <stop offset="100%" stop-color="#F8FFFB"/>
    </linearGradient>
    <linearGradient id="enj-e" x1="0%" x2="100%" y1="50%" y2="50%">
      <stop offset="0%" stop-color="#692CC2"/>
      <stop offset="51.89%" stop-color="#3E5BDE"/>
      <stop offset="100%" stop-color="#229EE7"/>
    </linearGradient>
    <linearGradient id="enj-f" x1="0%" x2="100%" y1="49.999%" y2="49.999%">
      <stop offset="0%" stop-color="#692CC2"/>
      <stop offset="51.89%" stop-color="#3E5BDE"/>
      <stop offset="100%" stop-color="#229EE7"/>
    </linearGradient>
    <linearGradient id="enj-g" x1="0%" x2="100%" y1="49.999%" y2="49.999%">
      <stop offset="0%" stop-color="#677CF4"/>
      <stop offset="27.64%" stop-color="#374CD7"/>
      <stop offset="36.31%" stop-color="#3752D8"/>
      <stop offset="47.47%" stop-color="#3562DB"/>
      <stop offset="59.99%" stop-color="#337CE1"/>
      <stop offset="73.51%" stop-color="#30A1E9"/>
      <stop offset="87.66%" stop-color="#2DD0F2"/>
      <stop offset="100%" stop-color="#29FFFC"/>
    </linearGradient>
    <linearGradient id="enj-h" x1="50.61%" x2="39.554%" y1="24.559%" y2="93.394%">
      <stop offset="0%" stop-color="#F8FFFB"/>
      <stop offset="100%" stop-color="#F8FFFB" stop-opacity="0"/>
    </linearGradient>
    <linearGradient id="enj-i" x1="50.692%" x2="46.51%" y1="40.771%" y2="138.353%">
      <stop offset="0%" stop-color="#F8FFFB"/>
      <stop offset="100%" stop-color="#F8FFFB" stop-opacity="0"/>
    </linearGradient>
  </defs>
  <g fill="none">
    <ellipse cx="75.025" cy="74.437" fill="url(#enj-a)" rx="74.901" ry="74.278"/>
    <ellipse cx="77.864" cy="84.163" fill="url(#enj-b)" rx="54.892" ry="50.997"/>
    <ellipse cx="75.544" cy="94.668" fill="url(#enj-c)" rx="59.263" ry="55.057"/>
    <g transform="translate(16.038 22.453)">
      <path fill="url(#enj-d)" d="M42.9006289,102.904054 C42.6298742,102.875364 36.2308176,102.178067 32.9040881,100.29262 C32.3377358,99.9717256 18.9704403,92.3223493 13.6279874,82.7859667 C9.12389937,74.7455301 1.49528302,60.2217256 1.01320755,53.2846154 C0.574528302,46.9786902 0.919496855,33.4761954 3.16761006,29.0176715 C3.32421384,28.7073805 3.51761006,28.2826403 3.76257862,27.7443867 C5.22893082,24.5226611 8.28050314,17.8191268 14.3393082,11.8986486 C21.8490566,4.56049896 31.4808176,0.830769231 42.9669811,0.813305613 C43.0427673,0.812370062 51.3273585,0.711018711 60.6474843,0.711018711 C66.122956,0.711018711 70.8801887,0.745322245 74.7867925,0.813617464 C87.1915094,1.02941788 97.1009434,2.06975052 101.817296,2.8952183 L102.630189,3.03586279 C105.936478,3.6037422 107.173585,3.81642412 107.440881,6.20363825 C107.670126,8.24844075 109.511006,23.0847193 109.529874,23.2344075 L109.579245,23.6345114 L98.1512579,30.5151767 L110.430818,30.5151767 L111.641509,53.3164241 L98.2962264,62.9794179 L110.345597,62.9794179 L106.225786,87.2538462 L83.3201258,100.133576 L42.9559748,102.909979 L42.9006289,102.904054 Z"/>
      <path fill="#692CC2" d="M60.6474843,1.33471933 C65.3603774,1.33471933 70.3638365,1.36029106 74.7757862,1.43700624 C88.0097484,1.66715177 97.7610063,2.81850312 101.708176,3.50925156 C105.655031,4.2 106.583962,4.2 106.816038,6.27224532 C107.048113,8.34449064 108.90566,23.3101871 108.90566,23.3101871 L95.9037736,31.1385655 L109.834277,31.1385655 L110.995283,53.0117464 L96.368239,63.6028067 L109.602201,63.6028067 L105.655346,86.8574844 L83.1342767,99.52079 L42.968239,102.283784 C42.968239,102.283784 36.4672956,101.593035 33.2169811,99.7512474 C29.9666667,97.9091476 18.8220126,90.7718295 14.1786164,82.4828482 C9.53522013,74.1941788 2.10566038,59.9189189 1.64119497,53.2418919 C1.17672956,46.5648649 1.64119497,33.4409563 3.73081761,29.2964657 C5.82044025,25.1519751 14.1783019,1.48066528 42.968239,1.43700624 C42.9676101,1.43700624 51.2235849,1.33471933 60.6474843,1.33471933 L60.6474843,1.33471933 Z M60.6474843,0.0873180873 C51.3235849,0.0873180873 43.0345912,0.188669439 42.9522013,0.18960499 C31.3091195,0.207068607 21.5292453,3.9972973 13.8977987,11.454262 C7.75534591,17.4564449 4.67138365,24.2317048 3.18930818,27.4877339 C2.95691824,27.9985447 2.75597484,28.439501 2.60534591,28.7385655 C0.306289308,33.2987526 -0.056918239,46.9606029 0.385849057,53.3276507 C0.87672956,60.3848233 8.5490566,75.0031185 13.0786164,83.0884615 C18.5050314,92.7751559 32.0198113,100.509356 32.5924528,100.833992 C36.031761,102.783056 42.5578616,103.494699 42.8339623,103.524012 L42.9443396,103.535863 L43.0550314,103.528378 L83.2210692,100.765385 L83.5059748,100.745738 L83.7544025,100.606029 L106.275472,87.9427235 L106.796226,87.649896 L106.895597,87.064553 L110.842453,63.8098753 L111.089308,62.3554054 L109.601887,62.3554054 L100.223585,62.3554054 L111.736478,54.0190229 L112.286792,53.62079 L112.250943,52.9462578 L111.089937,31.0730769 L111.027358,29.8911642 L109.833962,29.8911642 L100.399057,29.8911642 L109.558176,24.3764033 L110.253145,23.9579002 L110.153774,23.1576923 C110.13522,23.0080042 108.294654,8.17546778 108.066038,6.13440748 C107.746541,3.28160083 106.072642,2.99407484 102.737736,2.42120582 C102.482704,2.37723493 102.212579,2.33108108 101.92673,2.28087318 C97.1880503,1.4516632 87.2396226,0.406340956 74.7977987,0.18991684 C70.8877358,0.121933472 66.1267296,0.0873180873 60.6474843,0.0873180873 L60.6474843,0.0873180873 Z"/>
    </g>
    <path fill="#FFF" d="M18.3691824,75.7465696 C18.3691824,75.7465696 18.9981132,83.8549896 22.3525157,91.3397089 C25.7069182,98.8244283 33.8984277,110.661331 36.8185535,113.793867 C41.1644654,118.455405 49.6084906,123.918399 54.8496855,124.5421 C60.0908805,125.1658 74.4157233,124.175676 77.658805,124.130769 C79.7657233,124.101455 96.8654088,122.389709 99.1716981,121.974012 C101.477987,121.558316 121.142138,110.393139 121.692767,109.310707 C122.143082,108.425364 122.393082,105.185551 122.393082,105.185551 L106.373585,108.842308 L58.1147799,111.103846 C56.5349057,111.16684 54.1836478,110.909252 52.3257862,110.749584 C49.9874214,110.548441 47.7515723,110.111538 45.0358491,109.261123 C42.1248428,108.349584 38.4827044,106.482848 35.508805,104.245634 C31.3251572,101.098129 26.308805,96.1559252 23.4015723,89.0529106 C21.5550314,84.5429314 18.3691824,75.7465696 18.3691824,75.7465696 Z"/>
    <path fill="url(#enj-e)" d="M41.5924528,53.8219335 L47.3968553,45.9935551 C47.3968553,45.9935551 47.1647799,43.9213098 58.0767296,43.6911642 C68.9886792,43.4610187 122.388994,45.3028067 122.388994,45.3028067 L111.47673,53.8219335 L41.5924528,53.8219335 Z"/>
    <path fill="url(#enj-f)" d="M124.246541,75.6951143 L110.548113,86.0560291 L49.9506289,87.8981289 C49.9506289,87.8981289 44.6106918,83.5234927 43.681761,81.7967775 C42.7531447,80.0700624 41.5921384,77.7673597 41.5921384,77.7673597 C41.5921384,77.7673597 104.743711,77.3067568 110.780189,77.0766112 C116.816981,76.8461538 124.246541,75.6951143 124.246541,75.6951143 Z"/>
    <path fill="url(#enj-g)" d="M117.281132,110.001455 C117.281132,110.001455 99.6358491,120.36237 98.2427673,120.822973 C96.8496855,121.283576 63.2371069,123.585031 59.9339623,123.585967 C55.672956,123.586902 50.4147799,122.20447 46.9320755,119.671933 C43.4493711,117.139397 38.109434,112.074012 36.9484277,110.001767 C35.7874214,107.929522 32.5371069,104.245634 32.5371069,104.245634 C32.5371069,104.245634 40.4311321,109.311019 46.0031447,110.922661 C51.5754717,112.534304 63.3179245,112.169439 68.6581761,111.939293 C73.9984277,111.709148 117.281132,110.001455 117.281132,110.001455 Z"/>
    <path fill="#FFF" d="M110.727673,18.6277547 C110.727673,18.6277547 98.3427673,14.9432432 90.3811321,15.118815 C82.4194969,15.2943867 72.1578616,15.9960499 66.85,17.7505198 C61.5421384,19.5049896 59.4191824,20.5577963 59.4191824,20.5577963 C59.4191824,20.5577963 62.7808176,24.5931393 62.427044,28.4532225 C62.0732704,32.3133056 58.1808176,36.875052 53.5808176,38.1031185 C48.9808176,39.331185 44.3808176,40.0331601 40.8421384,39.331185 C37.3034591,38.6295218 29.1650943,34.0674636 29.1650943,34.0674636 L22.9726415,29.6809771 C22.9726415,29.6809771 29.1650943,21.2591476 39.4267296,16.3465696 C49.6883648,11.4339917 60.127044,7.22307692 73.2194969,7.22307692 C86.3119497,7.22307692 95.6889937,10.2059252 101.173899,12.8376299 C106.658176,15.4696466 110.727673,18.6277547 110.727673,18.6277547 Z"/>
    <path fill="url(#enj-h)" d="M22.972327,29.681289 C22.972327,29.681289 18.2619497,35.5933472 17.0672956,38.1991684 C15.8726415,40.8053015 11.9308176,48.3863825 11.2141509,55.8492723 C10.4974843,63.3121622 10.3779874,69.095738 11.2141509,73.0153846 C12.0503145,76.9347193 13.4836478,82.3839917 13.4836478,82.3839917 C13.4836478,82.3839917 18.3811321,62.3647609 19.0977987,57.5080042 C19.8144654,52.6512474 23.2786164,42.3455301 26.2647799,38.791684 C29.2509434,35.2378378 31.9984277,30.9735967 31.9984277,30.9735967 L22.972327,29.681289 Z"/>
    <path fill="url(#enj-i)" d="M31.9984277,30.9732848 C31.9984277,30.9732848 26.7754717,37.7348233 25.6490566,39.6099792 C24.5226415,41.4851351 19.8619497,48.8953222 19.5754717,52.6509356 C19.2889937,56.4065489 18.5003145,64.3780665 18.5003145,64.3780665 C18.5003145,64.3780665 26.8619497,49.4525988 29.1314465,46.8464657 C31.4009434,44.2403326 37.9707547,35.5930353 37.9707547,35.5930353 L31.9984277,30.9732848 Z"/>
  </g>
</svg>
