<svg xmlns="http://www.w3.org/2000/svg" width="150" height="150" viewBox="0 0 150 150">
  <g fill="none" fill-rule="evenodd">
    <path fill="#4F4F4F" fill-rule="nonzero" d="M48.5338983,31.9830508 C56.4661017,26.8220339 65.2372881,24.2033898 74.8474576,24.2033898 C84.3559322,24.1779661 93.1271186,26.7966102 101.186441,32.059322 L118.067797,15.1779661 C104.949153,5.11016949 90.5338983,0.0508474576 74.8474576,0.0760812181 C59.0847458,0.101694915 44.6949153,5.11016949 31.6525424,15.1525424 L48.5338983,31.9830508 Z M31.9067797,101.338983 C26.5423729,93.2033898 23.8728814,84.4067797 23.8983051,74.9745763 C23.9237288,65.3898305 26.5677966,56.6186441 31.8559322,48.6355932 L15.0254237,31.779661 C5.13559322,44.6694915 0.177966102,59.059322 0.152349524,74.9745763 C0.127118644,90.7372881 5.11016949,105.127119 15.0762712,118.194915 L31.9067797,101.338983 Z M101.338983,118.09322 C93.3305085,123.483051 84.559322,126.228814 75.0254237,126.305085 C65.3389831,126.381356 56.4661017,123.635593 48.4067797,118.144068 L31.6271186,134.923729 C44.6694915,145.067797 59.1610169,150.076271 75.1271186,149.949153 C90.9152542,149.822034 105.254237,144.813559 118.144068,134.898305 L101.338983,118.09322 Z M117.940678,48.6101695 C123.355932,56.7711864 126,65.720339 125.898305,75.4576271 C125.79661,84.8389831 123.127119,93.4830508 117.915254,101.389831 L134.771186,118.245763 C144.686441,105.330508 149.720339,90.9915254 149.847458,75.2542373 C149.974576,59.2881356 144.966102,44.7966102 134.822034,31.7542373 L117.940678,48.6101695 Z"/>
    <g stroke="#4F4F4F" stroke-width="2" transform="translate(24.22 24.966)">
      <path d="M100.78,0.034 L0.78,100.034"/>
      <path fill="#4F4F4F" d="M0.78,0.034 C0.78,0.034 100.78,100.034 100.78,100.034 C34.1133333,33.3673333 0.78,0.034 0.78,0.034 Z"/>
    </g>
    <circle cx="135.458" cy="135.229" r="11.72" fill="#47C7F0" fill-rule="nonzero"/>
    <circle cx="14.695" cy="135.254" r="11.72" fill="#6953A3" fill-rule="nonzero"/>
    <circle cx="135.559" cy="14.364" r="11.72" fill="#C3198D" fill-rule="nonzero"/>
    <circle cx="14.39" cy="14.161" r="11.72" fill="#6DCBD7" fill-rule="nonzero"/>
  </g>
</svg>
