<svg xmlns="http://www.w3.org/2000/svg" width="150" height="150" viewBox="0 0 150 150">
  <g fill="none">
    <path fill="#4F4F4F" d="M48.5338983 31.9830508C56.4661017 26.8220339 65.2372881 24.2033898 74.8474576 24.2033898 84.3559322 24.1779661 93.1271186 26.7966102 101.186441 32.059322L118.067797 15.1779661C104.949153 5.11016949 90.5338983.0508474576 74.8474576.0761758463 59.0847458.101694915 44.6949153 5.11016949 31.6525424 15.1525424L48.5338983 31.9830508zM31.9067797 101.338983C26.5423729 93.2033898 23.8728814 84.4067797 23.8983051 74.9745763 23.9237288 65.3898305 26.5677966 56.6186441 31.8559322 48.6355932L15.0254237 31.779661C5.13559322 44.6694915.177966102 59.059322.152445582 74.9745763.127118644 90.7372881 5.11016949 105.127119 15.0762712 118.194915L31.9067797 101.338983zM101.338983 118.09322C93.3305085 123.483051 84.559322 126.228814 75.0254237 126.305085 65.3389831 126.381356 56.4661017 123.635593 48.4067797 118.144068L31.6271186 134.923729C44.6694915 145.067797 59.1610169 150.076271 75.1271186 149.949153 90.9152542 149.822034 105.254237 144.813559 118.144068 134.898305L101.338983 118.09322zM117.940678 48.6101695C123.355932 56.7711864 126 65.720339 125.898305 75.4576271 125.79661 84.8389831 123.127119 93.4830508 117.915254 101.389831L134.771186 118.245763C144.686441 105.330508 149.720339 90.9915254 149.847458 75.2542373 149.974576 59.2881356 144.966102 44.7966102 134.822034 31.7542373L117.940678 48.6101695z"/>
    <g fill="#4F4F4F" transform="translate(13.22 12.966)">
      <path d="M121.271186,123.177966 C121.016949,122.923729 120.889831,122.618644 120.889831,122.288136 L120.889831,122.288136 C120.889831,121.957627 121.016949,121.652542 121.271186,121.398305 L121.271186,121.398305 C121.754237,120.915254 122.542373,120.915254 123.050847,121.398305 L123.050847,121.398305 C123.305085,121.652542 123.432203,121.957627 123.432203,122.288136 L123.432203,122.288136 C123.432203,122.618644 123.305085,122.923729 123.050847,123.177966 L123.050847,123.177966 C122.79661,123.432203 122.491525,123.533898 122.161017,123.533898 L122.161017,123.533898 C121.830508,123.533898 121.525424,123.40678 121.271186,123.177966 Z M117.711864,119.618644 C117.457627,119.364407 117.355932,119.059322 117.355932,118.728814 L117.355932,118.728814 C117.355932,118.398305 117.483051,118.09322 117.711864,117.838983 L117.711864,117.838983 C118.194915,117.355932 119.008475,117.355932 119.491525,117.838983 L119.491525,117.838983 C119.745763,118.09322 119.847458,118.398305 119.847458,118.728814 L119.847458,118.728814 C119.847458,119.059322 119.720339,119.364407 119.491525,119.618644 L119.491525,119.618644 C119.237288,119.872881 118.932203,119.974576 118.601695,119.974576 L118.601695,119.974576 C118.29661,119.974576 117.966102,119.872881 117.711864,119.618644 Z M114.177966,116.059322 C113.923729,115.805085 113.79661,115.5 113.79661,115.169492 L113.79661,115.169492 C113.79661,114.838983 113.923729,114.533898 114.177966,114.279661 L114.177966,114.279661 C114.661017,113.79661 115.474576,113.79661 115.957627,114.279661 L115.957627,114.279661 C116.211864,114.533898 116.313559,114.838983 116.313559,115.169492 L116.313559,115.169492 C116.313559,115.5 116.186441,115.805085 115.957627,116.059322 L115.957627,116.059322 C115.70339,116.313559 115.398305,116.440678 115.067797,116.440678 L115.067797,116.440678 C114.737288,116.440678 114.40678,116.313559 114.177966,116.059322 Z M110.618644,112.5 C110.364407,112.245763 110.262712,111.940678 110.262712,111.610169 L110.262712,111.610169 C110.262712,111.279661 110.389831,110.974576 110.618644,110.720339 L110.618644,110.720339 C111.101695,110.237288 111.915254,110.237288 112.398305,110.720339 L112.398305,110.720339 C112.652542,110.974576 112.754237,111.279661 112.754237,111.610169 L112.754237,111.610169 C112.754237,111.940678 112.627119,112.245763 112.398305,112.5 L112.398305,112.5 C112.144068,112.754237 111.838983,112.881356 111.508475,112.881356 L111.508475,112.881356 C111.177966,112.881356 110.872881,112.754237 110.618644,112.5 Z M107.059322,108.966102 C106.805085,108.711864 106.677966,108.40678 106.677966,108.076271 L106.677966,108.076271 C106.677966,107.745763 106.805085,107.440678 107.059322,107.186441 L107.059322,107.186441 C107.542373,106.70339 108.330508,106.70339 108.838983,107.186441 L108.838983,107.186441 C109.09322,107.440678 109.194915,107.745763 109.194915,108.076271 L109.194915,108.076271 C109.194915,108.40678 109.067797,108.711864 108.838983,108.966102 L108.838983,108.966102 C108.584746,109.220339 108.279661,109.322034 107.949153,109.322034 L107.949153,109.322034 C107.644068,109.322034 107.313559,109.194915 107.059322,108.966102 Z M103.525424,105.40678 C103.271186,105.152542 103.144068,104.847458 103.144068,104.516949 L103.144068,104.516949 C103.144068,104.186441 103.271186,103.881356 103.525424,103.627119 L103.525424,103.627119 C104.008475,103.144068 104.79661,103.144068 105.305085,103.627119 L105.305085,103.627119 C105.559322,103.881356 105.686441,104.186441 105.686441,104.516949 L105.686441,104.516949 C105.686441,104.847458 105.559322,105.152542 105.305085,105.40678 L105.305085,105.40678 C105.050847,105.661017 104.745763,105.762712 104.415254,105.762712 L104.415254,105.762712 C104.084746,105.762712 103.754237,105.661017 103.525424,105.40678 Z M99.9661017,101.847458 C99.7118644,101.59322 99.6101695,101.288136 99.6101695,100.957627 L99.6101695,100.957627 C99.6101695,100.627119 99.7372881,100.322034 99.9661017,100.067797 L99.9661017,100.067797 C100.449153,99.5847458 101.262712,99.5847458 101.745763,100.067797 L101.745763,100.067797 C102,100.322034 102.127119,100.627119 102.127119,100.957627 L102.127119,100.957627 C102.127119,101.288136 102,101.59322 101.745763,101.847458 L101.745763,101.847458 C101.491525,102.101695 101.186441,102.228814 100.855932,102.228814 L100.855932,102.228814 C100.525424,102.228814 100.220339,102.101695 99.9661017,101.847458 Z M96.4067797,98.3135593 C96.1525424,98.059322 96.0254237,97.7542373 96.0254237,97.4237288 L96.0254237,97.4237288 C96.0254237,97.0932203 96.1525424,96.7881356 96.4067797,96.5338983 L96.4067797,96.5338983 C96.8898305,96.0508475 97.7033898,96.0508475 98.1864407,96.5338983 L98.1864407,96.5338983 C98.440678,96.7881356 98.5423729,97.0932203 98.5423729,97.4237288 L98.5423729,97.4237288 C98.5423729,97.7542373 98.4152542,98.059322 98.1864407,98.3135593 L98.1864407,98.3135593 C97.9322034,98.5677966 97.6271186,98.6694915 97.2966102,98.6694915 L97.2966102,98.6694915 C96.9915254,98.6694915 96.6610169,98.5423729 96.4067797,98.3135593 Z M92.8474576,94.7542373 C92.5932203,94.5 92.4661017,94.1949153 92.4661017,93.8644068 L92.4661017,93.8644068 C92.4661017,93.5338983 92.5932203,93.2288136 92.8474576,92.9745763 L92.8474576,92.9745763 C93.3305085,92.4915254 94.1440678,92.4915254 94.6271186,92.9745763 L94.6271186,92.9745763 C94.8813559,93.2288136 95.0084746,93.5338983 95.0084746,93.8644068 L95.0084746,93.8644068 C95.0084746,94.1949153 94.8813559,94.5 94.6271186,94.7542373 L94.6271186,94.7542373 C94.3728814,95.0084746 94.0677966,95.1355932 93.7372881,95.1355932 L93.7372881,95.1355932 C93.4322034,95.1101695 93.1016949,94.9830508 92.8474576,94.7542373 Z M89.3135593,91.1949153 C89.059322,90.940678 88.9322034,90.6355932 88.9322034,90.3050847 L88.9322034,90.3050847 C88.9322034,89.9745763 89.059322,89.6694915 89.3135593,89.4152542 L89.3135593,89.4152542 C89.7966102,88.9322034 90.5847458,88.9322034 91.0932203,89.4152542 L91.0932203,89.4152542 C91.3474576,89.6694915 91.4745763,89.9745763 91.4745763,90.3050847 L91.4745763,90.3050847 C91.4745763,90.6355932 91.3474576,90.940678 91.0932203,91.1949153 L91.0932203,91.1949153 C90.8389831,91.4491525 90.5338983,91.5762712 90.2033898,91.5762712 L90.2033898,91.5762712 C89.8728814,91.5762712 89.5423729,91.4491525 89.3135593,91.1949153 Z M85.7542373,87.6610169 C85.5,87.4067797 85.3728814,87.1016949 85.3728814,86.7711864 L85.3728814,86.7711864 C85.3728814,86.440678 85.5,86.1355932 85.7542373,85.8813559 L85.7542373,85.8813559 C86.2372881,85.3983051 87.0254237,85.3983051 87.5338983,85.8813559 L87.5338983,85.8813559 C87.7881356,86.1355932 87.9152542,86.440678 87.9152542,86.7711864 L87.9152542,86.7711864 C87.9152542,87.1016949 87.7881356,87.4067797 87.5338983,87.6610169 L87.5338983,87.6610169 C87.279661,87.9152542 86.9745763,88.0169492 86.6440678,88.0169492 L86.6440678,88.0169492 C86.3135593,88.0169492 86.0084746,87.8898305 85.7542373,87.6610169 Z M82.1949153,84.1016949 C81.940678,83.8474576 81.8389831,83.5423729 81.8389831,83.2118644 L81.8389831,83.2118644 C81.8389831,82.8813559 81.9661017,82.5762712 82.1949153,82.3220339 L82.1949153,82.3220339 C82.6779661,81.8389831 83.4915254,81.8389831 83.9745763,82.3220339 L83.9745763,82.3220339 C84.2288136,82.5762712 84.3559322,82.8813559 84.3559322,83.2118644 L84.3559322,83.2118644 C84.3559322,83.5423729 84.2288136,83.8474576 83.9745763,84.1016949 L83.9745763,84.1016949 C83.720339,84.3559322 83.4152542,84.4830508 83.0847458,84.4830508 L83.0847458,84.4830508 C82.779661,84.4576271 82.4491525,84.3305085 82.1949153,84.1016949 Z M78.6610169,80.5423729 C78.4067797,80.2881356 78.3050847,79.9830508 78.3050847,79.6525424 L78.3050847,79.6525424 C78.3050847,79.3220339 78.4322034,79.0169492 78.6610169,78.7627119 L78.6610169,78.7627119 C79.1440678,78.279661 79.9576271,78.279661 80.440678,78.7627119 L80.440678,78.7627119 C80.6949153,79.0169492 80.8220339,79.3220339 80.8220339,79.6525424 L80.8220339,79.6525424 C80.8220339,79.9830508 80.6949153,80.2881356 80.440678,80.5423729 L80.440678,80.5423729 C80.1864407,80.7966102 79.8813559,80.9237288 79.5508475,80.9237288 L79.5508475,80.9237288 C79.220339,80.8983051 78.8898305,80.7966102 78.6610169,80.5423729 Z M75.1016949,76.9830508 C74.8474576,76.7288136 74.720339,76.4237288 74.720339,76.0932203 L74.720339,76.0932203 C74.720339,75.7627119 74.8474576,75.4576271 75.1016949,75.2033898 L75.1016949,75.2033898 C75.5847458,74.720339 76.3983051,74.720339 76.8813559,75.2033898 L76.8813559,75.2033898 C77.1355932,75.4576271 77.2372881,75.7627119 77.2372881,76.0932203 L77.2372881,76.0932203 C77.2372881,76.4237288 77.1101695,76.7288136 76.8813559,76.9830508 L76.8813559,76.9830508 C76.6271186,77.2372881 76.3220339,77.3644068 75.9915254,77.3644068 L75.9915254,77.3644068 C75.6610169,77.3644068 75.3305085,77.2372881 75.1016949,76.9830508 Z M71.5423729,73.4491525 C71.2881356,73.1949153 71.1610169,72.8898305 71.1610169,72.559322 L71.1610169,72.559322 C71.1610169,72.2288136 71.2881356,71.9237288 71.5423729,71.6694915 L71.5423729,71.6694915 C72.0254237,71.1864407 72.8389831,71.1864407 73.3220339,71.6694915 L73.3220339,71.6694915 C73.5762712,71.9237288 73.7033898,72.2288136 73.7033898,72.559322 L73.7033898,72.559322 C73.7033898,72.8898305 73.5762712,73.1949153 73.3220339,73.4491525 L73.3220339,73.4491525 C73.0677966,73.7033898 72.7627119,73.8305085 72.4322034,73.8305085 L72.4322034,73.8305085 C72.1016949,73.8050847 71.7966102,73.6779661 71.5423729,73.4491525 Z M68.0084746,69.8898305 C67.7542373,69.6355932 67.6271186,69.3305085 67.6271186,69 L67.6271186,69 C67.6271186,68.6694915 67.7542373,68.3644068 68.0084746,68.1101695 L68.0084746,68.1101695 C68.4915254,67.6271186 69.279661,67.6271186 69.7881356,68.1101695 L69.7881356,68.1101695 C70.0423729,68.3644068 70.1694915,68.6694915 70.1694915,69 L70.1694915,69 C70.1694915,69.3305085 70.0423729,69.6355932 69.7881356,69.8898305 L69.7881356,69.8898305 C69.5338983,70.1440678 69.2288136,70.2457627 68.8983051,70.2457627 L68.8983051,70.2457627 C68.5677966,70.2457627 68.2372881,70.1186441 68.0084746,69.8898305 Z M64.4491525,66.3305085 C64.1949153,66.0762712 64.0932203,65.7711864 64.0932203,65.440678 L64.0932203,65.440678 C64.0932203,65.1101695 64.220339,64.8050847 64.4491525,64.5508475 L64.4491525,64.5508475 C64.9322034,64.0677966 65.7457627,64.0677966 66.2288136,64.5508475 L66.2288136,64.5508475 C66.4830508,64.8050847 66.6101695,65.1101695 66.6101695,65.440678 L66.6101695,65.440678 C66.6101695,65.7711864 66.4830508,66.0762712 66.2288136,66.3305085 L66.2288136,66.3305085 C65.9745763,66.5847458 65.6694915,66.6864407 65.3389831,66.6864407 L65.3389831,66.6864407 C65.0084746,66.7118644 64.6779661,66.5847458 64.4491525,66.3305085 Z M60.8898305,62.7711864 C60.6355932,62.5169492 60.5338983,62.2118644 60.5338983,61.8813559 L60.5338983,61.8813559 C60.5338983,61.5508475 60.6610169,61.2457627 60.8898305,60.9915254 L60.8898305,60.9915254 C61.3728814,60.5084746 62.1864407,60.5084746 62.6694915,60.9915254 L62.6694915,60.9915254 C62.9237288,61.2457627 63.0254237,61.5508475 63.0254237,61.8813559 L63.0254237,61.8813559 C63.0254237,62.2118644 62.8983051,62.5169492 62.6694915,62.7711864 L62.6694915,62.7711864 C62.4152542,63.0254237 62.1101695,63.1525424 61.779661,63.1525424 L61.779661,63.1525424 C61.4491525,63.1525424 61.1440678,63.0254237 60.8898305,62.7711864 Z M57.3305085,59.2372881 C57.0762712,58.9830508 56.9491525,58.6779661 56.9491525,58.3474576 L56.9491525,58.3474576 C56.9491525,58.0169492 57.0762712,57.7118644 57.3305085,57.4576271 L57.3305085,57.4576271 C57.8135593,56.9745763 58.6271186,56.9745763 59.1101695,57.4576271 L59.1101695,57.4576271 C59.3644068,57.7118644 59.4661017,58.0169492 59.4661017,58.3474576 L59.4661017,58.3474576 C59.4661017,58.6779661 59.3389831,58.9830508 59.1101695,59.2372881 L59.1101695,59.2372881 C58.8559322,59.4915254 58.5508475,59.6186441 58.220339,59.6186441 L58.220339,59.6186441 C57.9152542,59.5932203 57.5847458,59.4661017 57.3305085,59.2372881 Z M53.7966102,55.6779661 C53.5423729,55.4237288 53.4152542,55.1186441 53.4152542,54.7881356 L53.4152542,54.7881356 C53.4152542,54.4576271 53.5423729,54.1525424 53.7966102,53.8983051 L53.7966102,53.8983051 C54.279661,53.4152542 55.0932203,53.4152542 55.5762712,53.8983051 L55.5762712,53.8983051 C55.8305085,54.1525424 55.9322034,54.4576271 55.9322034,54.7881356 L55.9322034,54.7881356 C55.9322034,55.1186441 55.8050847,55.4237288 55.5762712,55.6779661 L55.5762712,55.6779661 C55.3220339,55.9322034 55.0169492,56.0338983 54.6864407,56.0338983 L54.6864407,56.0338983 C54.3559322,56.0338983 54.0254237,55.9322034 53.7966102,55.6779661 Z M50.2372881,52.1186441 C49.9830508,51.8644068 49.8559322,51.559322 49.8559322,51.2288136 L49.8559322,51.2288136 C49.8559322,50.8983051 49.9830508,50.5932203 50.2372881,50.3389831 L50.2372881,50.3389831 C50.720339,49.8559322 51.5084746,49.8559322 52.0169492,50.3389831 L52.0169492,50.3389831 C52.2711864,50.5932203 52.3983051,50.8983051 52.3983051,51.2288136 L52.3983051,51.2288136 C52.3983051,51.559322 52.2711864,51.8644068 52.0169492,52.1186441 L52.0169492,52.1186441 C51.7627119,52.3728814 51.4576271,52.5 51.1271186,52.5 L51.1271186,52.5 C50.7966102,52.5 50.4661017,52.3728814 50.2372881,52.1186441 Z M46.6779661,48.5847458 C46.4237288,48.3305085 46.3220339,48.0254237 46.3220339,47.6949153 L46.3220339,47.6949153 C46.3220339,47.3644068 46.4491525,47.059322 46.6779661,46.8050847 L46.6779661,46.8050847 C47.1610169,46.3220339 47.9745763,46.3220339 48.4576271,46.8050847 L48.4576271,46.8050847 C48.7118644,47.059322 48.8389831,47.3644068 48.8389831,47.6949153 L48.8389831,47.6949153 C48.8389831,48.0254237 48.7118644,48.3305085 48.4576271,48.5847458 L48.4576271,48.5847458 C48.2033898,48.8389831 47.8983051,48.940678 47.5677966,48.940678 L47.5677966,48.940678 C47.2372881,48.940678 46.9322034,48.8135593 46.6779661,48.5847458 Z M43.1186441,45.0254237 C42.8644068,44.7711864 42.7372881,44.4661017 42.7372881,44.1355932 L42.7372881,44.1355932 C42.7372881,43.8050847 42.8644068,43.5 43.1186441,43.2457627 L43.1186441,43.2457627 C43.6016949,42.7627119 44.3898305,42.7627119 44.8983051,43.2457627 L44.8983051,43.2457627 C45.1525424,43.5 45.2542373,43.8050847 45.2542373,44.1355932 L45.2542373,44.1355932 C45.2542373,44.4661017 45.1271186,44.7711864 44.8983051,45.0254237 L44.8983051,45.0254237 C44.6440678,45.279661 44.3389831,45.3813559 44.0084746,45.3813559 L44.0084746,45.3813559 C43.7033898,45.3813559 43.3728814,45.2542373 43.1186441,45.0254237 Z M39.5847458,41.4661017 C39.3305085,41.2118644 39.2288136,40.9067797 39.2288136,40.5762712 L39.2288136,40.5762712 C39.2288136,40.2457627 39.3559322,39.940678 39.5847458,39.6864407 L39.5847458,39.6864407 C40.0677966,39.2033898 40.8813559,39.2033898 41.3644068,39.6864407 L41.3644068,39.6864407 C41.6186441,39.940678 41.7457627,40.2457627 41.7457627,40.5762712 L41.7457627,40.5762712 C41.7457627,40.9067797 41.6186441,41.2118644 41.3644068,41.4661017 L41.3644068,41.4661017 C41.1101695,41.720339 40.8050847,41.8474576 40.4745763,41.8474576 L40.4745763,41.8474576 C40.1440678,41.8474576 39.8135593,41.720339 39.5847458,41.4661017 Z M36.0254237,37.9067797 C35.7711864,37.6525424 35.6694915,37.3474576 35.6694915,37.0169492 L35.6694915,37.0169492 C35.6694915,36.6864407 35.7966102,36.3813559 36.0254237,36.1271186 L36.0254237,36.1271186 C36.5084746,35.6440678 37.3220339,35.6440678 37.8050847,36.1271186 L37.8050847,36.1271186 C38.059322,36.3813559 38.1610169,36.6864407 38.1610169,37.0169492 L38.1610169,37.0169492 C38.1610169,37.3474576 38.0338983,37.6525424 37.8050847,37.9067797 L37.8050847,37.9067797 C37.5508475,38.1610169 37.2457627,38.2881356 36.9152542,38.2881356 L36.9152542,38.2881356 C36.5847458,38.2881356 36.279661,38.1610169 36.0254237,37.9067797 Z M32.4661017,34.3728814 C32.2118644,34.1186441 32.0847458,33.8135593 32.0847458,33.4830508 L32.0847458,33.4830508 C32.0847458,33.1525424 32.2118644,32.8474576 32.4661017,32.5932203 L32.4661017,32.5932203 C32.9491525,32.1101695 33.7627119,32.1101695 34.2457627,32.5932203 L34.2457627,32.5932203 C34.5,32.8474576 34.6016949,33.1525424 34.6016949,33.4830508 L34.6016949,33.4830508 C34.6016949,33.8135593 34.4745763,34.1186441 34.2457627,34.3728814 L34.2457627,34.3728814 C33.9915254,34.6271186 33.6864407,34.7288136 33.3559322,34.7288136 L33.3559322,34.7288136 C33.0508475,34.7288136 32.720339,34.6016949 32.4661017,34.3728814 Z M28.9322034,30.8135593 C28.6779661,30.559322 28.5762712,30.2542373 28.5762712,29.9237288 L28.5762712,29.9237288 C28.5762712,29.5932203 28.7033898,29.2881356 28.9322034,29.0338983 L28.9322034,29.0338983 C29.4152542,28.5508475 30.2288136,28.5508475 30.7118644,29.0338983 L30.7118644,29.0338983 C30.9661017,29.2881356 31.0932203,29.5932203 31.0932203,29.9237288 L31.0932203,29.9237288 C31.0932203,30.2542373 30.9661017,30.559322 30.7118644,30.8135593 L30.7118644,30.8135593 C30.4576271,31.0677966 30.1525424,31.1694915 29.8220339,31.1694915 L29.8220339,31.1694915 C29.4915254,31.1694915 29.1610169,31.0677966 28.9322034,30.8135593 Z M25.3728814,27.2542373 C25.1186441,27 24.9915254,26.6949153 24.9915254,26.3644068 L24.9915254,26.3644068 C24.9915254,26.0338983 25.1186441,25.7288136 25.3728814,25.4745763 L25.3728814,25.4745763 C25.8559322,24.9915254 26.6440678,24.9915254 27.1525424,25.4745763 L27.1525424,25.4745763 C27.4067797,25.7288136 27.5084746,26.0338983 27.5084746,26.3644068 L27.5084746,26.3644068 C27.5084746,26.6949153 27.3813559,27 27.1525424,27.2542373 L27.1525424,27.2542373 C26.8983051,27.5084746 26.5932203,27.6355932 26.2627119,27.6355932 L26.2627119,27.6355932 C25.9322034,27.6355932 25.6271186,27.5084746 25.3728814,27.2542373 Z M21.8135593,23.6949153 C21.559322,23.440678 21.4576271,23.1355932 21.4576271,22.8050847 L21.4576271,22.8050847 C21.4576271,22.4745763 21.5847458,22.1694915 21.8135593,21.9152542 L21.8135593,21.9152542 C22.2966102,21.4322034 23.1101695,21.4322034 23.5932203,21.9152542 L23.5932203,21.9152542 C23.8474576,22.1694915 23.9745763,22.4745763 23.9745763,22.8050847 L23.9745763,22.8050847 C23.9745763,23.1355932 23.8474576,23.440678 23.5932203,23.6949153 L23.5932203,23.6949153 C23.3389831,23.9491525 23.0338983,24.0508475 22.7033898,24.0508475 L22.7033898,24.0508475 C22.3728814,24.0762712 22.0677966,23.9491525 21.8135593,23.6949153 Z M18.2542373,20.1610169 C18,19.9067797 17.8728814,19.6016949 17.8728814,19.2711864 L17.8728814,19.2711864 C17.8728814,18.940678 18,18.6355932 18.2542373,18.3813559 L18.2542373,18.3813559 C18.7372881,17.8983051 19.5508475,17.8983051 20.0338983,18.3813559 L20.0338983,18.3813559 C20.2881356,18.6355932 20.3898305,18.940678 20.3898305,19.2711864 L20.3898305,19.2711864 C20.3898305,19.6016949 20.2627119,19.9067797 20.0338983,20.1610169 L20.0338983,20.1610169 C19.779661,20.4152542 19.4745763,20.5423729 19.1440678,20.5423729 L19.1440678,20.5423729 C18.8389831,20.5169492 18.5084746,20.3898305 18.2542373,20.1610169 Z M14.720339,16.6016949 C14.4661017,16.3474576 14.3644068,16.0423729 14.3644068,15.7118644 L14.3644068,15.7118644 C14.3644068,15.3813559 14.4915254,15.0762712 14.720339,14.8220339 L14.720339,14.8220339 C15.2033898,14.3389831 16.0169492,14.3389831 16.5,14.8220339 L16.5,14.8220339 C16.7542373,15.0762712 16.8813559,15.3813559 16.8813559,15.7118644 L16.8813559,15.7118644 C16.8813559,16.0423729 16.7542373,16.3474576 16.5,16.6016949 L16.5,16.6016949 C16.2457627,16.8559322 15.940678,16.9576271 15.6101695,16.9576271 L15.6101695,16.9576271 C15.279661,16.9830508 14.9491525,16.8559322 14.720339,16.6016949 Z M11.1610169,13.0423729 C10.9067797,12.7881356 10.779661,12.4830508 10.779661,12.1525424 L10.779661,12.1525424 C10.779661,11.8220339 10.9067797,11.5169492 11.1610169,11.2627119 L11.1610169,11.2627119 C11.6440678,10.779661 12.4322034,10.779661 12.940678,11.2627119 L12.940678,11.2627119 C13.1949153,11.5169492 13.2966102,11.8220339 13.2966102,12.1525424 L13.2966102,12.1525424 C13.2966102,12.4830508 13.1694915,12.7881356 12.940678,13.0423729 L12.940678,13.0423729 C12.6864407,13.2966102 12.3813559,13.4237288 12.0508475,13.4237288 L12.0508475,13.4237288 C11.720339,13.4237288 11.4152542,13.2966102 11.1610169,13.0423729 Z"/>
      <path d="M0.508474576,123.177966 C0.254237288,122.923729 0.152542373,122.618644 0.152542373,122.288136 L0.152542373,122.288136 C0.152542373,121.957627 0.279661017,121.652542 0.508474576,121.398305 L0.508474576,121.398305 C0.991525424,120.915254 1.80508475,120.915254 2.28813559,121.398305 L2.28813559,121.398305 C2.54237288,121.652542 2.66949153,121.957627 2.66949153,122.288136 L2.66949153,122.288136 C2.66949153,122.618644 2.54237288,122.923729 2.28813559,123.177966 L2.28813559,123.177966 C2.03389831,123.432203 1.72881356,123.533898 1.39830508,123.533898 L1.39830508,123.533898 C1.06779661,123.533898 0.737288136,123.40678 0.508474576,123.177966 Z M4.06779661,119.618644 C3.81355932,119.364407 3.68644068,119.059322 3.68644068,118.728814 L3.68644068,118.728814 C3.68644068,118.398305 3.81355932,118.09322 4.06779661,117.838983 L4.06779661,117.838983 C4.55084746,117.355932 5.36440678,117.355932 5.84745763,117.838983 L5.84745763,117.838983 C6.10169492,118.09322 6.20338983,118.398305 6.20338983,118.728814 L6.20338983,118.728814 C6.20338983,119.059322 6.07627119,119.364407 5.84745763,119.618644 L5.84745763,119.618644 C5.59322034,119.872881 5.28813559,119.974576 4.95762712,119.974576 L4.95762712,119.974576 C4.62711864,119.974576 4.29661017,119.872881 4.06779661,119.618644 Z M7.60169492,116.059322 C7.34745763,115.805085 7.24576271,115.5 7.24576271,115.169492 L7.24576271,115.169492 C7.24576271,114.838983 7.37288136,114.533898 7.60169492,114.279661 L7.60169492,114.279661 C8.08474576,113.79661 8.89830508,113.79661 9.38135593,114.279661 L9.38135593,114.279661 C9.63559322,114.533898 9.73728814,114.838983 9.73728814,115.169492 L9.73728814,115.169492 C9.73728814,115.5 9.61016949,115.805085 9.38135593,116.059322 L9.38135593,116.059322 C9.12711864,116.313559 8.8220339,116.440678 8.49152542,116.440678 L8.49152542,116.440678 C8.18644068,116.440678 7.8559322,116.313559 7.60169492,116.059322 Z M11.1610169,112.5 C10.9067797,112.245763 10.8050847,111.940678 10.8050847,111.610169 L10.8050847,111.610169 C10.8050847,111.279661 10.9322034,110.974576 11.1610169,110.720339 L11.1610169,110.720339 C11.6440678,110.237288 12.4576271,110.237288 12.940678,110.720339 L12.940678,110.720339 C13.1949153,110.974576 13.3220339,111.279661 13.3220339,111.610169 L13.3220339,111.610169 C13.3220339,111.940678 13.1949153,112.245763 12.940678,112.5 L12.940678,112.5 C12.6864407,112.754237 12.3813559,112.881356 12.0508475,112.881356 L12.0508475,112.881356 C11.720339,112.881356 11.4152542,112.754237 11.1610169,112.5 Z M14.720339,108.966102 C14.4661017,108.711864 14.3389831,108.40678 14.3389831,108.076271 L14.3389831,108.076271 C14.3389831,107.745763 14.4661017,107.440678 14.720339,107.186441 L14.720339,107.186441 C15.2033898,106.70339 15.9915254,106.70339 16.5,107.186441 L16.5,107.186441 C16.7542373,107.440678 16.8813559,107.745763 16.8813559,108.076271 L16.8813559,108.076271 C16.8813559,108.40678 16.7542373,108.711864 16.5,108.966102 L16.5,108.966102 C16.2457627,109.220339 15.940678,109.322034 15.6101695,109.322034 L15.6101695,109.322034 C15.279661,109.322034 14.9491525,109.194915 14.720339,108.966102 Z M18.2542373,105.40678 C18,105.152542 17.8983051,104.847458 17.8983051,104.516949 L17.8983051,104.516949 C17.8983051,104.186441 18.0254237,103.881356 18.2542373,103.627119 L18.2542373,103.627119 C18.7372881,103.144068 19.5508475,103.144068 20.0338983,103.627119 L20.0338983,103.627119 C20.2881356,103.881356 20.4152542,104.186441 20.4152542,104.516949 L20.4152542,104.516949 C20.4152542,104.847458 20.2881356,105.152542 20.0338983,105.40678 L20.0338983,105.40678 C19.779661,105.661017 19.4745763,105.762712 19.1440678,105.762712 L19.1440678,105.762712 C18.8389831,105.762712 18.5084746,105.661017 18.2542373,105.40678 Z M21.8135593,101.847458 C21.559322,101.59322 21.4322034,101.288136 21.4322034,100.957627 L21.4322034,100.957627 C21.4322034,100.627119 21.559322,100.322034 21.8135593,100.067797 L21.8135593,100.067797 C22.2966102,99.5847458 23.1101695,99.5847458 23.5932203,100.067797 L23.5932203,100.067797 C23.8474576,100.322034 23.9491525,100.627119 23.9491525,100.957627 L23.9491525,100.957627 C23.9491525,101.288136 23.8220339,101.59322 23.5932203,101.847458 L23.5932203,101.847458 C23.3389831,102.101695 23.0338983,102.228814 22.7033898,102.228814 L22.7033898,102.228814 C22.3728814,102.228814 22.0677966,102.101695 21.8135593,101.847458 Z M25.3728814,98.3135593 C25.1186441,98.059322 24.9915254,97.7542373 24.9915254,97.4237288 L24.9915254,97.4237288 C24.9915254,97.0932203 25.1186441,96.7881356 25.3728814,96.5338983 L25.3728814,96.5338983 C25.8559322,96.0508475 26.6694915,96.0508475 27.1525424,96.5338983 L27.1525424,96.5338983 C27.4067797,96.7881356 27.5338983,97.0932203 27.5338983,97.4237288 L27.5338983,97.4237288 C27.5338983,97.7542373 27.4067797,98.059322 27.1525424,98.3135593 L27.1525424,98.3135593 C26.8983051,98.5677966 26.5932203,98.6694915 26.2627119,98.6694915 L26.2627119,98.6694915 C25.9322034,98.6694915 25.6271186,98.5423729 25.3728814,98.3135593 Z M28.9322034,94.7542373 C28.6779661,94.5 28.5762712,94.1949153 28.5762712,93.8644068 L28.5762712,93.8644068 C28.5762712,93.5338983 28.7033898,93.2288136 28.9322034,92.9745763 L28.9322034,92.9745763 C29.4152542,92.4915254 30.2288136,92.4915254 30.7118644,92.9745763 L30.7118644,92.9745763 C30.9661017,93.2288136 31.0677966,93.5338983 31.0677966,93.8644068 L31.0677966,93.8644068 C31.0677966,94.1949153 30.940678,94.5 30.7118644,94.7542373 L30.7118644,94.7542373 C30.4576271,95.0084746 30.1525424,95.1355932 29.8220339,95.1355932 L29.8220339,95.1355932 C29.4915254,95.1101695 29.1610169,94.9830508 28.9322034,94.7542373 Z M32.4661017,91.1949153 C32.2118644,90.940678 32.1101695,90.6355932 32.1101695,90.3050847 L32.1101695,90.3050847 C32.1101695,89.9745763 32.2372881,89.6694915 32.4661017,89.4152542 L32.4661017,89.4152542 C32.9491525,88.9322034 33.7627119,88.9322034 34.2457627,89.4152542 L34.2457627,89.4152542 C34.5,89.6694915 34.6271186,89.9745763 34.6271186,90.3050847 L34.6271186,90.3050847 C34.6271186,90.6355932 34.5,90.940678 34.2457627,91.1949153 L34.2457627,91.1949153 C33.9915254,91.4491525 33.6864407,91.5762712 33.3559322,91.5762712 L33.3559322,91.5762712 C33.0508475,91.5762712 32.720339,91.4491525 32.4661017,91.1949153 Z M36.0254237,87.6610169 C35.7711864,87.4067797 35.6440678,87.1016949 35.6440678,86.7711864 L35.6440678,86.7711864 C35.6440678,86.440678 35.7711864,86.1355932 36.0254237,85.8813559 L36.0254237,85.8813559 C36.5084746,85.3983051 37.2966102,85.3983051 37.8050847,85.8813559 L37.8050847,85.8813559 C38.059322,86.1355932 38.1610169,86.440678 38.1610169,86.7711864 L38.1610169,86.7711864 C38.1610169,87.1016949 38.0338983,87.4067797 37.8050847,87.6610169 L37.8050847,87.6610169 C37.5508475,87.9152542 37.2457627,88.0169492 36.9152542,88.0169492 L36.9152542,88.0169492 C36.5847458,88.0169492 36.279661,87.8898305 36.0254237,87.6610169 Z M39.5847458,84.1016949 C39.3305085,83.8474576 39.2288136,83.5423729 39.2288136,83.2118644 L39.2288136,83.2118644 C39.2288136,82.8813559 39.3559322,82.5762712 39.5847458,82.3220339 L39.5847458,82.3220339 C40.0677966,81.8389831 40.8813559,81.8389831 41.3644068,82.3220339 L41.3644068,82.3220339 C41.6186441,82.5762712 41.720339,82.8813559 41.720339,83.2118644 L41.720339,83.2118644 C41.720339,83.5423729 41.5932203,83.8474576 41.3644068,84.1016949 L41.3644068,84.1016949 C41.1101695,84.3559322 40.8050847,84.4830508 40.4745763,84.4830508 L40.4745763,84.4830508 C40.1440678,84.4576271 39.8135593,84.3305085 39.5847458,84.1016949 Z M43.1186441,80.5423729 C42.8644068,80.2881356 42.7372881,79.9830508 42.7372881,79.6525424 L42.7372881,79.6525424 C42.7372881,79.3220339 42.8644068,79.0169492 43.1186441,78.7627119 L43.1186441,78.7627119 C43.6016949,78.279661 44.4152542,78.279661 44.8983051,78.7627119 L44.8983051,78.7627119 C45.1525424,79.0169492 45.2542373,79.3220339 45.2542373,79.6525424 L45.2542373,79.6525424 C45.2542373,79.9830508 45.1271186,80.2881356 44.8983051,80.5423729 L44.8983051,80.5423729 C44.6440678,80.7966102 44.3389831,80.9237288 44.0084746,80.9237288 L44.0084746,80.9237288 C43.7033898,80.8983051 43.3728814,80.7966102 43.1186441,80.5423729 Z M46.6779661,76.9830508 C46.4237288,76.7288136 46.3220339,76.4237288 46.3220339,76.0932203 L46.3220339,76.0932203 C46.3220339,75.7627119 46.4491525,75.4576271 46.6779661,75.2033898 L46.6779661,75.2033898 C47.1610169,74.720339 47.9745763,74.720339 48.4576271,75.2033898 L48.4576271,75.2033898 C48.7118644,75.4576271 48.8389831,75.7627119 48.8389831,76.0932203 L48.8389831,76.0932203 C48.8389831,76.4237288 48.7118644,76.7288136 48.4576271,76.9830508 L48.4576271,76.9830508 C48.2033898,77.2372881 47.8983051,77.3644068 47.5677966,77.3644068 L47.5677966,77.3644068 C47.2372881,77.3644068 46.9322034,77.2372881 46.6779661,76.9830508 Z M50.2372881,73.4491525 C49.9830508,73.1949153 49.8813559,72.8898305 49.8813559,72.559322 L49.8813559,72.559322 C49.8813559,72.2288136 50.0084746,71.9237288 50.2372881,71.6694915 L50.2372881,71.6694915 C50.720339,71.1864407 51.5338983,71.1864407 52.0169492,71.6694915 L52.0169492,71.6694915 C52.2711864,71.9237288 52.3983051,72.2288136 52.3983051,72.559322 L52.3983051,72.559322 C52.3983051,72.8898305 52.2711864,73.1949153 52.0169492,73.4491525 L52.0169492,73.4491525 C51.7627119,73.7033898 51.4576271,73.8305085 51.1271186,73.8305085 L51.1271186,73.8305085 C50.7966102,73.8050847 50.4915254,73.6779661 50.2372881,73.4491525 Z M53.7966102,69.8898305 C53.5423729,69.6355932 53.4152542,69.3305085 53.4152542,69 L53.4152542,69 C53.4152542,68.6694915 53.5423729,68.3644068 53.7966102,68.1101695 L53.7966102,68.1101695 C54.279661,67.6271186 55.0677966,67.6271186 55.5762712,68.1101695 L55.5762712,68.1101695 C55.8305085,68.3644068 55.9576271,68.6694915 55.9576271,69 L55.9576271,69 C55.9576271,69.3305085 55.8305085,69.6355932 55.5762712,69.8898305 L55.5762712,69.8898305 C55.3220339,70.1440678 55.0169492,70.2457627 54.6864407,70.2457627 L54.6864407,70.2457627 C54.3559322,70.2457627 54.0254237,70.1186441 53.7966102,69.8898305 Z M57.3305085,66.3305085 C57.0762712,66.0762712 56.9491525,65.7711864 56.9491525,65.440678 L56.9491525,65.440678 C56.9491525,65.1101695 57.0762712,64.8050847 57.3305085,64.5508475 L57.3305085,64.5508475 C57.8135593,64.0677966 58.6016949,64.0677966 59.1101695,64.5508475 L59.1101695,64.5508475 C59.3644068,64.8050847 59.4661017,65.1101695 59.4661017,65.440678 L59.4661017,65.440678 C59.4661017,65.7711864 59.3389831,66.0762712 59.1101695,66.3305085 L59.1101695,66.3305085 C58.8559322,66.5847458 58.5508475,66.6864407 58.220339,66.6864407 L58.220339,66.6864407 C57.9152542,66.7118644 57.5847458,66.5847458 57.3305085,66.3305085 Z M60.8898305,62.7711864 C60.6355932,62.5169492 60.5338983,62.2118644 60.5338983,61.8813559 L60.5338983,61.8813559 C60.5338983,61.5508475 60.6610169,61.2457627 60.8898305,60.9915254 L60.8898305,60.9915254 C61.3728814,60.5084746 62.1864407,60.5084746 62.6694915,60.9915254 L62.6694915,60.9915254 C62.9237288,61.2457627 63.0254237,61.5508475 63.0254237,61.8813559 L63.0254237,61.8813559 C63.0254237,62.2118644 62.8983051,62.5169492 62.6694915,62.7711864 L62.6694915,62.7711864 C62.4152542,63.0254237 62.1101695,63.1525424 61.779661,63.1525424 L61.779661,63.1525424 C61.4491525,63.1525424 61.1440678,63.0254237 60.8898305,62.7711864 Z M64.4491525,59.2372881 C64.1949153,58.9830508 64.0932203,58.6779661 64.0932203,58.3474576 L64.0932203,58.3474576 C64.0932203,58.0169492 64.220339,57.7118644 64.4491525,57.4576271 L64.4491525,57.4576271 C64.9322034,56.9745763 65.7457627,56.9745763 66.2288136,57.4576271 L66.2288136,57.4576271 C66.4830508,57.7118644 66.5847458,58.0169492 66.5847458,58.3474576 L66.5847458,58.3474576 C66.5847458,58.6779661 66.4576271,58.9830508 66.2288136,59.2372881 L66.2288136,59.2372881 C65.9745763,59.4915254 65.6694915,59.6186441 65.3389831,59.6186441 L65.3389831,59.6186441 C65.0084746,59.5932203 64.7033898,59.4661017 64.4491525,59.2372881 Z M68.0084746,55.6779661 C67.7542373,55.4237288 67.6525424,55.1186441 67.6525424,54.7881356 L67.6525424,54.7881356 C67.6525424,54.4576271 67.779661,54.1525424 68.0084746,53.8983051 L68.0084746,53.8983051 C68.4915254,53.4152542 69.3050847,53.4152542 69.7881356,53.8983051 L69.7881356,53.8983051 C70.0423729,54.1525424 70.1694915,54.4576271 70.1694915,54.7881356 L70.1694915,54.7881356 C70.1694915,55.1186441 70.0423729,55.4237288 69.7881356,55.6779661 L69.7881356,55.6779661 C69.5338983,55.9322034 69.2288136,56.0338983 68.8983051,56.0338983 L68.8983051,56.0338983 C68.5677966,56.0338983 68.2372881,55.9322034 68.0084746,55.6779661 Z M71.5423729,52.1186441 C71.2881356,51.8644068 71.1610169,51.559322 71.1610169,51.2288136 L71.1610169,51.2288136 C71.1610169,50.8983051 71.2881356,50.5932203 71.5423729,50.3389831 L71.5423729,50.3389831 C72.0254237,49.8559322 72.8135593,49.8559322 73.3220339,50.3389831 L73.3220339,50.3389831 C73.5762712,50.5932203 73.6779661,50.8983051 73.6779661,51.2288136 L73.6779661,51.2288136 C73.6779661,51.559322 73.5508475,51.8644068 73.3220339,52.1186441 L73.3220339,52.1186441 C73.0677966,52.3728814 72.7627119,52.4745763 72.4322034,52.4745763 L72.4322034,52.4745763 C72.1016949,52.5 71.7966102,52.3728814 71.5423729,52.1186441 Z M75.1016949,48.5847458 C74.8474576,48.3305085 74.7457627,48.0254237 74.7457627,47.6949153 L74.7457627,47.6949153 C74.7457627,47.3644068 74.8728814,47.059322 75.1016949,46.8050847 L75.1016949,46.8050847 C75.5847458,46.3220339 76.3983051,46.3220339 76.8813559,46.8050847 L76.8813559,46.8050847 C77.1355932,47.059322 77.2627119,47.3644068 77.2627119,47.6949153 L77.2627119,47.6949153 C77.2627119,48.0254237 77.1355932,48.3305085 76.8813559,48.5847458 L76.8813559,48.5847458 C76.6271186,48.8389831 76.3220339,48.940678 75.9915254,48.940678 L75.9915254,48.940678 C75.6610169,48.940678 75.3559322,48.8135593 75.1016949,48.5847458 Z M78.6610169,45.0254237 C78.4067797,44.7711864 78.279661,44.4661017 78.279661,44.1355932 L78.279661,44.1355932 C78.279661,43.8050847 78.4067797,43.5 78.6610169,43.2457627 L78.6610169,43.2457627 C79.1440678,42.7627119 79.9576271,42.7627119 80.440678,43.2457627 L80.440678,43.2457627 C80.6949153,43.5 80.8220339,43.8050847 80.8220339,44.1355932 L80.8220339,44.1355932 C80.8220339,44.4661017 80.6949153,44.7711864 80.440678,45.0254237 L80.440678,45.0254237 C80.1864407,45.279661 79.8813559,45.4067797 79.5508475,45.4067797 L79.5508475,45.4067797 C79.220339,45.3813559 78.8898305,45.2542373 78.6610169,45.0254237 Z M82.1949153,41.4661017 C81.940678,41.2118644 81.8135593,40.9067797 81.8135593,40.5762712 L81.8135593,40.5762712 C81.8135593,40.2457627 81.940678,39.940678 82.1949153,39.6864407 L82.1949153,39.6864407 C82.6779661,39.2033898 83.4915254,39.2033898 83.9745763,39.6864407 L83.9745763,39.6864407 C84.2288136,39.940678 84.3305085,40.2457627 84.3305085,40.5762712 L84.3305085,40.5762712 C84.3305085,40.9067797 84.2033898,41.2118644 83.9745763,41.4661017 L83.9745763,41.4661017 C83.720339,41.720339 83.4152542,41.8474576 83.0847458,41.8474576 L83.0847458,41.8474576 C82.779661,41.8474576 82.4491525,41.720339 82.1949153,41.4661017 Z M85.7542373,37.9067797 C85.5,37.6525424 85.3983051,37.3474576 85.3983051,37.0169492 L85.3983051,37.0169492 C85.3983051,36.6864407 85.5254237,36.3813559 85.7542373,36.1271186 L85.7542373,36.1271186 C86.2372881,35.6440678 87.0508475,35.6440678 87.5338983,36.1271186 L87.5338983,36.1271186 C87.7881356,36.3813559 87.9152542,36.6864407 87.9152542,37.0169492 L87.9152542,37.0169492 C87.9152542,37.3474576 87.7881356,37.6525424 87.5338983,37.9067797 L87.5338983,37.9067797 C87.279661,38.1610169 86.9745763,38.2881356 86.6440678,38.2881356 L86.6440678,38.2881356 C86.3135593,38.2881356 86.0084746,38.1610169 85.7542373,37.9067797 Z M89.3135593,34.3728814 C89.059322,34.1186441 88.9322034,33.8135593 88.9322034,33.4830508 L88.9322034,33.4830508 C88.9322034,33.1525424 89.059322,32.8474576 89.3135593,32.5932203 L89.3135593,32.5932203 C89.7966102,32.1101695 90.5847458,32.1101695 91.0932203,32.5932203 L91.0932203,32.5932203 C91.3474576,32.8474576 91.4745763,33.1525424 91.4745763,33.4830508 L91.4745763,33.4830508 C91.4745763,33.8135593 91.3474576,34.1186441 91.0932203,34.3728814 L91.0932203,34.3728814 C90.8389831,34.6271186 90.5338983,34.7288136 90.2033898,34.7288136 L90.2033898,34.7288136 C89.8728814,34.7288136 89.5423729,34.6016949 89.3135593,34.3728814 Z M92.8728814,30.8135593 C92.6186441,30.559322 92.4915254,30.2542373 92.4915254,29.9237288 L92.4915254,29.9237288 C92.4915254,29.5932203 92.6186441,29.2881356 92.8728814,29.0338983 L92.8728814,29.0338983 C93.3559322,28.5508475 94.1440678,28.5508475 94.6525424,29.0338983 L94.6525424,29.0338983 C94.9067797,29.2881356 95.0084746,29.5932203 95.0084746,29.9237288 L95.0084746,29.9237288 C95.0084746,30.2542373 94.8813559,30.559322 94.6525424,30.8135593 L94.6525424,30.8135593 C94.3983051,31.0677966 94.0932203,31.1694915 93.7627119,31.1694915 L93.7627119,31.1694915 C93.4322034,31.1694915 93.1016949,31.0677966 92.8728814,30.8135593 Z M96.4067797,27.2542373 C96.1525424,27 96.0508475,26.6949153 96.0508475,26.3644068 L96.0508475,26.3644068 C96.0508475,26.0338983 96.1779661,25.7288136 96.4067797,25.4745763 L96.4067797,25.4745763 C96.8898305,24.9915254 97.7033898,24.9915254 98.1864407,25.4745763 L98.1864407,25.4745763 C98.440678,25.7288136 98.5677966,26.0338983 98.5677966,26.3644068 L98.5677966,26.3644068 C98.5677966,26.6949153 98.440678,27 98.1864407,27.2542373 L98.1864407,27.2542373 C97.9322034,27.5084746 97.6271186,27.6355932 97.2966102,27.6355932 L97.2966102,27.6355932 C96.9915254,27.6355932 96.6610169,27.5084746 96.4067797,27.2542373 Z M99.9661017,23.6949153 C99.7118644,23.440678 99.5847458,23.1355932 99.5847458,22.8050847 L99.5847458,22.8050847 C99.5847458,22.4745763 99.7118644,22.1694915 99.9661017,21.9152542 L99.9661017,21.9152542 C100.449153,21.4322034 101.262712,21.4322034 101.745763,21.9152542 L101.745763,21.9152542 C102,22.1694915 102.101695,22.4745763 102.101695,22.8050847 L102.101695,22.8050847 C102.101695,23.1355932 101.974576,23.440678 101.745763,23.6949153 L101.745763,23.6949153 C101.491525,23.9491525 101.186441,24.0508475 100.855932,24.0508475 L100.855932,24.0508475 C100.525424,24.0762712 100.220339,23.9491525 99.9661017,23.6949153 Z M103.525424,20.1610169 C103.271186,19.9067797 103.169492,19.6016949 103.169492,19.2711864 L103.169492,19.2711864 C103.169492,18.940678 103.29661,18.6355932 103.525424,18.3813559 L103.525424,18.3813559 C104.008475,17.8983051 104.822034,17.8983051 105.305085,18.3813559 L105.305085,18.3813559 C105.559322,18.6355932 105.661017,18.940678 105.661017,19.2711864 L105.661017,19.2711864 C105.661017,19.6016949 105.533898,19.9067797 105.305085,20.1610169 L105.305085,20.1610169 C105.050847,20.4152542 104.745763,20.5423729 104.415254,20.5423729 L104.415254,20.5423729 C104.084746,20.5169492 103.754237,20.3898305 103.525424,20.1610169 Z M107.059322,16.6016949 C106.805085,16.3474576 106.70339,16.0423729 106.70339,15.7118644 L106.70339,15.7118644 C106.70339,15.3813559 106.830508,15.0762712 107.059322,14.8220339 L107.059322,14.8220339 C107.542373,14.3389831 108.355932,14.3389831 108.838983,14.8220339 L108.838983,14.8220339 C109.09322,15.0762712 109.220339,15.3813559 109.220339,15.7118644 L109.220339,15.7118644 C109.220339,16.0423729 109.09322,16.3474576 108.838983,16.6016949 L108.838983,16.6016949 C108.584746,16.8559322 108.279661,16.9576271 107.949153,16.9576271 L107.949153,16.9576271 C107.644068,16.9830508 107.313559,16.8559322 107.059322,16.6016949 Z M110.618644,13.0423729 C110.364407,12.7881356 110.237288,12.4830508 110.237288,12.1525424 L110.237288,12.1525424 C110.237288,11.8220339 110.364407,11.5169492 110.618644,11.2627119 L110.618644,11.2627119 C111.101695,10.779661 111.889831,10.779661 112.398305,11.2627119 L112.398305,11.2627119 C112.652542,11.5169492 112.779661,11.8220339 112.779661,12.1525424 L112.779661,12.1525424 C112.779661,12.4830508 112.652542,12.7881356 112.398305,13.0423729 L112.398305,13.0423729 C112.144068,13.2966102 111.838983,13.4237288 111.508475,13.4237288 L111.508475,13.4237288 C111.177966,13.4237288 110.872881,13.2966102 110.618644,13.0423729 Z M114.177966,9.50847458 C113.923729,9.25423729 113.79661,8.94915254 113.79661,8.61864407 L113.79661,8.61864407 C113.79661,8.28813559 113.923729,7.98305085 114.177966,7.72881356 L114.177966,7.72881356 C114.661017,7.24576271 115.474576,7.24576271 115.957627,7.72881356 L115.957627,7.72881356 C116.211864,7.98305085 116.338983,8.28813559 116.338983,8.61864407 L116.338983,8.61864407 C116.338983,8.94915254 116.211864,9.25423729 115.957627,9.50847458 L115.957627,9.50847458 C115.70339,9.76271186 115.398305,9.86440678 115.067797,9.86440678 L115.067797,9.86440678 C114.737288,9.86440678 114.40678,9.73728814 114.177966,9.50847458 Z M117.737288,5.94915254 C117.483051,5.69491525 117.355932,5.38983051 117.355932,5.05932203 L117.355932,5.05932203 C117.355932,4.72881356 117.483051,4.42372881 117.737288,4.16949153 L117.737288,4.16949153 C118.220339,3.68644068 119.033898,3.68644068 119.516949,4.16949153 L119.516949,4.16949153 C119.771186,4.42372881 119.872881,4.72881356 119.872881,5.05932203 L119.872881,5.05932203 C119.872881,5.38983051 119.745763,5.69491525 119.516949,5.94915254 L119.516949,5.94915254 C119.262712,6.20338983 118.957627,6.30508475 118.627119,6.30508475 L118.627119,6.30508475 C118.29661,6.30508475 117.966102,6.20338983 117.737288,5.94915254 Z M121.271186,2.38983051 C120.788136,1.90677966 120.788136,1.09322034 121.271186,0.610169492 L121.271186,0.610169492 C121.754237,0.127118644 122.567797,0.127118644 123.050847,0.610169492 L123.050847,0.610169492 C123.533898,1.09322034 123.533898,1.88135593 123.050847,2.38983051 L123.050847,2.38983051 C122.79661,2.6440678 122.491525,2.74576271 122.161017,2.74576271 L122.161017,2.74576271 C121.855932,2.77118644 121.525424,2.6440678 121.271186,2.38983051 Z"/>
    </g>
    <circle cx="135.458" cy="135.229" r="11.72" fill="#47C7F0"/>
    <circle cx="14.695" cy="135.254" r="11.72" fill="#6953A3"/>
    <circle cx="135.559" cy="14.364" r="11.72" fill="#C3198D"/>
    <circle cx="14.39" cy="14.161" r="11.72" fill="#6DCBD7"/>
  </g>
</svg>
