<svg xmlns="http://www.w3.org/2000/svg" width="150" height="150" viewBox="0 0 150 150">
  <g fill="none" transform="translate(29)">
    <path fill="#3AB83A" d="M-2.27373675e-13,81.6891892 C16.3863201,90.3547297 33.4850891,99.4256757 46.6908346,106.444257 L93,81.6891892 C76.2320112,106.494932 62.2629277,127.14527 46.6908346,150 C31.093297,127.195946 13.867305,102.035473 -2.27373675e-13,81.6891892 Z M1.78112175,74.847973 L46.7417237,50.9543919 L91.1170998,74.6706081 L46.7671682,98.589527 L1.78112175,74.847973 Z M46.6908346,43.3023649 L-2.27373675e-13,67.7787162 L46.4872775,0 L93,67.9307432 L46.6908346,43.3023649 L46.6908346,43.3023649 Z"/>
    <path fill="#0B8311" d="M46.7035011,106.444257 L93,81.6891892 C76.2365973,106.494932 46.7035011,150 46.7035011,150 L46.7035011,106.444257 Z M46.7543763,50.9543919 L91.1176148,74.6706081 L46.7798139,98.589527 L46.7543763,50.9543919 Z M46.7035011,43.3023649 L46.5,0 L93,67.9307432 L46.7035011,43.3023649 Z"/>
    <polygon fill="#0B8311" points="1.804 74.829 46.77 78.502 91.149 74.678 46.795 98.587"/>
    <polygon fill="#146714" points="46.778 78.502 91.149 74.678 46.803 98.587"/>
  </g>
</svg>
