<svg xmlns="http://www.w3.org/2000/svg" width="148" height="150" viewBox="0 0 148 150">
  <path fill="#202944" d="M0,0 L0,150 L147.6,150 L147.6,0 L0,0 Z M51.6,17.4 L65.4,17.4 L65.4,31.8 L51.6,31.8 L51.6,17.4 Z M16.8,17.4 L31.2,17.4 L31.2,31.8 L16.8,31.8 L16.8,17.4 Z M30.6,52.2 L30.6,66.6 L16.2,66.6 L16.2,52.2 L30.6,52.2 Z M27,131.4 L21,131.4 L21,126 L26.4,126 L26.4,131.4 L27,131.4 Z M31.2,102.6 L16.8,102.6 L16.8,88.8 L31.2,88.8 L31.2,102.6 Z M61.8,131.4 L56.4,131.4 L56.4,126 L61.8,126 L61.8,131.4 Z M61.8,97.8 L56.4,97.8 L56.4,92.4 L61.8,92.4 L61.8,97.8 Z M66,67.2 L51.6,67.2 L51.6,52.8 L66,52.8 L66,67.2 Z M96.6,131.4 L91.2,131.4 L91.2,126 L96.6,126 L96.6,131.4 Z M96.6,97.8 L91.2,97.8 L91.2,92.4 L96.6,92.4 L96.6,97.8 Z M96.6,62.4 L91.2,62.4 L91.2,57 L96.6,57 L96.6,62.4 Z M101.4,31.8 L87,31.8 L87,17.4 L101.4,17.4 L101.4,31.8 Z M132,131.4 L126.6,131.4 L126.6,126 L132,126 L132,131.4 Z M132,97.8 L126.6,97.8 L126.6,92.4 L132,92.4 L132,97.8 Z M132,62.4 L126.6,62.4 L126.6,57 L132,57 L132,62.4 Z M132,27.6 L126.6,27.6 L126.6,22.2 L132,22.2 L132,27.6 Z"/>
</svg>
