<svg xmlns="http://www.w3.org/2000/svg" width="150" height="150" viewBox="0 0 150 150">
  <g fill="none" fill-rule="evenodd">
    <circle cx="75" cy="75" r="75" fill="#13B5EC"/>
    <path fill="#FFF" d="M33.75,32.34375 L50.625,22.5 L50.625,42.1875 L33.75,32.34375 Z M50.625,74.53125 L28.125,87.65625 L5.625,74.53125 L5.625,51.5625 L28.125,64.6875 L50.625,51.5625 L50.625,74.53125 Z M5.625,22.5 L22.5,32.34375 L5.625,42.1875 L5.625,22.5 L5.625,22.5 Z M30.9375,37.03125 L47.8125,46.875 L30.9375,56.71875 L30.9375,37.03125 Z M25.3125,56.71875 L8.4375,46.875 L25.3125,37.03125 L25.3125,56.71875 L25.3125,56.71875 Z M47.8125,17.8125 L28.125,29.0625 L8.4375,17.8125 L28.125,6.09375 L47.8125,17.8125 L47.8125,17.8125 Z M0,15.9375 L0,77.34375 L28.125,93.28125 L56.25,77.34375 L56.25,15.9375 L28.125,0 L0,15.9375 Z" transform="translate(46.875 28.125)"/>
  </g>
</svg>
