<svg xmlns="http://www.w3.org/2000/svg" width="150" height="150" viewBox="0 0 150 150">
  <g fill="none">
    <circle cx="75" cy="75" r="75" fill="#ED1968"/>
    <path fill="#FFF" d="M59.53125,126.09375 C53.5424097,124.434408 47.9582572,121.562559 43.125,117.65625 C38.3625727,113.987588 34.2438213,109.55201 30.9375,104.53125 C27.4118497,99.2496973 24.8709213,93.3738003 23.4375,87.1875 C21.7964695,79.777266 21.7964695,72.097734 23.4375,64.6875 C24.8360438,58.4190565 27.2085938,52.4085965 30.46875,46.875 C35.2415987,39.217607 42.0609539,33.0477142 50.15625,29.0625 C52.999126,27.5323988 55.981359,26.2767218 59.0625,25.3125 C63.75,30.9375 68.4375,37.03125 73.125,43.125 C73.59375,44.0625 74.53125,44.53125 75,45.46875 C70.2981712,45.6658545 65.6802644,46.7805216 61.40625,48.75 C57.6278006,50.7253232 54.2812741,53.4344161 51.5625,56.71875 C48.887406,60.2549704 46.8273147,64.2166844 45.46875,68.4375 C44.216954,73.5406001 44.3790059,78.8883102 45.9375,83.90625 L66.09375,67.96875 C70.78125,74.0625 75.46875,79.6875 80.15625,85.78125 C73.59375,90.9375 66.5625,96.09375 60,101.71875 C66.5625,110.15625 73.59375,119.0625 80.15625,127.96875 C73.2257114,128.788165 66.2004099,128.149501 59.53125,126.09375 L59.53125,126.09375 Z M104.203125,69.309375 C104.031056,68.5420312 103.827762,67.7820246 103.59375,67.03125 C102.960937,67.528125 89.015625,78.1875 83.4375,82.96875 C78.75,76.875 74.0625,71.25 69.375,65.15625 C75.9375,60 82.96875,54.84375 89.53125,49.21875 C82.96875,40.78125 76.40625,32.34375 69.375,23.4375 C69.375,22.96875 68.90625,22.96875 68.90625,22.5 L75.46875,22.5 C87.4927431,22.6122425 99.0994154,26.9232922 108.28125,34.6875 C112.755995,38.3851633 116.561461,42.8248745 119.53125,47.8125 C123.028909,53.1817091 125.271945,59.26995 126.09375,65.625 C127.349544,72.931025 127.190411,80.4102506 125.625,87.65625 C124.283174,93.7276926 121.732476,99.466763 118.125,104.53125 C114.976663,109.393315 111.01213,113.675011 106.40625,117.1875 C101.920435,121.084965 96.6429753,123.963579 90.9375,125.625 C86.71875,120.46875 82.96875,115.78125 79.21875,110.625 C77.8177423,109.021314 76.5627572,107.295709 75.46875,105.46875 C84.4588554,105.498857 92.9500527,101.339903 98.4375,94.21875 C101.137424,90.7649512 103.056498,86.7668813 104.0625,82.5 C104.934375,78.9421875 104.98125,74.5453125 104.203125,69.309375 L104.203125,69.309375 Z M82.0640625,108.557812 C85.3011635,112.979474 88.6618646,117.309308 92.1421875,121.542188 C96.5942511,119.932302 100.707982,117.508253 104.273437,114.39375 C108.596022,111.089289 112.313485,107.06098 115.260937,102.4875 C118.591419,97.8141234 120.947549,92.5184102 122.189062,86.915625 C123.660938,80.109375 123.80625,73.0828125 122.610937,66.075 C121.844211,60.1981656 119.759488,54.5705358 116.5125,49.6125 C113.740968,44.9603565 110.189076,40.8201819 106.0125,37.3734375 C97.5755541,30.2357306 86.9352194,26.2259452 75.8859375,26.0203125 C80.23125,31.5515625 84.6328125,37.190625 92.30625,47.0625 L94.36875,49.70625 L91.81875,51.8859375 C88.4845735,54.7216994 85.0803964,57.4741126 81.609375,60.140625 C81.28125,60.3984375 77.296875,63.459375 74.30625,65.775 C75.5390625,67.3453125 76.96875,69.1359375 79.153125,71.86875 C81.309375,74.5640625 82.7390625,76.359375 83.971875,77.9296875 C86.146875,76.134375 88.51875,74.25 91.359375,72.046875 C91.81875,71.690625 99.309375,65.925 101.423438,64.265625 L105.435938,61.1109375 L106.95,65.9859375 C108.696896,71.6038562 108.881624,77.5913266 107.484375,83.30625 C106.364541,88.0605742 104.228043,92.5158745 101.221875,96.365625 C96.4416565,102.568996 89.5757905,106.830396 81.8953125,108.360938 L82.0640625,108.557813 L82.0640625,108.557812 Z"/>
  </g>
</svg>
