<svg xmlns="http://www.w3.org/2000/svg" width="150" height="150" viewBox="0 0 150 150">
  <g fill="none">
    <circle cx="75" cy="75" r="75" fill="#7F27FF"/>
    <path fill="#FFF" d="M72.075,65.625 L37.59375,65.625 L37.59375,99.478125 C37.55625,102.942188 38.94375,106.275 41.4375,108.721875 C43.93125,111.16875 47.3296875,112.532813 50.859375,112.5 L72.0796875,112.5 L72.075,65.625 Z M72.871875,47.9109375 L76.584375,47.9109375 C80.259375,41.5828125 83.625,37.2796875 86.7890625,34.9546875 C90.6890625,32.08125 94.6828125,32.0578125 97.8140625,35.1328125 C100.739063,38.0015625 101.2875,41.6015625 99.3609375,45.0703125 C98.8171875,46.0359375 98.0953125,46.9828125 97.190625,47.9109375 L110.821875,47.9109375 C114.004687,47.9109375 117.1875,50.5265625 117.1875,54.159375 C117.1875,57.2859375 114.520313,60.4125 110.821875,60.4125 L77.38125,60.4125 L77.38125,52.078125 L72.075,52.078125 L72.075,60.4125 L39.178125,60.4125 C36,60.4125 32.8125,57.796875 32.8125,54.159375 C32.8125,51.0375 35.4796875,47.9109375 39.178125,47.9109375 L52.959375,47.9109375 C52.097037,47.1074257 51.3295384,46.2078167 50.671875,45.2296875 C48.3890625,41.7421875 48.665625,38.0578125 51.6421875,35.1328125 C54.7734375,32.0578125 58.7671875,32.0859375 62.671875,34.9546875 C65.83125,37.2796875 69.196875,41.5875 72.8765625,47.9109375 L72.871875,47.9109375 Z M66.7078125,47.9109375 C63.9890625,43.584375 61.5609375,40.6453125 59.4890625,39.121875 C57.571875,37.715625 56.521875,37.70625 55.3921875,38.8125 C54.234375,39.9515625 54.1640625,40.9265625 55.134375,42.4078125 C56.240625,44.1 58.5703125,46.0078125 61.9265625,47.9109375 L66.7078125,47.9109375 Z M82.7484375,47.9109375 L88.4671875,47.9109375 C91.66875,46.0734375 93.7828125,44.2171875 94.7015625,42.5671875 C95.4984375,41.1421875 95.3296875,40.059375 94.0640625,38.8171875 C92.934375,37.70625 91.884375,37.7109375 89.971875,39.121875 C87.8953125,40.6453125 85.4625,43.584375 82.753125,47.9109375 L82.7484375,47.9109375 Z M77.38125,65.6203125 L111.867188,65.6203125 L111.867188,99.478125 C111.897056,102.954022 110.509064,106.291974 108.023437,108.721875 C105.507932,111.180605 102.118884,112.539597 98.6015625,112.5 L77.38125,112.5 L77.38125,65.6203125 Z"/>
  </g>
</svg>
