<svg xmlns="http://www.w3.org/2000/svg" width="150" height="150" viewBox="0 0 150 150">
  <g fill="#56428E" transform="translate(0 18)">
    <path d="M39.20025,0 L68.88825,0 C65.31825,5.61523437 63.12675,11.8159505 63.26325,18.5355143 C72.0975,18.6253581 80.95425,18.6253581 89.7885,18.5355143 C89.90175,11.8608724 88.09425,5.47972005 84.23025,0 L114.1215,0 C112.06575,4.28404948 108.56325,8.25289714 108.90225,13.2811523 C108.7665,35.7623047 108.94725,58.2666667 108.87975,80.747819 C111.81675,80.747819 114.777,80.747819 117.7365,80.7702799 C119.9055,76.5086914 121.82625,72.1602539 123.3615,67.6471029 C132.24075,67.8717122 141.16575,67.3992839 149.99925,68.5717448 C141.25575,76.058724 136.69125,86.7014648 130.998,96.3971029 C108.40425,96.4420247 85.8105,96.3297201 63.19425,96.4644857 C62.13225,104.65 67.21575,110.286947 73.113,115 L34.95,115 C38.271,110.647819 44.95875,107.852181 44.259,101.47028 C44.484,79.7333333 44.259,57.970931 44.3265,36.2137695 L63.6915,36.2137695 L63.6915,49.6079753 L89.3805,49.6079753 L89.3805,34.252181 C71.509,34.252181 53.62975,34.252181 35.74275,34.252181 C31.29275,42.0091905 26.84925,49.7584635 22.41225,57.5 C26.84075,65.2570095 31.29075,73.0062826 35.76225,80.747819 L42.36225,80.747819 L42.36225,96.3956055 L22.18725,96.3956055 C14.8215,83.4086914 7.185,70.5782552 0,57.5 L0,57.4775391 C7.2075,44.4217448 14.8665,31.5913086 22.18725,18.6028971 C29.71125,18.6028971 37.2345,18.6028971 44.7585,18.5355143 C44.8035,11.8833333 42.9735,5.52464193 39.20025,0 L39.20025,0 Z M63.69225,65.3920247 L63.69225,80.747819 L89.38125,80.747819 L89.38125,65.3920247 L63.69225,65.3920247 Z"/>
    <path d="M110.84475 18.6028971L130.95 18.6028971C136.46325 27.3971029 140.259 37.5449544 148.212 44.5827148 148.37025 45.1015625 148.662 46.1609701 148.82175 46.679069 140.3265 47.7841471 131.72175 46.926888 123.15525 47.3528971 122.07075 42.6630534 119.92425 38.3557943 117.552 34.2297201 115.85775 34.2297201 112.5135 34.252181 110.84175 34.252181L110.84475 18.6028971zM90.081 98.3586914C96.02325 98.3811523 101.988 98.3586914 107.931 98.3362305 107.79525 105.867383 113.106 110.535514 118.3245 115L79.8915 115C84.81675 110.358073 90.57825 105.957975 90.081 98.3586914"/>
  </g>
</svg>
