<svg xmlns="http://www.w3.org/2000/svg" width="150" height="150" viewBox="0 0 150 150">
  <g fill="none">
    <circle cx="75" cy="75" r="75" fill="#8834FF"/>
    <path fill="#FFF" d="M32.8125,99.515625 C33.7078125,99.515625 34.65,99.5625 35.5453125,99.515625 C37.246875,99.3890625 38.953125,99.046875 40.6171875,98.625 C43.8988799,97.7288878 46.9705154,96.1914769 49.6546875,94.1015625 C50.4234375,93.50625 51.1875,92.86875 51.9140625,92.184375 C53.446875,90.6515625 54.7734375,88.903125 55.8375,87.028125 C56.775,85.3640625 57.4546875,83.5734375 57.9703125,81.740625 C58.0125,81.6140625 58.0125,81.440625 58.0546875,81.3140625 L51.3609375,81.3140625 C49.9699097,81.3078947 48.5836625,81.1507238 47.2265625,80.8453125 C47.1041635,80.795548 46.9741765,80.7670143 46.8421875,80.7609375 C46.7770257,80.7278563 46.718292,80.6834092 46.66875,80.6296875 C47.053125,79.78125 47.3953125,78.9703125 47.7375,78.1171875 L50.3390625,72.103125 C50.4221955,71.8159885 50.5503504,71.5438569 50.71875,71.296875 C50.9045187,71.1249673 51.1501061,71.0324515 51.403125,71.0390625 C53.49375,70.996875 55.5375,71.0390625 57.628125,71.0390625 L58.18125,71.0390625 C58.096875,70.696875 58.096875,70.44375 58.0125,70.1484375 C57.2573303,67.26408 55.9223632,64.5638418 54.0890625,62.2125 C53.1874792,61.0644708 52.2036367,59.9834974 51.1453125,58.978125 C49.8215142,57.7327873 48.347653,56.6573095 46.7578125,55.7765625 C45.1010209,54.8447675 43.3586662,54.0740502 41.5546875,53.475 C40.0521413,53.0041782 38.5121898,52.6623152 36.9515625,52.453125 C35.7140625,52.321875 34.51875,52.2796875 33.2859375,52.1953125 C32.9859375,52.1953125 32.6859375,52.153125 32.390625,52.1109375 C32.2668034,52.0738185 32.1699315,51.9769466 32.1328125,51.853125 C31.70625,50.8734375 31.2796875,49.9359375 30.853125,48.95625 C30.3375,47.803125 29.86875,46.6546875 29.3625,45.54375 C28.978125,44.60625 28.5515625,43.715625 28.125,42.73125 L29.0203125,42.4734375 C30.8953125,42.2203125 32.8171875,42.1359375 34.734375,42.2203125 C37.7867357,42.3226256 40.8180779,42.7660066 43.771875,43.5421875 C45.646875,44.053125 47.521875,44.690625 49.3125,45.459375 C51.8296875,46.5234375 54.215625,47.85 56.4375,49.425 C57.4125,50.146875 58.3921875,50.915625 59.334375,51.684375 C59.75625,52.0265625 60.1828125,52.4109375 60.609375,52.790625 C62.7421875,54.8390625 64.6171875,57.1828125 66.196875,59.7 C67.771875,62.2125 68.925,64.940625 69.69375,67.8 C69.946875,68.7375 70.115625,69.721875 70.33125,70.659375 C70.3817404,70.806579 70.5179021,70.9073013 70.6734375,70.9125 L79.3265625,70.9125 C79.5,70.228125 79.6265625,69.5484375 79.753125,68.8640625 C80.26875,66.8625 80.9484375,64.940625 81.8015625,63.1078125 C82.48125,61.575 83.334375,60.084375 84.3140625,58.7203125 C85.209375,57.4828125 86.146875,56.2453125 87.1734375,55.096875 C87.9272667,54.2059521 88.7383607,53.3651075 89.6015625,52.5796875 C91.394513,50.9520626 93.3357814,49.495719 95.4,48.2296875 C97.5328125,46.9078125 99.75,45.8390625 102.09375,44.990625 C103.715625,44.4375 105.332813,43.9265625 106.954688,43.5 C108.1875,43.2 109.382813,42.984375 110.6625,42.815625 C111.684375,42.646875 112.753125,42.5625 113.817188,42.4734375 C114.501563,42.43125 115.139063,42.3890625 115.823438,42.3890625 C116.845313,42.3890625 117.825,42.346875 118.804688,42.3890625 C119.789063,42.4359375 120.76875,42.646875 121.748438,42.815625 C121.790625,42.815625 121.790625,42.8625 121.875,42.9421875 L121.148438,44.6484375 C120.384375,46.4390625 119.615625,48.2296875 118.804688,50.0625 C118.494966,50.7058836 118.210376,51.361066 117.951563,52.0265625 C117.782813,52.4484375 117.35625,52.2796875 117.060938,52.3640625 C116.803125,52.4109375 116.592188,52.4109375 116.334375,52.3640625 C111.976476,52.4064992 107.681836,53.4117299 103.757813,55.3078125 C101.922335,56.2044865 100.203339,57.3221488 98.6390625,58.6359375 C98.0015625,59.1890625 97.2796875,59.7421875 96.6796875,60.3796875 C95.1421875,61.9171875 93.8203125,63.6609375 92.75625,65.5828125 C91.9010661,67.1686086 91.2160056,68.8404076 90.7125,70.5703125 C90.665625,70.696875 90.665625,70.8703125 90.6234375,70.996875 L91.0921875,70.996875 C93.309375,70.996875 95.56875,70.95 97.7859375,70.996875 C99.1078125,70.996875 100.429688,71.2078125 101.709375,71.634375 C101.75625,71.68125 101.79375,71.68125 101.835938,71.7234375 L100.603125,74.5359375 C99.75,76.5375 98.8546875,78.54375 98.0015625,80.5875 C97.74375,81.1875 97.575,81.3140625 96.890625,81.3140625 L90.665625,81.3140625 C90.8390625,81.909375 90.965625,82.4203125 91.134375,82.9359375 C91.734375,84.7265625 92.5875,86.428125 93.6515625,88.0078125 C94.29375,88.9453125 94.9734375,89.7984375 95.7,90.6515625 C96.121875,91.1625 96.590625,91.6734375 97.059375,92.1 C98.6390625,93.6328125 100.434375,94.959375 102.346875,96.0234375 C103.96875,96.9609375 105.717188,97.7296875 107.507813,98.3203125 C109.214063,98.9203125 111.004688,99.3046875 112.8375,99.4734375 L116.203125,99.73125 C116.629688,99.778125 117.05625,99.778125 117.482813,99.815625 C117.567188,99.8625 117.65625,99.9 117.698438,99.9890625 C118.420313,101.690625 119.146875,103.396875 119.915625,105.103125 L121.74375,109.279687 C121.148438,109.410937 120.595313,109.5375 120,109.579687 C118.546875,109.664062 117.05625,109.748437 115.607813,109.748437 C114.285938,109.748437 112.964063,109.621875 111.684375,109.453125 C109.911424,109.202741 108.147833,108.890048 106.396875,108.515625 C104.297887,108.000293 102.244252,107.315226 100.25625,106.467187 C97.8887421,105.453561 95.6328939,104.196821 93.525,102.717187 C92.4264064,101.90274 91.3464408,101.063461 90.2859375,100.2 C89.5908229,99.6338748 88.9346488,99.0215501 88.321875,98.3671875 C85.6290835,95.6281804 83.411245,92.4598397 81.759375,88.9921875 C80.793479,86.938311 80.0774271,84.7759916 79.6265625,82.5515625 C79.5421875,82.3359375 79.5,82.0828125 79.453125,81.8671875 C79.453125,81.4453125 79.2421875,81.35625 78.8578125,81.35625 L70.246875,81.35625 C69.8181882,83.6711204 69.131076,85.9305717 68.1984375,88.0921875 C67.4422753,89.9268214 66.4848534,91.671876 65.34375,93.2953125 C64.4514001,94.5498681 63.4970919,95.75918 62.484375,96.91875 C61.7552298,97.8036208 60.9574448,98.6296183 60.0984375,99.3890625 C58.7765625,100.542188 57.3703125,101.60625 55.9640625,102.670313 C54.2728224,103.871917 52.4746191,104.915377 50.5921875,105.7875 C47.0878322,107.453786 43.3493346,108.574545 39.50625,109.110938 C38.184375,109.321875 36.8625,109.453125 35.5453125,109.579688 C34.7927911,109.622328 34.0384589,109.622328 33.2859375,109.579688 C32.175,109.579688 31.06875,109.532813 30.0046875,109.495313 C29.615625,109.448438 29.23125,109.410938 28.8515625,109.321875 C28.6359375,109.279688 28.5515625,109.195313 28.678125,108.942188 C29.53125,106.978125 30.4265625,105.01875 31.2796875,103.054688 C31.7953125,101.864063 32.2640625,100.757813 32.8125,99.5203125 L32.8125,99.515625 Z"/>
  </g>
</svg>
