<svg xmlns="http://www.w3.org/2000/svg" width="150" height="150" viewBox="0 0 150 150">
  <g fill="#18A0B1">
    <circle cx="137.069" cy="12.931" r="12.931"/>
    <path d="M37.6551724 97.1896552C27.6381972 80.1850957 30.3892296 58.5582368 44.3444229 44.6030435 58.2996161 30.6478503 79.926475 27.8968179 96.9310345 37.9137931L107.275862 27.5689655 106.758621 27.1551724C83.8147941 12.0317427 53.3841725 15.2147927 34.0665654 34.758778 14.7489583 54.3027633 11.9206439 84.7684025 27.3103448 107.534483L37.6551724 97.1896552zM112.344828 53.3793103C122.361803 70.3838698 119.61077 92.0107287 105.655577 105.965922 91.7003839 119.921115 70.073525 122.672148 53.0689655 112.655172L42.7241379 123C65.5792111 138.516516 96.2340919 135.611473 115.76761 116.077955 135.301128 96.5444367 138.206171 65.8895559 122.689655 43.0344828L112.344828 53.3793103z"/>
    <circle cx="12.931" cy="137.069" r="12.931"/>
  </g>
</svg>
