<svg xmlns="http://www.w3.org/2000/svg" width="150" height="150" viewBox="0 0 150 150">
  <path d="M65,0 L0,37.4711538 L0,112.413462 L65,149.884615 L130,112.413462 L130,37.4711538 L65,0 Z M66.3288889,121.384615 L16.4377778,92.9711538 L16.64,79.1538462 L66.3,107.538462 L90.2488889,93.75 L74.1866667,84.4903846 L68.1777778,87.9519231 L56.9111111,81.4903846 L62.9488889,78 L55.0622222,73.4423077 L50.2955556,76.2115385 L39,69.75 L43.7955556,66.9807692 L18.3444444,52.2980769 L66.3,24.6634615 L111.54,50.4230769 L99.4066667,57.4615385 L66.3,38.5096154 L42.3511111,52.2980769 L55.7555556,60.0288462 L62.6022222,56.0480769 L73.8977778,62.5096154 L66.9933333,66.4903846 L74.88,71.0480769 L80.4844444,67.7884615 L91.78,74.25 L86.1177778,77.5384615 L114.197778,93.7211538 L66.3288889,121.384615 L66.3288889,121.384615 Z" transform="translate(10)"/>
</svg>
