<svg xmlns="http://www.w3.org/2000/svg" width="150" height="150" viewBox="0 0 150 150">
  <defs>
    <linearGradient id="key-a" x1="50%" x2="50%" y1="86.649%" y2=".046%">
      <stop offset="0%" stop-color="#00BED3"/>
      <stop offset="100%" stop-color="#00AEE5"/>
    </linearGradient>
  </defs>
  <g fill="none" transform="translate(10)">
    <polygon fill="url(#key-a)" points="129.991 112.499 129.991 37.501 65.014 0 .037 37.501 .037 112.499 65.014 150"/>
    <path fill="#FFF" d="M81.2834456,36.2706181 C83.6469756,36.2706181 85.5629949,34.3565787 85.5629949,31.9954914 C85.5629949,29.6344041 83.6469756,27.7203647 81.2834456,27.7203647 L61.8726311,27.7203647 C59.1995911,27.7203647 57.0326645,29.8850522 57.0326645,32.5553295 L57.0326645,88.1910137 C49.8674754,90.2023591 44.6015916,96.9082008 44.6015916,104.884366 C44.6015916,114.440291 52.1743565,122.18845 61.5160018,122.18845 C70.8576476,122.18845 78.4304122,114.440291 78.4304122,104.884366 C78.4304122,96.8410204 73.0646722,90.0802126 65.7955516,88.1401195 L65.7955516,54.389012 L77.2076838,54.389012 C79.5712138,54.389012 81.4872336,52.4749728 81.4872336,50.1138853 C81.4872336,47.7527982 79.5712138,45.838759 77.2076838,45.838759 L65.7955516,45.838759 L65.7955516,36.2706181 L81.2834456,36.2706181 Z M70.8678369,104.876223 C70.8678369,110.169237 66.6820299,114.444363 61.5160018,114.444363 C56.3499742,114.444363 52.1641672,110.169237 52.1641672,104.876223 C52.1641672,99.5832087 56.3499742,95.3080819 61.5160018,95.3080819 C66.6820299,95.3080819 70.8678369,99.5913515 70.8678369,104.876223 Z"/>
  </g>
</svg>
