<svg xmlns="http://www.w3.org/2000/svg" width="150" height="150" viewBox="0 0 150 150">
  <path fill="#345D9D" d="M74.6385542,-0.000317361102 C33.416819,-0.000317361102 0,33.416819 0,74.6385542 C0,115.860289 33.416819,149.277108 74.6385542,149.277108 C115.860289,149.277108 149.277426,115.860289 149.277426,74.6385542 L149.277426,74.6385542 C149.334929,54.8255098 141.489816,35.8072882 127.479818,21.7972905 C113.46982,7.78729279 94.4515986,-0.0578205381 74.6385542,-0.000317361102 Z M75.9036145,77.1686747 L68.1325301,103.373494 L109.698795,103.373494 C110.279981,103.353082 110.843531,103.575006 111.254744,103.986219 C111.665958,104.397433 111.887881,104.960983 111.86747,105.542169 L111.86747,106.084337 L108.253012,118.554217 C107.918944,119.764782 106.797168,120.587418 105.542169,120.542169 L41.9277108,120.542169 L52.5903614,84.2168675 L40.6626506,87.8313253 L43.373494,79.5180723 L55.3012048,75.9036145 L70.3012048,24.939759 C70.6352732,23.7291937 71.7570491,22.906558 73.0120482,22.9518072 L89.0963855,22.9518072 C89.6775711,22.9313957 90.2411212,23.153319 90.6523348,23.5645326 C91.0635485,23.9757463 91.2854718,24.5392964 91.2650602,25.1204819 L91.2650602,25.6626506 L78.6144578,68.6746988 L90.5421687,65.060241 L88.0120482,73.7349398 L75.9036145,77.1686747 Z"/>
</svg>
