<svg xmlns="http://www.w3.org/2000/svg" width="150" height="150" viewBox="0 0 150 150">
  <g fill="none" transform="translate(0 16)">
    <polygon fill="#2BBDF7" points="58.181 48.476 74.984 85.088 99.941 70.912 99.989 70.912 99.989 42.544"/>
    <polygon fill="#2891F9" points="132.223 21.272 116.649 15.515 99.989 14.176 99.989 42.544 99.989 42.544 99.989 102.564 99.989 102.564 124.979 116.756 144.91 76.796 132.271 38.35"/>
    <polygon fill="#2BBDF7" points="130.771 14.176 124.979 28.368 124.979 28.368 124.979 116.533 149.968 102.341 149.968 14.176"/>
    <polygon fill="#2B6DEF" points="124.979 0 99.989 14.176 124.979 28.368 149.968 14.176"/>
    <polygon fill="#2891F9" points="74.984 56.72 74.984 56.72 49.995 29.165 0 14.176 0 102.341 0 102.341 24.989 116.533 32.154 67.738 49.995 70.912 49.995 70.912 74.984 85.088 74.984 56.72"/>
    <polygon fill="#2B6DEF" points="24.989 0 0 14.176 74.984 56.72 86.314 50.309 99.989 42.544"/>
    <polygon fill="#2BBDF7" points="24.989 56.72 24.989 56.72 24.989 116.533 49.995 102.341 49.995 102.341 49.995 70.912 49.995 70.912"/>
  </g>
</svg>
