<svg xmlns="http://www.w3.org/2000/svg" width="150" height="150" viewBox="0 0 150 150">
  <g fill="none">
    <circle cx="75" cy="75" r="75" fill="#103F68"/>
    <path fill="#FFF" d="M74.90625,23.521875 L119.53125,49.2234375 L119.53125,100.785937 L74.9578125,126.5625 L74.596875,126.473437 L30.46875,100.785937 L30.46875,49.2234375 L74.596875,23.521875 L74.90625,23.521875 Z M74.7609375,28.85625 L35.15625,51.91875 L35.15625,98.090625 L74.75625,121.148438 L79.59375,118.35 L114.84375,98.0765625 L114.84375,51.928125 L79.59375,31.5375 L74.7609375,28.85625 Z M41.2921875,78.590625 L53.015625,69.825 L63.3796875,76.44375 L63.3796875,88.35 L71.221875,95.90625 L71.2171875,99.45 L63.6609375,106.528125 L57.28125,106.528125 L41.296875,78.590625 L41.2921875,78.590625 Z M78.3375,99.459375 L78.3234375,95.896875 L86.1375,88.35 L86.1375,76.44375 L96.3890625,69.740625 L108.089063,78.5953125 L92.184375,106.448437 L85.884375,106.448437 L78.3375,99.459375 Z M67.228125,76.44375 L63.4125,66.4546875 L86.090625,66.4546875 L82.35,76.44375 L83.45625,87.609375 L74.7046875,87.628125 L66.05625,87.6421875 L67.228125,76.44375 L67.228125,76.44375 Z M74.7046875,63.7171875 L53.1515625,63.7078125 L57.159375,45.8015625 L92.146875,45.8015625 L96.365625,63.73125 L74.7046875,63.7171875 Z"/>
  </g>
</svg>
