<svg xmlns="http://www.w3.org/2000/svg" width="150" height="150" viewBox="0 0 150 150">
  <g fill="none" transform="translate(0 30)">
    <path fill="#00A7E7" d="M105.967742,64.125 C95.6451613,64.125 87.2580645,55.4464286 87.2580645,44.8392857 C87.2580645,34.2321429 95.6451613,25.5535714 105.967742,25.5535714 C116.290323,25.5535714 124.677419,34.2321429 124.677419,44.8392857 C124.83871,55.4464286 116.451613,64.125 105.967742,64.125 M105.967742,0.482142857 C93.8709677,0.482142857 82.7419355,5.625 75,13.9821429 C82.9032258,22.3392857 87.2580645,33.4285714 87.2580645,45 C87.2580645,57.0535714 82.5806452,67.9821429 75,76.0178571 C82.9032258,84.375 93.8709677,89.5178571 105.967742,89.5178571 C129.83871,89.5178571 149.193548,69.5892857 149.193548,45.1607143 C149.354839,20.4107143 129.83871,0.482142857 105.967742,0.482142857"/>
    <path fill="#DA1157" d="M44.0322581,64.125 C33.7096774,64.125 25.3225806,55.4464286 25.3225806,44.8392857 C25.3225806,34.2321429 33.7096774,25.5535714 44.0322581,25.5535714 C54.3548387,25.5535714 62.7419355,34.2321429 62.7419355,44.8392857 C62.7419355,55.4464286 54.3548387,64.125 44.0322581,64.125 M75,13.9821429 C67.0967742,5.625 56.1290323,0.482142857 44.0322581,0.482142857 C20.1612903,0.482142857 0.806451613,20.4107143 0.806451613,44.8392857 C0.806451613,69.4285714 20.1612903,89.1964286 44.0322581,89.1964286 C56.1290323,89.1964286 67.2580645,84.0535714 75,75.6964286 C67.0967742,67.3392857 62.7419355,56.25 62.7419355,44.6785714 C62.7419355,32.7857143 67.4193548,21.8571429 75,13.9821429"/>
    <path fill="#1F3464" d="M62.7419355,44.8392857 C62.7419355,56.8928571 67.4193548,67.8214286 75,75.8571429 C82.9032258,67.5 87.2580645,56.4107143 87.2580645,44.8392857 C87.2580645,32.7857143 82.5806452,21.8571429 75,13.8214286 C67.0967742,22.3392857 62.7419355,33.4285714 62.7419355,44.8392857"/>
  </g>
</svg>
