<svg xmlns="http://www.w3.org/2000/svg" width="150" height="150" viewBox="0 0 150 150">
  <g fill="none">
    <circle cx="75" cy="75" r="75" fill="#00316D"/>
    <path fill="#FFF" d="M85.10625,93.2203125 C85.0453125,93.1078125 85.0359375,93.0609375 85.0125,93.046875 C82.10625,91.6734375 79.2,90.2953125 76.284375,88.940625 C76.1296875,88.865625 75.815625,88.884375 75.7171875,88.9921875 C74.4515625,90.3515625 73.2140625,91.74375 71.9578125,93.1359375 C72.8671875,93.80625 84.346875,93.8109375 85.10625,93.2203125 M58.509375,59.64375 L58.21875,59.034375 C57.975,59.2078125 57.65625,59.334375 57.496875,59.56875 C54.811559,63.5639399 52.1427862,67.5702242 49.490625,71.5875 C49.3265625,71.840625 49.3359375,72.2109375 49.25625,72.525 C49.584375,72.459375 49.95,72.4734375 50.2171875,72.309375 C52.4942425,70.9399847 54.7507435,69.5367036 56.9859375,68.1 C57.3788055,67.8230108 57.6492512,67.4047438 57.740625,66.9328125 C58.040625,64.5890625 58.246875,62.23125 58.509375,59.64375 M114.745312,93.628125 L118.617187,93.628125 C119.3625,93.628125 119.648437,93.346875 119.175,92.6296875 C116.714062,88.8703125 114.2625,85.10625 111.792187,81.3609375 C111.660937,81.1546875 111.360937,81.065625 111.135937,80.925 C111.01875,81.159375 110.817187,81.39375 110.79375,81.6421875 C110.507812,85.3078125 110.25,88.9734375 109.96875,92.6390625 C109.917187,93.3375 110.160937,93.6515625 110.873437,93.6375 C112.1625,93.609375 113.451562,93.628125 114.745312,93.628125 M31.6171875,93.346875 C32.2078125,93.4875 32.4984375,93.61875 32.784375,93.6234375 C36.9703125,93.6328125 41.15625,93.6234375 45.3375,93.6328125 C46.1484375,93.6328125 46.3546875,93.346875 46.0125,92.5640625 C44.6993107,89.5858947 43.414876,86.5951306 42.159375,83.5921875 C41.79375,82.715625 41.45625,82.7578125 40.8796875,83.3765625 C38.6484375,85.7859375 36.3984375,88.171875 34.1578125,90.5671875 C33.375,91.4109375 32.6109375,92.2546875 31.6171875,93.346875 M93.46875,71.7234375 C93.740625,72.253125 93.8296875,72.4828125 93.965625,72.6796875 L99.628125,80.9015625 C101.967187,84.3 104.301562,87.6984375 106.659375,91.0828125 C106.81875,91.3171875 107.128125,91.44375 107.3625,91.6171875 C107.484375,91.3359375 107.68125,91.06875 107.71875,90.778125 C107.8125,89.98125 107.83125,89.184375 107.882812,88.3875 C108.135937,84.7546875 108.417187,81.1265625 108.632812,77.4984375 C108.726562,75.9515625 108.05625,75.1546875 106.589062,74.7890625 C102.675,73.809375 98.7609375,72.825 94.8421875,71.8546875 C94.490625,71.7703125 94.1203125,71.784375 93.46875,71.7234375 M92.475,47.653125 L92.11875,47.7140625 C92.071875,48.43125 92.0015625,49.153125 91.978125,49.8796875 L91.4578125,67.55625 C91.434375,68.203125 91.6265625,68.540625 92.296875,68.7 C96.35625,69.684375 100.40625,70.7203125 104.465625,71.71875 C104.817187,71.803125 105.20625,71.7234375 105.576562,71.71875 C105.482812,71.3578125 105.464062,70.95 105.290625,70.63125 C101.245312,63.271875 97.190625,55.9125 93.1265625,48.5625 C92.9484375,48.2390625 92.6953125,47.953125 92.475,47.653125 M74.2640625,83.7796875 C74.3765625,83.15625 74.484375,82.78125 74.4984375,82.40625 C74.559375,80.4421875 74.5640625,78.478125 74.653125,76.5140625 C74.7372256,75.0176196 74.2925503,73.5392404 73.396875,72.3375 C69.6750783,67.1734254 65.9641326,62.0015389 62.2640625,56.821875 C62.0953125,56.5875 62.025,56.2828125 61.9078125,56.0109375 L61.4671875,56.2734375 C61.359375,56.6671875 61.190625,57.05625 61.1484375,57.4546875 C60.8203125,60.6421875 60.5390625,63.8296875 60.1875,67.0078125 C60.0789527,67.6860635 60.300044,68.3754507 60.7828125,68.8640625 C64.978125,73.5375 69.1453125,78.2390625 73.33125,82.9265625 C73.55625,83.1796875 73.828125,83.3859375 74.2640625,83.7796875 M76.96875,82.8 L77.25,82.9875 C77.5078125,82.7859375 77.8125,82.6265625 78.01875,82.378125 C81.582856,78.0509108 85.1344333,73.7133926 88.6734375,69.365625 C88.8904184,69.0900723 89.0179923,68.7547818 89.0390625,68.4046875 C89.2078125,62.615625 89.353125,56.8265625 89.484375,51.0375 C89.49375,50.71875 89.3109375,50.3953125 89.2125,50.0765625 C88.9546875,50.325 88.59375,50.5265625 88.4484375,50.8265625 C85.1671875,57.7734375 82.03125,64.790625 78.590625,71.6484375 C76.771875,75.2765625 77.0625,79.021875 76.96875,82.8046875 M60.5484375,93.6328125 C62.803125,93.6328125 65.0625,93.665625 67.3171875,93.6046875 C67.8318109,93.5802875 68.3206895,93.3724309 68.6953125,93.01875 C70.265625,91.3734375 71.7375,89.6296875 73.303125,87.9796875 C73.8890625,87.3703125 73.7578125,86.9953125 73.2609375,86.4515625 C70.615523,83.5823762 67.9935607,80.691655 65.3953125,77.7796875 C64.7671875,77.0765625 64.40625,77.08125 63.84375,77.85 C60.2765625,82.7296875 56.671875,87.5765625 53.0859375,92.446875 C52.9078125,92.690625 52.8421875,93.0140625 52.7203125,93.3 C53.034375,93.4125 53.3484375,93.6140625 53.6671875,93.6140625 C55.9640625,93.6421875 58.2515625,93.6328125 60.5484375,93.6328125 M62.8828125,75.0421875 C61.6359375,73.59375 60.4125,72.2296875 59.2546875,70.8 C58.7671875,70.2046875 58.3921875,70.14375 57.7359375,70.5515625 C53.8171875,73.0171875 49.85625,75.4171875 45.946875,77.896875 C45.2390625,78.346875 44.68125,79.0453125 44.08125,79.659375 C43.5234375,80.23125 43.5984375,80.859375 43.903125,81.5625 C45.4265625,85.0453125 46.9125,88.5421875 48.4171875,92.034375 C48.9890625,93.346875 49.2046875,93.3703125 50.08125,92.1984375 C52.4015625,89.1046875 54.7125,85.996875 57.0234375,82.8984375 L62.8828125,75.0421875 M90.046875,71.3484375 C89.7421875,71.840625 89.596875,72.140625 89.390625,72.384375 C85.678125,76.9125 81.9609375,81.440625 78.2203125,85.95 C77.6109375,86.6859375 77.925,86.9765625 78.6140625,87.290625 C82.9125,89.259375 87.1921875,91.2609375 91.5,93.2203125 C92.0517168,93.4688208 92.6481289,93.6027743 93.253125,93.6140625 C96.796875,93.646875 100.345312,93.6375 103.89375,93.61875 C104.221875,93.61875 104.554687,93.46875 104.8875,93.384375 C104.770312,93.0375 104.71875,92.6390625 104.5125,92.34375 C101.242463,87.5683698 97.9627691,82.7996101 94.6734375,78.0375 C93.2203125,75.928125 91.7578125,73.81875 90.046875,71.3484375 M74.9671875,98.428125 C58.8328125,98.428125 42.6984375,98.4234375 26.5640625,98.4375 C25.3078125,98.4375 24.1734375,98.296875 23.6296875,96.946875 C23.1140625,95.6671875 23.7140625,94.7203125 24.553125,93.825 C29.371875,88.678125 34.25625,83.5875 38.94375,78.328125 C40.734375,76.321875 42.1171875,73.9359375 43.63125,71.68125 C48.4828125,64.425 53.296875,57.140625 58.171875,49.903125 C58.65,49.1953125 59.38125,48.478125 60.15,48.196875 C61.209375,47.803125 62.1140625,48.4125 62.7890625,49.378125 C66.7125,54.984375 70.6640625,60.571875 74.60625,66.16875 C75.4171875,67.3125 75.7078125,67.275 76.3078125,65.971875 L88.4671875,39.4875 C88.9453125,38.446875 89.578125,37.5609375 90.8109375,37.5046875 C92.1,37.44375 92.8828125,38.2265625 93.4875,39.3328125 C99.590625,50.4046875 105.553125,61.5703125 111.895312,72.5015625 C115.729687,79.1109375 120.16875,85.35 124.335937,91.7578125 C124.851562,92.5453125 125.371875,93.328125 125.878125,94.125 C126.4875,95.0859375 126.848437,96.140625 126.276562,97.2046875 C125.714062,98.2359375 124.673437,98.4328125 123.58125,98.4328125 C107.376562,98.4234375 91.171875,98.428125 74.9671875,98.428125"/>
  </g>
</svg>
