<svg xmlns="http://www.w3.org/2000/svg" width="150" height="150" viewBox="0 0 150 150">
  <g fill="#4A90E2" transform="translate(0 43)">
    <ellipse cx="10.795" cy="53.244" rx="10.795" ry="10.739"/>
    <path d="M139.430636,0 C133.586705,0 128.635838,4.70080863 128.635838,10.7385445 C128.635838,19.2431267 127.283237,21.4770889 117.84104,21.4770889 L116.939306,21.4770889 C111.546243,21.9256065 107.271676,26.4021563 107.271676,31.9913747 L107.271676,32.2156334 C107.271676,40.4959569 105.693642,42.5056604 96.4768786,42.5056604 C96.0260116,42.5056604 95.5751445,42.5056604 95.349711,42.7299191 C89.9566474,43.4026954 85.6820809,47.8792453 85.6820809,53.2442049 C85.6820809,59.0576819 90.4075145,63.9827493 96.4768786,63.9827493 C102.095376,63.9827493 106.820809,59.5061995 107.046243,54.1412399 L107.046243,53.2442049 C107.046243,45.6366577 109.517341,42.7299191 117.615607,42.5056604 L117.84104,42.5056604 C123.459538,42.5056604 128.184971,38.0291105 128.410405,32.4398922 L128.410405,31.7671159 C128.410405,23.93531 130.881503,21.0285714 139.205202,21.0285714 C145.049133,21.0285714 150,16.3277628 150,10.290027 C150,4.70080863 145.274566,0 139.430636,0 Z M76.0144509,21.4770889 L75.1127168,21.4770889 C65.6705202,21.4770889 64.3179191,19.2431267 64.3179191,10.7385445 C64.3179191,4.92506739 59.5924855,0 53.5231214,0 C47.6791908,0 42.7283237,4.70080863 42.7283237,10.7385445 C42.7283237,19.2431267 41.3757225,21.2528302 31.933526,21.2528302 L31.0317919,21.2528302 C25.6387283,21.7013477 21.3641618,26.1778976 21.3641618,31.7671159 C21.3641618,37.580593 26.0895954,42.5056604 32.1589595,42.5056604 C37.7774566,42.5056604 42.5028902,38.0291105 42.7283237,32.6641509 L42.7283237,31.9913747 C42.7283237,24.1595687 45.199422,21.2528302 53.5231214,21.2528302 C61.8468208,21.2528302 64.3179191,24.1595687 64.3179191,31.7671159 C64.3179191,37.580593 69.0433526,42.5056604 75.1127168,42.5056604 C81.1820809,42.5056604 85.9075145,37.8048518 85.9075145,31.7671159 C85.6820809,26.4021563 81.4075145,21.9256065 76.0144509,21.4770889 Z"/>
  </g>
</svg>
