<svg xmlns="http://www.w3.org/2000/svg" width="150" height="150" viewBox="0 0 150 150">
  <defs>
    <linearGradient id="nkn-a" x1="50%" x2="50%" y1="0%" y2="100%">
      <stop offset="1%" stop-color="#6172B0"/>
      <stop offset="8%" stop-color="#495B9E"/>
      <stop offset="9%" stop-color="#485A9D"/>
      <stop offset="37%" stop-color="#2F4387"/>
      <stop offset="55%" stop-color="#253A7E"/>
      <stop offset="100%" stop-color="#20326E"/>
    </linearGradient>
  </defs>
  <g fill="none">
    <ellipse cx="74.971" cy="74.977" fill="url(#nkn-a)" rx="74.901" ry="74.977"/>
    <path fill="#FFF" d="M76.4679878 95.1012208C76.4679878 95.1012208 91.9756098 98.922177 104.268293 89.2675483 116.560976 79.6129196 116.158537 65.0310275 116.158537 65.0310275 116.158537 65.0310275 102.259146 60.7004069 89.6341463 69.9140387 77.0091463 79.1276704 76.4679878 95.1012208 76.4679878 95.1012208zM76.4176829 102.390641C76.4176829 102.390641 78.9435976 113.31943 88.882622 117.955239 98.8216463 122.591048 107.807927 117.732452 107.807927 117.732452 107.807927 117.732452 106.109756 107.649034 96.3445122 102.656155 86.5792683 97.6632757 76.4176829 102.390641 76.4176829 102.390641zM99.785061 97.6602238C99.785061 97.6602238 105.146341 103.628179 112.972561 103.08647 120.79878 102.544761 124.743902 96.387589 124.743902 96.387589 124.743902 96.387589 120.193598 90.6592065 112.347561 90.9170905 104.501524 91.1749746 99.785061 97.6602238 99.785061 97.6602238zM91.9435976 59.9908444C91.9435976 59.9908444 83.6783537 46.3138352 68.1631098 44.4491353 52.6478659 42.5844354 42.6371951 53.1592065 42.6371951 53.1592065 42.6371951 53.1592065 49.4070122 66.0595117 64.8414634 68.482706 80.2759146 70.9059003 91.9435976 59.9908444 91.9435976 59.9908444zM97.1265244 54.8758901C97.1265244 54.8758901 103.059451 45.3601221 99.3079268 35.0386572 95.5564024 24.7171923 85.7682927 21.801119 85.7682927 21.801119 85.7682927 21.801119 79.8460366 30.1403866 83.2317073 40.5900305 86.617378 51.0396745 97.1265244 54.8758901 97.1265244 54.8758901zM77.2621951 41.6810783C77.2621951 41.6810783 77.6844512 33.6653103 71.7743902 28.5091556 65.8643293 23.353001 58.7179878 24.9140387 58.7179878 24.9140387 58.7179878 24.9140387 57.8917683 32.1836216 63.617378 37.5503561 69.3429878 42.9170905 77.2621951 41.6810783 77.2621951 41.6810783zM63.3414634 78.7889115C63.3414634 78.7889115 49.6783537 87.0640895 47.8155488 102.593591 45.9527439 118.123093 56.5167683 128.148525 56.5167683 128.148525 56.5167683 128.148525 69.4039634 121.371821 71.8246951 105.920142 74.2454268 90.4684639 63.3414634 78.7889115 63.3414634 78.7889115zM58.2317073 73.6007121C58.2317073 73.6007121 48.7240854 67.6617497 38.4222561 71.4140387 28.1204268 75.1663276 25.1981707 84.9674466 25.1981707 84.9674466 25.1981707 84.9674466 33.5213415 90.8957274 43.9481707 87.5157681 54.375 84.1358087 58.2317073 73.6007121 58.2317073 73.6007121zM45.0503049 93.4867752C45.0503049 93.4867752 37.0426829 93.0625636 31.8917683 98.9801628 26.7408537 104.897762 28.3003049 112.048321 28.3003049 112.048321 28.3003049 112.048321 35.5625 112.875381 40.9237805 107.143947 46.285061 101.412513 45.0503049 93.4867752 45.0503049 93.4867752z"/>
  </g>
</svg>
