<svg xmlns="http://www.w3.org/2000/svg" width="150" height="150" viewBox="0 0 150 150">
  <g fill="none">
    <circle cx="75" cy="75" r="75" fill="#82BD39"/>
    <path fill="#FFF" d="M67.5140625,90.75 L75,100.6125 L75,121.875 L46.875,109.392188 L46.875,54.4640625 C46.875,53.653125 47.2359375,52.8796875 47.86875,52.340625 L51.0703125,49.5984375 C51.6936872,49.0592974 52.5124404,48.8022736 53.3321037,48.8884137 C54.1517669,48.9745538 54.8992003,49.3961715 55.396875,50.053125 L81.0140625,83.634375 L95.165625,92.2875 L95.165625,45.975 L82.659375,39.7359375 L82.05,68.7796875 L75.43125,60 L75.13125,28.125 L103.125,41.1515625 L103.125,95.8265625 L96.7640625,101.067187 L76.7296875,89.878125 L54.4921875,60.7078125 L54.1875,105.023437 L67.4296875,111.80625 L67.5140625,90.75 Z"/>
  </g>
</svg>
