<svg xmlns="http://www.w3.org/2000/svg" width="150" height="150" viewBox="0 0 150 150">
  <g fill="none">
    <circle cx="75" cy="75" r="75" fill="#1A53F0"/>
    <path fill="#FFF" d="M55.575,81.046875 C44.3076327,81.0546391 35.1791955,90.1935688 35.1843728,101.460938 C35.1791943,112.726477 44.3047763,121.864649 55.5703125,121.875 C60.9827846,121.873757 66.1730135,119.722148 69.9988905,115.893634 C73.8247674,112.06512 75.9727994,106.873409 75.9703147,101.460938 C75.9727995,96.0492777 73.8254108,90.8582776 70.0005477,87.0298981 C66.1756845,83.2015186 60.9866598,81.0493608 55.575,81.046875 L55.575,81.046875 Z M55.575,115.701563 C47.7197172,115.696386 41.3552226,109.325597 41.3578094,101.470312 C41.3553253,97.6971933 42.8518061,94.0776232 45.5180462,91.4078669 C48.1842862,88.7381106 51.8018808,87.2368606 55.575,87.234375 C59.3489316,87.2356177 62.9677304,88.736319 65.6349842,91.4062102 C68.302238,94.0761013 69.7993621,97.6963815 69.7968781,101.470313 C69.786559,109.322079 63.4267584,115.686072 55.575,115.701563 L55.575,115.701563 Z M99.140625,37.5 C93.7289652,37.5024858 88.5399405,39.6546436 84.7150773,43.4830231 C80.8902142,47.3114026 78.7428255,52.5024027 78.7453103,57.9140625 C78.740133,69.1814312 87.8685702,78.3203609 99.1359375,78.328125 C104.54841,78.3268822 109.738639,76.1752731 113.564515,72.3467588 C117.390392,68.5182446 119.538424,63.3265342 119.53594,57.9140625 C119.538424,52.5015908 117.390392,47.3098804 113.564515,43.4813662 C109.738639,39.6528519 104.54841,37.5012428 99.1359375,37.5 L99.140625,37.5 Z M99.140625,72.1546875 C95.367506,72.1534445 91.7494179,70.6533866 89.0822989,67.9845095 C86.4151799,65.3156323 84.9175066,61.6965565 84.9187469,57.9234375 C84.9162629,54.1495065 86.413387,50.5292263 89.0806408,47.8593352 C91.7478946,45.189444 95.3666934,43.6887427 99.140625,43.6875 C102.913744,43.6899856 106.531339,45.1912356 109.197579,47.8609919 C111.863819,50.5307482 113.3603,54.1503183 113.357816,57.9234375 C113.347504,65.7733791 106.990553,72.1366187 99.140625,72.1546875 L99.140625,72.1546875 Z M55.575,37.5 C45.8668498,37.5128329 37.5087302,44.3564415 35.5807626,53.8712345 C33.652795,63.3860275 38.6876045,72.9434244 47.625,76.734375 C56.5702519,80.5144021 66.9401337,77.4630526 72.4125,69.440625 C77.8904155,61.4144513 76.9594693,50.6409542 70.1859375,43.6734375 L75.965625,43.6734375 L75.965625,37.5 L55.575,37.5 Z M69.796875,57.9140625 C69.7981184,61.6871815 68.3004451,65.3062573 65.6333261,67.9751345 C62.9662071,70.6440116 59.348119,72.1440695 55.575,72.1453125 C47.7197172,72.1401365 41.3552226,65.7693466 41.3578117,57.9140625 C41.3552226,50.0587784 47.7197172,43.6879885 55.575,43.6828125 C63.4285892,43.6957228 69.7912394,50.0604695 69.8015625,57.9140625 L69.796875,57.9140625 L69.796875,57.9140625 Z"/>
  </g>
</svg>
