<svg xmlns="http://www.w3.org/2000/svg" width="150" height="150" viewBox="0 0 150 150">
  <defs>
    <linearGradient id="one-a" x1="6.333%" x2="93.333%" y1="92.317%" y2="5.791%">
      <stop offset="0%" stop-color="#00AEE9"/>
      <stop offset="100%" stop-color="#69FABD"/>
    </linearGradient>
  </defs>
  <path fill="url(#one-a)" d="M117.641667,-9.95766684e-06 C99.8025934,-0.0138487525 85.3209598,14.4193139 85.275,32.2583333 L85.275,68.025 C81.9416667,68.25 78.5333333,68.3916667 75,68.3916667 C71.4666667,68.3916667 68.075,68.5333333 64.725,68.7333333 L64.725,32.2583333 C64.4414302,14.5874768 50.0356316,0.410997834 32.3625,0.410997834 C14.6893684,0.410997834 0.283569765,14.5874768 -2.84217094e-14,32.2583333 L-2.84217094e-14,117.741667 C0.283569765,135.412523 14.6893684,149.589002 32.3625,149.589002 C50.0356316,149.589002 64.4414302,135.412523 64.725,117.741667 L64.725,81.975 C68.0583333,81.75 71.4666667,81.6083333 75,81.6083333 C78.5333333,81.6083333 81.925,81.4666667 85.275,81.2666667 L85.275,117.741667 C85.5585698,135.412523 99.9643684,149.589002 117.6375,149.589002 C135.310632,149.589002 149.71643,135.412523 150,117.741667 L150,32.2583333 C149.954046,14.4225691 135.477488,-0.00925055583 117.641667,-9.95766684e-06 Z M32.3583333,13.2166648 C42.8861267,13.2120353 51.4307627,21.730575 51.4583333,32.2583333 L51.4583333,70.1333333 C41.9898496,71.5053693 32.7435377,74.1195538 23.9583333,77.9083333 C20.1519486,79.5789076 16.5687461,81.7176316 13.2916667,84.275 L13.2916667,32.2583333 C13.3191953,21.7435786 21.8435515,13.2303995 32.3583333,13.2166648 Z M51.4583333,117.741667 C51.4583333,128.290305 42.9069721,136.841667 32.3583333,136.841667 C21.8096946,136.841667 13.2583333,128.290305 13.2583333,117.741667 L13.2583333,109.166667 C13.2583333,101.591667 19.2583333,94.4166667 29.3166667,89.95 C36.4039543,86.8923607 43.8402976,84.717713 51.4583333,83.475 L51.4583333,117.741667 L51.4583333,117.741667 Z M117.641667,136.783335 C107.113873,136.787965 98.5692373,128.269425 98.5416667,117.741667 L98.5416667,79.8666667 C108.01015,78.4946307 117.256462,75.8804462 126.041667,72.0916667 C129.848051,70.4210924 133.431254,68.2823684 136.708333,65.725 L136.708333,117.741667 C136.680805,128.256421 128.156448,136.769601 117.641667,136.783335 L117.641667,136.783335 Z M120.683333,60 C113.596046,63.0576393 106.159702,65.232287 98.5416667,66.475 L98.5416667,32.2583333 C98.5416667,21.7096946 107.093028,13.1583333 117.641667,13.1583333 C128.190305,13.1583333 136.741667,21.7096946 136.741667,32.2583333 L136.741667,40.8333333 C136.741667,48.375 130.741667,55.55 120.683333,60 Z"/>
</svg>
