<svg xmlns="http://www.w3.org/2000/svg" width="150" height="150" viewBox="0 0 150 150">
  <g fill="none" transform="translate(0 4)">
    <path fill="#0293D6" d="M34.0909091,124.70255 C43.0765149,134.96954 55.7876573,141.1992 69.3850267,142 C77.4275433,141.571721 85.0153479,138.125481 90.6417112,132.345609 C101.739524,122.812073 113.390971,113.946669 125.534759,105.796034 L132.352941,102.98017 C135.160428,101.773371 139.973262,98.9575071 144.385027,93.7280453 C149.197861,87.2917847 150,80.4532578 150,78.0396601 C149.466732,70.4274932 146.979801,63.0830152 142.780749,56.7195467 C120.51171,96.5183648 79.5221849,122.156373 34.0909091,124.70255 Z"/>
    <path fill="#EBE638" d="M49.3315508,10.4589235 C55.3822374,4.04869249 63.7925814,0.412726975 72.5935829,0.402266289 C78.1670405,0.0279741881 83.6572513,1.91180874 87.8342246,5.63172805 C99.3385898,13.8062565 113.041788,18.2941221 127.139037,18.5042493 C130.748663,18.9065156 137.967914,20.1133144 142.780749,26.1473088 C146.390374,30.9745042 146.791444,36.203966 146.791444,38.6175637 C146.468392,44.8333948 145.112857,50.9515049 142.780749,56.7195467 L49.3315508,10.4589235 Z"/>
    <path fill="#BAD147" d="M34.0909091,124.70255 C30.4812834,124.300283 25.6684492,123.093484 20.0534759,120.679887 C14.4385027,118.266289 7.62032086,115.450425 3.20855615,107.807365 C0.401069519,102.98017 0,98.1529745 0,94.9348442 C0.0979179902,86.4003279 2.15659564,78.0033906 6.01604278,70.3966006 C9.85584146,60.9945676 12.4188722,51.1177494 13.6363636,41.0311615 L15.6417112,32.9858357 C16.8449198,28.9631728 17.6470588,24.9405099 20.4545455,20.917847 L24.8663102,16.0906516 C32.1530715,11.4956581 40.7763469,9.51064018 49.3315508,10.4589235 C26.0865643,43.8102991 20.4055571,86.3950458 34.0909091,124.70255 L34.0909091,124.70255 Z"/>
    <path fill="#78B650" d="M49.3315508,10.4589235 C48.9304813,10.4589235 70.9893048,11.6657224 84.6256684,16.4929178 L95.855615,21.3201133 C91.4438503,20.917847 63.368984,19.7110482 42.1122995,41.0311615 C15.2406417,68.3852691 24.0641711,105.796034 24.4652406,107.807365 C18.2379913,99.9492426 15.0987824,90.074163 15.6417112,80.0509915 C16.7091106,53.1576956 28.9209321,27.9321106 49.3315508,10.4589235 L49.3315508,10.4589235 Z"/>
    <path fill="#2F8260" d="M103.074866,109.818697 C118.586389,81.5375901 115.744211,46.6962041 95.855615,21.3201133 C107.472913,23.2682353 118.158593,28.9090592 126.336898,37.4107649 C131.149733,41.4334278 137.165775,47.4674221 142.780749,56.7195467 C134.850541,77.8469689 121.076392,96.2673022 103.074866,109.818697 L103.074866,109.818697 Z"/>
    <path fill="#085229" d="M115.909091,39.01983 C109.491979,28.1586402 100.26738,23.3314448 96.2566845,21.3201133 C93.0481283,20.5155807 62.9679144,15.6883853 40.1069519,37.8130312 C21.657754,55.5127479 20.4545455,78.4419263 20.4545455,82.8668555 C20.539456,98.0268895 25.6152855,112.734152 34.8930481,124.70255 C46.8156319,127.005078 59.066721,127.005078 70.9893048,124.70255 C77.0053476,123.495751 91.0427807,121.082153 103.074866,110.623229 C104.679144,109.014164 122.326203,92.5212465 123.529412,66.3739377 C123.529412,61.9490085 123.529412,50.6855524 115.909091,39.01983 L115.909091,39.01983 Z M101.470588,97.3484419 C93.9405294,105.564195 83.3190218,110.234092 72.1925134,110.220991 C69.7860963,110.220991 53.7433155,109.818697 42.513369,96.5439093 C40.9090909,94.5325779 32.8877005,84.878187 33.2887701,70.3966006 C34.0909091,51.0878187 49.3315508,39.8243626 52.540107,37.4107649 C55.3475936,35.3994334 62.1657754,30.9745042 72.1925134,30.572238 C74.5989305,30.1699717 83.0213904,29.7677054 91.4438503,34.5949008 C109.893048,44.6515581 110.695187,68.7875354 110.695187,70.3966006 C110.695187,74.8215297 110.695187,86.8895184 101.470588,97.3484419 Z"/>
  </g>
</svg>
