<svg xmlns="http://www.w3.org/2000/svg" width="150" height="150" viewBox="0 0 150 150">
  <defs>
    <linearGradient id="perl-a" x1="50%" x2="50%" y1="0%" y2="100%">
      <stop offset="0%" stop-color="#FFA0A0"/>
      <stop offset="36.006%" stop-color="#C383D9"/>
      <stop offset="66.823%" stop-color="#84D2ED"/>
      <stop offset="99.913%" stop-color="#77FCE5"/>
    </linearGradient>
  </defs>
  <g fill="none">
    <circle cx="75" cy="75" r="75" fill="url(#perl-a)"/>
    <g fill="#040A22" transform="matrix(1 0 0 -1 5.069 144.983)">
      <path d="M65.4639175,139.810997 C43.5910653,138.350515 23.8316151,126.907216 11.7010309,108.676976 C-0.498281787,90.3092784 -3.3161512,67.4398625 4.05498282,46.5463918 C10.6185567,27.9896907 25.1030928,12.8006873 43.3676976,5.30927835 C44.5360825,4.82817869 45.5670103,4.43298969 45.6357388,4.43298969 C45.7216495,4.43298969 45.4467354,4.84536082 45.0343643,5.36082474 C39.5017182,12.1649485 41.1512027,23.95189 48.419244,29.3986254 C52.2852234,32.3024055 56.6494845,33.6769759 65.8762887,34.9312715 C84.1752577,37.3883162 97.5085911,43.2989691 107.130584,53.161512 C114.450172,60.6701031 118.573883,69.5017182 120.120275,80.9793814 C120.549828,84.1580756 120.56701,92.1649485 120.137457,95.0687285 C119.415808,99.9140893 118.367698,103.95189 116.821306,107.817869 C109.501718,126.185567 92.6632302,138.333333 72.5085911,139.828179 C69.8453608,140.017182 68.5223368,140.017182 65.4639175,139.810997 Z"/>
      <path d="M105.756014,129.914089 C110.4811,125.876289 113.986254,121.924399 117.250859,116.975945 C125.584192,104.329897 128.367698,89.3127148 125.137457,74.4501718 C122.955326,64.3298969 117.42268,54.5532646 109.690722,47.1477663 C98.3676976,36.3058419 82.5085911,29.7594502 64.604811,28.5738832 C57.6804124,28.1099656 53.6254296,26.580756 50.4639175,23.2646048 C49.1408935,21.8728522 48.1099656,20 47.5945017,18.0927835 C47.233677,16.7010309 47.0790378,13.8659794 47.3195876,12.628866 C48.2474227,7.62886598 53.024055,3.21305842 59.8797251,1.03092784 C63.4707904,-0.103092784 72.0446735,-0.326460481 78.7972509,0.567010309 C94.4845361,2.62886598 108.487973,9.5532646 119.639175,20.7560137 C130.756014,31.9243986 137.646048,46.2886598 139.553265,62.2508591 C139.931271,65.4639175 139.982818,74.2783505 139.639175,77.1993127 C138.075601,90.5498282 133.591065,101.890034 125.773196,112.250859 C122.199313,116.975945 117.938144,121.305842 113.058419,125.171821 C111.512027,126.37457 106.718213,129.656357 105.56701,130.257732 C105.034364,130.549828 105.034364,130.532646 105.756014,129.914089 Z"/>
    </g>
  </g>
</svg>
