<svg xmlns="http://www.w3.org/2000/svg" width="150" height="150" viewBox="0 0 150 150">
  <g fill="#2E9AD0" transform="translate(0 7)">
    <g transform="translate(3.545 2.736)">
      <path d="M87.3818182,128.967404 L46.1454545,128.967404 L12.8727273,104.503823 L0.190909091,64.9899396 L12.8454545,25.4760563 L46.1181818,1.01247485 L87.3818182,1.01247485 L120.654545,25.4760563 L133.309091,64.9899396 L120.654545,104.503823 L120.190909,104.969014 L87.3818182,128.967404 Z M47.0727273,126.121529 L86.4545455,126.121529 L118.336364,102.615694 L130.527273,64.9899396 L118.336364,27.3641851 L86.4545455,3.8583501 L47.0727273,3.8583501 L15.2181818,27.3641851 L3.02727273,64.9899396 L15.2181818,102.615694 L47.0727273,126.121529 Z"/>
      <polygon points="138.027 122.373 118.8 104.969 100.036 97.909 66.764 102.151 33.027 97.909 14.264 104.969 13.336 102.151 32.536 94.625 33.027 94.625 66.764 99.332 100.527 94.625 100.991 95.091 120.682 102.616 139.882 120.485"/>
      <polygon points="86.455 130.363 66.764 103.081 46.145 130.363 31.145 96.979 33.955 95.556 47.073 124.726 66.764 97.909 85.991 124.726 99.109 95.556 116.918 59.818 121.145 103.546 118.336 103.546 115.036 70.162 101.918 96.979"/>
      <polygon points="2.073 63.567 132.382 63.567 132.382 66.386 2.073 66.386"/>
      <polygon points="116.918 70.162 100.527 37.708 86.455 68.274 66.764 33.001 46.609 68.274 32.536 37.708 16.145 70.162 12.382 26.899 15.218 26.434 18.027 60.283 32.536 31.606 46.609 62.171 66.764 27.364 85.991 62.171 100.527 31.606 115.036 59.818 117.382 26.434 120.218 26.434"/>
      <path d="M99.1090909,35.3545272 L85.9909091,5.71911469 L66.7636364,33.0012072 L47.0727273,5.71911469 L33.9545455,35.3545272 L31.6090909,33.9589537 L46.1454545,0.0820925553 L66.7636364,27.8293763 L86.4545455,0.0820925553 L101.918182,33.9589537 L99.1090909,35.3545272 Z M118.336364,103.546076 L115.036364,70.1617706 L100.527273,99.331992 L85.9909091,68.2736419 L66.7636364,103.546076 L46.6090909,68.2736419 L32.5363636,99.331992 L18.0272727,70.1617706 L15.2181818,103.546076 L12.3818182,103.546076 L16.1454545,59.8181087 L32.5363636,92.7372233 L46.6090909,62.1714286 L66.7636364,97.4438632 L86.4545455,62.1714286 L100.527273,93.2024145 L116.918182,59.8181087 L121.145455,103.546076 L118.336364,103.546076 Z"/>
      <polygon points="100.527 36.312 66.3 31.606 32.536 36.312 13.336 27.829 14.264 25.011 33.027 33.001 66.3 28.787 100.527 33.001 118.8 25.011 120.218 27.829"/>
    </g>
    <ellipse cx="50.155" cy="130.281" rx="5.618" ry="5.637"/>
    <ellipse cx="89.536" cy="130.281" rx="5.618" ry="5.637"/>
    <ellipse cx="50.155" cy="5.637" rx="5.618" ry="5.637"/>
    <ellipse cx="89.536" cy="5.637" rx="5.618" ry="5.637"/>
    <ellipse cx="122.345" cy="29.17" rx="5.618" ry="5.637"/>
    <ellipse cx="17.345" cy="29.17" rx="5.618" ry="5.637"/>
    <ellipse cx="17.345" cy="106.775" rx="5.618" ry="5.637"/>
    <ellipse cx="5.618" cy="67.726" rx="5.618" ry="5.637"/>
    <ellipse cx="135.464" cy="67.726" rx="5.618" ry="5.637"/>
    <ellipse cx="119.536" cy="67.726" rx="5.618" ry="5.637"/>
    <ellipse cx="20.618" cy="67.726" rx="5.618" ry="5.637"/>
    <ellipse cx="50.155" cy="67.726" rx="5.618" ry="5.637"/>
    <ellipse cx="89.536" cy="67.726" rx="5.618" ry="5.637"/>
    <ellipse cx="70.31" cy="32.925" rx="5.637" ry="5.619" transform="rotate(-80.781 70.31 32.925)"/>
    <ellipse cx="36.082" cy="37.626" rx="5.618" ry="5.637"/>
    <ellipse cx="104.073" cy="37.626" rx="5.618" ry="5.637"/>
    <ellipse cx="70.309" cy="103.464" rx="5.618" ry="5.637"/>
    <ellipse cx="36.082" cy="98.757" rx="5.618" ry="5.637"/>
    <ellipse cx="104.073" cy="98.757" rx="5.618" ry="5.637"/>
    <ellipse cx="142.5" cy="124.179" rx="7.5" ry="7.525"/>
  </g>
</svg>
