<svg xmlns="http://www.w3.org/2000/svg" width="150" height="150" viewBox="0 0 150 150">
  <defs>
    <linearGradient id="ren-a" x1="0%" x2="100%" y1="50%" y2="50%">
      <stop offset="0%" stop-color="#001C3A"/>
      <stop offset="60%" stop-color="#001E3D"/>
      <stop offset="70%" stop-color="#001F3F"/>
      <stop offset="100%" stop-color="#002042"/>
    </linearGradient>
  </defs>
  <g fill="none">
    <circle cx="75" cy="75" r="75" fill="url(#ren-a)"/>
    <path fill="#FFF" d="M18.75,24.84375 L26.71875,20.625 L27.65625,22.5 L56.71875,5.625 L54.84375,4.21875 L52.5,2.8125 L51.5625,2.34375 L3.75,30 L3.75,30.9375 L17.34375,23.4375 L18.75,24.84375 Z M18.75,42.65625 L41.71875,29.0625 L42.65625,30.9375 L72.1875,14.0625 L69.84375,12.65625 L67.5,11.71875 L66.5625,11.25 L3.75,47.34375 L3.75,48.28125 L17.34375,40.78125 L18.75,42.65625 Z M18.75,51.09375 L49.21875,33.75 L50.15625,35.15625 L79.6875,18.28125 L77.34375,17.34375 L75,15.9375 L74.0625,15.46875 L3.75,55.78125 L3.75,57.1875 L17.34375,49.21875 L18.75,51.09375 Z M18.75,59.53125 L56.71875,37.96875 L57.65625,39.375 L87.1875,22.96875 L84.84375,21.5625 L82.5,20.15625 L81.5625,19.6875 L3.75,64.6875 L3.75,65.625 L17.34375,58.125 L18.75,59.53125 Z M18.75,68.4375 L64.21875,42.1875 L65.15625,44.0625 L94.6875,27.1875 L92.34375,25.78125 L90.46875,24.84375 L89.0625,23.90625 L3.75,73.125 L3.75,74.53125 L17.34375,66.5625 L18.75,68.4375 Z M97.5,29.0625 L96.5625,28.125 L3.75,82.03125 L3.75,82.96875 L17.34375,75.46875 L18.75,77.34375 L64.21875,50.625 L65.15625,52.5 L99.375,33.28125 L99.375,30 L97.5,29.0625 Z M9.84375,88.59375 L17.34375,83.90625 L18.28125,85.78125 L64.21875,59.53125 L65.15625,61.40625 L99.375,41.71875 L99.375,35.625 L8.4375,87.65625 L9.84375,88.59375 Z M64.21875,68.4375 L65.15625,70.3125 L99.375,50.15625 L99.375,44.0625 L15.9375,92.34375 L17.34375,92.8125 L24.84375,88.125 L26.25,90 L64.21875,68.4375 Z M24.84375,97.03125 L32.8125,92.8125 L33.75,94.6875 L64.21875,76.875 L65.15625,78.75 L99.375,59.0625 L99.375,52.96875 L23.4375,96.5625 L24.84375,97.03125 Z M32.34375,101.25 L40.3125,97.03125 L41.25,98.90625 L64.21875,85.78125 L65.15625,87.65625 L99.375,67.96875 L99.375,61.40625 L30.9375,100.78125 L32.34375,101.25 Z M38.4375,105 L39.84375,105.9375 L47.8125,101.25 L48.75,103.125 L64.21875,94.21875 L65.15625,96.09375 L99.375,76.40625 L99.375,70.3125 L38.4375,105 Z M47.34375,110.15625 L54.84375,105.46875 L56.25,107.34375 L64.21875,103.125 L65.15625,105 L99.375,85.3125 L99.375,78.75 L46.40625,109.6875 L47.34375,110.15625 Z M64.6875,9.84375 L62.34375,8.4375 L60,7.5 L59.0625,6.5625 L3.75,38.4375 L3.75,39.84375 L17.34375,31.875 L18.75,33.75 L34.21875,24.84375 L35.15625,26.71875 L64.6875,9.84375 Z" transform="translate(23.438 18.75)"/>
  </g>
</svg>
