<svg xmlns="http://www.w3.org/2000/svg" width="150" height="150" viewBox="0 0 150 150">
  <g fill="none">
    <circle cx="75" cy="75" r="75" fill="#FFD800"/>
    <path fill="#FFF" d="M111.014062,60.403125 C111.28125,60.1359375 111.810937,60.1359375 112.33125,60.1359375 C120.239063,60.1359375 126.5625,66.8296875 126.5625,74.86875 C126.5625,82.36875 121.03125,88.2609375 113.915625,89.596875 L112.33125,89.596875 C109.696875,89.596875 107.0625,88.7953125 104.690625,87.4546875 C103.920827,86.9126293 102.997503,86.6316889 102.05625,86.653125 C101.001562,86.653125 99.946875,86.9203125 99.159375,87.4546875 C97.3125,88.528125 96.525,90.403125 96.525,92.5453125 L96.525,94.9546875 C95.9523576,101.775625 90.6687463,107.256956 83.8734375,108.079687 L82.29375,108.079687 C79.659375,108.079687 77.025,107.278125 74.653125,105.9375 C73.5984375,105.403125 72.8109375,105.135937 71.75625,105.135937 C70.7015625,105.135937 69.646875,105.403125 68.8546875,105.9375 C67.0125,107.010937 66.2203125,108.885937 66.2203125,111.028125 L66.2203125,113.4375 C65.6953125,120.403125 60.159375,125.760937 53.3109375,126.5625 L51.99375,126.5625 C44.0859375,126.5625 37.7625,119.864062 37.7625,111.829687 C38.025,104.329687 43.29375,98.1703125 50.409375,97.3640625 L51.99375,97.3640625 C54.628125,97.3640625 57.2625,98.1703125 59.634375,99.5109375 C60.404173,100.052996 61.3274974,100.333936 62.26875,100.3125 C63.3234375,100.3125 64.378125,100.045312 65.165625,99.5109375 C67.0125,98.4375 67.8,96.5625 67.8,94.4203125 C67.275,86.653125 72.8109375,79.6875 80.4515625,78.8859375 L82.03125,78.8859375 C84.665625,78.8859375 87.3,79.6875 89.671875,81.028125 C90.7265625,81.5625 91.51875,81.8296875 92.5734375,81.8296875 C93.6234375,81.8296875 94.6828125,81.5625 95.4703125,81.028125 C97.3125,79.9546875 98.1046875,78.0796875 98.1046875,75.9375 C97.5796875,68.1703125 103.373437,61.2046875 111.014062,60.403125 L111.014062,60.403125 Z M80.71875,41.9203125 C81.24375,41.653125 81.5109375,41.653125 82.2984375,41.653125 C90.20625,41.653125 96.5296875,48.346875 96.5296875,56.3859375 C96.2671875,63.8859375 90.9984375,70.0453125 83.878125,70.846875 L82.2984375,70.846875 C79.6640625,70.846875 77.0296875,70.0453125 74.6578125,68.7046875 C73.8880145,68.1626293 72.9646901,67.8816889 72.0234375,67.903125 C70.96875,67.903125 69.9140625,68.1703125 69.1265625,68.7046875 C67.2796875,69.778125 66.4875,71.653125 66.4875,73.7953125 L66.4875,76.2046875 C65.9625,83.165625 60.43125,88.5234375 53.578125,89.3296875 L52.2609375,89.3296875 C44.3578125,89.3296875 38.0296875,82.6359375 38.0296875,74.596875 C38.0296875,67.36875 43.303125,61.471875 50.4140625,60.403125 L51.9984375,60.403125 C54.6328125,60.403125 57.2671875,61.2046875 59.6390625,62.5453125 C60.4088605,63.0873707 61.3321849,63.3683111 62.2734375,63.346875 C63.328125,63.346875 64.3828125,63.0796875 65.1703125,62.5453125 C67.0171875,61.471875 67.8046875,59.596875 67.8046875,57.4546875 C67.2796875,49.6875 73.078125,42.721875 80.71875,41.9203125 Z M51.73125,23.4375 C59.5875,23.4375 65.9578125,29.915625 65.9578125,37.903125 C65.9578125,45.890625 59.5828125,52.3640625 51.73125,52.3640625 C43.8703125,52.3640625 37.5,45.890625 37.5,37.903125 C37.5,29.915625 43.875,23.4375 51.73125,23.4375 Z"/>
  </g>
</svg>
