<svg xmlns="http://www.w3.org/2000/svg" width="150" height="150" viewBox="0 0 150 150">
  <g fill="none" transform="translate(30)">
    <path fill="#384182" d="M39.315534,121.637168 L0,149.911504 L24.9587379,34.8672566 L39.315534,121.637168 Z M40.1106796,121.371681 L64.0533981,121.681416 L25.8864078,35.3097345 L40.1106796,121.371681 Z M66.3063107,119.469027 L84.638835,51.4159292 L77.7033981,42.920354 L66.3063107,119.469027 Z M57.4713592,12.7876106 L27.3,33.1415929 L71.3864078,18.8495575 L57.4713592,12.7876106 Z M53.6723301,12.7876106 L34.942233,13.4070796 L32.2033981,21.2389381 L53.6723301,12.7876106 Z"/>
    <path fill="#F79534" d="M76.3781553,40.3097345 L28.0951456,33.6725664 L71.6072816,19.9557522 L76.3781553,40.3097345 Z M64.9368932,14.7345133 L67.5873786,7.52212389 L53.6723301,1.46017699 L64.9368932,14.7345133 Z M68.9567961,6.81415929 L72.0932039,18.1415929 L90.6466019,13.2300885 L68.9567961,6.81415929 Z"/>
    <path fill="#F0513A" d="M65.1135922,121.238938 L26.4165049,34.5132743 L76.8640777,41.5929204 L65.1135922,121.238938 Z M56.0135922,12.7876106 L32.1592233,22.1238938 L26.4165049,32.7433628 L56.0135922,12.7876106 Z M41.2150485,5.7079646 L35.2514563,12.300885 L55.0417476,11.8141593 L41.2150485,5.7079646 Z M51.6402913,0.575221239 L42.1868932,4.95575221 L63.7441748,14.4690265 L51.6402913,0.575221239 Z M62.418932,0 L52.2587379,0 L67.9849515,6.10619469 L62.418932,0 Z M68.2941748,8.09734513 L65.8645631,15.3539823 L70.7237864,17.699115 L68.2941748,8.09734513 Z"/>
  </g>
</svg>
