<svg xmlns="http://www.w3.org/2000/svg" width="150" height="150" viewBox="0 0 150 150">
  <defs>
    <linearGradient id="strat-a" x1="0%" x2="100.004%" y1="-4.307%" y2="-4.307%">
      <stop offset="0%" stop-color="#FFF"/>
      <stop offset="0%" stop-color="#21BBC0"/>
      <stop offset="34%" stop-color="#20B9C0"/>
      <stop offset="100%" stop-color="#1387C9"/>
    </linearGradient>
  </defs>
  <path fill="url(#strat-a)" d="M10.18725,49.3730393 L75.81675,90.6019796 C75.8597877,90.631889 75.9169623,90.631889 75.96,90.6019796 L142.9125,48.4391447 C142.942685,48.4210764 142.963911,48.3912411 142.971035,48.3568663 C142.978159,48.3224914 142.970531,48.286713 142.95,48.258198 C142.941513,48.2422915 142.928455,48.2292737 142.9125,48.2208123 L76.575,6.07218397 C76.5319623,6.04227451 76.4747877,6.04227451 76.43175,6.07218397 L10.18725,49.1472297 C10.1572267,49.1695469 10.1377849,49.2032379 10.1326427,49.2403314 C10.1292642,49.2774249 10.1405639,49.3146253 10.16475,49.3431307 C10.170375,49.3543741 10.1779983,49.3645076 10.18725,49.3730393 Z M75.8175,138.943176 C74.9458546,138.943176 74.0926722,138.692807 73.36125,138.220134 L3.075,93.0956052 C3.02961818,93.043774 3.02961818,92.9664896 3.075,92.9146584 L6.0675,88.2735987 C6.11948963,88.2283552 6.19701037,88.2283552 6.249,88.2735987 L75.786,132.92333 C75.8290377,132.953239 75.8862123,132.953239 75.92925,132.92333 L141.831,90.7074072 C143.341269,89.7463593 144.253737,88.0821282 144.24975,86.2958956 L144.24975,75.9026735 C144.243071,75.829172 144.180513,75.7733357 144.1065,75.7748144 C144.085522,75.7761785 144.064954,75.7812417 144.04575,75.7897687 L77.48625,118.050554 C75.9985914,118.992512 74.0989086,118.992512 72.61125,118.050554 L5.3505,75.3897418 C2.0205827,73.3112977 -1.38423238e-05,69.6699369 -1.38423238e-05,65.753206 L-1.38423238e-05,51.2116676 C-0.00291467628,50.0363421 0.454564941,48.9063242 1.275,48.0622969 L1.5,47.8813502 L2.79225,46.9997956 L74.14275,0.641538462 L74.21775,0.596675632 C75.6798209,-0.235214877 77.4836952,-0.191752214 78.90375,0.70958042 L147.88125,44.5151425 C149.197129,45.3473295 149.994433,46.7928732 149.994433,48.3464282 C149.994433,49.8999832 149.197129,51.3455269 147.88125,52.1777138 L78.31425,95.9683217 C76.8337911,96.8874231 74.9579589,96.8874231 73.4775,95.9683217 L5.99325,53.6110812 C5.93053251,53.5746642 5.85013912,53.5945357 5.81175,53.6559441 C5.7996321,53.6764623 5.79437858,53.700293 5.79675,53.723986 L5.79675,65.7457289 C5.78943709,67.6759833 6.77669685,69.4747955 8.41125,70.5094137 L74.98575,112.695428 C75.0287877,112.725337 75.0859623,112.725337 75.129,112.695428 L143.03325,69.5074771 C144.751185,68.4101159 146.993096,68.5938209 148.50825,69.9561054 C149.475396,70.8742999 150.005698,72.1589101 149.967,73.489801 L149.967,86.2457988 C149.978707,90.0066559 148.063294,93.5130877 144.888,95.5436202 L78.23775,138.23808 C77.5116489,138.689331 76.6745992,138.931788 75.819,138.938687 L75.819,138.938687 L75.8175,138.943176 Z" transform="translate(0 6)"/>
</svg>
