<svg xmlns="http://www.w3.org/2000/svg" width="150" height="150" viewBox="0 0 150 150">
  <path fill="#211F6D" d="M2,13.5 C0,18 0,23.5 0,34 L0,116 C0,127 0,132.5 2,136.5 C4.18420559,141.688201 8.31179935,145.815794 13.5,148 C18,150 23.5,150 34,150 L116,150 C127,150 132.5,150 136.5,148 C141.688201,145.815794 145.815794,141.688201 148,136.5 C150,132 150,127 150,116 L150,34 C150,23 150,17.5 148,13.5 C145.815794,8.31179935 141.688201,4.18420559 136.5,2 C132,0 126.5,0 116,0 L34,0 C23.5,0 18,0 13.5,2 C8.31481827,4.18869332 4.18869332,8.31481827 2,13.5 Z M99,64.5000934 C91.5441559,64.5000934 85.5,58.4558441 85.5,51 C85.5,43.5441559 91.5441559,37.5 99,37.5 C106.455844,37.5 112.500093,43.5441559 112.500093,51 C112.51335,54.5844986 111.09532,58.0260386 108.560679,60.5606795 C106.026039,63.0953203 102.584499,64.5133502 99,64.5000934 L99,64.5000934 Z M64.5000934,51 C64.5000934,58.4558441 58.4558441,64.5 51,64.5 C43.5441559,64.5 37.5,58.4558441 37.5,51 C37.5,43.5441559 43.5441559,37.4999066 51,37.4999066 C54.5844986,37.4866498 58.0260386,38.9046797 60.5606795,41.4393205 C63.0953203,43.9739614 64.5133502,47.4155014 64.5000934,51 Z M99,85.4999066 C102.584499,85.4866498 106.026039,86.9046797 108.560679,89.4393205 C111.09532,91.9739614 112.51335,95.4155014 112.500093,99 C112.500093,104.46024 109.210831,109.38283 104.166226,111.472374 C99.1216221,113.561917 93.3150314,112.406914 89.4540585,108.545942 C85.5930855,104.684969 84.4380828,98.8783779 86.5276263,93.8337737 C88.6171698,88.7891694 93.5397597,85.4999066 99,85.4999066 Z M51,85.4999066 C56.4602403,85.4999066 61.3828302,88.7891694 63.4723737,93.8337737 C65.5619172,98.8783779 64.4069145,104.684969 60.5459415,108.545942 C56.6849686,112.406914 50.8783779,113.561917 45.8337737,111.472374 C40.7891694,109.38283 37.4999066,104.46024 37.4999066,99 C37.4866498,95.4155014 38.9046797,91.9739614 41.4393205,89.4393205 C43.9739614,86.9046797 47.4155014,85.4866498 51,85.4999066 Z"/>
</svg>
