<svg xmlns="http://www.w3.org/2000/svg" width="150" height="150" viewBox="0 0 150 150">
  <g fill="#0064D3" transform="matrix(1 0 0 -1 0 150)">
    <path d="M69.0199336,149.726368 C50.5066445,148.134328 33.961794,140.348259 21.179402,127.21393 C9.39368771,115.099502 2.31727575,100.174129 0.373754153,83.3333333 C-0.224252492,78.3333333 -0.0249169435,68.2089552 0.722591362,63.5572139 C4.08637874,42.7860697 15.4734219,24.7263682 32.5166113,13.1343284 C42.2840532,6.49253731 52.3006645,2.58706468 64.5348837,0.671641791 C69.4435216,-0.0995024876 80.5564784,-0.0995024876 85.4651163,0.671641791 C95.3820598,2.21393035 104.725914,5.42288557 112.275748,9.82587065 C132.458472,21.6169154 145.589701,40.6716418 149.277409,63.5572139 C149.950166,67.6865672 150.199336,77.8855721 149.750831,82.2636816 C147.358804,105.746269 134.725914,126.044776 114.61794,138.656716 C101.312292,147.014925 84.5930233,151.069652 69.0199336,149.726368 Z M84.4684385,142.661692 C94.7093023,141.094527 104.053156,137.61194 112.126246,132.338308 C129.443522,121.0199 140.506645,103.258706 143.048173,82.7114428 C143.446844,79.4776119 143.446844,70.4726368 143.048173,67.2885572 C140.257475,44.9253731 127.524917,25.9950249 107.990033,15.0995025 C101.41196,11.4427861 93.9119601,8.85572139 85.589701,7.41293532 C82.7242525,6.91542289 81.5033223,6.84079602 75,6.84079602 C66.9518272,6.86567164 64.2358804,7.1641791 58.1810631,8.70646766 C21.5780731,18.1343284 -0.622923588,55.2487562 8.62126246,91.6169154 C14.3272425,114.104478 31.0465116,132.164179 53.1478405,139.726368 C57.6578073,141.243781 63.4883721,142.512438 68.39701,143.00995 C71.6860465,143.358209 81.3538206,143.134328 84.4684385,142.661692 Z"/>
    <path d="M70.8887043,138.905473 C64.9833887,138.333333 61.2707641,137.661692 57.1096346,136.442786 C45.8471761,133.159204 35.2574751,126.567164 27.6079734,118.059701 C18.8870432,108.358209 13.8039867,97.7860697 11.5614618,84.5771144 C10.9385382,80.8955224 10.8139535,71.5920398 11.3122924,67.4129353 C13.9534884,45.8706468 27.333887,27.0149254 46.6943522,17.5621891 C52.923588,14.5024876 59.0780731,12.5870647 65.9053156,11.5422886 C70.1162791,10.8955224 79.8837209,10.8955224 84.0946844,11.5422886 C105.348837,14.7761194 123.164452,27.761194 132.583056,46.8905473 C135.772425,53.358209 137.815615,60.2238806 138.687708,67.4129353 C139.011628,70.0248756 139.061462,72.039801 138.961794,76.4925373 C138.812292,82.4129353 138.513289,85.0497512 137.44186,89.6268657 C131.387043,115.149254 110.332226,134.452736 84.3189369,138.308458 C81.0299003,138.781095 73.230897,139.154229 70.8887043,138.905473 Z M108.139535,102.114428 L108.139535,96.0199005 L99.4186047,96.0199005 L90.6976744,96.0199005 L90.6976744,92.2885572 L90.6976744,88.5572139 L99.4186047,88.5572139 L108.139535,88.5572139 L108.139535,82.4626866 L108.139535,76.3681592 L99.4186047,76.3681592 L90.6976744,76.3681592 L90.6976744,66.5422886 L90.6976744,56.7164179 L99.4186047,56.7164179 L108.139535,56.7164179 L108.139535,50.6965174 L108.139535,44.6517413 L99.4933555,44.6517413 L90.8222591,44.6517413 L90.7475083,39.0049751 L90.6976744,33.3333333 L84.717608,33.3333333 L78.7375415,33.3333333 L78.6877076,39.0049751 L78.6129568,44.6517413 L75.2990033,44.6517413 L71.9601329,44.6517413 L71.9352159,39.0547264 L71.8853821,33.4577114 L65.8554817,33.3830846 L59.8006645,33.3333333 L59.7508306,38.9800995 L59.6760797,44.6517413 L57.6827243,44.800995 C50.3322259,45.3482587 43.3305648,50.1243781 40.0166113,56.8159204 C38.2724252,60.2736318 37.7990033,62.3880597 37.7740864,66.5422886 C37.7740864,70.2985075 38.0481728,71.8159204 39.2940199,74.8756219 C42.4335548,82.5124378 49.6594684,87.8358209 57.7574751,88.4825871 L59.8006645,88.6318408 L59.8006645,92.3134328 L59.8006645,96.0199005 L51.2043189,96.0199005 L42.6079734,96.0199005 L42.6079734,102.114428 L42.6079734,108.208955 L75.3737542,108.208955 L108.139535,108.208955 L108.139535,102.114428 Z"/>
    <polygon points="71.935 92.363 72.01 88.682 75.374 88.607 78.738 88.532 78.738 92.289 78.738 96.02 75.324 96.02 71.885 96.02"/>
    <path d="M56.3870432,75.8955224 C53.7458472,74.9253731 51.9269103,73.2338308 50.6312292,70.4726368 C50.0332226,69.2039801 49.9584718,68.7313433 49.9584718,66.5422886 C49.9584718,64.3532338 50.0332226,63.880597 50.6312292,62.6368159 C51.9269103,59.8507463 54.7425249,57.6119403 57.7574751,56.9900498 C58.4800664,56.840796 59.2524917,56.7164179 59.4269103,56.7164179 C59.7508306,56.7164179 59.8006645,58.1343284 59.8006645,66.5422886 L59.8006645,76.3681592 L58.7541528,76.3681592 C58.1561462,76.3432836 57.1096346,76.1442786 56.3870432,75.8955224 Z"/>
    <polygon points="71.935 66.617 72.01 56.841 75.374 56.766 78.738 56.692 78.738 66.542 78.738 76.368 75.324 76.368 71.885 76.368"/>
  </g>
</svg>
