<svg xmlns="http://www.w3.org/2000/svg" width="147" height="146" viewBox="0 0 147 146">
  <defs>
    <linearGradient id="tfuel-a" x1=".016%" x2="100.016%" y1="50.006%" y2="50.006%">
      <stop offset="0%" stop-color="#FFAC00"/>
      <stop offset="100%" stop-color="#FF4E00"/>
    </linearGradient>
    <linearGradient id="tfuel-b" x1="49.871%" x2="49.871%" y1="100.059%" y2=".574%">
      <stop offset="0%" stop-color="#FFAC00"/>
      <stop offset="100%" stop-color="#FF4E00"/>
    </linearGradient>
  </defs>
  <g fill="none" transform="translate(-1 -3)">
    <circle cx="74.545" cy="75.909" r="72.727" fill="url(#tfuel-a)"/>
    <path fill="#FFF" d="M115,90 C115,83.6363636 112.727273,77.2727273 109.545455,71.8181818 C107.727273,68.1818182 105,64.5454545 102.272727,61.3636364 C101.818182,62.7272727 101.818182,64.0909091 101.363636,65.4545455 C100.454545,71.3636364 93.6363636,74.5454545 88.1818182,71.8181818 C84.0909091,70 82.2727273,64.5454545 84.0909091,60 C84.5454545,58.6363636 85,56.8181818 85.4545455,55.4545455 C87.7272727,47.2727273 86.8181818,39.0909091 82.7272727,31.8181818 C80.4545455,28.1818182 77.7272727,25 74.5454545,22.2727273 C72.7272727,20.4545455 70.9090909,19.0909091 68.6363636,17.2727273 L68.6363636,20 C68.6363636,24.0909091 69.0909091,27.7272727 68.1818182,31.8181818 C67.2727273,36.8181818 64.5454545,40.4545455 61.3636364,44.5454545 C58.1818182,48.1818182 54.5454545,51.8181818 51.3636364,55.4545455 C48.1818182,59.0909091 45,62.2727273 41.8181818,66.3636364 C37.7272727,71.8181818 35,78.1818182 34.0909091,85.4545455 C34.0909091,86.3636364 34.0909091,87.2727273 33.6363636,88.1818182 L33.6363636,90 C34.0909091,91.8181818 34.0909091,93.1818182 33.6363636,95 L33.6363636,95.9090909 C34.0909091,97.2727273 34.0909091,98.6363636 34.5454545,99.5454545 C35,100.454545 35,101.818182 35.4545455,102.727273 C37.2727273,109.545455 41.3636364,115 45.9090909,120 C53.6363636,127.727273 63.1818182,133.181818 73.6363636,135.454545 C74.0909091,135.454545 74.0909091,135.454545 74.0909091,135.909091 L76.8181818,135.909091 C78.1818182,132.727273 80,130 82.7272727,128.181818 C86.3636364,125 90.9090909,123.181818 95.4545455,121.818182 C103.181818,118.636364 108.636364,113.636364 112.272727,106.363636 C114.545455,100 115.454545,95.4545455 115,90 L115,90 Z M96.3636364,95.4545455 L83.1818182,95.4545455 C81.8181818,95.4545455 81.8181818,95.9090909 81.8181818,96.8181818 L81.8181818,110 C81.8181818,110.909091 81.8181818,110.909091 80.9090909,110.909091 L67.7272727,110.909091 C66.8181818,110.909091 66.8181818,110.454545 66.8181818,109.545455 L66.8181818,96.8181818 C66.8181818,95.9090909 66.8181818,95.4545455 65.4545455,95.4545455 L52.7272727,95.4545455 C52.2727273,95.4545455 51.8181818,95.4545455 51.3636364,95 L51.3636364,81.3636364 C51.3636364,80.4545455 51.8181818,80 52.7272727,80 L96.3636364,80 C97.2727273,80 97.2727273,80 97.2727273,80.9090909 L97.2727273,94.0909091 C97.2727273,95.4545455 96.8181818,95.4545455 96.3636364,95.4545455 L96.3636364,95.4545455 Z"/>
    <path fill="#FFF" d="M100.454545,56.8181818 C101.363636,57.2727273 101.818182,57.2727273 102.272727,56.3636364 C102.727273,55 103.636364,54.0909091 104.545455,53.1818182 C107.272727,51.3636364 108.181818,48.6363636 107.727273,45.9090909 C106.818182,40.4545455 104.090909,35.9090909 100.454545,31.8181818 C101.363636,35.9090909 99.5454545,38.6363636 97.2727273,41.3636364 C95.9090909,43.1818182 95,45 95,46.8181818 C94.5454545,50.9090909 96.8181818,55 100.454545,56.8181818 L100.454545,56.8181818 Z"/>
    <path fill="url(#tfuel-b)" d="M91.8181818,80 L96.3636364,80 C97.2727273,80 97.2727273,80 97.2727273,80.9090909 L97.2727273,94.0909091 C97.2727273,95 96.8181818,95 96.3636364,95 L83.1818182,95 C81.8181818,95.4545455 81.8181818,95.9090909 81.8181818,96.8181818 L81.8181818,110 C81.8181818,110.909091 81.8181818,110.909091 80.9090909,110.909091 L67.7272727,110.909091 C66.8181818,110.909091 66.8181818,110.454545 66.8181818,109.545455 L66.8181818,96.8181818 C66.8181818,95.9090909 66.8181818,95.4545455 65.4545455,95.4545455 L52.7272727,95.4545455 C52.2727273,95.4545455 51.8181818,95.4545455 51.3636364,95 L51.3636364,81.3636364 C51.3636364,80.4545455 51.8181818,80 52.7272727,80 L90.4545455,80 C90.9090909,80.4545455 91.3636364,80 91.8181818,80 L91.8181818,80 Z"/>
  </g>
</svg>
