<svg xmlns="http://www.w3.org/2000/svg" width="150" height="150" viewBox="0 0 150 150">
  <g fill="none">
    <circle cx="75" cy="75" r="75" fill="#1A1F36"/>
    <path fill="#FFF" d="M86.8359375,67.8 C88.2130772,67.803117 89.3476675,66.7196735 89.4080326,65.3438539 C89.4683976,63.9680343 88.4330582,62.7893837 87.0609375,62.671875 L69.0609375,62.671875 L69.0609375,58.171875 C68.6986299,56.8928135 67.5309478,56.0099479 66.2015625,56.0099479 C64.8721772,56.0099479 63.7044951,56.8928135 63.3421875,58.171875 L63.3421875,62.671875 L58.528125,62.671875 C57.1120324,62.671875 55.9640625,63.8198449 55.9640625,65.2359375 C55.9640625,66.6520301 57.1120324,67.8 58.528125,67.8 L63.346875,67.8 L63.346875,83.45625 C63.3931455,91.6556469 70.039575,98.28534 78.2390625,98.3109375 C81.5235936,98.2608999 84.694957,97.103022 87.2390625,95.025 L88.3171875,94.125 C89.2638226,93.4614324 89.7475144,92.3148877 89.5622118,91.1737904 C89.3769091,90.0326932 88.5552651,89.0981218 87.4472976,88.7682008 C86.33933,88.4382798 85.1402794,88.7711463 84.3609375,89.625 L83.55,90.3 C80.9175782,92.4792237 77.2479647,92.9018632 74.1890625,91.378125 C71.0642388,89.8889628 69.0703923,86.739633 69.0609375,83.278125 L69.0609375,67.8 L86.8359375,67.8 L86.8359375,67.8 Z M116.085938,85.2609375 C116.206172,84.6753038 116.088391,84.0658967 115.758592,83.5672421 C115.428794,83.0685874 114.914099,82.7216893 114.328125,82.603125 L113.203125,82.603125 C112.172703,82.5990077 111.277069,83.309674 111.046875,84.3140625 C108.068043,97.3445036 97.9468344,107.552034 84.9421606,110.641418 C71.9374868,113.730801 58.306907,109.165734 49.7860451,98.867154 C41.2651833,88.5685741 39.3332267,74.3242738 44.803125,62.128125 C48.060788,54.2639133 54.3099095,48.0164781 62.175,44.7609375 C77.8585174,37.7589263 96.3055051,43.0354251 105.914062,57.271875 C106.598913,58.2711207 107.951964,58.5487758 108.975,57.9 L109.378125,57.628125 C110.503261,56.9169724 110.846138,55.432563 110.146875,54.3 C99.6988597,38.9213124 80.1220425,32.6315253 62.671875,39.046875 C51.7741387,42.7921688 43.1662742,51.2827787 39.271875,62.128125 C33.8248783,76.2183211 36.7308521,92.1724132 46.7961404,103.437109 C56.8614287,114.701805 72.3891656,119.378035 87.0011879,115.544994 C101.61321,111.711953 112.846137,100.015838 116.085938,85.2609375 L116.085938,85.2609375 Z M79.096875,23.203125 L74.596875,23.203125 C58.1213631,23.8953965 42.8798976,32.1273402 33.2668773,45.525533 C23.6538569,58.9237259 20.7377686,75.9989593 25.359375,91.828125 C25.7697736,93.183324 27.2010037,93.9493049 28.55625,93.5390625 L28.9171875,93.5390625 C30.0404528,92.996525 30.610275,91.7243176 30.2671875,90.525 C24.1386897,69.5349246 32.8104207,47.0392646 51.4422728,35.5939233 C70.0741248,24.148582 94.0601083,26.5829682 110.012499,41.5383344 C125.96489,56.4937007 129.940089,80.2729233 119.719348,99.6036813 C109.498607,118.934439 87.6086004,129.037966 66.2671875,124.275 C65.3505215,124.080416 64.4037022,124.430684 63.834375,125.175 C63.2681869,125.880817 63.1078064,126.829463 63.4105054,127.682177 C63.7132043,128.53489 64.4358224,129.170087 65.3203125,129.360937 C84.8115244,132.932038 104.682715,125.457526 116.988521,109.926034 C129.294327,94.3945417 132.026585,73.3406271 124.092821,55.1825577 C116.159056,37.0244883 98.8539658,24.7254475 79.096875,23.203125 Z"/>
  </g>
</svg>
