<svg xmlns="http://www.w3.org/2000/svg" width="150" height="150" viewBox="0 0 150 150">
  <path fill="#FF060A" d="M139.655645,46.8 C132.73629,40.4076923 123.164516,30.6461538 115.36871,23.7230769 L114.907419,23.4 C114.139906,22.7833343 113.274535,22.2997142 112.347258,21.9692308 L112.347258,21.9692308 C93.5496774,18.4615385 6.06596774,2.1 4.35919355,2.30769231 C3.88094636,2.37470782 3.4238122,2.54819681 3.02145161,2.81538462 L2.58322581,3.16153846 C2.04361829,3.70984796 1.63377717,4.37225512 1.38387097,5.1 L1.26854839,5.4 L1.26854839,7.03846154 L1.26854839,7.29230769 C11.1170968,34.7307692 50.003871,124.615385 57.6612903,145.707692 C58.1225806,147.138462 58.9990323,149.861538 60.6366129,150 L61.0056452,150 C61.8820968,150 65.6185484,145.061538 65.6185484,145.061538 C65.6185484,145.061538 132.413387,64.0153846 139.17129,55.3846154 C140.046048,54.3214847 140.818306,53.1779271 141.477742,51.9692308 C141.820122,50.045537 141.128415,48.0831851 139.655645,46.8 Z M82.7554839,56.2384615 L111.263226,32.5846154 L127.985,48 L82.7554839,56.2384615 Z M71.6845161,54.6923077 L22.6032258,14.4461538 L102.014355,29.1 L71.6845161,54.6923077 Z M76.1129032,65.2384615 L126.347419,57.1384615 L68.9167742,126.369231 L76.1129032,65.2384615 Z M15.9375806,18.4615385 L67.5790323,62.3076923 L60.106129,126.415385 L15.9375806,18.4615385 Z" transform="translate(3)"/>
</svg>
