<svg xmlns="http://www.w3.org/2000/svg" width="150" height="150" viewBox="0 0 150 150">
  <g fill="none">
    <path fill="#002868" d="M75,150 L75,150 C33.75,150 0,116.25 0,75 L0,75 C0,33.75 33.75,0 75,0 L75,0 C116.25,0 150,33.75 150,75 L150,75 C150,116.25 116.25,150 75,150 Z"/>
    <path fill="#FFF" d="M112.8,120 L37.2,120 C33.24,120 30,116.76 30,112.8 L30,37.2 C30,33.24 33.24,30 37.2,30 L112.8,30 C116.76,30 120,33.24 120,37.2 L120,112.8 C120,116.76 116.76,120 112.8,120 Z"/>
    <path fill="#002868" d="M5.862 16.44C5.625 16.44 5.433 16.224 5.433 15.987L5.433 3.894C5.433 3.657 5.241 3.441 5.004 3.441L.735 3.441C.495 3.441.282 3.249.282 3.012L.282.675C.282.438.498.222.735.222L13.875.222C14.112.222 14.328.435 14.328.675L14.328 3.012C14.328 3.249 14.112 3.441 13.875 3.441L9.63 3.441C9.393 3.441 9.177 3.654 9.177 3.894L9.177 15.987C9.177 16.224 8.985 16.44 8.748 16.44L5.862 16.44zM27.444.675C27.444.438 27.636.222 27.873.222L30.735.222C30.972.222 31.188.435 31.188.675L31.188 8.928C31.188 13.818 28.422 16.656 24.033 16.656 19.668 16.656 16.926 13.818 16.926 8.928L16.926.675C16.926.438 17.118.222 17.355.222L20.217.222C20.454.222 20.67.435 20.67.675L20.67 9.045C20.67 11.454 21.909 13.17 24.057 13.17 26.205 13.17 27.444 11.454 27.444 9.045L27.444.675 27.444.675zM44.331 5.517C43.95 5.517 43.83 5.373 43.686 5.088 43.185 3.918 42.087 3.18 40.419 3.18 38.916 3.18 37.653 3.705 37.653 4.707 37.653 5.805 38.823 6.258 41.397 6.567 45.309 7.02 47.55 8.214 47.55 11.313 47.55 14.796 44.496 16.632 40.587 16.632 37.2 16.632 34.29 14.985 33.837 11.529 33.789 11.196 33.957 11.076 34.29 11.076L36.915 11.076C37.248 11.076 37.44 11.22 37.536 11.481 37.893 12.627 39.111 13.509 40.875 13.509 42.426 13.509 43.785 12.936 43.785 11.721 43.785 10.266 42.354 10.005 39.492 9.645 36.201 9.216 33.912 8.262 33.912 5.232 33.912 2.202 36.513.033 40.59.033 44.262.033 46.815 2.013 47.34 4.971 47.412 5.304 47.316 5.52 46.959 5.52L44.331 5.52 44.331 5.517zM50.793 16.44C50.556 16.44 50.364 16.224 50.364 15.987L50.364.675C50.364.438 50.556.222 50.793.222L57.279.222C62.097.222 65.841 3.537 65.841 8.379 65.841 13.149 62.145 16.44 57.279 16.44L50.793 16.44zM57.279 13.218C59.88 13.218 61.905 11.166 61.905 8.328 61.905 5.49 59.877 3.438 57.255 3.438L54.561 3.438C54.324 3.438 54.132 3.651 54.132 3.891L54.132 12.786C54.132 13.023 54.324 13.215 54.561 13.215L57.279 13.215 57.279 13.218z" transform="translate(41.7 94.5)"/>
    <path fill="#002868" d="M117.6,85.8 L32.4,85.8 C31.74,85.8 31.2,85.26 31.2,84.6 L31.2,37.2 C31.2,33.9 33.9,31.2 37.2,31.2 L112.8,31.2 C116.1,31.2 118.8,33.9 118.8,37.2 L118.8,84.6 C118.8,85.26 118.26,85.8 117.6,85.8 Z"/>
    <path fill="#FFF" d="M79.419,76.068 L71.619,76.068 C71.124,76.068 70.719,75.663 70.719,75.168 L70.719,42.168 C70.719,41.673 71.124,41.268 71.619,41.268 L79.419,41.268 C79.914,41.268 80.319,41.673 80.319,42.168 L80.319,75.168 C80.319,75.663 79.914,76.068 79.419,76.068 Z"/>
    <path fill="#FFF" d="M92.7,50.868 L57.3,50.868 C56.805,50.868 56.4,50.463 56.4,49.968 L56.4,42.168 C56.4,41.673 56.805,41.268 57.3,41.268 L92.7,41.268 C93.195,41.268 93.6,41.673 93.6,42.168 L93.6,49.968 C93.6,50.463 93.195,50.868 92.7,50.868 Z"/>
  </g>
</svg>
