<svg xmlns="http://www.w3.org/2000/svg" width="150" height="150" viewBox="0 0 150 150">
  <g fill="none">
    <path fill="#2775CA" d="M75,150 C116.56275,150 150,116.56275 150,75 C150,33.43725 116.56275,0 75,0 C33.43725,0 0,33.43725 0,75 C0,116.56275 33.43725,150 75,150 Z"/>
    <path fill="#FFF" d="M95.625,86.87475 C95.625,75.9375 89.0625,72.1875 75.9375,70.62525 C66.5625,69.375 64.6875,66.87525 64.6875,62.49975 C64.6875,58.12425 67.81275,55.3125 74.0625,55.3125 C79.6875,55.3125 82.81275,57.1875 84.375,61.875 C84.68775,62.8125 85.62525,63.43725 86.56275,63.43725 L91.56225,63.43725 C92.8125,63.43725 93.75,62.49975 93.75,61.25025 L93.75,60.9375 C92.49975,54.06225 86.87475,48.75 79.6875,48.12525 L79.6875,40.62525 C79.6875,39.375 78.75,38.4375 77.18775,38.12475 L72.50025,38.12475 C71.25,38.12475 70.3125,39.06225 69.99975,40.62525 L69.99975,47.8125 C60.62475,49.06275 54.68775,55.3125 54.68775,63.12525 C54.68775,73.43775 60.9375,77.49975 74.0625,79.06275 C82.81275,80.625 85.62525,82.5 85.62525,87.50025 C85.62525,92.5005 81.24975,95.93775 75.31275,95.93775 C67.18725,95.93775 64.37475,92.49975 63.43725,87.81225 C63.12525,86.56275 62.18775,85.93725 61.25025,85.93725 L55.93725,85.93725 C54.68775,85.93725 53.75025,86.87475 53.75025,88.125 L53.75025,88.43775 C54.99975,96.24975 60,101.87475 70.3125,103.43775 L70.3125,110.93775 C70.3125,112.18725 71.25,113.12475 72.81225,113.4375 L77.49975,113.4375 C78.75,113.4375 79.6875,112.5 80.00025,110.93775 L80.00025,103.43775 C89.37525,101.87475 95.625,95.31225 95.625,86.87475 L95.625,86.87475 Z"/>
    <path fill="#FFF" d="M59.0625,119.68725 C34.6875,110.93775 22.18725,83.75025 31.25025,59.68725 C35.93775,46.56225 46.25025,36.5625 59.0625,31.875 C60.31275,31.25025 60.9375,30.31275 60.9375,28.74975 L60.9375,24.375 C60.9375,23.12475 60.31275,22.18725 59.0625,21.87525 C58.74975,21.87525 58.125,21.87525 57.81225,22.18725 C28.125,31.56225 11.87475,63.12525 21.24975,92.8125 C26.87475,110.31225 40.3125,123.75 57.81225,129.375 C59.0625,129.99975 60.31275,129.375 60.62475,128.12475 C60.9375,127.81275 60.9375,127.5 60.9375,126.87525 L60.9375,122.49975 C60.9375,121.56225 60,120.31275 59.0625,119.68725 Z M92.18775,22.18725 C90.9375,21.5625 89.68725,22.18725 89.37525,23.4375 C89.0625,23.75025 89.0625,24.06225 89.0625,24.68775 L89.0625,29.0625 C89.0625,30.31275 90,31.56225 90.9375,32.18775 C115.3125,40.93725 127.81275,68.12475 118.74975,92.18775 C114.06225,105.31275 103.74975,115.3125 90.9375,120 C89.68725,120.62475 89.0625,121.56225 89.0625,123.12525 L89.0625,127.5 C89.0625,128.75025 89.68725,129.68775 90.9375,129.99975 C91.25025,129.99975 91.875,129.99975 92.18775,129.68775 C121.875,120.31275 138.12525,88.74975 128.75025,59.0625 C123.12525,41.25 109.37475,27.81225 92.18775,22.18725 Z"/>
  </g>
</svg>
