<svg xmlns="http://www.w3.org/2000/svg" xmlns:xlink="http://www.w3.org/1999/xlink" width="150" height="150" viewBox="0 0 150 150">
  <defs>
    <ellipse id="usds-a" cx="73.992" cy="75" rx="73.992" ry="75"/>
  </defs>
  <g fill="none" fill-rule="evenodd" transform="translate(1)">
    <ellipse cx="73.992" cy="75" fill="#5C8FE8" fill-rule="nonzero" rx="73.992" ry="75"/>
    <mask id="usds-b" fill="#fff">
      <use xlink:href="#usds-a"/>
    </mask>
    <path fill="#FFF" fill-rule="nonzero" d="M74.2744917,117.969158 C66.4545283,117.768188 60.183918,115.788936 55.4382612,112.019222 C54.4561913,111.233612 52.8641395,109.6563 52.1382614,108.748889 C49.5824386,105.545546 48.1184829,101.836733 47.618298,97.3179485 C47.484102,96.1060375 47.4353035,93.5056052 47.520701,92.3058743 C47.7768932,88.8345707 48.5637694,86.0331684 50.0399247,83.3657457 C50.2839175,82.9272656 50.4913109,82.5435952 50.5035105,82.519235 C50.5157101,82.4887849 48.2343793,82.4705148 45.4284642,82.4705148 L40.3290184,82.4705148 L40.3290184,79.9431624 L40.3290184,77.4158104 L47.4414033,77.4158104 L54.559888,77.4158104 L55.0844721,76.9103399 C56.3593336,75.6862484 57.7378917,74.6570378 60.4340105,72.9274763 C60.5255075,72.872666 58.2807753,72.8543959 50.4120134,72.8543959 L40.2680203,72.8483059 L40.2680203,70.3209535 L40.2680203,67.7936015 L55.3650636,67.7936015 L70.4621068,67.7936015 L71.8223661,67.1176107 C77.2085028,64.4258284 79.160444,63.2017369 81.0452868,61.3138351 C82.564141,59.7974241 83.2595201,58.5855126 83.558411,56.9290315 C83.680407,56.2652207 83.6926066,54.7975295 83.5828102,54.0301887 C83.3327177,52.270177 82.625139,50.8085753 81.4783739,49.6758345 C79.7826249,47.994993 77.3061001,47.0449521 73.7438077,46.7160918 C72.7007393,46.6186517 69.2665433,46.6795517 68.0831789,46.8074419 C61.830868,47.5077925 56.377633,49.188634 46.691126,53.3968281 L46.4898321,53.482088 L46.4898321,45.2544904 L46.4898321,37.0329828 L47.2035105,36.6980325 C52.1931596,34.3472903 58.0489827,32.8247889 64.240295,32.2645084 C67.0279108,32.0087281 71.4136782,31.9356481 73.7560074,32.0939882 C78.9469503,32.4532986 83.1314237,33.3607094 86.7974128,34.9136608 C92.5922378,37.3740231 97.014604,41.551767 99.192238,46.6247417 C100.759891,50.2726552 101.363772,54.6330992 100.924586,59.1336133 C100.650094,61.9837359 99.9486151,64.5171784 98.7774503,66.8801005 C98.5517576,67.3246707 98.3626631,67.7205211 98.3504635,67.7448813 C98.3382639,67.7692414 100.430501,67.7936015 102.998523,67.7936015 L107.670982,67.7936015 L107.670982,70.3209535 L107.670982,72.8483059 L100.961185,72.8483059 L94.2513874,72.8483059 L93.5072099,73.4938466 C92.2262486,74.5961375 89.9937164,76.209989 88.2735683,77.2818302 L88.0600746,77.4158104 L97.8990771,77.4158104 L107.73198,77.4158104 L107.73198,79.9431624 L107.73198,82.4705148 L93.0619232,82.4705148 L78.3857674,82.4705148 L75.7201482,83.8042264 C70.5719038,86.3863886 68.9432532,87.3790595 67.3939,88.8589308 C65.4724579,90.6981123 64.6977813,92.5921042 64.8075783,95.1681769 C64.8929755,97.2631387 65.5883546,98.95007 66.9486134,100.362951 C68.839556,102.330023 71.4868759,103.237434 75.3724583,103.237434 C80.6243999,103.237434 85.5164515,102.074243 93.4340122,98.9318004 C94.2513874,98.6090298 94.9345669,98.3593396 94.9467666,98.3715196 C94.965066,98.3897897 100.357303,111.349322 100.637894,112.043582 C100.698892,112.195833 96.050833,114.028924 93.0619232,115.021595 C86.2240302,117.305347 80.9293906,118.133588 74.2744917,117.969158 Z" mask="url(#usds-b)" transform="matrix(1 0 0 -1 0 150)"/>
  </g>
</svg>
