<svg xmlns="http://www.w3.org/2000/svg" xmlns:xlink="http://www.w3.org/1999/xlink" width="150" height="150" viewBox="0 0 150 150">
  <defs>
    <circle id="usdt-a" cx="75" cy="75" r="75"/>
    <circle id="usdt-c" cx="75" cy="75" r="75"/>
  </defs>
  <g fill="none" fill-rule="evenodd">
    <circle cx="75" cy="75" r="75" fill="#50AF95" fill-rule="nonzero"/>
    <mask id="usdt-b" fill="#fff">
      <use xlink:href="#usdt-a"/>
    </mask>
    <path fill="#50AF95" fill-rule="nonzero" d="M28.0840839,17.880272 L1.02546476,74.7393666 C0.814117885,75.1734594 0.909805496,75.6946311 1.26155547,76.0252568 L74.3403758,146.080035 C74.7716807,146.493821 75.4524048,146.493821 75.8837098,146.080035 L148.96253,76.0296309 C149.31428,75.6990048 149.409968,75.177833 149.198621,74.7437402 L122.140001,17.8846458 C121.961661,17.4946411 121.571879,17.2458269 121.143174,17.2458269 L29.0896555,17.2458269 C28.6588107,17.2407122 28.2650194,17.4890699 28.0840839,17.880272 L28.0840839,17.880272 Z" mask="url(#usdt-b)"/>
    <mask id="usdt-d" fill="#fff">
      <use xlink:href="#usdt-c"/>
    </mask>
    <path fill="#FFF" fill-rule="nonzero" d="M85.2986463,80.8149409 L85.2986463,80.8149409 C84.7744965,80.8544647 82.0663897,81.01695 76.0255636,81.01695 C71.2208575,81.01695 67.8095162,80.8720303 66.6127075,80.8149409 L66.6127075,80.8149409 C48.0447024,79.993731 34.1853093,76.7440227 34.1853093,72.8531555 C34.1853093,68.9622882 48.0447024,65.7169717 66.6127075,64.882587 L66.6127075,77.578407 C67.826988,77.6662372 71.303848,77.8726376 76.1085541,77.8726376 C81.8742012,77.8726376 84.7613928,77.6311051 85.2811749,77.5827987 L85.2811749,64.8913701 C103.809869,65.721363 117.638686,68.9710713 117.638686,72.8531555 C117.638686,76.7352397 103.814237,79.984948 85.2811749,80.8105496 L85.2811749,80.8105496 L85.2986463,80.8149409 Z M85.2986463,63.5783122 L85.2986463,52.2175071 L111.156701,52.2175071 L111.156701,34.8930481 L40.7546531,34.8930481 L40.7546531,52.2175071 L66.6083398,52.2175071 L66.6083398,63.5739205 C45.5943024,64.5444417 29.7911872,68.7295392 29.7911872,73.7446295 C29.7911872,78.7597199 45.5943024,82.9404261 66.6083398,83.9153386 L66.6083398,120.320856 L85.2942786,120.320856 L85.2942786,83.9021639 C106.260269,82.931643 122.037176,78.7509369 122.037176,73.7402378 C122.037176,68.7295392 106.273372,64.548833 85.2942786,63.5739205 L85.2942786,63.5739205 L85.2986463,63.5783122 Z" mask="url(#usdt-d)"/>
  </g>
</svg>
