<svg xmlns="http://www.w3.org/2000/svg" width="150" height="150" viewBox="0 0 150 150">
  <g fill="none">
    <rect width="149.738" height="150" fill="#0E1736"/>
    <g transform="translate(15.108 36.225)">
      <ellipse cx="53.013" cy="6.844" fill="#FFF" rx="6.07" ry="6.038"/>
      <path fill="#D1A911" d="M0 25.6530909L8.10728968 54.585977C9.03433246 55.7219667 9.74549822 56.4311061 10.240787 56.7133951 10.8872758 57.0818603 12.3597827 57.1388788 12.8009837 57.1388788 13.3077265 57.1388788 13.8114713 57.1994651 14.5077815 56.7133951 14.912202 56.431083 15.4811346 55.7219436 16.2145794 54.585977L21.3349729 40.119534 26.8820658 54.585977C27.6051969 55.7209962 28.1741293 56.4301355 28.5888637 56.7133951 29.259262 57.1712713 30.2305341 57.1388788 30.7223609 57.1388788 31.2738936 57.1388788 32.4102259 57.2891879 33.2825576 56.7133951 33.7008388 56.4373036 34.2697716 55.7281642 34.9893556 54.585977L41.8165468 25.6530909C41.750096 24.7394642 41.4656296 23.8884969 40.9631479 23.1001892 40.2094252 21.9177276 38.9598383 21.1128831 37.9762516 20.9727711 37.0422602 20.839724 35.5896116 21.0006195 34.562656 21.8237383 34.0930211 22.2001571 33.5240884 23.0511244 32.8558581 24.37664L29.8689621 36.2901813 26.0286669 24.37664C25.4099515 23.0471342 24.8410189 22.1961669 24.321869 21.8237383 23.3234685 21.1075041 21.5475334 20.9727711 20.9082734 20.9727711 20.1498383 20.9727711 18.6322595 21.2410451 17.4946777 22.2492219 17.1152712 22.5854693 16.6885717 23.2946087 16.2145794 24.37664L12.8009837 36.2901813 8.96068859 24.37664C8.28130621 23.0357281 7.71237362 22.1847609 7.25389076 21.8237383 6.06328195 20.8862188 4.51605399 20.8765092 3.84029512 20.9727711 3.09502689 21.0789346 1.38113235 21.6176348.426699456 23.1001892.152788069 23.5256654.0105549169 24.3766327 0 25.6530909zM48.2913669 24.3400747L48.2913669 53.7419555C48.7526299 55.1051893 49.1818319 55.9574176 49.5789731 56.2986405 50.7221614 57.2808655 52.3228505 57.1508691 53.0125899 57.1508691 53.564792 57.1508691 56.0325677 56.9281999 56.8754088 56.2986405 57.0147728 56.1945427 57.3009076 55.3423143 57.7338129 53.7419555L57.7338129 24.3400747C56.9319329 23.2289419 56.3596635 22.5187516 56.0170047 22.2095037 54.7325118 21.0502559 53.7619106 20.9311611 53.0125899 20.9311611 52.2384674 20.9311611 50.9242816 20.972246 49.5789731 22.2095037 49.2603232 22.5025607 48.8311211 23.2127511 48.2913669 24.3400747zM63.9388489 53.3048031L63.9388489 33.7102304C64.3003055 32.2353947 64.5850775 31.2414671 64.7931656 30.7284475 65.613821 28.7052038 66.4265023 27.699882 66.9289567 26.8947266 67.8691546 25.3881124 69.0935614 24.598948 69.9190648 23.9129439 70.9335399 23.0699016 72.6547524 21.8930815 74.6178057 21.35713 75.5523772 21.101974 77.1186243 20.9599843 79.3165468 20.9311611 81.5202933 20.9634148 83.0865405 21.1054045 84.0152879 21.35713 85.9972953 21.8943288 87.6911385 23.0629086 88.7140287 23.9129439 89.6611419 24.7000074 91.035446 25.8844753 92.131295 27.7466646 92.4710501 28.3240143 92.9247966 29.1439269 93.4127698 30.3024786 93.6744394 30.9237376 94.1015978 32.0596548 94.6942446 33.7102304L94.6942446 53.3048031C94.520696 53.9133046 94.3783101 54.3392734 94.2670864 54.58271 93.98698 55.195782 93.631555 55.6389907 93.4127698 55.8606169 93.0592727 56.2187042 92.9190831 56.5270318 92.5584531 56.7125549 91.6359567 57.1871262 90.5255307 57.1385238 89.9955035 57.1385238 89.5872132 57.1385238 88.8112702 57.1033326 88.2868705 56.7125549 88.062372 56.5452609 87.8597123 56.7125549 87.0053957 55.8606169 86.4358513 55.2926584 86.0086932 54.4407204 85.7239209 53.3048031L85.2967627 36.2660442C85.1567922 33.9055114 84.7296337 32.3436252 84.0152879 31.5803855 83.3009417 30.8171455 81.7346946 30.249187 79.3165468 29.8765095 76.8528496 30.2978536 75.2866028 30.8658123 74.6178057 31.5803855 73.9490088 32.2949584 73.5218506 33.8568448 73.3363308 36.2660442L73.3363308 53.3048031C72.9678545 54.516439 72.6830825 55.2263874 72.4820145 55.434648 72.4180611 55.500889 71.7364238 56.2005217 71.6276978 56.286586 70.2776871 57.3552131 68.9959937 57.1385238 68.2104316 57.1385238 67.4875298 57.1385238 66.6540998 57.1632851 65.6474819 56.286586 65.5224399 56.1776826 65.3492274 55.9970796 65.2203237 55.8606169 64.9803545 55.6065757 64.6050807 54.9053697 64.3660071 54.58271 64.2142085 54.3778387 64.0718226 53.9518699 63.9388489 53.3048031z"/>
      <path fill="#FFF" d="M112.217953 21.1698346L100.629496 37.8445248 100.629496 41.264974 111.788751 56.6569956C114.655973 57.0713487 116.515849 56.92883 117.368378 56.2294395 118.220907 55.5300491 118.793177 53.6773057 119.085186 50.6712094L110.930347 39.5547494 119.514388 26.7280646C119.25727 23.698591 118.685 21.8458476 117.79758 21.1698346 116.91016 20.4938215 115.050284 20.4938215 112.217953 21.1698346zM91.9278569.00241387344L83.3633094 5.15367864 83.3633094 7.72931101 91.9278569 12.8805758C93.1582665 12.8906382 93.8719786 12.7475475 94.0689939 12.4513037 94.2660092 12.1550599 94.1232666 11.4396065 93.6407665 10.3049434L87.6455833 6.87076688 94.0689939 2.57804625C94.0362548 1.45117431 93.8935122.735720872 93.6407665.431685936 93.3880206.127651002 92.8170507-.015439686 91.9278569.00241387344zM47.9681463 64.401644C52.1949111 67.026647 55.3306705 68.7438072 57.3754249 69.5531249 62.3747522 71.5318677 67.2742832 72.1288653 70.6311359 72.1288653 74.104838 72.1288653 80.0888277 71.2427318 86.0248646 69.1238348 88.2379511 68.3338629 91.5162453 66.7597994 95.859747 64.401644 97.1340413 64.4814609 97.9892485 64.7676542 98.4253683 65.2602242 98.8614882 65.7527941 99.1465573 66.754471 99.2805755 68.2652547 93.8216431 71.3511743 89.8306764 73.3545282 87.3076754 74.2753157 80.6027371 76.7223317 74.5781984 77.2493879 70.6311359 77.2803462 66.8221184 77.3102214 61.3915438 76.8895607 55.6650108 74.7046057 53.2937196 73.7998411 49.587822 71.7964876 44.5473178 68.6945447 44.4432674 66.9630749 44.585802 65.8183014 44.9749214 65.2602242 45.3640406 64.7021469 46.3617823 64.4159536 47.9681463 64.401644z"/>
    </g>
  </g>
</svg>
