<svg xmlns="http://www.w3.org/2000/svg" width="150" height="150" viewBox="0 0 150 150">
  <path d="M128.481013 17.160796L110.468354 26.3224876 23.4873418 70.5513433C23.1932186 68.3118456 23.0452273 66.0556296 23.0443038 63.7969652 23.0685036 45.4598942 32.8151748 28.5060113 48.6627171 19.2349226 64.5102594 9.96383389 84.08998 9.76126595 100.126582 18.7024876L110.436709 13.458209 111.974684 12.6747264C92.7169138-1.2792148 67.2465368-3.27059018 46.0475575 7.52028143 24.8485782 18.311153 11.5038723 40.060488 11.5063291 63.8159204 11.5063291 65.4250083 11.5675105 67.0277778 11.6898734 68.6242289 12.0402959 73.2469755 9.57437604 77.6272934 5.43670886 79.73199L0 82.4994527 0 95.4079602 16.0063291 87.2635323 16.0063291 87.2635323 21.1898734 84.6224378 26.2974684 82.0255721 26.2974684 82.0255721 117.993671 35.3830846 128.297468 30.1451244 149.594937 19.3090547 149.594937 6.40686567 128.481013 17.160796zM149.594937 32.2238806L31.5063291 92.2487562 21.2025316 97.4993532 0 108.284876 0 121.180746 21.056962 110.471045 39.0696203 101.309353 126.139241 57.0173134C126.433577 59.2716113 126.581565 61.542553 126.582278 63.8159204 126.570881 82.1749432 116.812958 99.1524698 100.941895 108.426879 85.0708329 117.701289 65.4647629 117.882896 49.4240506 108.90408L48.7911392 109.238955 37.6139241 114.925522C56.8671666 128.879812 82.3329724 130.875934 103.531847 120.092461 124.730722 109.308988 138.080896 87.5678987 138.088608 63.8159204 138.088608 62.1920896 138.025316 60.5682587 137.905063 58.9633831 137.555222 54.342463 140.017921 49.9634342 144.151899 47.8556219L149.594937 45.0881592 149.594937 32.2238806z" transform="translate(0 12)"/>
</svg>
