<svg xmlns="http://www.w3.org/2000/svg" width="150" height="150" viewBox="0 0 150 150">
  <g fill="none">
    <path fill="#FFF" d="M149.961672,74.9824328 C149.961672,116.392734 116.39473,149.964466 74.9816343,149.964466 C33.5685387,149.964466 0.0015970189,116.392734 0.0015970189,74.9824328 C0.0015970189,33.572132 33.5693372,0 74.9816343,0 C116.393931,0 149.961672,33.568938 149.961672,74.9824328 Z"/>
    <path fill="#F26822" d="M74.9816343,0 C33.5833112,0 -0.0431195102,33.6196433 0.00952024974,74.9800373 C0.0199627362,83.2549907 1.3394996,91.2149321 3.81607666,98.6606335 L26.2494011,98.6606335 L26.2494011,35.5835773 L74.9816343,84.3154112 L123.711472,35.5835773 L123.711472,98.6618312 L146.149587,98.6618312 C148.629758,91.2165291 149.942507,83.2565877 149.957391,74.981235 C150.027948,33.5777216 116.384349,0.00998136811 74.9816343,0.00998136811 L74.9816343,0 Z"/>
    <path fill="#4D4D4D" d="M63.7745542,95.5184988 L42.5074528,74.2501996 L42.5074528,113.941709 L26.2478041,113.941709 L10.9048443,113.944504 C24.0654778,135.536199 47.8498802,149.979638 74.9816343,149.979638 C102.113388,149.979638 125.898989,135.533005 139.062018,113.94131 L107.451025,113.94131 L107.451025,74.2501996 L86.1827256,95.5184988 L74.9792388,106.721986 L63.7753527,95.5184988 L63.7753527,95.5184988 L63.7745542,95.5184988 Z"/>
  </g>
</svg>
