<svg xmlns="http://www.w3.org/2000/svg" width="150" height="150" viewBox="0 0 150 150">
  <path fill="#2C7DF7" d="M71.0468376,149.906107 C60.3596011,149.906107 52.5590028,147.32936 47.6450427,142.176286 C43.0929327,137.814285 40.4513013,131.82586 40.2976068,125.520075 C40.2422793,123.604386 40.6858379,121.707245 41.5847009,120.015056 C42.4231025,118.552915 43.6342245,117.339714 45.094359,116.499373 C48.535103,114.781721 52.5821619,114.781721 56.022906,116.499373 C57.4804378,117.336437 58.6859301,118.55083 59.5128205,120.015056 C60.4376438,121.699044 60.8977948,123.599142 60.8459829,125.520075 C60.9414534,127.81417 60.2840168,130.07648 58.9741026,131.961418 C57.8821995,133.499988 56.3216163,134.643017 54.5261538,135.21926 C56.2819806,137.456718 58.7662752,139.006864 61.5464103,139.599749 C64.6569097,140.503973 67.8783402,140.968941 71.1173504,140.981179 C75.4055898,141.018632 79.6055662,139.761654 83.1694017,137.374216 C86.866461,134.759923 89.6235637,131.022905 91.0320513,126.717064 C92.8175254,121.592366 93.6888533,116.193358 93.6062393,110.766625 C93.7502538,105.108961 92.7965458,99.4770451 90.7979487,94.1828733 C89.294707,89.9485358 86.4412218,86.326921 82.6776923,83.8767252 C79.1795282,81.6610478 75.1187814,80.4985158 70.9791453,80.5276035 C67.3719341,80.8334862 63.8936981,82.0153825 60.8459829,83.9708281 L53.3321368,87.7415307 L53.3321368,83.9708281 L87.1002564,38.6292346 L40.2976068,38.6292346 L40.2976068,85.6806775 C40.1653632,89.076075 41.0627524,92.4320534 42.8717949,95.3074028 C44.6520203,97.8558479 47.6346542,99.286234 50.7344444,99.0781054 C53.550381,99.0210804 56.2736034,98.060502 58.5030769,96.3378294 C61.0302924,94.484092 63.2293878,92.2196923 65.0090598,89.6386449 C65.1692347,89.1860804 65.4646512,88.7938035 65.8552137,88.5150565 C66.1686985,88.2438186 66.5690421,88.0942206 66.9834188,88.0934755 C67.7964916,88.1677999 68.5658633,88.4952458 69.1834188,89.0297992 C69.9655387,89.9046312 70.3912845,91.0413249 70.3764957,92.2151819 C70.2861422,93.0041135 70.145456,93.7864514 69.9552991,94.5574028 C68.2927019,98.5852874 65.5058148,102.048389 61.9281197,104.532309 C58.6052799,106.782841 54.6806786,107.976121 50.6686325,107.955772 C40.5354701,107.955772 33.5155271,105.957026 29.6088034,101.959536 C25.552331,97.496215 23.460697,91.586951 23.8051282,85.5630489 L23.8051282,38.6292346 L0,38.6292346 L0,29.8870765 L23.9160684,29.8870765 L23.9160684,9.95420326 L18.4405128,4.46988708 L18.4405128,0 L34.3294017,0 L40.2976068,3.09222083 L40.2976068,29.8870765 L102.123248,29.6988708 L108.278547,35.8823714 L70.3680342,74.0119197 C72.6583172,73.0899882 75.0703037,72.5060947 77.5283761,72.2785445 C82.3934716,72.4918099 87.1401523,73.8479985 91.3846154,76.2374529 C96.2996499,78.5757903 100.441803,82.2756147 103.320085,86.8983689 C105.899046,90.811649 107.724548,95.172915 108.702564,99.7575282 C109.506618,103.373832 109.937907,107.063156 109.989948,110.767566 C110.01471,117.83717 108.413294,124.81764 105.309487,131.16813 C102.365965,137.317642 97.4119395,142.276189 91.2680342,145.222396 C84.9789426,148.324244 78.0579816,149.927231 71.0468376,149.906107 L71.0468376,149.906107 Z" transform="translate(20)"/>
</svg>
