<svg xmlns="http://www.w3.org/2000/svg" width="150" height="150" viewBox="0 0 150 150">
  <defs>
    <linearGradient id="zec-a" x1="15.781%" x2="84.806%" y1="84.218%" y2="15.193%">
      <stop offset="0%" stop-color="#CF8724"/>
      <stop offset="100%" stop-color="#FDCE58"/>
    </linearGradient>
  </defs>
  <g fill="none">
    <path fill="url(#zec-a)" d="M74.9588474,149.891082 C33.7032505,149.891082 0.026612089,116.18015 0.026612089,74.9588474 C0.026612089,33.7032505 33.7375444,0.026612089 74.9588474,0.026612089 C116.214444,0.026612089 149.891082,33.7375444 149.891082,74.9588474 C149.891082,116.214444 116.214444,149.891082 74.9588474,149.891082 Z" transform="translate(.009 .009)"/>
    <path fill="#FFF" d="M28.5553202,81.9624908 L67.7875752,81.9624908 L67.7875752,101.578618 L44.639173,101.578618 L44.639173,118.17688 L24.5086366,118.17688 L24.5086366,102.093027 L0.36571046,102.093027 C0.36571046,95.5428868 -0.628813485,89.0270403 0.880119401,82.9913083 C1.39452834,79.973443 4.89250911,76.955577 7.43025985,73.937711 C14.9749243,64.8841139 22.5195887,55.8305166 30.578662,46.7769193 C33.5965278,43.2446447 36.6143936,40.2267789 40.1466683,36.2143892 L2.42334621,36.2143892 L2.42334621,16.5982617 L24.5429305,16.5982617 L24.5429305,0 L44.159058,0 L44.159058,16.0838528 L68.3019841,16.0838528 C68.3019841,22.6339932 69.2965081,29.1498398 67.7875752,35.1855713 C67.2731662,38.2034371 63.7751854,41.2213028 61.2374347,44.2391686 C53.6927703,53.2927659 46.1481059,62.3463632 38.0890325,71.3999605 C35.0711668,74.9322349 32.053301,78.4302161 28.5553202,81.9624908 L28.5553202,81.9624908 Z" transform="translate(43.37 16.584)"/>
  </g>
</svg>
