<svg xmlns="http://www.w3.org/2000/svg" width="150" height="150" viewBox="0 0 150 150">
  <g fill="none" transform="translate(22)">
    <polygon fill="#49C1BF" points="105.453 61.854 83.979 71.465 27.013 100.572 83.979 128.066 83.979 82.62 105.453 72.906 105.453 140.046 83.979 149.657 .103 109.359 .103 87.941 58.163 59.348 .103 31.339 .103 9.611 21.918 0 105.453 40.366" transform="translate(.237)"/>
    <polygon fill="#077A8F" points=".103 9.611 83.979 49.977 105.453 40.366 21.918 0" transform="translate(.237)"/>
    <polygon fill="#298E97" points=".205 9.851 21.679 .24 21.679 21.728 .205 31.339 .205 9.851" transform="translate(84.012 40.035)"/>
    <polygon fill="#49C1BF" points=".103 0 .103 21.728 58.163 49.737 .103 78.33 .103 99.748 83.979 140.046 83.979 118.49 27.013 90.961 83.979 61.854 83.979 40.366" transform="translate(.237 9.63)"/>
    <polygon fill="#298E97" points=".205 76.888 21.679 67.277 21.679 .137 .205 9.851" transform="translate(84.012 72.628)"/>
  </g>
</svg>
