<svg xmlns="http://www.w3.org/2000/svg" width="150" height="149" viewBox="0 0 150 149">
  <path fill="#231815" d="M115.449438,100.833333 C120.842697,108 126.404494,115.333333 131.966292,122.666667 C120.842697,135.666667 107.022472,144 90.3370787,147.5 C71.7977528,151.333333 54.2696629,148.5 37.247191,139.166667 C52.4157303,128 67.247191,117 82.247191,106 C85.6179775,109.166667 88.8202247,112.333333 92.0224719,115.333333 C95.5617978,118.666667 94.2134831,118.833333 98.7640449,116.333333 C105,112.833333 110.224719,108 114.269663,102.166667 C114.438202,101.833333 114.775281,101.5 114.94382,101.166667 C114.775281,101.166667 114.94382,101.166667 115.449438,100.833333 L115.449438,100.833333 Z M49.2134831,115.5 C45,118.666667 41.1235955,121.5 37.247191,124.5 C34.3820225,126.666667 31.5168539,128.666667 28.6516854,130.833333 C27.4719101,131.833333 26.6292135,131.833333 25.2808989,130.666667 C12.4719101,119.333333 4.38202247,105.333333 1.34831461,88.6666667 C-1.68539326,71.8333333 1.01123596,55.8333333 9.1011236,40.6666667 C9.26966292,40.3333333 9.60674157,39.8333333 9.7752809,39.5 C9.7752809,39.3333333 9.94382022,39.3333333 10.2808989,39.1666667 C21.4044944,53.6666667 32.6966292,68.1666667 43.8202247,82.6666667 C43.4831461,83.1666667 43.3146067,83.5 42.9775281,83.8333333 C39.6067416,87.3333333 36.2359551,90.8333333 32.6966292,94.1666667 C31.6853933,95.1666667 31.5168539,96 32.1910112,97.1666667 C35.7303371,103.833333 40.6179775,109.333333 46.6853933,113.833333 C47.5280899,114.333333 48.2022472,114.833333 49.2134831,115.5 L49.2134831,115.5 Z M112.078652,12 C106.685393,15.8333333 101.292135,19.6666667 95.8988764,23.3333333 C86.6292135,29.8333333 77.3595506,36.5 68.258427,43 C67.0786517,43.8333333 66.2359551,44 65.2247191,42.8333333 C62.1910112,39.6666667 58.988764,36.8333333 55.9550562,33.6666667 C55.1123596,32.8333333 54.2696629,32.6666667 53.0898876,33.1666667 C45.8426966,36.8333333 40.1123596,42 35.3932584,48.5 C35.0561798,48.8333333 34.7191011,49.3333333 34.3820225,49.8333333 C31.6853933,46.3333333 29.1573034,43.1666667 26.6292135,39.8333333 C23.9325843,36.3333333 21.4044944,32.8333333 18.8764045,29.5 C18.0337079,28.3333333 17.8651685,27.5 19.0449438,26.3333333 C32.0224719,12.1666667 48.0337079,3.83333333 67.247191,1.83333333 C82.4157303,0.166666667 96.9101124,3.16666667 110.393258,10.3333333 C110.898876,10.6666667 111.404494,10.8333333 111.910112,11.1666667 C111.910112,11.6666667 111.910112,11.8333333 112.078652,12 L112.078652,12 Z M139.550562,112 C136.011236,107.5 132.808989,103.333333 129.606742,99.1666667 C122.191011,89.5 114.775281,79.6666667 107.191011,70 C106.179775,68.6666667 106.179775,67.8333333 107.359551,66.6666667 C110.561798,63.5 113.595506,60.3333333 116.797753,57.1666667 C117.640449,56.3333333 117.977528,55.5 117.303371,54.3333333 C113.595506,47.3333333 108.539326,41.5 101.966292,36.8333333 C101.460674,36.5 100.955056,36 100.280899,35.6666667 C100.786517,35.1666667 101.292135,34.8333333 101.629213,34.5 C108.033708,29.6666667 114.438202,25 120.842697,20.1666667 C121.853933,19.3333333 122.696629,19 123.876404,20.1666667 C139.88764,34.5 148.483146,52.3333333 149.325843,73.8333333 C149.662921,86.3333333 146.797753,98.1666667 141.067416,109.333333 C140.561798,110 140.05618,110.833333 139.550562,112 L139.550562,112 Z" transform="translate(0 -1)"/>
</svg>
